<?xml version="1.0" encoding="UTF-8"?>
<!DOCTYPE svg PUBLIC "-//W3C//DTD SVG 1.1//EN" "http://www.w3.org/Graphics/SVG/1.1/DTD/svg11.dtd">
<!-- Creator: CorelDRAW -->
<svg xmlns="http://www.w3.org/2000/svg" xml:space="preserve" width="2048px" height="2048px" style="shape-rendering:geometricPrecision; text-rendering:geometricPrecision; image-rendering:optimizeQuality; fill-rule:evenodd; clip-rule:evenodd"
viewBox="0 0 2048 2048"
 xmlns:xlink="http://www.w3.org/1999/xlink">
 <defs>
  <style type="text/css">
   <![CDATA[
    .fil1 {fill:none}
    .fil0 {fill:#424242;fill-rule:nonzero}
   ]]>
  </style>
 </defs>
 <g id="Layer_x0020_1">
  <metadata id="CorelCorpID_0Corel-Layer"/>
  <path class="fil0" d="M531.426 482.78c38.5441,0 73.4422,15.626 98.7024,40.8851 25.2591,25.2603 40.8851,60.1595 40.8851,98.7036 0,38.5441 -15.626,73.4422 -40.8851,98.7024 -25.2603,25.2591 -60.1583,40.8851 -98.7024,40.8851 -38.5441,0 -73.4434,-15.626 -98.7036,-40.8851 -25.2591,-25.2603 -40.8851,-60.1583 -40.8851,-98.7024 0,-38.5453 15.626,-73.4434 40.8851,-98.7036 25.2603,-25.2591 60.1583,-40.8851 98.7036,-40.8851zm12.3343 78.7028c0,-8.83583 -7.16457,-16.0004 -16.0004,-16.0004 -8.83583,0 -16.0004,7.16457 -16.0004,16.0004l0 69.091c0,8.83583 7.16457,16.0004 16.0004,16.0004l55.5851 0c8.83583,0 16.0004,-7.16457 16.0004,-16.0004 0,-8.83583 -7.16457,-16.0004 -16.0004,-16.0004l-39.5847 0 0 -53.0906z"/>
  <path class="fil0" d="M709.249 829.314l194.347 -150.615c0.499607,-0.452363 1.01457,-0.894095 1.54961,-1.32047l0.0590552 0.0732284 0.0318898 -0.0248032 -0.0200788 -0.0259843c43.6099,-34.7622 88.6938,-52.3926 134.343,-52.5307 45.4241,-0.137008 89.8595,17.1508 132.382,52.2189l181.927 150.044 156.137 -36.228c0.987402,-0.298819 1.99606,-0.552756 3.02835,-0.758268l6.25276 31.3831 -6.2504 -31.3748c37.6618,-7.50355 66.1938,8.80276 82.4044,33.717 6.03071,9.2693 10.1752,19.5662 12.2658,30.0614 2.09055,10.4965 2.21221,21.5788 0.198425,32.4189 -5.38111,28.9902 -25.1858,54.7996 -62.204,62.5607l-0.129921 0.0318898 -0.0011811 -0.00354331 -0.864568 0.179528 -0.0153543 -0.0744095 -197.147 44.9658c-38.2701,8.67402 -89.2678,-28.7457 -130.141,-64.3819l0 782.845c0,21.9567 -8.90434,41.8382 -23.2949,56.2311 -14.3929,14.3906 -34.2744,23.2949 -56.2311,23.2949 -21.9579,0 -41.8382,-8.90316 -56.2311,-23.2961 -14.3917,-14.3906 -23.2961,-34.2733 -23.2961,-56.23l0 -386.322c-7.5626,-0.941339 -14.7343,-1.41378 -21.8292,-1.41378 -7.09489,0 -14.2689,0.47126 -21.8292,1.41378l0 386.322c0,21.9567 -8.90434,41.8382 -23.2949,56.2311 -14.3929,14.3906 -34.2768,23.2949 -56.2311,23.2949 -21.9579,0 -41.8382,-8.90316 -56.2311,-23.2961 -14.3917,-14.3906 -23.2961,-34.2733 -23.2961,-56.23l0 -789.72 -67.0914 53.1804c-9.68387,9.33308 -21.3685,15.8138 -33.8847,19.4232 -12.1559,3.5067 -24.9189,4.12087 -37.1988,1.84488 -1.40551,-0.174803 -2.81575,-0.441733 -4.22244,-0.811418l8.12835 -30.9508 -8.12481 30.8752 -179.536 -47.1485 -0.212599 -0.0389764 0.0011811 -0.00826772c-37.6607,-7.50355 -57.7689,-33.5185 -63.1985,-62.7686 -2.01142,-10.8425 -1.89095,-21.9236 0.199606,-32.4189 2.09055,-10.4953 6.23504,-20.7921 12.2658,-30.0614 16.05,-24.6662 44.1768,-40.8898 81.2847,-33.9296 1.09252,0.178347 2.18504,0.414567 3.27638,0.712205l-0.00236221 0.00826772 141.928 38.6516zm347.346 5.46969c0,-4.2 -0.533859,-8.19095 -1.4941,-11.7992l0 -130.626c0,-8.83583 -7.16457,-16.0004 -16.0004,-16.0004 -8.83583,0 -16.0004,7.16457 -16.0004,16.0004l0 130.626c-0.960237,3.60827 -1.4941,7.59922 -1.4941,11.7992l-15.2173 206.92 32.7118 32.7118 32.7118 -32.7118 -15.2173 -206.92z"/>
  <path class="fil0" d="M1049.65 255.999c45.3721,0 86.4532,18.3945 116.191,48.1311 29.7366,29.7366 48.1323,70.819 48.1323,116.19 0,45.3721 -18.3957,86.4544 -48.1323,116.191 -29.7378,29.7366 -70.819,48.1311 -116.191,48.1311 -45.3733,0 -86.4544,-18.3945 -116.19,-48.1311 -29.7366,-29.7366 -48.1311,-70.819 -48.1311,-116.191 0,-45.3721 18.3945,-86.4532 48.1311,-116.19 29.7355,-29.7366 70.8166,-48.1311 116.19,-48.1311z"/>
  <path class="fil0" d="M1637.25 566.618c-18.3815,-18.0992 -46.6926,-28.0795 -83.7898,-32.2429 -3.09803,-0.129921 -6.21497,-0.915355 -9.15119,-2.42599 -10.8284,-5.56772 -15.091,-18.8658 -9.52324,-29.6941l19.6087 10.0866 -19.5532 -10.0784 21.189 -41.1945 -30.9484 12.9154c-3.67441,1.80591 -7.89331,2.61024 -12.261,2.10236l0.00354331 -0.0295276 -35.6847 -4.1563 18.8386 31.3902c1.93347,2.6941 3.28819,5.86654 3.84567,9.36497 1.92166,12.0236 -6.27166,23.3327 -18.2965,25.2532l-3.47835 -21.7748 3.44646 21.7063c-36.5882,5.8441 -65.8052,15.6024 -84.9863,33.163 -18.1465,16.6134 -28.2177,41.8524 -28.2177,79.852 0,36.2233 15.3673,65.5347 40.0949,86.1083 27.7051,23.0528 67.252,35.752 110.823,35.752 43.2237,0 81.1902,-12.1677 107.478,-34.7292 23.7567,-20.3882 38.1603,-49.8922 38.1603,-87.1312 0,-39.1949 -9.49843,-66.4146 -27.5977,-84.2375zm-123.926 108.856l0 -31.7776c-9.91891,-2.84882 -17.198,-7.12323 -21.8315,-12.8717 -4.61103,-5.74961 -6.94134,-12.7169 -6.94134,-20.9008 0,-8.28898 2.61496,-15.2551 7.84607,-20.9008 5.25827,-5.64567 12.2244,-8.88308 20.9268,-9.76418l0 -7.51064 10.9807 0 0 7.51064c8.05512,0.98504 14.452,3.70394 19.2177,8.23701 4.73859,4.53189 7.7693,10.5921 9.09095,18.1807l-19.1906 2.51103c-1.16575,-5.98111 -4.19528,-10.0228 -9.11812,-12.1465l0 29.6563c12.1476,3.28819 20.4343,7.56142 24.8126,12.7937 4.40197,5.23111 6.60355,11.9386 6.60355,20.1484 0,9.14174 -2.77205,16.8602 -8.28662,23.1272 -5.54292,6.2941 -13.2614,10.128 -23.1295,11.5524l0 14.1921 -10.9807 0 0 -13.8307c-8.75316,-1.06063 -15.8764,-4.32402 -21.3402,-9.79017 -5.46615,-5.4378 -8.93623,-13.1551 -10.4634,-23.1272l19.813 -2.12362c0.801969,4.03937 2.33032,7.53662 4.5567,10.4634 2.20276,2.92796 4.69016,5.05158 7.43386,6.37087zm0 -79.6654c-3.00473,1.01102 -5.36103,2.74488 -7.14686,5.15315 -1.76221,2.43543 -2.64331,5.12835 -2.64331,8.05512 0,2.66693 0.804331,5.18032 2.40945,7.45985 1.63228,2.30433 4.09134,4.16929 7.38071,5.59371l0 -26.2618zm10.9807 80.7284c3.80788,-0.699213 6.88938,-2.46142 9.27166,-5.25827 2.38229,-2.82284 3.5752,-6.11221 3.5752,-9.91891 0,-3.39331 -1.01102,-6.29292 -3.00355,-8.75434 -1.99488,-2.45906 -5.28426,-4.35237 -9.84331,-5.64567l0 29.5772z"/>
 </g>
 <rect class="fil1" width="2048" height="2048"/>
</svg>
