<svg width="39" height="39" viewBox="0 0 39 39" fill="none" xmlns="http://www.w3.org/2000/svg">
<rect x="6.67529" y="6.98145" width="25.4178" height="25.4177" fill="white"/>
<path d="M19.4497 10.3378C14.4131 10.3378 10.3186 14.4323 10.3171 19.4673C10.3155 21.5224 10.9187 23.0614 11.9305 24.6717L11.009 28.041L14.4638 27.1338C16.0123 28.0521 17.4896 28.6031 19.4434 28.6047C24.4752 28.6047 28.5745 24.5086 28.5761 19.4752C28.5776 14.4291 24.499 10.3393 19.4497 10.3378ZM24.8204 23.3908C24.5924 24.032 23.4951 24.6163 22.9679 24.6954C22.4945 24.7667 21.896 24.7952 21.2389 24.5862C20.8399 24.4595 20.3285 24.2901 19.6746 24.0083C16.9211 22.8192 15.1241 20.0468 14.9863 19.8647C14.8486 19.681 13.8653 18.3763 13.8653 17.0258C13.8653 15.6752 14.5746 15.0102 14.8264 14.7363C15.0781 14.4623 15.3742 14.3927 15.5579 14.3927L16.0836 14.4022C16.2514 14.4101 16.4778 14.3388 16.7011 14.874C16.9291 15.4234 17.4785 16.774 17.5466 16.9118C17.6146 17.0495 17.6606 17.2094 17.5687 17.3931C17.4769 17.5768 17.431 17.6908 17.2948 17.8507L16.8831 18.332C16.7454 18.4682 16.6029 18.617 16.7628 18.8925C16.9227 19.168 17.4737 20.0658 18.2891 20.7941C19.3373 21.7298 20.2224 22.0196 20.4963 22.1558C20.7702 22.2919 20.9301 22.2698 21.0916 22.0877C21.2516 21.904 21.7772 21.2865 21.9609 21.011C22.1446 20.7371 22.3266 20.7814 22.5784 20.8733C22.8301 20.9651 24.1791 21.6285 24.4531 21.7663C24.727 21.904 24.9106 21.9721 24.9787 22.0861C25.05 22.2001 25.05 22.7495 24.8204 23.3908ZM19.4006 0.56543C8.90788 0.56543 0.400635 9.07268 0.400635 19.5654C0.400635 30.0582 8.90788 38.5654 19.4006 38.5654C29.8934 38.5654 38.4006 30.0582 38.4006 19.5654C38.4006 9.07268 29.8934 0.56543 19.4006 0.56543ZM19.4466 30.4588C17.6083 30.4588 15.797 29.9964 14.1931 29.1224L8.37114 30.6488L9.92914 24.9567C8.96805 23.291 8.46138 21.4005 8.46297 19.4657C8.46455 13.4094 13.3919 8.4821 19.4466 8.4821C22.3852 8.48368 25.1434 9.62685 27.216 11.7026C29.2901 13.7783 30.4317 16.5381 30.4301 19.4736C30.4286 25.5298 25.5012 30.4588 19.4466 30.4588Z" fill="#03A02A"/>
</svg>
