<svg width="779" height="205" viewBox="0 0 779 205" fill="none" xmlns="http://www.w3.org/2000/svg">
<path d="M242.623 14.3298C290.9 14.3298 330.036 53.466 330.036 101.743C330.036 150.02 290.9 189.157 242.623 189.157C212.506 189.157 185.946 173.925 170.226 150.746H85.1427V150.692L85.1027 150.753L71.545 137.195C70.2027 138.08 68.5945 138.595 66.8663 138.595C62.1663 138.595 58.3556 134.785 58.3556 130.085C58.3556 125.385 62.1663 121.575 66.8663 121.575C71.1183 121.575 74.6423 124.693 75.2755 128.767L89.9659 143.458L89.8497 143.633H165.882C164.14 140.448 162.59 137.142 161.248 133.732H138.595V75.3757H159.257C160.29 72.1065 161.51 68.9204 162.904 65.8298H138.416L121.575 82.6707L121.574 82.6697V82.6707H94.0099C92.6441 85.5458 89.7132 87.5338 86.3185 87.5339C81.6184 87.5339 77.8077 83.7233 77.8077 79.0232C77.8078 74.3232 81.6185 70.5134 86.3185 70.5134C89.7132 70.5135 92.644 72.5007 94.0099 75.3757H116.712L133.604 58.4851V58.2712H166.769C181.849 32.0139 210.171 14.3298 242.623 14.3298ZM242.421 30.3025C201.977 30.3025 169.19 62.5241 169.19 102.271C169.19 142.018 201.976 174.24 242.421 174.24C282.866 174.24 315.652 142.018 315.652 102.271C315.652 62.5241 282.866 30.3025 242.421 30.3025ZM66.8663 126.437C64.8521 126.437 63.2189 128.07 63.2189 130.085C63.2189 132.099 64.852 133.732 66.8663 133.732C68.8806 133.732 70.5138 132.099 70.5138 130.085C70.5137 128.071 68.8805 126.437 66.8663 126.437ZM133.733 133.732H87.5343L80.2404 126.437H133.733V133.732ZM145.89 126.437H158.746C156.444 118.606 155.21 110.319 155.21 101.743C155.21 95.1922 155.931 88.8098 157.297 82.6707H145.89V126.437ZM32.8253 104.554C36.2201 104.554 39.1508 106.542 40.5167 109.417H82.671L89.965 116.712H40.5167C39.1509 119.587 36.2201 121.575 32.8253 121.575C28.1253 121.575 24.3156 117.764 24.3156 113.064C24.3156 108.364 28.1253 104.554 32.8253 104.554ZM32.8253 109.417C30.8111 109.417 29.1779 111.05 29.1779 113.064C29.1779 115.079 30.811 116.712 32.8253 116.712C34.8396 116.712 36.4728 115.079 36.4728 113.064C36.4727 111.05 34.8395 109.417 32.8253 109.417ZM101.703 109.417H133.733V116.712H97.2599V116.328L96.9738 116.712L59.5724 82.6707L64.4347 75.3767L101.703 109.417ZM8.50989 87.5339C11.9046 87.5339 14.8354 89.5213 16.2013 92.3962H63.2189L70.5138 99.6912H16.2013C14.8354 102.566 11.9047 104.554 8.50989 104.554C3.81003 104.554 0.00012207 100.744 0.00012207 96.0437C0.000207487 91.3439 3.81008 87.5342 8.50989 87.5339ZM8.51086 92.3962C6.49661 92.3962 4.8635 94.0295 4.8634 96.0437C4.8634 98.058 6.49655 99.6912 8.51086 99.6912C10.525 99.6909 12.1573 98.0579 12.1573 96.0437C12.1572 94.0296 10.5249 92.3965 8.51086 92.3962ZM133.732 99.6912H97.2589L89.965 92.3962H133.732V99.6912ZM44.9825 70.5134C48.377 70.5136 51.3071 72.5009 52.673 75.3757H64.4337L59.5714 82.6707H52.673C51.3072 85.5456 48.3771 87.5338 44.9825 87.5339C40.2825 87.5339 36.4718 83.7233 36.4718 79.0232C36.4719 74.3232 40.2825 70.5134 44.9825 70.5134ZM44.9816 75.3757C42.9675 75.376 41.3352 77.0091 41.3351 79.0232C41.3351 81.0374 42.9675 82.6704 44.9816 82.6707C46.9959 82.6707 48.629 81.0375 48.629 79.0232C48.6289 77.009 46.9958 75.3757 44.9816 75.3757ZM86.3185 75.3757C84.3042 75.3757 82.6711 77.009 82.671 79.0232C82.671 81.0375 84.3042 82.6707 86.3185 82.6707C88.3102 82.6705 89.9291 81.0738 89.965 79.0906V78.9568C89.9292 76.9735 88.3103 75.3759 86.3185 75.3757ZM69.297 53.4929C73.997 53.4929 77.8076 57.3027 77.8077 62.0027C77.8077 66.7028 73.9971 70.5134 69.297 70.5134C64.597 70.5134 60.7872 66.7027 60.7872 62.0027C60.7874 57.3027 64.597 53.493 69.297 53.4929ZM69.297 58.3552C67.2828 58.3553 65.6497 59.9885 65.6495 62.0027C65.6495 64.017 67.2827 65.6501 69.297 65.6501C71.3113 65.6501 72.9445 64.017 72.9445 62.0027C72.9443 59.9885 71.3112 58.3552 69.297 58.3552ZM119.144 65.6501H77.8077V58.3552H126.438L119.144 65.6501Z" fill="url(#paint0_linear_247_2)"/>
<path d="M242.427 32.8279C278.841 32.8279 308.826 59.8591 312.713 94.6033H310.53C310.628 95.4505 310.71 96.3025 310.775 97.1589H308.599C308.666 98.0066 308.717 98.8592 308.751 99.7156H306.198V100.993H310.958C310.966 101.418 310.969 101.844 310.969 102.271C310.969 102.698 310.966 103.124 310.958 103.55H313.127C312.433 141.312 281.045 171.715 242.427 171.715C203.373 171.715 171.715 140.624 171.715 102.271C171.715 63.9187 203.373 32.8279 242.427 32.8279ZM242.427 34.1062C204.092 34.1062 173.016 64.6246 173.016 102.271C173.016 139.918 204.092 170.437 242.427 170.437C279.889 170.437 310.42 141.29 311.789 104.828H308.751C307.6 134.126 286.758 158.466 258.854 165.443C258.717 165.855 258.363 166.183 257.899 166.27L253.236 167.153C252.791 167.237 252.355 167.079 252.071 166.771C248.923 167.221 245.702 167.455 242.427 167.455C205.769 167.455 176.052 138.271 176.052 102.271C176.053 96.2675 176.879 90.4532 178.427 84.9324C178.093 84.7294 177.933 84.3218 178.061 83.9402L179.797 78.7966C179.928 78.4068 180.319 78.1724 180.719 78.2175C190.465 54.123 214.42 37.0887 242.427 37.0886C275.993 37.0886 303.74 61.5585 308.18 93.325H311.245C306.784 59.9062 277.673 34.1062 242.427 34.1062ZM242.427 34.9578C276.742 34.9578 305.168 59.7229 310.183 92.0466H308.907C303.903 60.41 276.044 36.197 242.427 36.197C205.268 36.1971 175.145 65.7794 175.145 102.271C175.145 138.763 205.268 168.345 242.427 168.345C278.274 168.345 307.574 140.813 309.596 106.105H310.86C308.836 141.497 278.971 169.585 242.427 169.585C204.571 169.585 173.884 139.447 173.884 102.271C173.884 65.0952 204.571 34.9578 242.427 34.9578ZM242.427 38.2878C214.952 38.2879 191.449 54.9897 181.871 78.6189C182.162 78.8324 182.295 79.2127 182.175 79.5701L180.439 84.7146C180.316 85.0801 179.964 85.3089 179.592 85.2986C178.081 90.7038 177.274 96.395 177.274 102.271C177.274 137.608 206.444 166.255 242.427 166.255C245.608 166.255 248.737 166.031 251.797 165.598C251.925 165.171 252.286 164.827 252.762 164.737L257.425 163.854C257.884 163.767 258.333 163.939 258.616 164.264C285.959 157.398 306.379 133.544 307.528 104.828H306.082C305.932 105.083 305.651 105.254 305.33 105.254H304.389C302.806 137.515 275.67 163.194 242.427 163.194C242.282 163.194 242.137 163.194 241.993 163.193V159.98C242.137 159.981 242.282 159.982 242.427 159.982C273.569 159.982 299.054 136.19 301.063 106.105H302.168C300.166 136.648 274.415 160.842 242.861 161.062V162.071C275.275 161.849 301.67 136.755 303.246 105.254H301.426C301.104 105.254 300.824 105.083 300.674 104.828H300.066C298.705 134.935 273.42 158.934 242.427 158.934L242.273 158.933L241.993 158.932V158.082L243.082 157.887C272.309 157.562 296.217 135.495 298.826 107.384H297.715C295.54 130.358 278.852 149.197 256.743 154.974L256.741 154.249L256.743 151.49C276.405 145.985 291.321 129.423 294.077 109.088H295.339C292.598 129.805 277.537 146.724 257.609 152.522V153.41C278.563 147.42 294.277 129.347 296.407 107.384H294.919C294.44 107.384 294.051 107.002 294.051 106.532V104.828H291.882L286.676 113.348H279.735V114.627H275.396V110.366H279.735V112.07H286.676L291.882 103.55H294.051V102.271H291.448L286.676 106.958H279.735V108.662H275.396V104.401H279.735V105.679H286.676L291.448 100.993H294.051V99.7156H279.735V101.42H275.396V97.1589H279.735V98.4373H294.051V97.1589H291.448L286.676 92.4724H279.735V94.1765H275.396V89.9167H279.735V91.1941H286.676L291.448 95.8806H294.051V94.6033H291.882L284.073 86.0818H279.735V87.7859H275.396V83.5261H279.735V84.8044H284.073L291.882 93.325H294.051V92.4724C294.051 92.0019 294.44 91.6208 294.919 91.6208H295.569C291.615 72.4906 277.219 57.0836 258.477 51.3884V52.281C276.178 57.7571 289.898 72.0509 294.295 89.9167H293.007C288.595 72.4404 275.037 58.5083 257.61 53.3035L257.609 52.4265L257.61 49.8025C277.495 55.3413 292.837 71.4884 296.896 91.6208H298.025C293.562 69.0204 275.166 51.3034 251.969 47.4382V48.5935H247.63V44.3328H247.633V43.698C274.785 45.995 296.756 66.0905 301.391 92.0466H300.272C295.91 68.0859 276.489 49.2502 251.969 45.3181V46.3796C275.77 50.2697 294.645 68.4691 299.116 91.6707C299.451 91.7888 299.69 92.103 299.69 92.4724V93.325H302.643C298.267 64.6778 273.2 42.6793 242.86 42.4714V41.3503C273.832 41.5587 299.412 64.0563 303.798 93.325H306.947C302.516 62.2233 275.317 38.2878 242.427 38.2878ZM242.427 39.2185C257.835 39.2185 271.976 44.5485 283.042 53.4343C283.464 53.2832 283.956 53.3611 284.312 53.6775L287.836 56.8035C288.203 57.129 288.328 57.619 288.2 58.0564C297.295 67.1361 303.61 78.9097 305.792 92.0466H304.594C302.425 79.2363 296.25 67.7561 287.377 58.8894C286.966 59.0174 286.499 58.9337 286.156 58.6296L282.633 55.5037C282.28 55.1907 282.15 54.7256 282.254 54.3015C271.398 45.5986 257.533 40.3787 242.427 40.3787C242.137 40.3787 241.847 40.3807 241.558 40.3845V41.3542L241.559 42.4138L241.622 42.4753C241.601 42.4756 241.579 42.4751 241.558 42.4753V43.4851C241.847 43.4811 242.137 43.4783 242.427 43.4783V44.5613C242.137 44.5613 241.847 44.563 241.558 44.5671V45.615C241.847 45.6108 242.137 45.6091 242.427 45.6091V46.6521C242.137 46.6521 241.847 46.6537 241.558 46.658V46.8894H240.962C241.544 46.9094 242.042 47.2513 242.279 47.739C242.328 47.7389 242.377 47.739 242.427 47.739V55.6238C242.427 56.4474 241.747 57.1149 240.908 57.115C240.069 57.115 239.389 56.4474 239.389 55.6238V48.3796C239.39 47.574 240.04 46.9176 240.853 46.8894H240.257V46.6921C240.04 46.7002 239.823 46.7091 239.607 46.7195V45.6755C239.823 45.6653 240.04 45.6561 240.257 45.6482V44.5994C240.04 44.6071 239.823 44.6157 239.607 44.6257V43.5427C239.823 43.5329 240.04 43.5239 240.257 43.5164V42.5076C240.233 42.5084 240.208 42.5087 240.184 42.5095L240.257 42.4158V40.4148C206.455 41.5382 179.403 68.8024 179.403 102.271C179.403 135.022 205.305 161.831 238.089 164.019V164.047H238.509C238.801 164.064 239.095 164.08 239.389 164.094V157.655H239.987C239.173 157.627 238.522 156.971 238.522 156.165V148.922C238.522 148.098 239.202 147.429 240.041 147.429C240.879 147.429 241.559 148.098 241.559 148.922V156.165C241.559 156.971 240.908 157.627 240.094 157.655H240.691V164.141C241.268 164.157 241.846 164.164 242.427 164.164C275.922 164.164 303.315 138.502 305.331 106.105H306.514C304.496 139.143 276.575 165.324 242.427 165.324C241.846 165.324 241.268 165.317 240.691 165.302V165.325H239.389V165.255C205.34 163.697 178.221 136.095 178.221 102.271C178.222 68.1614 205.802 40.3776 240.257 39.2537V39.2195H241.558V39.2244C241.847 39.2206 242.137 39.2185 242.427 39.2185ZM238.956 42.5652C206.94 44.3319 181.533 70.3878 181.533 102.271C181.533 133.576 206.027 159.263 237.22 161.857V160.844C206.595 158.254 182.56 133.019 182.56 102.271C182.56 74.0386 202.824 50.4541 229.847 44.7791V44.7576H229.947C231.342 44.4671 232.755 44.2243 234.184 44.031L234.186 49.0193H229.847V48.0291C228.819 48.2581 227.801 48.5144 226.795 48.7976L224.64 49.2302V49.45C202.075 56.7743 185.791 77.6553 185.791 102.271C185.791 126.571 201.658 147.231 223.772 154.803V155.312L233.316 157.23L238.089 158.082V158.776C208.249 156.598 184.729 132.132 184.729 102.271C184.729 75.2205 204.031 52.5973 229.847 46.9597V45.8865C203.437 51.5428 183.662 74.6389 183.662 102.271C183.662 132.711 207.659 157.646 238.089 159.827V160.912L238.088 161.924L238.089 163.048C205.851 160.861 180.391 134.486 180.391 102.271C180.391 69.7684 206.309 43.2102 238.956 41.4421V42.5652ZM224.64 51.948L224.637 51.949V52.8523L224.64 52.8513V54.156C207.652 60.2141 194.781 74.7027 191.272 92.4724H192.208C195.682 75.2041 208.161 61.114 224.64 55.1169V56.3757L224.637 56.3767V57.3972L224.64 57.3962V58.6101C211.511 63.773 201.253 74.4815 196.87 87.7859H210.324C210.324 87.3155 210.713 86.9343 211.192 86.9343H219.868C220.347 86.9343 220.736 87.3155 220.736 87.7859H227.677V89.0642H220.736C220.736 89.5348 220.347 89.9167 219.868 89.9167H211.192C210.713 89.9167 210.324 89.5348 210.324 89.0642H195.273C199.396 74.8419 210.01 63.3048 223.769 57.739V56.7107C208.388 62.7911 196.796 76.1657 193.432 92.4724H210.324C210.324 92.0019 210.713 91.6208 211.192 91.6208H219.868C220.347 91.6208 220.736 92.0019 220.736 92.4724H227.677V93.7507H220.736C220.736 94.2213 220.347 94.6033 219.868 94.6033H211.192C210.713 94.6033 210.324 94.2213 210.324 93.7507H189.769C192.888 75.0229 206.115 59.6332 223.769 53.1619V52.2527C204.57 59.1615 190.457 76.4274 188.446 97.1589H210.324C210.324 96.6884 210.713 96.3074 211.192 96.3074H219.868C220.347 96.3074 220.736 96.6884 220.736 97.1589H227.677V98.4373H220.736C220.736 98.9078 220.347 99.2888 219.868 99.2888H211.192C210.713 99.2888 210.324 98.9078 210.324 98.4373H188.338C188.246 99.7035 188.2 100.982 188.2 102.271C188.2 124.925 202.603 144.274 222.906 151.97V151.056C203.092 143.404 189.067 124.446 189.067 102.271C189.067 102.129 189.068 101.987 189.069 101.845H210.324C210.324 101.375 210.713 100.993 211.192 100.993H219.868C220.347 100.993 220.736 101.375 220.736 101.845H227.677V103.124H220.736C220.736 103.594 220.347 103.975 219.868 103.975H211.192C210.713 103.975 210.324 103.594 210.324 103.124H192.443C192.789 123.07 205.248 140.119 222.906 147.481V146.445C206.173 139.303 194.289 123.26 193.453 104.401H194.602C195.445 122.949 207.231 138.702 223.772 145.582L223.773 148.285L223.772 149.101C204.98 141.876 191.598 124.057 191.244 103.124H190.325C190.681 124.563 204.463 142.796 223.772 150.069V153.65C202.281 146.124 186.898 125.962 186.898 102.271C186.898 78.2631 202.696 57.8784 224.64 50.5964V51.948ZM235.92 67.0828H245.464V51.573H255.008V67.0828H272.028V108.918C272.028 122.82 265.554 133.951 254.139 138.856V153.395H244.595V141.323C243.128 141.488 241.609 141.572 240.04 141.572C238.33 141.572 236.665 141.477 235.052 141.29V153.395H226.376V139.193C215.273 134.898 208.155 124.867 208.155 109.753H221.657C221.657 122.271 227.681 128.635 240.04 128.635C252.503 128.635 258.319 119.976 258.319 108.918V79.9148H220.242V67.0828H227.243V51.573H235.92V67.0828ZM293.15 109.088C290.412 128.923 275.895 145.084 256.743 150.552V147.146C272.955 142.163 285.459 128.941 289.169 112.472L290.958 109.105C288.303 127.449 275.12 142.464 257.609 148.06V149.06C275.665 143.415 289.269 127.968 291.939 109.088H293.15ZM249.802 106.952C250.084 107.83 250.235 108.762 250.235 109.727C250.235 115.021 245.671 119.313 240.041 119.313C234.411 119.313 229.846 115.021 229.845 109.727C229.845 108.762 229.998 107.83 230.28 106.952V86.9343H249.802V106.952ZM299.69 103.55H300.558V102.271H299.69V103.55ZM306.198 103.55H309.696C309.704 103.124 309.708 102.698 309.708 102.271H306.198V103.55ZM300.066 99.7156C300.085 100.14 300.1 100.566 300.11 100.993H300.558V99.7156H300.066ZM299.892 97.1589C299.931 97.5836 299.965 98.0099 299.994 98.4373H300.674C300.824 98.1826 301.104 98.0115 301.426 98.0115H305.33C305.651 98.0115 305.932 98.1826 306.082 98.4373H307.499V97.1589H299.892ZM299.69 95.8806H309.397C309.355 95.4536 309.309 95.0278 309.26 94.6033H299.69V95.8806ZM257.61 54.2478C274.529 59.4011 287.691 72.94 292.059 89.9167H290.821C286.589 73.8839 274.314 61.0318 258.477 55.7625V56.7693C273.495 61.8775 285.199 73.9536 289.579 89.0593L287.533 86.4832C282.613 72.928 271.537 62.2422 257.61 57.6716L257.609 57.113L257.61 54.2478Z" fill="#20934A"/>
<path d="M166.396 158.047C183.647 181.631 211.526 196.95 242.985 196.95C274.443 196.95 302.323 181.631 319.574 158.047H328.448C310.204 185.869 278.742 204.245 242.987 204.245C207.231 204.245 175.768 185.869 157.525 158.047H166.396ZM242.987 0C280.786 0.000163386 313.787 20.5375 331.445 51.0615H322.906C306.054 24.7405 276.557 7.29396 242.985 7.29395C209.412 7.29404 179.915 24.7405 163.064 51.0615H154.528C172.185 20.5373 205.187 0 242.987 0Z" fill="url(#paint1_linear_247_2)"/>
<path d="M240.831 179.234L240.272 179.214C240.205 179.212 240.17 179.244 240.168 179.311L240.016 183.63L238.201 183.567L238.373 178.677C238.382 178.413 238.486 178.19 238.682 178.01C238.88 177.825 239.239 177.743 239.762 177.761L240.881 177.8L240.831 179.234Z" fill="#012426"/>
<path d="M219.727 174.374L218.11 180.003L219.855 180.502L220.579 177.982L220.713 180.748L222.384 181.226L224.002 175.597L222.256 175.097L221.533 177.613L221.398 174.852L219.727 174.374Z" fill="#012426"/>
<path fill-rule="evenodd" clip-rule="evenodd" d="M208.774 169.892C208.611 169.858 208.421 169.881 208.204 169.962C207.774 170.122 207.426 170.487 207.161 171.055L206.15 173.218C205.884 173.786 205.828 174.287 205.981 174.718C206.059 174.936 206.163 175.096 206.294 175.199L209.306 176.601L211.786 171.293L208.774 169.892ZM209.055 171.29C209.082 171.232 209.124 171.216 209.183 171.244L209.694 171.482L208.106 174.881L207.594 174.643C207.536 174.615 207.52 174.573 207.548 174.515L209.055 171.29Z" fill="#012426"/>
<path d="M204.438 174.291L201.603 172.658L202.13 171.746L203.392 172.473L204.006 171.412L202.744 170.685L203.264 169.787L204.526 170.514L205.272 169.225L204.01 168.498L204.537 167.587L207.372 169.22L204.438 174.291Z" fill="#012426"/>
<path d="M198.409 170.705C197.971 170.421 197.723 170.147 197.668 169.884C197.611 169.625 197.658 169.382 197.805 169.156L198.482 168.115L200.006 169.102L199.427 169.99C199.391 170.046 199.399 170.091 199.454 170.126L199.846 170.381C199.9 170.416 199.945 170.405 199.981 170.349L201.924 167.365C201.958 167.313 201.948 167.27 201.893 167.235L201.501 166.981C201.447 166.946 201.403 166.954 201.37 167.006L200.787 167.902L199.263 166.915L199.946 165.866C200.09 165.645 200.292 165.506 200.552 165.451C200.816 165.395 201.167 165.509 201.605 165.793L202.935 166.655C203.375 166.94 203.623 167.214 203.676 167.476C203.734 167.736 203.62 168.086 203.336 168.523L201.616 171.165C201.329 171.607 201.054 171.855 200.791 171.908C200.53 171.966 200.179 171.852 199.738 171.566L198.409 170.705Z" fill="#012426"/>
<path d="M196.522 169.512L193.873 167.592L194.494 166.74L195.673 167.595L196.394 166.604L195.215 165.749L195.826 164.91L197.005 165.765L197.882 164.561L196.703 163.706L197.323 162.854L199.971 164.774L196.522 169.512Z" fill="#012426"/>
<path d="M193.454 159.76L189.76 164.311L191.172 165.451L192.825 163.414L191.866 166.012L193.216 167.103L196.91 162.552L195.499 161.412L193.848 163.446L194.805 160.851L193.454 159.76Z" fill="#012426"/>
<path d="M189.006 163.854L185.87 160.832L186.603 160.075L187.517 160.956L190.862 157.501L192.168 158.76L188.824 162.215L189.739 163.096L189.006 163.854Z" fill="#012426"/>
<path fill-rule="evenodd" clip-rule="evenodd" d="M183.281 158.214C182.924 157.832 182.75 157.507 182.76 157.238C182.771 156.971 182.969 156.659 183.353 156.302L183.478 156.186C183.813 155.874 184.08 155.703 184.278 155.674C184.47 155.646 184.744 155.769 185.099 156.043C184.851 155.67 184.749 155.387 184.792 155.196C184.835 155 184.93 154.834 185.077 154.698L185.981 153.856C186.286 153.572 186.489 153.341 186.585 153.163L187.824 154.488C187.712 154.681 187.496 154.925 187.178 155.221L186.267 156.068C186.237 156.096 186.231 156.131 186.245 156.173L186.653 156.61L188.34 155.041L189.579 156.366L185.286 160.36L183.281 158.214ZM184.442 157.766C184.393 157.812 184.391 157.857 184.435 157.905L184.82 158.317L185.933 157.281L185.548 156.869C185.504 156.822 185.458 156.821 185.412 156.864L184.442 157.766Z" fill="#012426"/>
<path fill-rule="evenodd" clip-rule="evenodd" d="M180.987 155.703L186.36 152.981L185.274 151.69L184.044 152.387L183.354 151.567L184.253 150.476L183.17 149.188L179.551 153.995L180.987 155.703ZM183.122 152.917L181.473 153.841L182.673 152.383L183.122 152.917Z" fill="#012426"/>
<path d="M178.322 152.534L177.204 151.106L180.696 148.384L179.799 147.238L180.932 146.355L182.947 148.928L178.322 152.534Z" fill="#012426"/>
<path d="M175.894 149.358L174.852 147.873L179.66 144.514L180.702 145.999L175.894 149.358Z" fill="#012426"/>
<path d="M174.416 147.267L175.641 146.504L174.761 145.099L179.443 144.243L177.296 140.814L176.076 141.574L176.872 142.845L172.251 143.809L174.416 147.267Z" fill="#012426"/>
<path d="M171.877 143.296L170.29 140.439L171.213 139.929L171.92 141.201L172.994 140.607L172.287 139.335L173.196 138.832L173.903 140.104L175.207 139.382L174.501 138.11L175.424 137.6L177.01 140.457L171.877 143.296Z" fill="#012426"/>
<path fill-rule="evenodd" clip-rule="evenodd" d="M173.706 134.102C173.598 133.975 173.434 133.877 173.213 133.808C172.776 133.67 172.276 133.743 171.717 134.028L169.585 135.112C169.026 135.396 168.672 135.756 168.527 136.19C168.454 136.409 168.437 136.599 168.476 136.761L169.985 139.716L175.215 137.057L173.706 134.102ZM173.064 135.377C173.122 135.347 173.164 135.361 173.194 135.419L173.45 135.92L170.101 137.623L169.845 137.121C169.815 137.064 169.829 137.021 169.887 136.992L173.064 135.377Z" fill="#012426"/>
<path fill-rule="evenodd" clip-rule="evenodd" d="M171.077 127.791C170.983 127.653 170.83 127.539 170.618 127.446C170.197 127.264 169.693 127.285 169.106 127.509L166.873 128.365C166.287 128.589 165.898 128.91 165.708 129.327C165.612 129.537 165.575 129.725 165.597 129.889L166.789 132.985L172.268 130.887L171.077 127.791ZM170.305 128.991C170.366 128.968 170.406 128.986 170.43 129.047L170.632 129.572L167.123 130.916L166.92 130.391C166.897 130.33 166.916 130.29 166.976 130.267L170.305 128.991Z" fill="#012426"/>
<path d="M165.044 128.191L164.483 126.468L170.065 124.658L170.626 126.382L165.044 128.191Z" fill="#012426"/>
<path d="M163.401 122.848C163.265 122.344 163.265 121.975 163.4 121.743C163.535 121.512 163.857 121.329 164.364 121.194L165.238 120.96L165.708 122.71L164.651 122.993C164.587 123.01 164.562 123.049 164.579 123.112L164.7 123.563C164.717 123.625 164.758 123.647 164.822 123.63L168.268 122.709C168.326 122.693 168.349 122.654 168.332 122.592L168.211 122.141C168.194 122.078 168.155 122.056 168.097 122.072L166.981 122.37L167.066 122.687L166.431 122.856L165.876 120.789L168.72 120.029L168.856 120.535L168.368 120.849C168.723 120.81 168.989 121.092 169.167 121.694L169.48 122.86C169.616 123.366 169.618 123.735 169.484 123.964C169.35 124.197 169.029 124.381 168.525 124.516L165.475 125.331C164.968 125.467 164.597 125.468 164.364 125.333C164.131 125.202 163.947 124.882 163.811 124.376L163.401 122.848Z" fill="#012426"/>
<path d="M162.941 120.823L162.533 119.058L168.251 117.74L168.66 119.506L162.941 120.823Z" fill="#012426"/>
<path d="M162.349 118.382L161.592 114.099L162.631 113.916L162.852 115.165L167.593 114.331L167.908 116.116L163.168 116.95L163.388 118.199L162.349 118.382Z" fill="#012426"/>
<path fill-rule="evenodd" clip-rule="evenodd" d="M161.37 112.619L167.361 113.256L167.155 111.583L165.743 111.5L165.612 110.437L166.962 110.01L166.756 108.342L161.097 110.407L161.37 112.619ZM164.681 111.443L162.794 111.322L164.596 110.751L164.681 111.443Z" fill="#012426"/>
<path d="M160.912 108.459L160.785 106.651L165.206 106.343L165.104 104.892L166.538 104.792L166.767 108.051L160.912 108.459Z" fill="#012426"/>
<path d="M160.781 99.2279C160.8 98.7071 160.907 98.3542 161.105 98.1713C161.299 97.9897 161.531 97.9043 161.801 97.9137L163.044 97.957L162.981 99.7682L161.92 99.7312C161.853 99.7289 161.819 99.7592 161.816 99.8238L161.8 100.291C161.798 100.355 161.83 100.388 161.897 100.39L165.461 100.514C165.523 100.516 165.554 100.486 165.557 100.421L165.573 99.9546C165.575 99.8901 165.546 99.8575 165.484 99.8555L164.414 99.8181L164.477 98.0069L165.729 98.0506C165.994 98.0597 166.218 98.1612 166.398 98.3557C166.583 98.5518 166.665 98.9115 166.647 99.4323L166.592 101.013C166.573 101.537 166.466 101.89 166.268 102.07C166.075 102.254 165.715 102.336 165.193 102.318L162.038 102.208C161.511 102.19 161.155 102.083 160.975 101.885C160.79 101.692 160.708 101.332 160.726 100.809L160.781 99.2279Z" fill="#012426"/>
<path d="M161.172 92.7719L165.672 93.1648C166.192 93.2103 166.539 93.3342 166.709 93.5381C166.883 93.7435 166.946 94.1069 166.901 94.6262L166.762 96.202C166.717 96.7237 166.591 97.0706 166.384 97.2402C166.181 97.4141 165.818 97.4775 165.297 97.432L160.798 97.0391L160.956 95.2339L165.648 95.6435C165.715 95.6494 165.75 95.6196 165.756 95.5526L165.797 95.0912C165.802 95.027 165.772 94.9927 165.705 94.9869L161.013 94.5773L161.172 92.7719Z" fill="#012426"/>
<path fill-rule="evenodd" clip-rule="evenodd" d="M161.658 89.0137C161.73 88.4977 161.874 88.1578 162.09 87.9967C162.304 87.8366 162.673 87.7939 163.192 87.8667L163.361 87.8904C163.816 87.9541 164.116 88.0535 164.263 88.1885C164.406 88.3202 164.482 88.6099 164.492 89.0577C164.627 88.6303 164.783 88.373 164.959 88.2861C165.138 88.1969 165.328 88.1662 165.526 88.194L166.751 88.3658C167.164 88.4237 167.472 88.435 167.671 88.398L167.418 90.1923C167.198 90.2264 166.872 90.2128 166.441 90.1524L165.208 89.9795C165.168 89.9738 165.136 89.9905 165.112 90.0284L165.029 90.62L167.313 90.9404L167.06 92.7347L161.248 91.9197L161.658 89.0137ZM162.737 89.633C162.671 89.6237 162.634 89.6502 162.625 89.7142L162.546 90.2719L164.053 90.4833L164.132 89.9255C164.141 89.8616 164.113 89.8258 164.05 89.817L162.737 89.633Z" fill="#012426"/>
<path fill-rule="evenodd" clip-rule="evenodd" d="M162.762 83.5805C162.888 83.0749 163.067 82.7519 163.298 82.6142C163.528 82.4773 163.899 82.4733 164.408 82.5999L164.573 82.641C165.019 82.7517 165.307 82.8819 165.439 83.0317C165.568 83.1773 165.613 83.4735 165.576 83.9201C165.755 83.5089 165.937 83.2694 166.122 83.2013C166.309 83.1312 166.501 83.1205 166.695 83.1689L167.895 83.4674C168.3 83.5681 168.604 83.6114 168.807 83.5953L168.368 85.3535C168.145 85.3646 167.822 85.3169 167.4 85.2118L166.192 84.9114C166.152 84.9014 166.119 84.9148 166.091 84.95L165.946 85.5297L168.184 86.0865L167.745 87.8448L162.05 86.428L162.762 83.5805ZM163.771 84.309C163.705 84.2928 163.666 84.3154 163.65 84.378L163.513 84.9245L164.99 85.2919L165.127 84.7454C165.142 84.6828 165.118 84.6442 165.057 84.629L163.771 84.309Z" fill="#012426"/>
<path d="M163.244 81.4166L164.146 78.2769L165.16 78.5672L164.759 79.9648L165.939 80.3026L166.341 78.9048L167.34 79.1906L166.938 80.5884L168.372 80.9987L168.774 79.6009L169.788 79.8912L168.886 83.0308L163.244 81.4166Z" fill="#012426"/>
<path d="M171.391 75.2073L165.842 73.3007L165.251 75.0139L167.735 75.8674L164.96 75.8564L164.394 77.4963L169.944 79.4029L170.535 77.6896L168.055 76.8374L170.826 76.8472L171.391 75.2073Z" fill="#012426"/>
<path d="M167.202 69.7556C167.398 69.2725 167.62 68.9774 167.868 68.873C168.113 68.7685 168.36 68.7677 168.611 68.8688L169.764 69.3336L169.084 71.014L168.1 70.6171C168.037 70.592 167.995 70.6089 167.971 70.6688L167.795 71.1018C167.771 71.1617 167.79 71.2032 167.852 71.2283L171.159 72.5612C171.216 72.5845 171.256 72.5666 171.28 72.5067L171.456 72.0737C171.48 72.0138 171.464 71.9733 171.406 71.9501L170.413 71.5498L171.094 69.8696L172.255 70.3379C172.501 70.4369 172.676 70.6083 172.779 70.8528C172.886 71.1 172.84 71.4663 172.644 71.9494L172.05 73.4161C171.854 73.9017 171.632 74.1968 171.384 74.2984C171.139 74.4055 170.773 74.3602 170.289 74.165L167.361 72.985C166.872 72.7877 166.575 72.5657 166.473 72.3188C166.366 72.074 166.412 71.708 166.608 71.2223L167.202 69.7556Z" fill="#012426"/>
<path d="M171.688 67.9619L168.103 67.6367L168.911 66.1216L170.898 66.5128L169.46 65.0898L170.267 63.5758L172.543 66.3584L174.795 67.5532L173.94 69.1568L171.688 67.9619Z" fill="#012426"/>
<path d="M232.139 182.998C231.622 182.926 231.281 182.782 231.12 182.567C230.959 182.356 230.898 182.116 230.936 181.849L231.109 180.62L232.907 180.872L232.76 181.921C232.75 181.988 232.777 182.025 232.841 182.034L233.305 182.099C233.369 182.108 233.405 182.079 233.414 182.013L233.91 178.489C233.919 178.428 233.892 178.394 233.828 178.385L233.364 178.32C233.3 178.311 233.265 178.336 233.256 178.398L233.107 179.456L231.308 179.203L231.483 177.965C231.52 177.704 231.644 177.492 231.857 177.334C232.072 177.171 232.439 177.127 232.956 177.199L234.526 177.419C235.046 177.492 235.386 177.636 235.545 177.851C235.709 178.062 235.753 178.427 235.68 178.943L235.241 182.063C235.168 182.585 235.024 182.926 234.808 183.084C234.596 183.247 234.229 183.291 233.709 183.218L232.139 182.998Z" fill="#012426"/>
<path fill-rule="evenodd" clip-rule="evenodd" d="M227.043 182.23C226.53 182.13 226.198 181.969 226.048 181.745C225.898 181.526 225.875 181.157 225.976 180.64L226.578 177.548C226.678 177.036 226.838 176.705 227.058 176.558C227.282 176.406 227.65 176.381 228.163 176.481L229.719 176.783C230.235 176.883 230.567 177.044 230.715 177.267C230.867 177.487 230.892 177.853 230.792 178.365L230.19 181.458C230.089 181.974 229.927 182.308 229.704 182.455C229.484 182.606 229.115 182.631 228.599 182.531L227.043 182.23ZM227.718 181.194C227.706 181.255 227.731 181.29 227.795 181.303L228.254 181.392C228.318 181.404 228.355 181.38 228.367 181.32L229.047 177.827C229.06 177.761 229.035 177.722 228.972 177.71L228.512 177.621C228.449 177.609 228.411 177.635 228.398 177.701L227.718 181.194Z" fill="#012426"/>
<path d="M224.99 181.79L223.221 181.383L224.541 175.677L226.311 176.084L224.99 181.79Z" fill="#012426"/>
<path d="M178.373 58.5387L178.701 58.0873C178.741 58.0331 178.734 57.9861 178.68 57.9466L175.176 55.4063L176.243 53.9404L180.211 56.8163C180.425 56.9718 180.552 57.1825 180.592 57.4456C180.634 57.7121 180.502 58.0552 180.194 58.4779L179.536 59.3818L178.373 58.5387Z" fill="#012426"/>
<path d="M179.803 49.3212C180.131 48.9162 180.43 48.6988 180.698 48.6716C180.963 48.6428 181.2 48.7143 181.41 48.884L182.376 49.665L181.233 51.0733L180.408 50.4067C180.356 50.3645 180.311 50.3683 180.27 50.4184L179.975 50.7815C179.935 50.8316 179.94 50.8769 179.993 50.919L182.764 53.1584C182.812 53.1974 182.856 53.1918 182.896 53.1417L183.191 52.7786C183.232 52.7285 183.228 52.685 183.18 52.6461L182.348 51.9737L183.491 50.5652L184.464 51.3521C184.67 51.5184 184.788 51.7336 184.815 51.9973C184.844 52.2649 184.693 52.6015 184.364 53.0066L183.366 54.2359C183.036 54.6429 182.737 54.8605 182.471 54.8855C182.205 54.9163 181.868 54.7661 181.462 54.4382L179.009 52.4556C178.598 52.1244 178.38 51.8255 178.354 51.5595C178.324 51.2944 178.475 50.9576 178.805 50.5504L179.803 49.3212Z" fill="#012426"/>
<path fill-rule="evenodd" clip-rule="evenodd" d="M183.365 45.4128C183.728 45.0378 184.045 44.8472 184.314 44.8434C184.58 44.8377 184.903 45.0192 185.283 45.3849L187.554 47.5733C187.93 47.9354 188.121 48.2494 188.124 48.5145C188.13 48.7835 187.95 49.1058 187.587 49.4808L186.486 50.6186C186.121 50.9953 185.805 51.1861 185.537 51.1878C185.27 51.1954 184.947 51.0167 184.572 50.6546L182.3 48.4662C181.921 48.1005 181.729 47.7837 181.727 47.5166C181.72 47.2498 181.899 46.9273 182.264 46.5506L183.365 45.4128ZM183.868 46.5413C183.824 46.4983 183.78 46.5 183.735 46.5465L183.41 46.8824C183.365 46.9289 183.365 46.9726 183.409 47.0155L185.975 49.4873C186.023 49.5339 186.069 49.5341 186.114 49.4878L186.439 49.1517C186.484 49.1053 186.482 49.0598 186.434 49.0131L183.868 46.5413Z" fill="#012426"/>
<path d="M184.961 43.8446L186.289 42.6088L190.292 46.8917L188.963 48.1275L184.961 43.8446Z" fill="#012426"/>
<path d="M194.024 43.5489L190.252 39.0627L188.86 40.2276L190.549 42.2356L188.176 40.8002L186.845 41.9152L190.617 46.4012L192.009 45.2363L190.322 43.2312L192.693 44.6636L194.024 43.5489Z" fill="#012426"/>
<path fill-rule="evenodd" clip-rule="evenodd" d="M201.932 37.7258C202.049 37.6077 202.133 37.436 202.183 37.2107C202.283 36.7639 202.166 36.2735 201.833 35.7424L200.565 33.7181C200.232 33.1867 199.842 32.8669 199.396 32.7601C199.171 32.7064 198.98 32.7062 198.822 32.7596L196.003 34.5169L199.113 39.4833L201.932 37.7258ZM200.604 37.1993C200.638 37.254 200.628 37.2974 200.573 37.3317L200.094 37.6301L198.102 34.4496L198.581 34.1511C198.636 34.1168 198.68 34.1271 198.714 34.1817L200.604 37.1993Z" fill="#012426"/>
<path d="M200.397 31.7679L203.26 30.1845L203.771 31.1052L202.497 31.8103L203.092 32.8817L204.366 32.1768L204.87 33.0838L203.596 33.7886L204.319 35.0904L205.593 34.3856L206.105 35.3063L203.242 36.8897L200.397 31.7679Z" fill="#012426"/>
<path d="M206.463 28.4531C206.928 28.2164 207.29 28.1391 207.546 28.2231C207.799 28.304 207.986 28.4657 208.109 28.7061L208.674 29.8117L207.055 30.6345L206.574 29.6907C206.543 29.6308 206.5 29.6158 206.442 29.6451L206.025 29.8572C205.967 29.8864 205.954 29.93 205.985 29.9899L207.604 33.1604C207.632 33.2155 207.674 33.2282 207.731 33.199L208.149 32.9869C208.206 32.9576 208.221 32.9163 208.193 32.8612L207.706 31.9091L209.325 31.0865L209.893 32.2002C210.014 32.4359 210.033 32.68 209.95 32.9319C209.868 33.1881 209.592 33.4343 209.127 33.6709L207.715 34.3892C207.247 34.6269 206.885 34.7044 206.632 34.619C206.376 34.5393 206.13 34.2657 205.893 33.8014L204.459 30.9943C204.22 30.5252 204.142 30.1633 204.227 29.9102C204.307 29.6554 204.582 29.409 205.05 29.1712L206.463 28.4531Z" fill="#012426"/>
<path d="M208.484 27.5341L211.475 26.2056L211.904 27.1674L210.573 27.759L211.072 28.8782L212.403 28.2866L212.826 29.2341L211.495 29.8255L212.101 31.1851L213.433 30.5937L213.862 31.5554L210.872 32.8841L208.484 27.5341Z" fill="#012426"/>
<path d="M218.526 29.8067L216.423 24.3395L214.728 24.9889L215.669 27.4363L213.894 25.3081L212.271 25.9298L214.375 31.3969L216.07 30.7476L215.13 28.3039L216.904 30.4283L218.526 29.8067Z" fill="#012426"/>
<path d="M217.387 23.991L221.597 22.8654L221.87 23.8822L220.642 24.2106L221.888 28.8503L220.134 29.3193L218.888 24.6796L217.66 25.0079L217.387 23.991Z" fill="#012426"/>
<path fill-rule="evenodd" clip-rule="evenodd" d="M225.067 22.0199C225.578 21.9114 225.947 21.9302 226.173 22.0774C226.397 22.2236 226.563 22.5543 226.672 23.0665L226.707 23.2327C226.803 23.6806 226.812 23.9962 226.735 24.1806C226.66 24.3593 226.413 24.5301 225.995 24.6928C226.444 24.6728 226.739 24.7314 226.881 24.8667C227.027 25.0041 227.12 25.1711 227.162 25.3668L227.419 26.5741C227.506 26.9809 227.6 27.2731 227.704 27.4477L225.927 27.8244C225.82 27.6293 225.721 27.3191 225.631 26.8943L225.372 25.6793C225.363 25.6394 225.337 25.6155 225.293 25.606L224.707 25.7301L225.187 27.9814L223.41 28.3581L222.19 22.6299L225.067 22.0199ZM224.853 23.2438C224.839 23.1781 224.801 23.1526 224.738 23.166L224.186 23.2831L224.502 24.7686L225.054 24.6515C225.118 24.6381 225.142 24.5993 225.129 24.5375L224.853 23.2438Z" fill="#012426"/>
<path fill-rule="evenodd" clip-rule="evenodd" d="M228.358 21.2987L228.034 27.302L229.698 27.0093L229.707 25.5981L230.764 25.412L231.262 26.7342L232.921 26.4424L230.558 20.9115L228.358 21.2987ZM229.708 24.5368L229.731 22.6499L230.397 24.4156L229.708 24.5368Z" fill="#012426"/>
<path d="M232.509 20.6739L234.311 20.453L234.851 24.8417L236.298 24.6646L236.473 26.0882L233.224 26.4863L232.509 20.6739Z" fill="#012426"/>
<path d="M236.494 20.3428L238.306 20.2163L238.715 26.0583L236.904 26.1847L236.494 20.3428Z" fill="#012426"/>
<path d="M239.078 20.108L239.104 21.5488L240.764 21.5199L239.087 25.9648L243.139 25.8942L243.114 24.4602L241.612 24.4864L243.165 20.0369L239.078 20.108Z" fill="#012426"/>
<path d="M243.737 20.1161L247.01 20.1731L246.992 21.2257L245.534 21.2002L245.513 22.4252L246.97 22.4507L246.952 23.4875L245.495 23.462L245.469 24.9502L246.926 24.9755L246.907 26.0281L243.635 25.9712L243.737 20.1161Z" fill="#012426"/>
<path fill-rule="evenodd" clip-rule="evenodd" d="M250.764 26.2955C250.928 26.2687 251.097 26.179 251.27 26.0261C251.614 25.7231 251.808 25.2577 251.852 24.6327L252.019 22.2515C252.063 21.6265 251.935 21.1389 251.637 20.7908C251.487 20.6155 251.332 20.5031 251.173 20.4537L247.858 20.2223L247.448 26.0641L250.764 26.2955ZM249.999 25.0905C249.995 25.1549 249.961 25.1842 249.896 25.1797L249.333 25.1403L249.596 21.3989L250.159 21.4383C250.223 21.4428 250.253 21.4765 250.248 21.5408L249.999 25.0905Z" fill="#012426"/>
<path fill-rule="evenodd" clip-rule="evenodd" d="M257.478 27.3788C257.645 27.3693 257.822 27.2977 258.01 27.1636C258.384 26.8981 258.626 26.4555 258.735 25.8388L259.15 23.4878C259.259 22.8707 259.184 22.3727 258.924 21.9954C258.793 21.8054 258.65 21.6774 258.497 21.6117L255.224 21.0358L254.205 26.8029L257.478 27.3788ZM256.844 26.1006C256.833 26.1642 256.796 26.1898 256.733 26.1786L256.177 26.0808L256.83 22.3873L257.385 22.4851C257.449 22.4963 257.475 22.5329 257.463 22.5963L256.844 26.1006Z" fill="#012426"/>
<path d="M260.178 21.9526L261.955 22.3293L260.734 28.0575L258.958 27.6808L260.178 21.9526Z" fill="#012426"/>
<path d="M265.592 23.271C266.097 23.406 266.417 23.5899 266.551 23.8232C266.684 24.0549 266.682 24.4249 266.546 24.9307L266.312 25.8028L264.557 25.3336L264.841 24.2787C264.858 24.2152 264.836 24.1739 264.774 24.1572L264.322 24.0363C264.259 24.0196 264.22 24.0446 264.203 24.1081L263.279 27.5465C263.264 27.6049 263.286 27.6436 263.348 27.6603L263.8 27.7812C263.863 27.798 263.902 27.7755 263.917 27.7171L264.217 26.6035L263.899 26.5188L264.069 25.8858L266.141 26.4396L265.379 29.2768L264.872 29.1411L264.843 28.5626C264.699 28.8894 264.322 28.9777 263.71 28.8305L262.542 28.5182C262.035 28.3827 261.714 28.2001 261.582 27.97C261.446 27.7376 261.447 27.3685 261.582 26.8652L262.399 23.8222C262.535 23.3163 262.72 22.9951 262.954 22.8613C263.184 22.7254 263.554 22.7261 264.061 22.8616L265.592 23.271Z" fill="#012426"/>
<path d="M267.717 23.9545L269.444 24.5144L267.631 30.0841L265.904 29.524L267.717 23.9545Z" fill="#012426"/>
<path d="M270.136 24.7255L274.205 26.2842L273.827 27.2671L272.64 26.8124L270.915 31.2967L269.219 30.6474L270.945 26.1631L269.758 25.7084L270.136 24.7255Z" fill="#012426"/>
<path fill-rule="evenodd" clip-rule="evenodd" d="M275.556 26.8706L271.924 31.667L273.467 32.3528L274.265 31.1877L275.246 31.6233L274.918 32.9972L276.456 33.6807L277.597 27.7774L275.556 26.8706ZM274.861 30.3086L275.938 28.757L275.5 30.5923L274.861 30.3086Z" fill="#012426"/>
<path d="M279.357 28.688L280.975 29.5106L278.963 33.4505L280.262 34.1106L279.609 35.3886L276.693 33.9057L279.357 28.688Z" fill="#012426"/>
<path d="M287.337 33.1997C287.78 33.4758 288.032 33.7453 288.092 34.0075C288.153 34.2657 288.111 34.5093 287.967 34.7382L287.308 35.7906L285.768 34.8303L286.331 33.9319C286.366 33.8749 286.357 33.8303 286.302 33.796L285.905 33.5486C285.85 33.5144 285.806 33.5256 285.77 33.5826L283.881 36.6002C283.848 36.6527 283.858 36.695 283.913 36.7293L284.31 36.9767C284.365 37.011 284.408 37.002 284.441 36.9495L285.008 36.0434L286.549 37.0037L285.885 38.0639C285.744 38.2883 285.545 38.4307 285.285 38.4894C285.023 38.5508 284.67 38.4422 284.227 38.166L282.882 37.3277C282.437 37.0502 282.184 36.7809 282.127 36.5201C282.064 36.2605 282.172 35.9089 282.449 35.467L284.122 32.7952C284.402 32.3488 284.672 32.0954 284.933 32.0382C285.194 31.9754 285.547 32.0838 285.992 32.3614L287.337 33.1997Z" fill="#012426"/>
<path d="M292.65 36.8882L290.059 40.5802C289.759 41.0072 289.478 41.2446 289.216 41.2897C288.951 41.3374 288.604 41.2105 288.176 40.9114L286.877 40.0041C286.447 39.7038 286.209 39.4217 286.166 39.1581C286.116 38.8957 286.243 38.5501 286.542 38.1233L289.133 34.4312L290.621 35.4706L287.919 39.3201C287.881 39.375 287.889 39.4208 287.944 39.4594L288.324 39.725C288.377 39.762 288.422 39.7531 288.461 39.6982L291.162 35.8486L292.65 36.8882Z" fill="#012426"/>
<path fill-rule="evenodd" clip-rule="evenodd" d="M295.741 39.4106C296.141 39.7457 296.354 40.0475 296.377 40.3156C296.399 40.5817 296.24 40.9159 295.903 41.3172L295.793 41.4472C295.498 41.7981 295.255 41.9995 295.062 42.0527C294.874 42.1037 294.588 42.0149 294.202 41.786C294.494 42.1266 294.629 42.395 294.61 42.5901C294.591 42.7889 294.517 42.9654 294.388 43.1186L293.593 44.0642C293.325 44.3828 293.152 44.637 293.078 44.8255L291.687 43.6606C291.775 43.4561 291.959 43.1876 292.238 42.855L293.039 41.9034C293.065 41.8721 293.068 41.8365 293.048 41.7962L292.589 41.4121L291.107 43.1753L289.716 42.0104L293.488 37.5244L295.741 39.4106ZM294.643 39.996C294.686 39.9445 294.683 39.8991 294.633 39.8576L294.201 39.4957L293.223 40.659L293.655 41.0211C293.705 41.0626 293.75 41.0576 293.791 41.0092L294.643 39.996Z" fill="#012426"/>
<path fill-rule="evenodd" clip-rule="evenodd" d="M299.603 42.9767C299.985 43.3321 300.181 43.6448 300.19 43.9135C300.198 44.1806 300.022 44.5061 299.664 44.889L299.548 45.0132C299.235 45.3482 298.981 45.5367 298.786 45.5798C298.596 45.6207 298.314 45.5171 297.941 45.2685C298.214 45.6238 298.336 45.899 298.306 46.0927C298.277 46.2903 298.193 46.4626 298.057 46.609L297.213 47.5117C296.929 47.8159 296.743 48.0605 296.659 48.2451L295.331 47.0093C295.429 46.8094 295.627 46.551 295.924 46.2335L296.773 45.3249C296.801 45.295 296.806 45.2595 296.788 45.2184L296.35 44.8109L294.777 46.4941L293.449 45.2583L297.452 40.9753L299.603 42.9767ZM298.475 43.5039C298.521 43.4549 298.52 43.4092 298.473 43.3653L298.06 42.9812L297.022 44.0919L297.435 44.476C297.482 44.5201 297.528 44.5175 297.571 44.4712L298.475 43.5039Z" fill="#012426"/>
<path d="M301.246 44.5957L303.52 46.9452L302.761 47.6766L301.748 46.6305L300.865 47.4815L301.877 48.5276L301.13 49.248L300.117 48.2019L299.044 49.2358L300.057 50.2819L299.298 51.0132L297.024 48.6636L301.246 44.5957Z" fill="#012426"/>
<path d="M302.558 54.7858L306.988 50.9437L305.796 49.5761L303.814 51.2959L305.21 48.9036L304.07 47.5946L299.641 51.4368L300.832 52.8043L302.812 51.0871L301.418 53.4768L302.558 54.7858Z" fill="#012426"/>
<path d="M309.346 54.0944C309.653 54.516 309.786 54.8603 309.743 55.1258C309.703 55.3879 309.572 55.5981 309.353 55.7566L308.347 56.4861L307.28 55.0199L308.138 54.3972C308.193 54.3578 308.201 54.313 308.163 54.2607L307.888 53.8828C307.85 53.8306 307.805 53.8244 307.75 53.864L304.865 55.9555C304.815 55.9918 304.809 56.035 304.847 56.0874L305.122 56.4653C305.16 56.5174 305.203 56.5252 305.253 56.4889L306.12 55.8608L307.187 57.327L306.174 58.0616C305.959 58.2171 305.721 58.2746 305.458 58.2321C305.192 58.1911 304.905 57.9581 304.598 57.5365L303.666 56.2568C303.357 55.8331 303.224 55.4889 303.269 55.2257C303.308 54.9614 303.54 54.6759 303.963 54.3695L306.517 52.5178C306.944 52.2084 307.29 52.0746 307.554 52.1192C307.819 52.1583 308.106 52.3909 308.414 52.8146L309.346 54.0944Z" fill="#012426"/>
<path d="M308.486 58.7054L310.509 55.7346L311.445 57.1738L310.139 58.7185L312.083 58.1537L313.019 59.5919L309.477 60.2286L307.338 61.6149L306.346 60.0917L308.486 58.7054Z" fill="#012426"/>
<path d="M312.305 67.5154L312.541 68.0211C312.57 68.082 312.614 68.0989 312.675 68.0707L316.6 66.2441L317.368 67.8864L312.924 69.9542C312.684 70.0659 312.437 70.0747 312.187 69.9819C311.933 69.8898 311.697 69.6076 311.475 69.1341L311.002 68.1216L312.305 67.5154Z" fill="#012426"/>
<path d="M319.596 73.2502C319.792 73.7333 319.837 74.0995 319.731 74.3467C319.628 74.5912 319.451 74.7637 319.2 74.8648L318.047 75.3296L317.366 73.6492L318.351 73.2524C318.413 73.2273 318.432 73.1858 318.408 73.1259L318.232 72.6928C318.208 72.6329 318.166 72.6161 318.103 72.6412L314.797 73.9741C314.739 73.9974 314.723 74.0378 314.747 74.0977L314.923 74.5309C314.947 74.5907 314.987 74.6086 315.044 74.5855L316.037 74.1852L316.718 75.8654L315.556 76.3337C315.31 76.4329 315.065 76.431 314.821 76.3265C314.572 76.2221 314.35 75.927 314.154 75.4439L313.56 73.9772C313.364 73.4915 313.318 73.1255 313.425 72.8809C313.527 72.6338 313.822 72.4129 314.306 72.2177L317.233 71.0374C317.723 70.8403 318.091 70.794 318.336 70.9011C318.583 71.0028 318.806 71.2978 319.002 71.7835L319.596 73.2502Z" fill="#012426"/>
<path fill-rule="evenodd" clip-rule="evenodd" d="M321.294 78.0967C321.464 78.5894 321.49 78.9575 321.371 79.1989C321.256 79.4375 320.947 79.6424 320.448 79.8139L317.463 80.8395C316.969 81.0093 316.602 81.0365 316.363 80.9194C316.12 80.8023 315.914 80.496 315.744 80.0033L315.228 78.5077C315.057 78.0123 315.031 77.6444 315.151 77.4056C315.265 77.1642 315.571 76.959 316.065 76.7894L319.05 75.7638C319.549 75.5923 319.919 75.5653 320.159 75.685C320.4 75.7996 320.607 76.1057 320.777 76.6011L321.294 78.0967ZM320.058 78.0315C320.116 78.0113 320.135 77.9717 320.113 77.9106L319.961 77.469C319.94 77.4078 319.901 77.3879 319.842 77.408L316.47 78.5665C316.407 78.5884 316.386 78.6289 316.407 78.69L316.559 79.1316C316.581 79.1927 316.622 79.2118 316.686 79.19L320.058 78.0315Z" fill="#012426"/>
<path d="M321.846 80.1982L322.346 81.94L316.705 83.5543L316.204 81.8123L321.846 80.1982Z" fill="#012426"/>
<path d="M317.808 88.4103L323.502 86.9935L323.063 85.2353L320.514 85.8694L322.847 84.3707L322.427 82.6879L316.732 84.1045L317.171 85.8629L319.717 85.2296L317.387 86.7273L317.808 88.4103Z" fill="#012426"/>
<path fill-rule="evenodd" clip-rule="evenodd" d="M318.7 96.2586C318.752 96.4165 318.867 96.5688 319.046 96.7157C319.399 97.0072 319.891 97.1255 320.516 97.0709L322.899 96.8629C323.525 96.8083 323.987 96.6067 324.285 96.2582C324.435 96.0828 324.522 95.9127 324.546 95.7481L324.257 92.4445L318.41 92.9548L318.7 96.2586ZM319.773 95.3166C319.708 95.3223 319.674 95.2936 319.669 95.2294L319.619 94.6683L323.364 94.3413L323.413 94.9024C323.419 94.9668 323.39 95.0009 323.326 95.0064L319.773 95.3166Z" fill="#012426"/>
<path d="M324.664 97.5679L324.778 100.832L323.723 100.869L323.672 99.4156L322.445 99.4583L322.496 100.912L321.458 100.948L321.407 99.4947L319.916 99.5465L319.967 101L318.912 101.036L318.798 97.7723L324.664 97.5679Z" fill="#012426"/>
<path d="M324.696 104.599C324.687 105.12 324.585 105.475 324.391 105.661C324.2 105.846 323.969 105.935 323.699 105.93L322.455 105.909L322.487 104.097L323.549 104.115C323.616 104.117 323.649 104.086 323.651 104.021L323.659 103.554C323.66 103.489 323.627 103.457 323.56 103.456L319.994 103.394C319.932 103.393 319.902 103.424 319.9 103.489L319.892 103.956C319.891 104.02 319.921 104.052 319.983 104.053L321.053 104.072L321.022 105.884L319.769 105.862C319.504 105.857 319.279 105.76 319.095 105.569C318.907 105.376 318.818 105.018 318.827 104.497L318.855 102.915C318.864 102.391 318.966 102.036 319.16 101.853C319.351 101.665 319.708 101.577 320.23 101.586L323.387 101.641C323.915 101.65 324.272 101.751 324.456 101.945C324.644 102.135 324.732 102.493 324.723 103.017L324.696 104.599Z" fill="#012426"/>
<path d="M324.647 106.787L324.418 110.045L323.366 109.971L323.468 108.521L322.243 108.435L322.141 109.886L321.104 109.814L321.206 108.363L319.718 108.259L319.616 109.71L318.564 109.636L318.792 106.378L324.647 106.787Z" fill="#012426"/>
<path d="M317.935 114.571L323.761 115.285L323.982 113.486L321.374 113.167L324.091 112.602L324.303 110.881L318.477 110.167L318.256 111.965L320.86 112.284L318.147 112.85L317.935 114.571Z" fill="#012426"/>
<path d="M323.56 115.925L322.804 120.208L321.765 120.026L321.985 118.776L317.245 117.942L317.56 116.158L322.301 116.992L322.521 115.743L323.56 115.925Z" fill="#012426"/>
<path fill-rule="evenodd" clip-rule="evenodd" d="M321.768 123.906C321.633 124.409 321.449 124.729 321.215 124.863C320.983 124.996 320.612 124.993 320.105 124.858L319.94 124.814C319.497 124.695 319.211 124.56 319.081 124.408C318.956 124.26 318.915 123.963 318.96 123.517C318.774 123.926 318.588 124.162 318.402 124.227C318.214 124.293 318.022 124.301 317.828 124.249L316.633 123.93C316.231 123.822 315.927 123.773 315.724 123.786L316.194 122.035C316.417 122.029 316.739 122.082 317.159 122.194L318.362 122.516C318.401 122.526 318.435 122.513 318.463 122.479L318.618 121.902L316.39 121.306L316.86 119.556L322.529 121.071L321.768 123.906ZM320.772 123.16C320.837 123.177 320.877 123.156 320.894 123.093L321.04 122.549L319.57 122.156L319.424 122.7C319.407 122.762 319.431 122.801 319.492 122.818L320.772 123.16Z" fill="#012426"/>
<path fill-rule="evenodd" clip-rule="evenodd" d="M320.757 127.172L315.597 124.069L315.075 125.672L316.319 126.343L315.988 127.361L314.584 127.179L314.064 128.777L320.067 129.293L320.757 127.172ZM317.258 126.842L318.917 127.748L317.042 127.505L317.258 126.842Z" fill="#012426"/>
<path d="M319.303 131.12L318.652 132.812L314.515 131.228L313.992 132.585L312.651 132.071L313.824 129.022L319.303 131.12Z" fill="#012426"/>
<path d="M317.865 134.873L317.126 136.528L311.765 134.146L312.504 132.491L317.865 134.873Z" fill="#012426"/>
<path d="M316.79 137.204L315.503 136.549L314.749 138.025L311.603 134.462L309.763 138.065L311.044 138.716L311.726 137.381L314.934 140.837L316.79 137.204Z" fill="#012426"/>
<path d="M314.613 141.32L313.026 144.177L312.103 143.666L312.809 142.395L311.735 141.801L311.029 143.072L310.12 142.57L310.826 141.298L309.522 140.576L308.815 141.848L307.892 141.338L309.479 138.481L314.613 141.32Z" fill="#012426"/>
<path fill-rule="evenodd" clip-rule="evenodd" d="M305.823 144.523C305.769 144.681 305.769 144.872 305.823 145.096C305.93 145.541 306.251 145.931 306.783 146.263L308.812 147.528C309.344 147.86 309.836 147.977 310.284 147.877C310.509 147.827 310.681 147.744 310.8 147.627L312.561 144.814L307.584 141.711L305.823 144.523ZM307.248 144.416C307.193 144.381 307.183 144.338 307.217 144.283L307.516 143.806L310.704 145.793L310.405 146.271C310.371 146.326 310.327 146.335 310.272 146.301L307.248 144.416Z" fill="#012426"/>
<path fill-rule="evenodd" clip-rule="evenodd" d="M301.671 149.993C301.602 150.144 301.582 150.334 301.612 150.563C301.671 151.017 301.95 151.438 302.444 151.823L304.329 153.293C304.824 153.679 305.301 153.846 305.756 153.794C305.986 153.768 306.166 153.703 306.296 153.599L308.342 150.985L303.717 147.38L301.671 149.993ZM303.1 150.035C303.049 149.995 303.043 149.951 303.083 149.9L303.431 149.456L306.393 151.765L306.045 152.209C306.005 152.26 305.961 152.265 305.91 152.225L303.1 150.035Z" fill="#012426"/>
<path d="M305.206 154.928L304.038 156.316L299.542 152.552L300.71 151.164L305.206 154.928Z" fill="#012426"/>
<path d="M301.386 159.032C301.03 159.413 300.716 159.609 300.447 159.618C300.179 159.626 299.853 159.45 299.469 159.093L298.808 158.477L300.046 157.152L300.847 157.897C300.895 157.942 300.942 157.942 300.986 157.895L301.305 157.553C301.349 157.506 301.346 157.46 301.297 157.415L298.688 154.987C298.644 154.946 298.599 154.947 298.555 154.994L298.236 155.336C298.192 155.383 298.193 155.428 298.238 155.469L299.083 156.255L299.307 156.016L299.787 156.463L298.324 158.028L296.171 156.024L296.53 155.641L297.055 155.888C296.833 155.607 296.932 155.234 297.35 154.764L298.175 153.881C298.533 153.498 298.845 153.301 299.11 153.293C299.38 153.282 299.706 153.456 300.088 153.812L302.397 155.96C302.781 156.317 302.979 156.631 302.987 156.9C302.999 157.166 302.825 157.492 302.467 157.875L301.386 159.032Z" fill="#012426"/>
<path d="M299.849 160.569L298.543 161.827L294.466 157.615L295.772 156.356L299.849 160.569Z" fill="#012426"/>
<path d="M298.05 162.322L294.761 165.176L294.069 164.381L295.028 163.549L291.87 159.924L293.241 158.735L296.399 162.36L297.358 161.528L298.05 162.322Z" fill="#012426"/>
<path fill-rule="evenodd" clip-rule="evenodd" d="M293.655 166.022L291.021 160.614L289.708 161.675L290.386 162.914L289.552 163.588L288.474 162.672L287.165 163.73L291.919 167.425L293.655 166.022ZM290.901 163.843L291.797 165.504L290.357 164.282L290.901 163.843Z" fill="#012426"/>
<path d="M290.22 168.566L288.751 169.631L286.146 166.054L284.967 166.908L284.122 165.748L286.77 163.828L290.22 168.566Z" fill="#012426"/>
<path d="M282.46 173.502C282.008 173.762 281.651 173.858 281.391 173.788C281.134 173.72 280.938 173.569 280.803 173.335L280.181 172.26L281.754 171.354L282.285 172.272C282.318 172.33 282.362 172.342 282.418 172.31L282.824 172.077C282.88 172.044 282.891 172 282.857 171.942L281.074 168.86C281.043 168.807 281 168.796 280.944 168.829L280.539 169.062C280.483 169.094 280.471 169.136 280.502 169.19L281.037 170.115L279.464 171.021L278.838 169.939C278.705 169.71 278.673 169.467 278.743 169.211C278.812 168.951 279.073 168.691 279.526 168.43L280.899 167.639C281.353 167.377 281.71 167.281 281.968 167.353C282.227 167.419 282.488 167.68 282.749 168.131L284.327 170.859C284.591 171.315 284.688 171.673 284.616 171.93C284.55 172.188 284.288 172.449 283.833 172.711L282.46 173.502Z" fill="#012426"/>
<path d="M276.766 176.426L274.646 172.446C274.401 171.986 274.316 171.629 274.395 171.375C274.473 171.118 274.744 170.867 275.205 170.622L276.605 169.879C277.068 169.634 277.428 169.55 277.683 169.631C277.94 169.706 278.191 169.975 278.436 170.435L280.557 174.415L278.954 175.266L276.742 171.116C276.711 171.057 276.666 171.044 276.607 171.075L276.197 171.293C276.14 171.323 276.128 171.367 276.159 171.426L278.37 175.575L276.766 176.426Z" fill="#012426"/>
<path fill-rule="evenodd" clip-rule="evenodd" d="M272.995 177.959C272.511 178.154 272.144 178.199 271.896 178.094C271.65 177.988 271.429 177.692 271.232 177.206L271.168 177.048C270.996 176.624 270.932 176.315 270.976 176.12C271.019 175.931 271.232 175.72 271.616 175.487C271.177 175.584 270.876 175.578 270.712 175.47C270.545 175.359 270.424 175.211 270.349 175.025L269.886 173.881C269.729 173.495 269.586 173.224 269.454 173.07L271.137 172.391C271.277 172.565 271.428 172.853 271.591 173.256L272.058 174.408C272.073 174.445 272.103 174.464 272.148 174.466L272.703 174.242L271.839 172.108L273.523 171.43L275.722 176.859L272.995 177.959ZM272.992 176.716C273.018 176.779 273.059 176.797 273.119 176.773L273.643 176.562L273.072 175.154L272.549 175.365C272.489 175.389 272.472 175.431 272.496 175.49L272.992 176.716Z" fill="#012426"/>
<path fill-rule="evenodd" clip-rule="evenodd" d="M268.082 179.725C267.588 179.895 267.219 179.921 266.977 179.802C266.737 179.684 266.532 179.376 266.361 178.881L266.306 178.721C266.156 178.288 266.109 177.975 266.162 177.783C266.215 177.597 266.439 177.397 266.835 177.185C266.391 177.259 266.091 177.237 265.934 177.12C265.772 177.001 265.659 176.847 265.594 176.658L265.191 175.491C265.055 175.097 264.926 174.819 264.802 174.658L266.519 174.068C266.65 174.249 266.786 174.545 266.927 174.955L267.333 176.13C267.346 176.168 267.375 176.189 267.42 176.193L267.986 175.998L267.235 173.822L268.952 173.232L270.863 178.769L268.082 179.725ZM268.145 178.484C268.167 178.548 268.207 178.568 268.269 178.547L268.802 178.364L268.307 176.928L267.773 177.111C267.712 177.132 267.693 177.174 267.713 177.234L268.145 178.484Z" fill="#012426"/>
<path d="M265.841 180.427L262.695 181.328L262.404 180.316L263.805 179.915L263.466 178.737L262.065 179.138L261.779 178.141L263.18 177.74L262.769 176.31L261.368 176.71L261.077 175.698L264.224 174.798L265.841 180.427Z" fill="#012426"/>
<path d="M256.183 176.73L257.504 182.436L259.273 182.028L258.682 179.474L260.143 181.828L261.837 181.438L260.517 175.732L258.747 176.139L259.337 178.69L257.877 176.34L256.183 176.73Z" fill="#012426"/>
<path d="M253.592 183.022C253.075 183.094 252.708 183.05 252.493 182.887C252.281 182.729 252.156 182.515 252.118 182.248L251.945 181.019L253.744 180.767L253.891 181.816C253.901 181.882 253.937 181.91 254.001 181.901L254.464 181.836C254.528 181.827 254.555 181.79 254.546 181.724L254.049 178.2C254.041 178.139 254.005 178.113 253.941 178.122L253.478 178.187C253.413 178.196 253.386 178.231 253.395 178.292L253.544 179.35L251.746 179.602L251.571 178.364C251.534 178.102 251.595 177.865 251.756 177.654C251.918 177.438 252.258 177.295 252.776 177.223L254.346 177.003C254.865 176.93 255.232 176.974 255.444 177.137C255.66 177.295 255.803 177.634 255.876 178.15L256.316 181.27C256.389 181.791 256.345 182.159 256.181 182.37C256.023 182.585 255.682 182.729 255.162 182.802L253.592 183.022Z" fill="#012426"/>
<path d="M249.929 180.068L251.608 183.246L249.895 183.395L249.142 181.519L248.729 183.497L247.017 183.646L248.116 180.227L247.894 177.691L249.707 177.533L249.929 180.068Z" fill="#012426"/>
<path d="M312.063 62.0446C312.558 62.0446 312.96 62.4453 312.96 62.9392C312.96 63.4332 312.558 63.8338 312.063 63.8338C311.568 63.8338 311.167 63.4332 311.167 62.9392C311.167 62.4453 311.568 62.0446 312.063 62.0446Z" fill="#012426"/>
<path d="M321.825 90.1839C321.825 89.6899 321.423 89.2893 320.928 89.2893C320.433 89.2893 320.032 89.6899 320.032 90.1839C320.032 90.6778 320.433 91.0785 320.928 91.0785C321.423 91.0785 321.825 90.6778 321.825 90.1839Z" fill="#012426"/>
<path d="M174.588 60.1363C175.083 60.1363 175.484 60.5369 175.484 61.0308C175.484 61.5248 175.083 61.9254 174.588 61.9254C174.093 61.9254 173.691 61.5248 173.691 61.0308C173.691 60.5369 174.093 60.1363 174.588 60.1363Z" fill="#012426"/>
<path d="M195.732 39.0677C195.732 38.5738 195.331 38.1731 194.836 38.1731C194.341 38.1731 193.939 38.5738 193.939 39.0677C193.939 39.5617 194.341 39.9623 194.836 39.9623C195.331 39.9623 195.732 39.5617 195.732 39.0677Z" fill="#012426"/>
<path d="M214.358 174.673C214.853 174.673 215.254 175.073 215.254 175.567C215.254 176.061 214.853 176.462 214.358 176.462C213.863 176.462 213.461 176.061 213.461 175.567C213.461 175.073 213.863 174.673 214.358 174.673Z" fill="#012426"/>
<path d="M244.838 180.776C244.838 180.282 244.436 179.881 243.941 179.881C243.446 179.881 243.045 180.282 243.045 180.776C243.045 181.27 243.446 181.671 243.941 181.671C244.436 181.671 244.838 181.27 244.838 180.776Z" fill="#012426"/>
<mask id="path-5-outside-1_247_2" maskUnits="userSpaceOnUse" x="287.705" y="30.6985" width="446" height="121" fill="black">
<rect fill="white" x="287.705" y="30.6985" width="446" height="121"/>
<path d="M352.713 72.1473H372.301V139.698H353.592V131.914C348.695 137.815 341.538 140.703 332.498 140.703C313.413 140.703 298.723 127.143 298.723 105.923C298.723 84.7033 313.413 71.1429 332.498 71.1429C340.785 71.1429 347.816 73.7796 352.713 79.3042V72.1473ZM335.888 124.631C345.556 124.631 353.09 117.6 353.09 105.923C353.09 94.2459 345.556 87.2145 335.888 87.2145C326.095 87.2145 318.561 94.2459 318.561 105.923C318.561 117.6 326.095 124.631 335.888 124.631ZM400.229 62.7304C392.946 62.7304 388.049 57.9591 388.049 51.8067C388.049 45.6542 392.946 40.883 400.229 40.883C407.511 40.883 412.408 45.4031 412.408 51.43C412.408 57.9591 407.511 62.7304 400.229 62.7304ZM390.435 139.698V72.1473H410.022V139.698H390.435ZM514.712 71.1429C530.783 71.1429 542.335 80.4343 542.335 101.026V139.698H522.748V104.04C522.748 93.1158 517.851 88.0934 509.94 88.0934C501.151 88.0934 494.999 93.7436 494.999 105.797V139.698H475.412V104.04C475.412 93.1158 470.766 88.0934 462.604 88.0934C453.941 88.0934 447.788 93.7436 447.788 105.797V139.698H428.201V72.1473H446.909V79.932C451.932 74.1563 459.465 71.1429 468.129 71.1429C477.546 71.1429 485.582 74.7841 490.353 82.1921C495.752 75.2863 504.541 71.1429 514.712 71.1429ZM609.596 72.1473H629.183V139.698H610.475V131.914C605.578 137.815 598.421 140.703 589.381 140.703C570.295 140.703 555.605 127.143 555.605 105.923C555.605 84.7033 570.295 71.1429 589.381 71.1429C597.667 71.1429 604.699 73.7796 609.596 79.3042V72.1473ZM592.771 124.631C602.439 124.631 609.972 117.6 609.972 105.923C609.972 94.2459 602.439 87.2145 592.771 87.2145C582.977 87.2145 575.443 94.2459 575.443 105.923C575.443 117.6 582.977 124.631 592.771 124.631ZM712.483 139.698H690.259L675.443 118.981L660.125 139.698H638.779L664.77 105.672L639.658 72.1473H661.631L675.945 91.8602L690.636 72.1473H711.479L686.367 105.17L712.483 139.698Z"/>
</mask>
<path d="M352.713 72.1473H372.301V139.698H353.592V131.914C348.695 137.815 341.538 140.703 332.498 140.703C313.413 140.703 298.723 127.143 298.723 105.923C298.723 84.7033 313.413 71.1429 332.498 71.1429C340.785 71.1429 347.816 73.7796 352.713 79.3042V72.1473ZM335.888 124.631C345.556 124.631 353.09 117.6 353.09 105.923C353.09 94.2459 345.556 87.2145 335.888 87.2145C326.095 87.2145 318.561 94.2459 318.561 105.923C318.561 117.6 326.095 124.631 335.888 124.631ZM400.229 62.7304C392.946 62.7304 388.049 57.9591 388.049 51.8067C388.049 45.6542 392.946 40.883 400.229 40.883C407.511 40.883 412.408 45.4031 412.408 51.43C412.408 57.9591 407.511 62.7304 400.229 62.7304ZM390.435 139.698V72.1473H410.022V139.698H390.435ZM514.712 71.1429C530.783 71.1429 542.335 80.4343 542.335 101.026V139.698H522.748V104.04C522.748 93.1158 517.851 88.0934 509.94 88.0934C501.151 88.0934 494.999 93.7436 494.999 105.797V139.698H475.412V104.04C475.412 93.1158 470.766 88.0934 462.604 88.0934C453.941 88.0934 447.788 93.7436 447.788 105.797V139.698H428.201V72.1473H446.909V79.932C451.932 74.1563 459.465 71.1429 468.129 71.1429C477.546 71.1429 485.582 74.7841 490.353 82.1921C495.752 75.2863 504.541 71.1429 514.712 71.1429ZM609.596 72.1473H629.183V139.698H610.475V131.914C605.578 137.815 598.421 140.703 589.381 140.703C570.295 140.703 555.605 127.143 555.605 105.923C555.605 84.7033 570.295 71.1429 589.381 71.1429C597.667 71.1429 604.699 73.7796 609.596 79.3042V72.1473ZM592.771 124.631C602.439 124.631 609.972 117.6 609.972 105.923C609.972 94.2459 602.439 87.2145 592.771 87.2145C582.977 87.2145 575.443 94.2459 575.443 105.923C575.443 117.6 582.977 124.631 592.771 124.631ZM712.483 139.698H690.259L675.443 118.981L660.125 139.698H638.779L664.77 105.672L639.658 72.1473H661.631L675.945 91.8602L690.636 72.1473H711.479L686.367 105.17L712.483 139.698Z" fill="url(#paint2_linear_247_2)"/>
<path d="M352.713 72.1473V62.0465H342.612V72.1473H352.713ZM372.301 72.1473H382.401V62.0465H372.301V72.1473ZM372.301 139.698V149.799H382.401V139.698H372.301ZM353.592 139.698H343.491V149.799H353.592V139.698ZM353.592 131.914H363.693V103.923L345.819 125.464L353.592 131.914ZM352.713 79.3042L345.154 86.0042L362.814 105.928V79.3042H352.713ZM352.713 72.1473V82.2482H372.301V72.1473V62.0465H352.713V72.1473ZM372.301 72.1473H362.2V139.698H372.301H382.401V72.1473H372.301ZM372.301 139.698V129.598H353.592V139.698V149.799H372.301V139.698ZM353.592 139.698H363.693V131.914H353.592H343.491V139.698H353.592ZM353.592 131.914L345.819 125.464C343.266 128.54 339.269 130.602 332.498 130.602V140.703V150.804C343.807 150.804 354.124 147.09 361.365 138.364L353.592 131.914ZM332.498 140.703V130.602C325.39 130.602 319.588 128.11 315.587 124.119C311.613 120.155 308.823 114.121 308.823 105.923H298.723H288.622C288.622 118.944 293.178 130.3 301.32 138.422C309.435 146.516 320.521 150.804 332.498 150.804V140.703ZM298.723 105.923H308.823C308.823 97.7245 311.613 91.6909 315.587 87.7272C319.588 83.7361 325.39 81.2437 332.498 81.2437V71.1429V61.042C320.521 61.042 309.435 65.3299 301.32 73.4239C293.178 81.5453 288.622 92.9017 288.622 105.923H298.723ZM332.498 71.1429V81.2437C338.6 81.2437 342.597 83.1193 345.154 86.0042L352.713 79.3042L360.272 72.6043C353.036 64.4399 342.97 61.042 332.498 61.042V71.1429ZM352.713 79.3042H362.814V72.1473H352.713H342.612V79.3042H352.713ZM335.888 124.631V134.732C343.236 134.732 350.244 132.018 355.398 126.655C360.552 121.291 363.191 113.979 363.191 105.923H353.09H342.989C342.989 109.544 341.861 111.586 340.831 112.657C339.801 113.729 338.209 114.53 335.888 114.53V124.631ZM353.09 105.923H363.191C363.191 97.8667 360.552 90.5545 355.398 85.1909C350.244 79.8282 343.236 77.1136 335.888 77.1136V87.2145V97.3154C338.209 97.3154 339.801 98.1165 340.831 99.1887C341.861 100.26 342.989 102.302 342.989 105.923H353.09ZM335.888 87.2145V77.1136C328.512 77.1136 321.471 79.8043 316.287 85.1725C311.1 90.5424 308.46 97.866 308.46 105.923H318.561H328.662C328.662 102.303 329.789 100.272 330.817 99.2071C331.848 98.1404 333.47 97.3154 335.888 97.3154V87.2145ZM318.561 105.923H308.46C308.46 113.98 311.1 121.303 316.287 126.673C321.471 132.041 328.512 134.732 335.888 134.732V124.631V114.53C333.47 114.53 331.848 113.705 330.817 112.639C329.789 111.574 328.662 109.543 328.662 105.923H318.561ZM390.435 139.698H380.334V149.799H390.435V139.698ZM390.435 72.1473V62.0465H380.334V72.1473H390.435ZM410.022 72.1473H420.123V62.0465H410.022V72.1473ZM410.022 139.698V149.799H420.123V139.698H410.022ZM400.229 62.7304V52.6295C398.816 52.6295 398.302 52.1929 398.243 52.1389C398.196 52.0953 398.188 52.0741 398.186 52.0684C398.184 52.064 398.15 51.9913 398.15 51.8067H388.049H377.949C377.949 64.3228 388.187 72.8312 400.229 72.8312V62.7304ZM388.049 51.8067H398.15C398.15 51.622 398.184 51.5494 398.186 51.5449C398.188 51.5392 398.196 51.518 398.243 51.4745C398.302 51.4204 398.816 50.9838 400.229 50.9838V40.883V30.7821C388.187 30.7821 377.949 39.2906 377.949 51.8067H388.049ZM400.229 40.883V50.9838C401.789 50.9838 402.343 51.4502 402.366 51.4704C402.387 51.4891 402.352 51.4612 402.32 51.3892C402.287 51.3153 402.307 51.3087 402.307 51.43H412.408H422.509C422.509 38.6736 411.865 30.7821 400.229 30.7821V40.883ZM412.408 51.43H402.307C402.307 51.7895 402.242 51.9765 402.215 52.0424C402.188 52.1058 402.163 52.1393 402.127 52.1731C402.1 52.1983 401.637 52.6295 400.229 52.6295V62.7304V72.8312C406.102 72.8312 411.73 70.8768 415.972 66.884C420.247 62.8609 422.509 57.3221 422.509 51.43H412.408ZM390.435 139.698H400.536V72.1473H390.435H380.334V139.698H390.435ZM390.435 72.1473V82.2482H410.022V72.1473V62.0465H390.435V72.1473ZM410.022 72.1473H399.922V139.698H410.022H420.123V72.1473H410.022ZM410.022 139.698V129.598H390.435V139.698V149.799H410.022V139.698ZM542.335 139.698V149.799H552.436V139.698H542.335ZM522.748 139.698H512.647V149.799H522.748V139.698ZM494.999 139.698V149.799H505.1V139.698H494.999ZM475.412 139.698H465.311V149.799H475.412V139.698ZM447.788 139.698V149.799H457.889V139.698H447.788ZM428.201 139.698H418.1V149.799H428.201V139.698ZM428.201 72.1473V62.0465H418.1V72.1473H428.201ZM446.909 72.1473H457.01V62.0465H446.909V72.1473ZM446.909 79.932H436.809V106.942L454.532 86.56L446.909 79.932ZM490.353 82.1921L481.861 87.6615L489.557 99.6102L498.311 88.4135L490.353 82.1921ZM514.712 71.1429V81.2437C520.841 81.2437 524.889 82.9862 527.408 85.5049C529.905 88.0025 532.234 92.5986 532.234 101.026H542.335H552.436C552.436 88.8617 548.989 78.5162 541.693 71.2202C534.418 63.9452 524.654 61.042 514.712 61.042V71.1429ZM542.335 101.026H532.234V139.698H542.335H552.436V101.026H542.335ZM542.335 139.698V129.598H522.748V139.698V149.799H542.335V139.698ZM522.748 139.698H532.848V104.04H522.748H512.647V139.698H522.748ZM522.748 104.04H532.848C532.848 97.2579 531.35 90.573 527.028 85.4538C522.467 80.0513 516.134 77.9926 509.94 77.9926V88.0934V98.1943C510.861 98.1943 511.315 98.3407 511.461 98.4005C511.561 98.4414 511.565 98.4535 511.592 98.4864C511.696 98.6093 512.647 99.8974 512.647 104.04H522.748ZM509.94 88.0934V77.9926C503.32 77.9926 496.616 80.188 491.678 85.6548C486.857 90.9925 484.898 98.147 484.898 105.797H494.999H505.1C505.1 101.394 506.217 99.6965 506.67 99.1957C507.005 98.824 507.772 98.1943 509.94 98.1943V88.0934ZM494.999 105.797H484.898V139.698H494.999H505.1V105.797H494.999ZM494.999 139.698V129.598H475.412V139.698V149.799H494.999V139.698ZM475.412 139.698H485.512V104.04H475.412H465.311V139.698H475.412ZM475.412 104.04H485.512C485.512 97.3764 484.129 90.6706 479.832 85.5082C475.253 80.0067 468.847 77.9926 462.604 77.9926V88.0934V98.1943C463.626 98.1943 464.113 98.3527 464.255 98.4104C464.323 98.4379 464.333 98.4502 464.314 98.4362C464.294 98.4214 464.289 98.4126 464.305 98.4319C464.371 98.5117 465.311 99.779 465.311 104.04H475.412ZM462.604 88.0934V77.9926C456.006 77.9926 449.337 80.2141 444.432 85.677C439.646 91.0068 437.688 98.1458 437.688 105.797H447.788H457.889C457.889 101.395 459.007 99.6822 459.464 99.1734C459.801 98.7979 460.539 98.1943 462.604 98.1943V88.0934ZM447.788 105.797H437.688V139.698H447.788H457.889V105.797H447.788ZM447.788 139.698V129.598H428.201V139.698V149.799H447.788V139.698ZM428.201 139.698H438.302V72.1473H428.201H418.1V139.698H428.201ZM428.201 72.1473V82.2482H446.909V72.1473V62.0465H428.201V72.1473ZM446.909 72.1473H436.809V79.932H446.909H457.01V72.1473H446.909ZM446.909 79.932L454.532 86.56C457.282 83.3972 461.803 81.2437 468.129 81.2437V71.1429V61.042C457.128 61.042 446.582 64.9154 439.287 73.3041L446.909 79.932ZM468.129 71.1429V81.2437C474.87 81.2437 479.325 83.7242 481.861 87.6615L490.353 82.1921L498.845 76.7227C491.838 65.844 480.222 61.042 468.129 61.042V71.1429ZM490.353 82.1921L498.311 88.4135C501.581 84.231 507.283 81.2437 514.712 81.2437V71.1429V61.042C501.799 61.042 489.924 66.3417 482.396 75.9708L490.353 82.1921ZM609.596 72.1473V62.0465H599.495V72.1473H609.596ZM629.183 72.1473H639.284V62.0465H629.183V72.1473ZM629.183 139.698V149.799H639.284V139.698H629.183ZM610.475 139.698H600.374V149.799H610.475V139.698ZM610.475 131.914H620.575V103.923L602.701 125.464L610.475 131.914ZM609.596 79.3042L602.037 86.0042L619.697 105.928V79.3042H609.596ZM609.596 72.1473V82.2482H629.183V72.1473V62.0465H609.596V72.1473ZM629.183 72.1473H619.082V139.698H629.183H639.284V72.1473H629.183ZM629.183 139.698V129.598H610.475V139.698V149.799H629.183V139.698ZM610.475 139.698H620.575V131.914H610.475H600.374V139.698H610.475ZM610.475 131.914L602.701 125.464C600.149 128.54 596.152 130.602 589.381 130.602V140.703V150.804C600.69 150.804 611.007 147.09 618.248 138.364L610.475 131.914ZM589.381 140.703V130.602C582.273 130.602 576.47 128.11 572.469 124.119C568.495 120.155 565.706 114.121 565.706 105.923H555.605H545.504C545.504 118.944 550.06 130.3 558.203 138.422C566.318 146.516 577.403 150.804 589.381 150.804V140.703ZM555.605 105.923H565.706C565.706 97.7245 568.495 91.6909 572.469 87.7272C576.47 83.7361 582.273 81.2437 589.381 81.2437V71.1429V61.042C577.403 61.042 566.318 65.3299 558.203 73.4239C550.06 81.5453 545.504 92.9017 545.504 105.923H555.605ZM589.381 71.1429V81.2437C595.482 81.2437 599.48 83.1193 602.037 86.0042L609.596 79.3042L617.155 72.6043C609.918 64.4399 599.853 61.042 589.381 61.042V71.1429ZM609.596 79.3042H619.697V72.1473H609.596H599.495V79.3042H609.596ZM592.771 124.631V134.732C600.118 134.732 607.127 132.018 612.28 126.655C617.434 121.291 620.073 113.979 620.073 105.923H609.972H599.871C599.871 109.544 598.744 111.586 597.714 112.657C596.684 113.729 595.091 114.53 592.771 114.53V124.631ZM609.972 105.923H620.073C620.073 97.8667 617.434 90.5545 612.28 85.1909C607.127 79.8282 600.118 77.1136 592.771 77.1136V87.2145V97.3154C595.091 97.3154 596.684 98.1165 597.714 99.1887C598.744 100.26 599.871 102.302 599.871 105.923H609.972ZM592.771 87.2145V77.1136C585.395 77.1136 578.354 79.8043 573.169 85.1725C567.983 90.5424 565.343 97.866 565.343 105.923H575.443H585.544C585.544 102.303 586.671 100.272 587.7 99.2071C588.73 98.1404 590.353 97.3154 592.771 97.3154V87.2145ZM575.443 105.923H565.343C565.343 113.98 567.983 121.303 573.169 126.673C578.354 132.041 585.395 134.732 592.771 134.732V124.631V114.53C590.353 114.53 588.73 113.705 587.7 112.639C586.671 111.574 585.544 109.543 585.544 105.923H575.443ZM712.483 139.698V149.799H732.788L720.539 133.605L712.483 139.698ZM690.259 139.698L682.043 145.574L685.065 149.799H690.259V139.698ZM675.443 118.981L683.659 113.105L675.579 101.807L667.321 112.976L675.443 118.981ZM660.125 139.698V149.799H665.218L668.246 145.704L660.125 139.698ZM638.779 139.698L630.752 133.567L618.354 149.799H638.779V139.698ZM664.77 105.672L672.797 111.803L677.435 105.731L672.855 99.6161L664.77 105.672ZM639.658 72.1473V62.0465H619.472L631.574 78.203L639.658 72.1473ZM661.631 72.1473L669.805 66.2125L666.78 62.0465H661.631V72.1473ZM675.945 91.8602L667.772 97.7951L675.839 108.906L684.044 97.896L675.945 91.8602ZM690.636 72.1473V62.0465H685.566L682.536 66.1116L690.636 72.1473ZM711.479 72.1473L719.519 78.2615L731.85 62.0465H711.479V72.1473ZM686.367 105.17L678.326 99.0554L673.689 105.153L678.311 111.263L686.367 105.17ZM712.483 139.698V129.598H690.259V139.698V149.799H712.483V139.698ZM690.259 139.698L698.475 133.823L683.659 113.105L675.443 118.981L667.227 124.857L682.043 145.574L690.259 139.698ZM675.443 118.981L667.321 112.976L652.003 133.693L660.125 139.698L668.246 145.704L683.565 124.986L675.443 118.981ZM660.125 139.698V129.598H638.779V139.698V149.799H660.125V139.698ZM638.779 139.698L646.807 145.83L672.797 111.803L664.77 105.672L656.743 99.5404L630.752 133.567L638.779 139.698ZM664.77 105.672L672.855 99.6161L647.743 66.0917L639.658 72.1473L631.574 78.203L656.686 111.727L664.77 105.672ZM639.658 72.1473V82.2482H661.631V72.1473V62.0465H639.658V72.1473ZM661.631 72.1473L653.458 78.0822L667.772 97.7951L675.945 91.8602L684.119 85.9254L669.805 66.2125L661.631 72.1473ZM675.945 91.8602L684.044 97.896L698.735 78.1831L690.636 72.1473L682.536 66.1116L667.846 85.8245L675.945 91.8602ZM690.636 72.1473V82.2482H711.479V72.1473V62.0465H690.636V72.1473ZM711.479 72.1473L703.438 66.0331L678.326 99.0554L686.367 105.17L694.407 111.284L719.519 78.2615L711.479 72.1473ZM686.367 105.17L678.311 111.263L704.427 145.792L712.483 139.698L720.539 133.605L694.423 99.0763L686.367 105.17Z" fill="#D3E6CC" mask="url(#path-5-outside-1_247_2)"/>
<path d="M739.15 141.613C743.867 141.613 747.691 145.437 747.691 150.153C747.691 154.87 743.867 158.694 739.15 158.694C735.744 158.694 732.805 156.698 731.435 153.813H643.373L637.68 146.493H731.434C732.804 143.608 735.744 141.614 739.15 141.613ZM739.15 146.493C737.129 146.493 735.49 148.132 735.49 150.153C735.49 152.174 737.129 153.813 739.15 153.813C741.172 153.813 742.81 152.175 742.811 150.153C742.81 148.132 741.172 146.493 739.15 146.493ZM770.466 113.145C775.182 113.145 779.007 116.968 779.007 121.685C779.007 126.401 775.182 130.225 770.466 130.226C767.06 130.225 764.12 128.23 762.749 125.346H706.005L700.311 118.024H762.749C764.12 115.14 767.059 113.145 770.466 113.145ZM770.467 118.024C768.445 118.024 766.807 119.663 766.807 121.685C766.807 123.706 768.445 125.345 770.467 125.345C772.488 125.344 774.127 123.706 774.127 121.685C774.127 119.663 772.488 118.025 770.467 118.024ZM727.763 78.9824C732.479 78.9826 736.304 82.8067 736.304 87.5234C736.303 92.2398 732.479 96.0633 727.763 96.0635C724.356 96.0633 721.416 94.0679 720.045 91.1826H703.157L708.852 83.8623H720.046C721.417 80.9775 724.356 78.9826 727.763 78.9824ZM727.764 83.8633C725.742 83.8633 724.104 85.5019 724.104 87.5234C724.104 89.5448 725.742 91.1836 727.764 91.1836C729.785 91.1834 731.424 89.5447 731.424 87.5234C731.424 85.5021 729.785 83.8635 727.764 83.8633ZM750.538 53.3604C755.255 53.3605 759.079 57.1846 759.079 61.9014C759.079 66.6179 755.255 70.4412 750.538 70.4414C747.132 70.4412 744.192 68.4463 742.821 65.5615H691.771L697.464 58.2412H742.82C744.191 55.3559 747.131 53.3605 750.538 53.3604ZM750.537 58.2402C748.516 58.2404 746.877 59.8799 746.877 61.9014C746.877 63.9226 748.516 65.5614 750.537 65.5615C752.558 65.5614 754.197 63.9225 754.197 61.9014C754.197 59.88 752.558 58.2404 750.537 58.2402Z" fill="url(#paint3_linear_247_2)"/>
<path d="M347.724 152.521L352.892 162.515L358.074 152.521H361.068L354.205 164.99V172.427H351.566V164.99L344.703 152.521H347.724ZM361.67 165.195V164.88C361.67 163.814 361.825 162.825 362.135 161.913C362.445 160.993 362.891 160.195 363.474 159.521C364.058 158.837 364.764 158.309 365.594 157.935C366.423 157.552 367.353 157.361 368.383 157.361C369.422 157.361 370.356 157.552 371.185 157.935C372.024 158.309 372.735 158.837 373.318 159.521C373.911 160.195 374.362 160.993 374.672 161.913C374.982 162.825 375.137 163.814 375.137 164.88V165.195C375.137 166.261 374.982 167.25 374.672 168.161C374.362 169.073 373.911 169.87 373.318 170.554C372.735 171.228 372.029 171.757 371.199 172.14C370.379 172.514 369.449 172.7 368.41 172.7C367.371 172.7 366.437 172.514 365.607 172.14C364.778 171.757 364.067 171.228 363.474 170.554C362.891 169.87 362.445 169.073 362.135 168.161C361.825 167.25 361.67 166.261 361.67 165.195ZM364.199 164.88V165.195C364.199 165.933 364.286 166.63 364.459 167.286C364.632 167.934 364.892 168.508 365.238 169.009C365.594 169.51 366.036 169.907 366.564 170.198C367.093 170.481 367.708 170.622 368.41 170.622C369.103 170.622 369.709 170.481 370.228 170.198C370.757 169.907 371.195 169.51 371.541 169.009C371.887 168.508 372.147 167.934 372.32 167.286C372.502 166.63 372.594 165.933 372.594 165.195V164.88C372.594 164.151 372.502 163.463 372.32 162.816C372.147 162.159 371.883 161.581 371.527 161.079C371.181 160.569 370.743 160.168 370.215 159.876C369.695 159.585 369.085 159.439 368.383 159.439C367.69 159.439 367.079 159.585 366.551 159.876C366.031 160.168 365.594 160.569 365.238 161.079C364.892 161.581 364.632 162.159 364.459 162.816C364.286 163.463 364.199 164.151 364.199 164.88ZM387.359 169.009V157.634H389.902V172.427H387.482L387.359 169.009ZM387.838 165.892L388.891 165.865C388.891 166.849 388.786 167.76 388.576 168.599C388.376 169.428 388.047 170.148 387.592 170.759C387.136 171.37 386.539 171.848 385.801 172.195C385.062 172.532 384.165 172.7 383.107 172.7C382.387 172.7 381.726 172.596 381.125 172.386C380.532 172.176 380.022 171.853 379.594 171.415C379.165 170.978 378.833 170.408 378.596 169.706C378.368 169.004 378.254 168.161 378.254 167.177V157.634H380.783V167.204C380.783 167.87 380.856 168.421 381.002 168.859C381.157 169.287 381.362 169.629 381.617 169.884C381.881 170.13 382.173 170.303 382.492 170.404C382.82 170.504 383.157 170.554 383.504 170.554C384.579 170.554 385.432 170.349 386.06 169.939C386.689 169.519 387.141 168.959 387.414 168.257C387.696 167.546 387.838 166.758 387.838 165.892ZM396.287 159.958V172.427H393.758V157.634H396.219L396.287 159.958ZM400.908 157.552L400.894 159.904C400.685 159.858 400.484 159.831 400.293 159.822C400.111 159.803 399.901 159.794 399.664 159.794C399.081 159.794 398.566 159.885 398.119 160.068C397.672 160.25 397.294 160.505 396.984 160.833C396.674 161.161 396.428 161.553 396.246 162.009C396.073 162.456 395.959 162.948 395.904 163.486L395.193 163.896C395.193 163.003 395.28 162.164 395.453 161.38C395.635 160.596 395.913 159.904 396.287 159.302C396.661 158.691 397.135 158.217 397.709 157.88C398.292 157.534 398.985 157.361 399.787 157.361C399.969 157.361 400.179 157.383 400.416 157.429C400.653 157.465 400.817 157.506 400.908 157.552ZM421.963 152.521H424.588V165.988C424.588 167.482 424.255 168.726 423.59 169.72C422.924 170.713 422.04 171.461 420.937 171.962C419.844 172.454 418.654 172.7 417.369 172.7C416.02 172.7 414.799 172.454 413.705 171.962C412.62 171.461 411.759 170.713 411.121 169.72C410.492 168.726 410.178 167.482 410.178 165.988V152.521H412.789V165.988C412.789 167.027 412.98 167.883 413.363 168.558C413.746 169.232 414.279 169.734 414.963 170.062C415.655 170.39 416.458 170.554 417.369 170.554C418.29 170.554 419.092 170.39 419.775 170.062C420.468 169.734 421.006 169.232 421.389 168.558C421.771 167.883 421.963 167.027 421.963 165.988V152.521ZM430.877 160.792V172.427H428.348V157.634H430.74L430.877 160.792ZM430.275 164.47L429.223 164.429C429.232 163.417 429.382 162.483 429.674 161.626C429.965 160.76 430.376 160.008 430.904 159.37C431.433 158.732 432.062 158.24 432.791 157.894C433.529 157.538 434.345 157.361 435.238 157.361C435.967 157.361 436.624 157.461 437.207 157.661C437.79 157.853 438.287 158.163 438.697 158.591C439.116 159.019 439.435 159.575 439.654 160.259C439.873 160.934 439.982 161.758 439.982 162.734V172.427H437.439V162.706C437.439 161.932 437.325 161.312 437.098 160.847C436.87 160.373 436.537 160.031 436.099 159.822C435.662 159.603 435.124 159.493 434.486 159.493C433.857 159.493 433.283 159.626 432.764 159.89C432.253 160.154 431.811 160.519 431.437 160.984C431.073 161.448 430.786 161.982 430.576 162.583C430.376 163.176 430.275 163.805 430.275 164.47ZM446.572 151.427V172.427H444.029V151.427H446.572ZM449.963 165.195V164.88C449.963 163.814 450.118 162.825 450.428 161.913C450.738 160.993 451.184 160.195 451.767 159.521C452.351 158.837 453.057 158.309 453.887 157.935C454.716 157.552 455.646 157.361 456.676 157.361C457.715 157.361 458.649 157.552 459.478 157.935C460.317 158.309 461.028 158.837 461.611 159.521C462.204 160.195 462.655 160.993 462.965 161.913C463.275 162.825 463.43 163.814 463.43 164.88V165.195C463.43 166.261 463.275 167.25 462.965 168.161C462.655 169.073 462.204 169.87 461.611 170.554C461.028 171.228 460.321 171.757 459.492 172.14C458.672 172.514 457.742 172.7 456.703 172.7C455.664 172.7 454.73 172.514 453.9 172.14C453.071 171.757 452.36 171.228 451.767 170.554C451.184 169.87 450.738 169.073 450.428 168.161C450.118 167.25 449.963 166.261 449.963 165.195ZM452.492 164.88V165.195C452.492 165.933 452.579 166.63 452.752 167.286C452.925 167.934 453.185 168.508 453.531 169.009C453.887 169.51 454.329 169.907 454.857 170.198C455.386 170.481 456.001 170.622 456.703 170.622C457.396 170.622 458.002 170.481 458.521 170.198C459.05 169.907 459.488 169.51 459.834 169.009C460.18 168.508 460.44 167.934 460.613 167.286C460.795 166.63 460.887 165.933 460.887 165.195V164.88C460.887 164.151 460.795 163.463 460.613 162.816C460.44 162.159 460.176 161.581 459.82 161.079C459.474 160.569 459.036 160.168 458.508 159.876C457.988 159.585 457.377 159.439 456.676 159.439C455.983 159.439 455.372 159.585 454.844 159.876C454.324 160.168 453.887 160.569 453.531 161.079C453.185 161.581 452.925 162.159 452.752 162.816C452.579 163.463 452.492 164.151 452.492 164.88ZM472.521 170.622C473.123 170.622 473.679 170.499 474.189 170.253C474.7 170.007 475.119 169.67 475.447 169.241C475.775 168.804 475.962 168.307 476.008 167.751H478.414C478.368 168.626 478.072 169.442 477.525 170.198C476.988 170.946 476.281 171.552 475.406 172.017C474.531 172.473 473.57 172.7 472.521 172.7C471.409 172.7 470.439 172.504 469.609 172.113C468.789 171.721 468.105 171.183 467.558 170.499C467.021 169.816 466.615 169.032 466.342 168.148C466.077 167.254 465.945 166.311 465.945 165.318V164.743C465.945 163.75 466.077 162.811 466.342 161.927C466.615 161.034 467.021 160.245 467.558 159.562C468.105 158.878 468.789 158.34 469.609 157.948C470.439 157.557 471.409 157.361 472.521 157.361C473.679 157.361 474.691 157.598 475.557 158.072C476.422 158.536 477.101 159.174 477.594 159.986C478.095 160.788 478.368 161.699 478.414 162.72H476.008C475.962 162.109 475.789 161.558 475.488 161.066C475.196 160.573 474.795 160.182 474.285 159.89C473.784 159.589 473.196 159.439 472.521 159.439C471.747 159.439 471.095 159.594 470.566 159.904C470.047 160.204 469.632 160.615 469.322 161.134C469.021 161.644 468.803 162.214 468.666 162.843C468.538 163.463 468.474 164.096 468.474 164.743V165.318C468.474 165.965 468.538 166.603 468.666 167.232C468.793 167.861 469.008 168.43 469.308 168.941C469.618 169.451 470.033 169.861 470.553 170.171C471.081 170.472 471.738 170.622 472.521 170.622ZM483.801 151.427V172.427H481.258V151.427H483.801ZM492.838 157.634L486.385 164.538L482.775 168.284L482.57 165.591L485.154 162.501L489.748 157.634H492.838ZM490.527 172.427L485.25 165.372L486.562 163.116L493.508 172.427H490.527ZM498.197 157.634V172.427H495.654V157.634H498.197ZM495.463 153.71C495.463 153.3 495.586 152.954 495.832 152.671C496.087 152.389 496.461 152.247 496.953 152.247C497.436 152.247 497.805 152.389 498.06 152.671C498.325 152.954 498.457 153.3 498.457 153.71C498.457 154.102 498.325 154.439 498.06 154.722C497.805 154.995 497.436 155.132 496.953 155.132C496.461 155.132 496.087 154.995 495.832 154.722C495.586 154.439 495.463 154.102 495.463 153.71ZM504.787 160.792V172.427H502.258V157.634H504.65L504.787 160.792ZM504.185 164.47L503.133 164.429C503.142 163.417 503.292 162.483 503.584 161.626C503.876 160.76 504.286 160.008 504.814 159.37C505.343 158.732 505.972 158.24 506.701 157.894C507.439 157.538 508.255 157.361 509.148 157.361C509.877 157.361 510.534 157.461 511.117 157.661C511.7 157.853 512.197 158.163 512.607 158.591C513.027 159.019 513.346 159.575 513.564 160.259C513.783 160.934 513.892 161.758 513.892 162.734V172.427H511.349V162.706C511.349 161.932 511.236 161.312 511.008 160.847C510.78 160.373 510.447 160.031 510.01 159.822C509.572 159.603 509.034 159.493 508.396 159.493C507.767 159.493 507.193 159.626 506.674 159.89C506.163 160.154 505.721 160.519 505.348 160.984C504.983 161.448 504.696 161.982 504.486 162.583C504.286 163.176 504.185 163.805 504.185 164.47ZM527.318 157.634H529.615V172.113C529.615 173.416 529.351 174.528 528.822 175.448C528.293 176.369 527.555 177.066 526.607 177.54C525.668 178.023 524.584 178.265 523.353 178.265C522.843 178.265 522.241 178.183 521.549 178.019C520.865 177.864 520.191 177.595 519.525 177.212C518.869 176.838 518.318 176.333 517.871 175.695L519.197 174.191C519.817 174.938 520.464 175.458 521.139 175.749C521.822 176.041 522.497 176.187 523.162 176.187C523.964 176.187 524.657 176.036 525.24 175.736C525.823 175.435 526.275 174.988 526.594 174.396C526.922 173.812 527.086 173.092 527.086 172.236V160.888L527.318 157.634ZM517.133 165.195V164.907C517.133 163.777 517.265 162.752 517.529 161.831C517.803 160.902 518.19 160.104 518.691 159.439C519.202 158.773 519.817 158.263 520.537 157.907C521.257 157.543 522.068 157.361 522.971 157.361C523.9 157.361 524.711 157.525 525.404 157.853C526.106 158.172 526.698 158.641 527.182 159.261C527.674 159.872 528.061 160.61 528.344 161.476C528.626 162.342 528.822 163.322 528.932 164.415V165.673C528.831 166.758 528.635 167.733 528.344 168.599C528.061 169.465 527.674 170.203 527.182 170.814C526.698 171.424 526.106 171.894 525.404 172.222C524.702 172.541 523.882 172.7 522.943 172.7C522.059 172.7 521.257 172.514 520.537 172.14C519.826 171.766 519.215 171.242 518.705 170.568C518.195 169.893 517.803 169.1 517.529 168.189C517.265 167.268 517.133 166.27 517.133 165.195ZM519.662 164.907V165.195C519.662 165.933 519.735 166.626 519.881 167.273C520.036 167.92 520.268 168.49 520.578 168.982C520.897 169.474 521.303 169.861 521.795 170.144C522.287 170.417 522.875 170.554 523.558 170.554C524.397 170.554 525.09 170.376 525.637 170.021C526.183 169.665 526.616 169.196 526.935 168.613C527.264 168.029 527.519 167.396 527.701 166.712V163.417C527.601 162.916 527.446 162.433 527.236 161.968C527.036 161.494 526.771 161.075 526.443 160.71C526.124 160.337 525.728 160.04 525.254 159.822C524.78 159.603 524.224 159.493 523.586 159.493C522.893 159.493 522.296 159.639 521.795 159.931C521.303 160.213 520.897 160.605 520.578 161.107C520.268 161.599 520.036 162.173 519.881 162.829C519.735 163.476 519.662 164.169 519.662 164.907ZM546.021 166.411L549.973 152.521H551.887L550.779 157.921L546.527 172.427H544.627L546.021 166.411ZM541.933 152.521L545.078 166.138L546.021 172.427H544.135L539.308 152.521H541.933ZM557 166.124L560.076 152.521H562.715L557.902 172.427H556.016L557 166.124ZM552.174 152.521L556.016 166.411L557.41 172.427H555.51L551.408 157.921L550.287 152.521H552.174ZM570.959 172.7C569.929 172.7 568.995 172.527 568.156 172.181C567.327 171.825 566.611 171.329 566.01 170.691C565.417 170.053 564.961 169.296 564.642 168.421C564.323 167.546 564.164 166.589 564.164 165.55V164.976C564.164 163.773 564.342 162.702 564.697 161.763C565.053 160.815 565.536 160.013 566.146 159.357C566.757 158.7 567.45 158.204 568.224 157.866C568.999 157.529 569.801 157.361 570.631 157.361C571.688 157.361 572.599 157.543 573.365 157.907C574.14 158.272 574.773 158.782 575.266 159.439C575.758 160.086 576.122 160.851 576.359 161.736C576.596 162.611 576.715 163.568 576.715 164.607V165.741H565.668V163.677H574.185V163.486C574.149 162.829 574.012 162.191 573.775 161.572C573.547 160.952 573.183 160.441 572.682 160.04C572.18 159.639 571.497 159.439 570.631 159.439C570.057 159.439 569.528 159.562 569.045 159.808C568.562 160.045 568.147 160.4 567.801 160.874C567.454 161.348 567.185 161.927 566.994 162.611C566.803 163.294 566.707 164.083 566.707 164.976V165.55C566.707 166.252 566.803 166.913 566.994 167.532C567.195 168.143 567.482 168.681 567.855 169.146C568.238 169.611 568.698 169.975 569.236 170.24C569.783 170.504 570.403 170.636 571.096 170.636C571.989 170.636 572.745 170.454 573.365 170.089C573.985 169.725 574.527 169.237 574.992 168.626L576.523 169.843C576.204 170.326 575.799 170.786 575.307 171.224C574.814 171.661 574.208 172.017 573.488 172.29C572.777 172.564 571.934 172.7 570.959 172.7ZM588.391 169.898V162.282C588.391 161.699 588.272 161.193 588.035 160.765C587.807 160.327 587.461 159.99 586.996 159.753C586.531 159.516 585.957 159.398 585.273 159.398C584.635 159.398 584.075 159.507 583.592 159.726C583.118 159.945 582.744 160.232 582.471 160.587C582.206 160.943 582.074 161.325 582.074 161.736H579.545C579.545 161.207 579.682 160.683 579.955 160.163C580.228 159.644 580.62 159.174 581.131 158.755C581.65 158.327 582.27 157.99 582.99 157.743C583.719 157.488 584.53 157.361 585.424 157.361C586.499 157.361 587.447 157.543 588.267 157.907C589.097 158.272 589.744 158.823 590.209 159.562C590.683 160.291 590.92 161.207 590.92 162.31V169.2C590.92 169.693 590.961 170.217 591.043 170.773C591.134 171.329 591.266 171.807 591.439 172.208V172.427H588.801C588.673 172.135 588.573 171.748 588.5 171.265C588.427 170.773 588.391 170.317 588.391 169.898ZM588.828 163.458L588.855 165.236H586.299C585.579 165.236 584.936 165.295 584.371 165.413C583.806 165.523 583.332 165.691 582.949 165.919C582.566 166.147 582.275 166.434 582.074 166.781C581.874 167.118 581.773 167.514 581.773 167.97C581.773 168.435 581.878 168.859 582.088 169.241C582.297 169.624 582.612 169.93 583.031 170.157C583.46 170.376 583.984 170.486 584.603 170.486C585.378 170.486 586.062 170.322 586.654 169.993C587.247 169.665 587.716 169.264 588.062 168.79C588.418 168.316 588.609 167.856 588.637 167.409L589.717 168.626C589.653 169.009 589.48 169.433 589.197 169.898C588.915 170.363 588.536 170.809 588.062 171.238C587.598 171.657 587.042 172.008 586.394 172.29C585.756 172.564 585.036 172.7 584.234 172.7C583.232 172.7 582.352 172.504 581.596 172.113C580.848 171.721 580.265 171.197 579.846 170.54C579.435 169.875 579.23 169.132 579.23 168.312C579.23 167.519 579.385 166.822 579.695 166.22C580.005 165.609 580.452 165.103 581.035 164.702C581.618 164.292 582.32 163.982 583.141 163.773C583.961 163.563 584.877 163.458 585.889 163.458H588.828ZM597.646 151.427V172.427H595.103V151.427H597.646ZM607.9 157.634V159.575H599.902V157.634H607.9ZM602.609 154.038H605.139V168.763C605.139 169.264 605.216 169.642 605.371 169.898C605.526 170.153 605.726 170.322 605.973 170.404C606.219 170.486 606.483 170.527 606.766 170.527C606.975 170.527 607.194 170.508 607.422 170.472C607.659 170.426 607.836 170.39 607.955 170.363L607.969 172.427C607.768 172.491 607.504 172.55 607.176 172.605C606.857 172.669 606.469 172.7 606.014 172.7C605.394 172.7 604.824 172.577 604.305 172.331C603.785 172.085 603.37 171.675 603.06 171.101C602.76 170.517 602.609 169.734 602.609 168.749V154.038ZM613.396 151.427V172.427H610.867V151.427H613.396ZM612.795 164.47L611.742 164.429C611.751 163.417 611.902 162.483 612.193 161.626C612.485 160.76 612.895 160.008 613.424 159.37C613.952 158.732 614.581 158.24 615.31 157.894C616.049 157.538 616.864 157.361 617.758 157.361C618.487 157.361 619.143 157.461 619.726 157.661C620.31 157.853 620.807 158.163 621.217 158.591C621.636 159.019 621.955 159.575 622.174 160.259C622.392 160.934 622.502 161.758 622.502 162.734V172.427H619.959V162.706C619.959 161.932 619.845 161.312 619.617 160.847C619.389 160.373 619.057 160.031 618.619 159.822C618.182 159.603 617.644 159.493 617.006 159.493C616.377 159.493 615.803 159.626 615.283 159.89C614.773 160.154 614.331 160.519 613.957 160.984C613.592 161.448 613.305 161.982 613.096 162.583C612.895 163.176 612.795 163.805 612.795 164.47Z" fill="black"/>
<defs>
<linearGradient id="paint0_linear_247_2" x1="-39.1201" y1="112.734" x2="242.018" y2="64.1547" gradientUnits="userSpaceOnUse">
<stop stop-color="#90C626"/>
<stop offset="1" stop-color="#20934A"/>
</linearGradient>
<linearGradient id="paint1_linear_247_2" x1="321.137" y1="173.9" x2="139.482" y2="142.497" gradientUnits="userSpaceOnUse">
<stop stop-color="#90C626"/>
<stop offset="1" stop-color="#20934A"/>
</linearGradient>
<linearGradient id="paint2_linear_247_2" x1="245.039" y1="103.817" x2="590.886" y2="17.1238" gradientUnits="userSpaceOnUse">
<stop stop-color="#90C626"/>
<stop offset="1" stop-color="#20934A"/>
</linearGradient>
<linearGradient id="paint3_linear_247_2" x1="620.928" y1="112.649" x2="743.068" y2="97.649" gradientUnits="userSpaceOnUse">
<stop stop-color="#90C626"/>
<stop offset="1" stop-color="#20934A"/>
</linearGradient>
</defs>
</svg>
