<svg width="192" height="192" viewBox="0 0 192 192" fill="none" xmlns="http://www.w3.org/2000/svg">
<rect width="192" height="192" rx="20" fill="url(#paint0_linear_164_2)"/>
<path d="M96.8911 12.1265C143.492 12.1265 181.27 49.9042 181.27 96.5054C181.27 143.107 143.492 180.884 96.8911 180.884C67.8193 180.884 42.1816 166.182 27.0073 143.807L22.8139 136.941C21.1321 133.866 19.6353 130.675 18.3403 127.383C17.7655 125.866 16.4785 122.334 15.9262 120.342C13.7044 112.783 12.5122 104.784 12.5122 96.5054C12.5122 90.1821 13.2081 84.0213 14.5268 78.0952C14.9921 75.8197 15.9816 72.4522 16.4184 71.0532C17.4157 67.8973 18.5938 64.8218 19.9399 61.8384L23.6704 54.5425C38.2274 29.1968 65.5656 12.1265 96.8911 12.1265ZM96.6958 27.5444C57.6554 27.5445 26.0073 58.6478 26.0073 97.0151C26.0073 135.382 57.6554 166.486 96.6958 166.486C135.736 166.486 167.385 135.383 167.385 97.0151C167.385 58.6477 135.736 27.5444 96.6958 27.5444Z" fill="#012426"/>
<path d="M96.7003 29.9824C131.85 29.9824 160.794 56.0753 164.546 89.6133H162.44C162.534 90.431 162.613 91.2534 162.676 92.0801H160.576C160.641 92.8983 160.689 93.7212 160.722 94.5479H158.258V95.7812H162.853C162.86 96.1916 162.864 96.6035 162.864 97.0156C162.864 97.4276 162.86 97.8389 162.853 98.249H164.946C164.276 134.701 133.978 164.048 96.7003 164.048C59.0032 164.048 28.4437 134.036 28.4435 97.0156C28.4435 59.9946 59.0031 29.9826 96.7003 29.9824ZM96.7003 31.2158C59.6969 31.216 29.6993 60.6759 29.6993 97.0156C29.6996 133.355 59.697 162.814 96.7003 162.814C132.863 162.814 162.334 134.679 163.655 99.4824H160.722C159.611 127.764 139.493 151.258 112.558 157.993C112.426 158.39 112.083 158.707 111.636 158.792L107.135 159.645C106.705 159.726 106.284 159.573 106.01 159.276C102.971 159.711 99.8621 159.936 96.7003 159.936C61.3159 159.935 32.6312 131.765 32.631 97.0156C32.631 91.2202 33.4293 85.6075 34.9229 80.2783C34.6012 80.0825 34.4451 79.6887 34.5694 79.3203L36.2452 74.3555C36.3722 73.9792 36.7491 73.7524 37.1349 73.7959C46.5432 50.5382 69.6664 34.0949 96.7003 34.0947C129.102 34.0947 155.886 57.7153 160.172 88.3789H163.13C158.824 56.1204 130.723 31.2158 96.7003 31.2158ZM96.7003 32.0391C129.825 32.0391 157.264 55.9439 162.106 87.1455H160.873C156.042 56.6071 129.151 33.2344 96.7003 33.2344C60.8319 33.2346 31.755 61.7907 31.755 97.0156C31.7552 132.24 60.8321 160.796 96.7003 160.796C131.304 160.796 159.587 134.219 161.539 100.717H162.759C160.805 134.88 131.976 161.992 96.7003 161.992C60.1596 161.992 30.5374 132.901 30.5372 97.0156C30.5372 61.1302 60.1594 32.0393 96.7003 32.0391ZM96.7003 35.2529C70.179 35.2531 47.4924 51.3755 38.2472 74.1846C38.528 74.3907 38.6565 74.7577 38.5401 75.1025L36.8653 80.0674C36.7462 80.4204 36.4069 80.6408 36.047 80.6309C34.5889 85.8486 33.8106 91.3433 33.8106 97.0156C33.8109 131.126 61.9672 158.777 96.7003 158.777C99.7717 158.777 102.793 158.561 105.746 158.144C105.87 157.731 106.218 157.4 106.678 157.312L111.178 156.46C111.621 156.376 112.055 156.541 112.328 156.855C138.722 150.227 158.433 127.201 159.542 99.4824H158.146C158.001 99.7283 157.73 99.8936 157.42 99.8936H156.512C154.983 131.035 128.789 155.823 96.7003 155.823C96.5608 155.823 96.4215 155.822 96.2823 155.821V152.721C96.4215 152.722 96.5608 152.723 96.7003 152.723C126.762 152.723 151.362 129.757 153.302 100.717H154.368C152.435 130.199 127.578 153.553 97.1192 153.766V154.739C128.408 154.525 153.888 130.302 155.408 99.8936H153.651C153.341 99.8936 153.071 99.7283 152.926 99.4824H152.34C151.026 128.545 126.618 151.711 96.7003 151.711L96.5518 151.71L96.2823 151.709V150.888L97.3331 150.7C125.545 150.386 148.625 129.086 151.143 101.95H150.068C147.969 124.127 131.862 142.312 110.52 147.889L110.518 147.188L110.52 144.525C129.499 139.211 143.897 123.224 146.558 103.595H147.775C145.13 123.593 130.591 139.925 111.356 145.521V146.379C131.582 140.597 146.75 123.151 148.807 101.95H147.37C146.908 101.95 146.532 101.582 146.532 101.128V99.4824H144.439L139.414 107.708H132.714V108.941H128.526V104.829H132.714V106.474H139.414L144.439 98.249H146.532V97.0156H144.02L139.414 101.539H132.714V103.184H128.526V99.0713H132.714V100.305H139.414L144.02 95.7812H146.532V94.5479H132.714V96.1924H128.526V92.0801H132.714V93.3145H146.532V92.0801H144.02L139.414 87.5566H132.714V89.2012H128.526V85.0889H132.714V86.3232H139.414L144.02 90.8467H146.532V89.6133H144.439L136.901 81.3877H132.714V83.0332H128.526V78.9209H132.714V80.1543H136.901L144.439 88.3789H146.532V87.5566C146.532 87.1024 146.908 86.7344 147.37 86.7344H147.998C144.181 68.2683 130.285 53.396 112.194 47.8984V48.7607C129.281 54.0468 142.523 67.8435 146.768 85.0889H145.525C141.266 68.2195 128.179 54.7723 111.358 49.748L111.357 48.9014L111.358 46.3682C130.551 51.7148 145.361 67.301 149.279 86.7344H150.369C146.061 64.9184 128.303 47.8159 105.911 44.085V45.2002H101.723V41.0879H101.726V40.4756C127.935 42.6927 149.144 62.0904 153.618 87.1455H152.538C148.327 64.0166 129.581 45.8346 105.911 42.0391V43.0645C128.887 46.8195 147.106 64.3862 151.422 86.7822C151.745 86.8962 151.977 87.2 151.977 87.5566V88.3789H154.827C150.603 60.7263 126.406 39.4917 97.1192 39.291V38.209C127.016 38.4101 151.708 60.1264 155.941 88.3789H158.982C154.704 58.357 128.449 35.2529 96.7003 35.2529ZM96.7003 36.1514C111.574 36.1514 125.224 41.2967 135.905 49.874C136.313 49.7279 136.788 49.8029 137.132 50.1084L140.533 53.125C140.888 53.4393 141.009 53.9137 140.886 54.3359C149.665 63.1004 155.76 74.4649 157.865 87.1455H156.71C154.617 74.7798 148.656 63.6976 140.09 55.1387C139.694 55.2622 139.243 55.182 138.912 54.8887L135.511 51.8711C135.17 51.5691 135.045 51.1202 135.146 50.7109C124.667 42.31 111.282 37.2715 96.7003 37.2715C96.4205 37.2715 96.1412 37.2727 95.8624 37.2764V38.2129L95.8634 39.2354L95.9229 39.2949C95.9028 39.2952 95.8826 39.2956 95.8624 39.2959V40.2695C96.1412 40.2656 96.4205 40.2637 96.7003 40.2637V41.3076C96.4205 41.3076 96.1412 41.3105 95.8624 41.3145V42.3262C96.1412 42.3221 96.4205 42.3193 96.7003 42.3193V43.3262C96.4205 43.3262 96.1412 43.3289 95.8624 43.333V43.5557H95.2872C95.8488 43.5751 96.3302 43.9051 96.5587 44.376C96.6059 44.3759 96.6531 44.376 96.7003 44.376V51.9873C96.7001 52.7822 96.0439 53.4268 95.2345 53.4268C94.425 53.4267 93.7688 52.7822 93.7686 51.9873V44.9951C93.7686 44.2172 94.3973 43.5827 95.1827 43.5557H94.6056V43.3652C94.3963 43.373 94.1872 43.3816 93.9786 43.3916V42.3838C94.1873 42.3739 94.3963 42.365 94.6056 42.3574V41.3457C94.3963 41.3532 94.1873 41.3614 93.9786 41.3711V40.3252C94.1873 40.3157 94.3963 40.3071 94.6056 40.2998V39.3252C94.5824 39.326 94.5593 39.3273 94.5362 39.3281L94.6056 39.2373V37.3057C61.9773 38.3901 35.8653 64.7086 35.8653 97.0156C35.8656 128.629 60.868 154.507 92.5128 156.62V156.646H92.919C93.2017 156.663 93.4849 156.678 93.7686 156.691V150.477H94.3458C93.5604 150.45 92.9319 149.816 92.9317 149.038V142.046C92.9317 141.251 93.588 140.606 94.3976 140.605C95.2071 140.605 95.8634 141.251 95.8634 142.046V149.038C95.8632 149.816 95.2347 150.45 94.4493 150.477H95.0255V156.737C95.5819 156.752 96.1402 156.759 96.7003 156.759C129.033 156.759 155.475 131.988 157.421 100.717H158.564C156.615 132.607 129.663 157.879 96.7003 157.879C96.1403 157.879 95.582 157.872 95.0255 157.857V157.88H93.7686V157.812C60.9019 156.309 34.7249 129.665 34.7247 97.0156C34.7247 64.0899 61.3472 37.2705 94.6056 36.1855V36.1523H95.8624V36.1562C96.1413 36.1526 96.4206 36.1514 96.7003 36.1514ZM93.3507 39.3818C62.4461 41.0871 37.921 66.2388 37.921 97.0156C37.9212 127.234 61.5643 152.028 91.6749 154.532V153.556C62.1127 151.055 38.9124 126.696 38.9122 97.0156C38.9122 69.7631 58.4725 46.9967 84.5577 41.5186V41.498H84.6544C86.0009 41.2176 87.3648 40.9834 88.7442 40.7969L88.7462 45.6113H84.5577V44.6553C83.5651 44.8764 82.5827 45.1241 81.6114 45.3975L79.5313 45.8154V46.0273C57.7491 53.0975 42.0313 73.2542 42.0313 97.0156C42.0315 120.471 57.348 140.414 78.6944 147.724V148.215L87.9063 150.065L92.5128 150.888V151.559C63.7098 149.456 41.0062 125.839 41.006 97.0156C41.006 70.9039 59.6379 49.0649 84.5577 43.623V42.5869C59.0644 48.0469 39.9757 70.3425 39.9757 97.0156C39.9759 126.398 63.1402 150.468 92.5128 152.573V155.682C61.3949 153.571 36.8187 128.112 36.8185 97.0156C36.8185 65.6409 61.8371 40.0044 93.3507 38.2979V39.3818ZM79.5313 48.4385L79.5284 48.4395V49.3115L79.5313 49.3105V50.5703C63.1325 56.4182 50.7093 70.4039 47.3224 87.5566H48.2257C51.579 70.8879 63.6245 57.287 79.5313 51.498V52.7129L79.5284 52.7139V53.6992L79.5313 53.6982V54.8691C66.858 59.8529 56.9565 70.1906 52.7257 83.0332H65.713C65.713 82.5791 66.0875 82.2101 66.5499 82.21H74.9249C75.3874 82.21 75.7628 82.579 75.7628 83.0332H82.463V84.2666H75.7628C75.7628 84.7209 75.3874 85.0889 74.9249 85.0889H66.5499C66.0875 85.0887 65.713 84.7208 65.713 84.2666H51.1837C55.163 70.5379 65.4095 59.4009 78.6915 54.0283V53.0361C63.8443 58.9054 52.6539 71.8159 49.4073 87.5566H65.713C65.713 87.1025 66.0875 86.7346 66.5499 86.7344H74.9249C75.3874 86.7344 75.7628 87.1024 75.7628 87.5566H82.463V88.79H75.7628C75.7628 89.2443 75.3874 89.6133 74.9249 89.6133H66.5499C66.0875 89.6131 65.713 89.2442 65.713 88.79H45.8712C48.8814 70.7124 61.65 55.857 78.6915 49.6104V48.7334C60.1589 55.4023 46.5348 72.0683 44.5938 92.0801H65.713C65.7131 91.626 66.0876 91.258 66.5499 91.2578H74.9249C75.3874 91.2578 75.7627 91.6259 75.7628 92.0801H82.463V93.3145H75.7628C75.7625 93.7685 75.3873 94.1367 74.9249 94.1367H66.5499C66.0877 94.1365 65.7132 93.7684 65.713 93.3145H44.4893C44.4008 94.5367 44.3565 95.7712 44.3565 97.0156C44.3567 118.882 58.2592 137.56 77.8575 144.989V144.106C58.7318 136.72 45.1936 118.42 45.1935 97.0156C45.1935 96.8784 45.1943 96.7405 45.1954 96.6035H65.713C65.7132 96.1496 66.0877 95.7814 66.5499 95.7812H74.9249C75.3873 95.7812 75.7626 96.1495 75.7628 96.6035H82.463V97.8379H75.7628C75.7627 98.292 75.3874 98.6602 74.9249 98.6602H66.5499C66.0876 98.66 65.7131 98.2919 65.713 97.8379H48.4522C48.786 117.092 60.8124 133.548 77.8575 140.655V139.655C61.7049 132.762 50.2339 117.275 49.4268 99.0713H50.5372C51.3502 116.976 62.727 132.181 78.6944 138.822L78.6954 141.431L78.6944 142.219C60.5545 135.245 47.6361 118.044 47.294 97.8379H46.4073C46.7514 118.533 60.055 136.133 78.6944 143.153V146.61C57.9491 139.346 43.0999 119.884 43.0997 97.0156C43.0997 73.841 58.3494 54.1641 79.5313 47.1348V48.4385ZM90.419 63.0479H99.6319V48.0771H108.845V63.0479H125.275V103.431C125.275 116.85 119.025 127.595 108.007 132.33V146.364H98.794V134.711C97.3773 134.87 95.9108 134.951 94.3966 134.951C92.7465 134.951 91.1397 134.86 89.5821 134.679V146.364H81.2071V132.655C70.4901 128.51 63.6192 118.826 63.6192 104.236H76.6515C76.6515 116.321 82.4665 122.464 94.3966 122.464C106.427 122.464 112.041 114.105 112.041 103.431V75.4346H75.2862V63.0479H82.044V48.0771H90.419V63.0479ZM145.663 103.595C143.02 122.741 129.007 138.341 110.52 143.619V140.333C126.169 135.523 138.239 122.759 141.82 106.862L143.547 103.611C140.985 121.318 128.259 135.812 111.356 141.214V142.18C128.784 136.73 141.916 121.82 144.494 103.595H145.663ZM103.819 101.533C104.092 102.381 104.238 103.28 104.238 104.212C104.238 109.322 99.8324 113.465 94.3976 113.465C88.9626 113.465 84.5567 109.322 84.5567 104.212C84.5567 103.28 84.7034 102.381 84.9757 101.533V82.21H103.819V101.533ZM151.977 98.249H152.814V97.0156H151.977V98.249ZM158.258 98.249H161.635C161.643 97.8389 161.647 97.4276 161.647 97.0156H158.258V98.249ZM152.34 94.5479C152.358 94.9578 152.372 95.369 152.381 95.7812H152.814V94.5479H152.34ZM152.172 92.0801C152.209 92.49 152.242 92.9019 152.27 93.3145H152.926C153.071 93.0686 153.341 92.9023 153.651 92.9023H157.42C157.73 92.9023 158.001 93.0686 158.146 93.3145H159.514V92.0801H152.172ZM151.977 90.8467H161.347C161.306 90.4344 161.262 90.0232 161.214 89.6133H151.977V90.8467ZM111.358 50.6582C127.689 55.6326 140.394 68.7017 144.61 85.0889H143.415C139.33 69.6128 127.481 57.2075 112.194 52.1211V53.0928C126.69 58.0237 137.988 69.6805 142.216 84.2617L140.24 81.7754C135.491 68.6909 124.801 58.3759 111.358 53.9639L111.357 53.4248L111.358 50.6582Z" fill="#022426"/>
<path d="M95.1605 171.306L94.621 171.287C94.5561 171.285 94.5219 171.315 94.5198 171.38L94.3739 175.549L92.6219 175.488L92.7871 170.768C92.7959 170.513 92.8965 170.298 93.0859 170.124C93.2767 169.946 93.6235 169.867 94.1287 169.884L95.2088 169.922L95.1605 171.306Z" fill="url(#paint1_linear_164_2)"/>
<path d="M74.789 166.614L73.2275 172.048L74.9126 172.53L75.6116 170.098L75.741 172.767L77.354 173.229L78.9156 167.795L77.2304 167.313L76.5325 169.741L76.4019 167.076L74.789 166.614Z" fill="url(#paint2_linear_164_2)"/>
<path fill-rule="evenodd" clip-rule="evenodd" d="M64.216 162.288C64.0585 162.255 63.8751 162.278 63.6659 162.356C63.251 162.51 62.9149 162.863 62.6587 163.411L61.6829 165.499C61.4267 166.047 61.3722 166.531 61.5203 166.947C61.5949 167.157 61.6954 167.312 61.8218 167.411L64.7294 168.764L67.1236 163.641L64.216 162.288ZM64.4872 163.638C64.5135 163.581 64.554 163.566 64.6106 163.593L65.1045 163.823L63.571 167.104L63.0773 166.874C63.0207 166.848 63.006 166.807 63.0323 166.751L64.4872 163.638Z" fill="url(#paint3_linear_164_2)"/>
<path d="M60.0301 166.535L57.2937 164.958L57.8029 164.078L59.0213 164.78L59.6139 163.756L58.3955 163.054L58.8972 162.187L60.1154 162.889L60.8354 161.645L59.617 160.943L60.1264 160.063L62.8628 161.639L60.0301 166.535Z" fill="url(#paint4_linear_164_2)"/>
<path d="M54.2106 163.073C53.7878 162.799 53.5485 162.534 53.4952 162.28C53.4409 162.03 53.4857 161.796 53.628 161.577L54.2817 160.572L55.7521 161.525L55.1939 162.383C55.1586 162.437 55.1668 162.48 55.2192 162.514L55.5982 162.76C55.6505 162.794 55.6934 162.784 55.7288 162.729L57.6037 159.849C57.6362 159.799 57.6267 159.758 57.5742 159.724L57.1953 159.478C57.143 159.444 57.1014 159.452 57.0689 159.502L56.5059 160.367L55.0355 159.414L55.6941 158.402C55.8335 158.188 56.0287 158.054 56.2797 158.002C56.5342 157.947 56.8733 158.058 57.2962 158.332L58.5796 159.163C59.0046 159.439 59.244 159.703 59.2949 159.956C59.3514 160.207 59.241 160.545 58.9665 160.967L57.3066 163.517C57.0291 163.943 56.7637 164.183 56.5104 164.234C56.2582 164.29 55.919 164.18 55.4941 163.904L54.2106 163.073Z" fill="url(#paint5_linear_164_2)"/>
<path d="M52.3891 161.921L49.8328 160.068L50.4315 159.246L51.5696 160.071L52.2662 159.114L51.1281 158.289L51.7179 157.479L52.8559 158.304L53.7022 157.142L52.5641 156.317L53.1627 155.495L55.7191 157.348L52.3891 161.921Z" fill="url(#paint6_linear_164_2)"/>
<path d="M49.4275 152.507L45.8622 156.901L47.2246 158.001L48.8206 156.035L47.8945 158.543L49.1985 159.596L52.7637 155.203L51.4014 154.102L49.8078 156.066L50.7315 153.561L49.4275 152.507Z" fill="url(#paint7_linear_164_2)"/>
<path d="M45.1338 156.459L42.1073 153.543L42.8147 152.812L43.6974 153.663L46.9255 150.327L48.1865 151.542L44.9586 154.878L45.8414 155.728L45.1338 156.459Z" fill="url(#paint8_linear_164_2)"/>
<path fill-rule="evenodd" clip-rule="evenodd" d="M39.6076 151.015C39.2638 150.647 39.0958 150.333 39.1056 150.074C39.1156 149.816 39.3071 149.514 39.6777 149.17L39.7978 149.058C40.1218 148.756 40.3789 148.592 40.57 148.564C40.7557 148.537 41.0198 148.656 41.3628 148.92C41.1233 148.559 41.0247 148.286 41.0663 148.102C41.108 147.914 41.1999 147.753 41.3415 147.621L42.2147 146.809C42.509 146.535 42.7042 146.312 42.7977 146.14L43.9932 147.419C43.885 147.605 43.6768 147.84 43.3695 148.126L42.4907 148.944C42.4617 148.971 42.4552 149.005 42.4691 149.046L42.8633 149.467L44.4916 147.952L45.6871 149.232L41.5438 153.087L39.6076 151.015ZM40.729 150.583C40.6816 150.627 40.6791 150.671 40.7215 150.717L41.0931 151.115L42.1678 150.115L41.7962 149.717C41.7535 149.672 41.7094 149.671 41.6648 149.713L40.729 150.583Z" fill="url(#paint9_linear_164_2)"/>
<path fill-rule="evenodd" clip-rule="evenodd" d="M37.3937 148.591L42.5797 145.964L41.5315 144.718L40.3446 145.391L39.6785 144.599L40.5461 143.546L39.5012 142.303L36.0074 146.943L37.3937 148.591ZM39.4549 145.902L37.8631 146.794L39.0211 145.386L39.4549 145.902Z" fill="url(#paint10_linear_164_2)"/>
<path d="M34.8212 145.533L33.7419 144.154L37.1129 141.526L36.2468 140.42L37.3402 139.568L39.2855 142.052L34.8212 145.533Z" fill="url(#paint11_linear_164_2)"/>
<path d="M32.4776 142.467L31.4721 141.034L36.1127 137.791L37.1182 139.224L32.4776 142.467Z" fill="url(#paint12_linear_164_2)"/>
<path d="M31.0512 140.449L32.2334 139.712L31.3841 138.355L35.9035 137.53L33.8305 134.219L32.6536 134.953L33.4219 136.18L28.9605 137.11L31.0512 140.449Z" fill="url(#paint13_linear_164_2)"/>
<path d="M28.6003 136.615L27.0684 133.858L27.9592 133.365L28.6412 134.593L29.6777 134.019L28.9958 132.792L29.8733 132.306L30.5552 133.534L31.8145 132.838L31.1326 131.61L32.0234 131.117L33.5552 133.875L28.6003 136.615Z" fill="url(#paint14_linear_164_2)"/>
<path fill-rule="evenodd" clip-rule="evenodd" d="M30.3651 127.741C30.261 127.618 30.1028 127.524 29.8898 127.456C29.4675 127.323 28.9852 127.394 28.4452 127.669L26.3877 128.715C25.8476 128.99 25.5064 129.337 25.366 129.756C25.2954 129.968 25.2791 130.151 25.3172 130.307L26.7738 133.159L31.8217 130.593L30.3651 127.741ZM29.7459 128.971C29.8015 128.943 29.8426 128.956 29.8709 129.012L30.1183 129.496L26.8854 131.14L26.6381 130.655C26.6097 130.6 26.6232 130.559 26.6787 130.53L29.7459 128.971Z" fill="url(#paint15_linear_164_2)"/>
<path fill-rule="evenodd" clip-rule="evenodd" d="M27.8274 121.648C27.7367 121.516 27.5893 121.405 27.3844 121.316C26.9785 121.14 26.4913 121.16 25.9255 121.377L23.7696 122.203C23.2038 122.419 22.8282 122.729 22.6447 123.131C22.5522 123.334 22.5167 123.515 22.5384 123.674L23.6881 126.663L28.977 124.637L27.8274 121.648ZM27.0828 122.807C27.1411 122.785 27.1804 122.803 27.2029 122.861L27.3981 123.368L24.0108 124.666L23.8154 124.158C23.7931 124.1 23.8107 124.061 23.8689 124.038L27.0828 122.807Z" fill="url(#paint16_linear_164_2)"/>
<path d="M22.0042 122.035L21.4624 120.371L26.8504 118.625L27.3922 120.288L22.0042 122.035Z" fill="url(#paint17_linear_164_2)"/>
<path d="M20.4178 116.877C20.2872 116.391 20.2867 116.035 20.4174 115.811C20.5475 115.588 20.8585 115.411 21.3478 115.28L22.1915 115.055L22.6452 116.745L21.6245 117.017C21.563 117.034 21.5389 117.072 21.5552 117.132L21.6721 117.567C21.6883 117.628 21.7281 117.649 21.7895 117.632L25.116 116.743C25.1725 116.728 25.1942 116.69 25.178 116.63L25.0611 116.195C25.0449 116.134 25.0074 116.113 24.951 116.128L23.8737 116.416L23.9556 116.722L23.3434 116.885L22.8076 114.89L25.5523 114.156L25.6835 114.645L25.2127 114.948C25.5558 114.91 25.8119 115.182 25.984 115.764L26.2861 116.889C26.4172 117.377 26.4192 117.733 26.2901 117.954C26.1609 118.18 25.8512 118.357 25.3642 118.487L22.4205 119.274C21.9311 119.405 21.5729 119.406 21.348 119.276C21.1228 119.149 20.9449 118.84 20.8139 118.352L20.4178 116.877Z" fill="url(#paint18_linear_164_2)"/>
<path d="M19.9741 114.923L19.5798 113.218L25.0999 111.947L25.4943 113.651L19.9741 114.923Z" fill="url(#paint19_linear_164_2)"/>
<path d="M19.4029 112.566L18.6722 108.432L19.6753 108.255L19.8885 109.461L24.4646 108.656L24.7691 110.379L20.1929 111.184L20.406 112.39L19.4029 112.566Z" fill="url(#paint20_linear_164_2)"/>
<path fill-rule="evenodd" clip-rule="evenodd" d="M18.4572 107.004L24.2408 107.619L24.0421 106.004L22.679 105.923L22.5527 104.897L23.8552 104.485L23.6572 102.875L18.1944 104.868L18.4572 107.004ZM21.6538 105.869L19.832 105.751L21.5715 105.2L21.6538 105.869Z" fill="url(#paint21_linear_164_2)"/>
<path d="M18.0155 102.988L17.8931 101.243L22.1605 100.945L22.0624 99.545L23.4465 99.4484L23.667 102.594L18.0155 102.988Z" fill="url(#paint22_linear_164_2)"/>
<path d="M17.8896 94.0772C17.9072 93.5744 18.011 93.2337 18.2019 93.0572C18.3888 92.8819 18.6133 92.7995 18.8741 92.8086L20.074 92.8503L20.0129 94.5987L18.9885 94.5629C18.9237 94.5608 18.8908 94.59 18.8886 94.6523L18.8728 95.1029C18.8706 95.1652 18.9014 95.1966 18.9664 95.1989L22.4067 95.3188C22.4664 95.3209 22.4968 95.2915 22.4989 95.2292L22.5147 94.7786C22.5169 94.7163 22.4886 94.6849 22.429 94.6829L21.3958 94.6469L21.4571 92.8985L22.6656 92.9407C22.9213 92.9495 23.1372 93.0474 23.3114 93.2352C23.4896 93.4245 23.5691 93.7717 23.5516 94.2744L23.4981 95.8006C23.4804 96.3058 23.3769 96.6465 23.186 96.8203C22.9989 96.9983 22.6521 97.0776 22.1481 97.0601L19.1025 96.9539C18.5933 96.9361 18.2505 96.8328 18.0763 96.6423C17.8983 96.4557 17.8185 96.1085 17.8363 95.6033L17.8896 94.0772Z" fill="url(#paint23_linear_164_2)"/>
<path d="M18.2662 87.8453L22.61 88.2245C23.1122 88.2684 23.4468 88.3881 23.611 88.5849C23.7791 88.7831 23.8402 89.134 23.7962 89.6352L23.6628 91.1563C23.6187 91.6599 23.4974 91.9948 23.2976 92.1585C23.1015 92.3263 22.7511 92.3875 22.2487 92.3436L17.9051 91.9644L18.0578 90.2218L22.5867 90.6172C22.6515 90.6228 22.686 90.5941 22.6916 90.5294L22.7306 90.0841C22.7361 90.0221 22.7071 89.989 22.6423 89.9833L18.1134 89.588L18.2662 87.8453Z" fill="url(#paint24_linear_164_2)"/>
<path fill-rule="evenodd" clip-rule="evenodd" d="M18.7354 84.2175C18.8057 83.7194 18.9444 83.3914 19.1528 83.2358C19.3596 83.0812 19.7152 83.04 20.2169 83.1103L20.3795 83.1333C20.8183 83.1947 21.1082 83.2907 21.2504 83.4209C21.3881 83.5481 21.4619 83.8278 21.4718 84.26C21.6018 83.8474 21.7524 83.5991 21.9225 83.5152C22.0953 83.4291 22.2781 83.3995 22.4698 83.4263L23.6522 83.5921C24.0507 83.648 24.3474 83.6589 24.5401 83.6232L24.2961 85.3552C24.0832 85.3881 23.7688 85.375 23.3529 85.3167L22.1628 85.1498C22.1237 85.1443 22.0932 85.1605 22.07 85.197L21.9896 85.7681L24.1945 86.0773L23.9505 87.8094L18.3403 87.0226L18.7354 84.2175ZM19.7775 84.8153C19.7131 84.8063 19.6774 84.8319 19.6688 84.8937L19.5928 85.432L21.0479 85.6361L21.1236 85.0977C21.1323 85.036 21.105 85.0014 21.0445 84.9929L19.7775 84.8153Z" fill="url(#paint25_linear_164_2)"/>
<path fill-rule="evenodd" clip-rule="evenodd" d="M19.8012 78.973C19.9231 78.4849 20.0956 78.1731 20.319 78.0402C20.541 77.908 20.899 77.9042 21.3905 78.0264L21.5499 78.0661C21.9798 78.1729 22.2581 78.2986 22.3858 78.4432C22.5096 78.5838 22.5535 78.8696 22.5181 79.3007C22.6906 78.9038 22.8665 78.6727 23.0442 78.6069C23.2253 78.5392 23.4102 78.5289 23.598 78.5756L24.7566 78.8638C25.147 78.961 25.441 79.0027 25.6364 78.9873L25.2123 80.6844C24.9971 80.6951 24.6857 80.649 24.2781 80.5476L23.1122 80.2576C23.0739 80.248 23.0417 80.261 23.0149 80.2949L22.875 80.8544L25.0354 81.3919L24.6114 83.0892L19.1143 81.7216L19.8012 78.973ZM20.7749 79.6761C20.7119 79.6605 20.6736 79.6823 20.6584 79.7428L20.5267 80.2703L21.9523 80.6249L22.084 80.0974C22.0992 80.037 22.0757 79.9997 22.0164 79.9851L20.7749 79.6761Z" fill="url(#paint26_linear_164_2)"/>
<path d="M20.2665 76.8841L21.1375 73.8535L22.1165 74.1336L21.7288 75.4828L22.868 75.8089L23.2558 74.4596L24.2201 74.7354L23.8324 76.0848L25.2165 76.4808L25.6042 75.1315L26.5832 75.4117L25.7123 78.4423L20.2665 76.8841Z" fill="url(#paint27_linear_164_2)"/>
<path d="M28.1313 70.8904L22.7746 69.05L22.204 70.7038L24.6017 71.5276L21.9233 71.517L21.377 73.0999L26.7337 74.9403L27.3044 73.2866L24.9102 72.4639L27.5851 72.4734L28.1313 70.8904Z" fill="url(#paint28_linear_164_2)"/>
<path d="M24.0876 65.628C24.2764 65.1616 24.4908 64.8768 24.7305 64.7761C24.9663 64.6752 25.2055 64.6744 25.4475 64.7719L26.5606 65.2206L25.9039 66.8427L24.9537 66.4596C24.8935 66.4353 24.8526 66.4516 24.8292 66.5095L24.6599 66.9274C24.6365 66.9853 24.6545 67.0253 24.7148 67.0496L27.9066 68.3362C27.962 68.3587 28.0007 68.3414 28.024 68.2835L28.1932 67.8656C28.2167 67.8077 28.2009 67.7687 28.1454 67.7463L27.187 67.3599L27.8438 65.738L28.9652 66.19C29.2024 66.2856 29.3716 66.4511 29.4709 66.6871C29.5735 66.9258 29.5292 67.2792 29.3403 67.7456L28.767 69.1614C28.5773 69.6302 28.3631 69.9151 28.1241 70.0131C27.8874 70.1165 27.5343 70.0728 27.0669 69.8843L24.2411 68.7452C23.7689 68.5548 23.4821 68.3406 23.3837 68.1022C23.2804 67.8659 23.3246 67.5126 23.5143 67.0438L24.0876 65.628Z" fill="url(#paint29_linear_164_2)"/>
<path d="M28.4177 63.8966L24.9573 63.5827L25.7366 62.1202L27.6549 62.4978L26.2673 61.1242L27.0461 59.6627L29.2425 62.3487L31.4166 63.5021L30.5916 65.05L28.4177 63.8966Z" fill="url(#paint30_linear_164_2)"/>
<path d="M86.77 174.94C86.2709 174.869 85.9421 174.731 85.7862 174.523C85.6309 174.319 85.5723 174.088 85.6086 173.83L85.7757 172.644L87.5117 172.887L87.3691 173.9C87.3602 173.964 87.3858 174 87.4478 174.008L87.8951 174.071C87.9571 174.08 87.9916 174.052 88.0007 173.988L88.4797 170.587C88.4881 170.528 88.4619 170.495 88.4001 170.486L87.9526 170.423C87.8908 170.414 87.8565 170.439 87.8482 170.498L87.7044 171.52L85.9682 171.276L86.1366 170.081C86.1721 169.828 86.2922 169.625 86.4977 169.471C86.7049 169.314 87.0593 169.272 87.5585 169.342L89.074 169.554C89.5757 169.625 89.9045 169.763 90.0579 169.971C90.2156 170.175 90.2584 170.527 90.1883 171.025L89.7641 174.037C89.6933 174.54 89.5544 174.869 89.3462 175.022C89.1417 175.18 88.7872 175.222 88.2855 175.152L86.77 174.94Z" fill="url(#paint31_linear_164_2)"/>
<path fill-rule="evenodd" clip-rule="evenodd" d="M81.8511 174.197C81.3561 174.101 81.0351 173.946 80.8902 173.73C80.746 173.518 80.7233 173.162 80.8204 172.663L81.402 169.678C81.4981 169.184 81.6525 168.865 81.8657 168.722C82.0811 168.576 82.4372 168.552 82.932 168.648L84.4342 168.94C84.9316 169.036 85.2527 169.191 85.3949 169.407C85.5417 169.619 85.566 169.973 85.4699 170.467L84.8883 173.452C84.7912 173.951 84.6351 174.273 84.4194 174.415C84.2067 174.561 83.8506 174.585 83.3533 174.489L81.8511 174.197ZM82.5023 173.198C82.491 173.256 82.5153 173.291 82.5766 173.303L83.0202 173.389C83.0814 173.401 83.1169 173.378 83.1284 173.319L83.7853 169.947C83.7976 169.884 83.7738 169.847 83.7125 169.835L83.2688 169.749C83.2075 169.737 83.1715 169.762 83.1592 169.826L82.5023 173.198Z" fill="url(#paint32_linear_164_2)"/>
<path d="M79.8695 173.773L78.1613 173.38L79.4358 167.872L81.1439 168.265L79.8695 173.773Z" fill="url(#paint33_linear_164_2)"/>
<path d="M34.8702 54.8005L35.1875 54.3647C35.2256 54.3124 35.2191 54.267 35.1668 54.229L31.7844 51.7768L32.8147 50.3618L36.6442 53.1379C36.8511 53.288 36.9736 53.4914 37.0121 53.7453C37.0531 54.0026 36.9252 54.3338 36.628 54.7418L35.9928 55.6143L34.8702 54.8005Z" fill="url(#paint34_linear_164_2)"/>
<path d="M36.2505 45.9029C36.5677 45.512 36.8562 45.3021 37.1151 45.2759C37.3701 45.2481 37.5991 45.3171 37.8019 45.481L38.7348 46.2348L37.6316 47.5943L36.8351 46.9508C36.7846 46.91 36.7408 46.9137 36.7015 46.9621L36.417 47.3125C36.3777 47.3609 36.3834 47.4046 36.4338 47.4453L39.1091 49.607C39.1556 49.6446 39.1975 49.6392 39.2368 49.5909L39.5212 49.2404C39.5605 49.192 39.5568 49.15 39.5103 49.1124L38.707 48.4634L39.8105 47.1038L40.7504 47.8633C40.9491 48.0239 41.0623 48.2316 41.0883 48.4862C41.1165 48.7445 40.9705 49.0694 40.6533 49.4604L39.6902 50.647C39.3713 51.0399 39.0831 51.25 38.8258 51.2741C38.5691 51.3038 38.2443 51.1589 37.8524 50.8423L35.484 48.9286C35.088 48.6089 34.8767 48.3204 34.8525 48.0636C34.8227 47.8077 34.9685 47.4826 35.2874 47.0895L36.2505 45.9029Z" fill="url(#paint35_linear_164_2)"/>
<path fill-rule="evenodd" clip-rule="evenodd" d="M39.6894 42.1302C40.0396 41.7683 40.3453 41.5843 40.6054 41.5806C40.8619 41.5751 41.1737 41.7503 41.5402 42.1033L43.7326 44.2158C44.0952 44.5653 44.2797 44.8684 44.2832 45.1243C44.2887 45.3839 44.115 45.695 43.7647 46.057L42.7016 47.1554C42.3496 47.519 42.0442 47.7031 41.7858 47.7048C41.5275 47.7121 41.2166 47.5396 40.854 47.1901L38.6615 45.0776C38.2951 44.7246 38.1097 44.4188 38.1081 44.1611C38.1007 43.9035 38.2745 43.5922 38.6264 43.2286L39.6894 42.1302ZM40.1749 43.2196C40.1318 43.178 40.0896 43.1797 40.0461 43.2246L39.7323 43.5488C39.6889 43.5937 39.6889 43.6359 39.7318 43.6773L42.2081 46.0633C42.2549 46.1083 42.2988 46.1085 42.3423 46.0638L42.6561 45.7394C42.6996 45.6945 42.6977 45.6507 42.6511 45.6056L40.1749 43.2196Z" fill="url(#paint36_linear_164_2)"/>
<path d="M41.2294 40.6165L42.5114 39.4236L46.3752 43.5578L45.093 44.7507L41.2294 40.6165Z" fill="url(#paint37_linear_164_2)"/>
<path d="M49.9782 40.331L46.3367 36.0006L44.9938 37.125L46.6239 39.0633L44.3335 37.6778L43.0482 38.754L46.6896 43.0843L48.0326 41.9599L46.405 40.0244L48.6928 41.4071L49.9782 40.331Z" fill="url(#paint38_linear_164_2)"/>
<path fill-rule="evenodd" clip-rule="evenodd" d="M57.6115 34.7101C57.7248 34.5961 57.8056 34.4304 57.854 34.2128C57.9501 33.7816 57.837 33.3083 57.5159 32.7956L56.2922 30.8415C55.9709 30.3286 55.5943 30.0198 55.1636 29.9168C54.9464 29.865 54.7617 29.8648 54.6093 29.9163L51.8886 31.6126L54.8908 36.4066L57.6115 34.7101ZM56.3294 34.2019C56.3623 34.2547 56.3527 34.2966 56.2997 34.3297L55.8377 34.6177L53.9149 31.5476L54.377 31.2595C54.4299 31.2264 54.4721 31.2364 54.5051 31.289L56.3294 34.2019Z" fill="url(#paint39_linear_164_2)"/>
<path d="M56.1295 28.959L58.8932 27.4306L59.3868 28.3194L58.1565 28.9999L58.7311 30.0341L59.9615 29.3537L60.4478 30.2292L59.2175 30.9096L59.9155 32.1662L61.1459 31.4858L61.6397 32.3746L58.8762 33.9031L56.1295 28.959Z" fill="url(#paint40_linear_164_2)"/>
<path d="M61.9848 25.7594C62.434 25.5308 62.7832 25.4562 63.0303 25.5373C63.2745 25.6154 63.4557 25.7715 63.5741 26.0035L64.1193 27.0708L62.5571 27.865L62.0919 26.9539C62.0624 26.8961 62.0208 26.8816 61.9652 26.9099L61.5624 27.1146C61.5068 27.1429 61.4941 27.1849 61.5236 27.2428L63.0865 30.3032C63.1136 30.3564 63.1541 30.3687 63.2097 30.3404L63.6123 30.1357C63.6681 30.1074 63.6819 30.0675 63.6547 30.0144L63.1854 29.0953L64.7475 28.3013L65.2965 29.3763C65.4128 29.6039 65.4316 29.8395 65.3515 30.0827C65.2719 30.3299 65.006 30.5676 64.5568 30.796L63.1934 31.4893C62.7418 31.7188 62.3929 31.7936 62.1481 31.7112C61.9016 31.6342 61.6637 31.3701 61.4349 30.9219L60.0513 28.2123C59.8201 27.7595 59.7445 27.4101 59.8271 27.1658C59.9042 26.9199 60.1699 26.682 60.6214 26.4525L61.9848 25.7594Z" fill="url(#paint41_linear_164_2)"/>
<path d="M63.9366 24.8722L66.8232 23.5899L67.2374 24.5182L65.9523 25.0893L66.4343 26.1697L67.7194 25.5986L68.1275 26.5132L66.8424 27.0841L67.428 28.3965L68.7131 27.8256L69.1274 28.754L66.2409 30.0365L63.9366 24.8722Z" fill="url(#paint42_linear_164_2)"/>
<path d="M73.6299 27.066L71.5996 21.7885L69.9632 22.4154L70.8719 24.7778L69.1583 22.7235L67.5919 23.3237L69.6222 28.6009L71.2588 27.9742L70.3514 25.6153L72.0634 27.6659L73.6299 27.066Z" fill="url(#paint43_linear_164_2)"/>
<path d="M72.53 21.4522L76.594 20.3656L76.8577 21.3471L75.6723 21.6641L76.8748 26.1428L75.1816 26.5955L73.9788 22.1168L72.7935 22.4337L72.53 21.4522Z" fill="url(#paint44_linear_164_2)"/>
<path fill-rule="evenodd" clip-rule="evenodd" d="M79.9433 19.5494C80.4365 19.4447 80.7931 19.4629 81.0108 19.605C81.227 19.7461 81.3874 20.0653 81.4928 20.5597L81.5269 20.7201C81.619 21.1525 81.6279 21.4572 81.5538 21.6352C81.4811 21.8077 81.243 21.9725 80.8392 22.1296C81.2724 22.1103 81.5578 22.1668 81.6948 22.2974C81.8351 22.43 81.9255 22.5912 81.9658 22.7802L82.214 23.9455C82.2976 24.3383 82.3889 24.6203 82.4885 24.7888L80.7738 25.1524C80.67 24.9641 80.5749 24.6647 80.4875 24.2547L80.2376 23.0818C80.2295 23.0433 80.2038 23.0202 80.1615 23.011L79.596 23.1309L80.0591 25.304L78.3444 25.6676L77.1665 20.1383L79.9433 19.5494ZM79.7368 20.7309C79.7233 20.6674 79.687 20.6428 79.6258 20.6558L79.0929 20.7688L79.3983 22.2027L79.9313 22.0897C79.9924 22.0767 80.0156 22.0393 80.0029 21.9797L79.7368 20.7309Z" fill="url(#paint45_linear_164_2)"/>
<path fill-rule="evenodd" clip-rule="evenodd" d="M83.1202 18.8533L82.8078 24.6482L84.4137 24.3657L84.4224 23.0034L85.443 22.8238L85.9232 24.1001L87.5243 23.8184L85.244 18.4795L83.1202 18.8533ZM84.4237 21.979L84.4457 20.1575L85.0881 21.862L84.4237 21.979Z" fill="url(#paint46_linear_164_2)"/>
<path d="M87.1268 18.2502L88.8668 18.0369L89.3881 22.2733L90.7844 22.1023L90.9535 23.4766L87.8172 23.8608L87.1268 18.2502Z" fill="url(#paint47_linear_164_2)"/>
<path d="M90.974 17.9306L92.7228 17.8084L93.1181 23.4476L91.3692 23.5696L90.974 17.9306Z" fill="url(#paint48_linear_164_2)"/>
<path d="M93.4683 17.7039L93.4926 19.0947L95.0953 19.0668L93.4768 23.3574L97.3883 23.2893L97.3641 21.905L95.9144 21.9303L97.4131 17.6353L93.4683 17.7039Z" fill="url(#paint49_linear_164_2)"/>
<path d="M97.9652 17.7117L101.124 17.7667L101.107 18.7828L99.7003 18.7582L99.6796 19.9407L101.086 19.9653L101.069 20.9661L99.6621 20.9415L99.6369 22.378L101.044 22.4025L101.026 23.4185L97.8664 23.3635L97.9652 17.7117Z" fill="url(#paint50_linear_164_2)"/>
<path fill-rule="evenodd" clip-rule="evenodd" d="M104.748 23.6766C104.907 23.6507 105.07 23.5641 105.237 23.4166C105.569 23.1241 105.756 22.6748 105.798 22.0716L105.96 19.773C106.002 19.1697 105.879 18.699 105.591 18.363C105.446 18.1938 105.297 18.0853 105.143 18.0376L101.943 17.8142L101.548 23.4533L104.748 23.6766ZM104.01 22.5135C104.006 22.5756 103.973 22.6039 103.911 22.5996L103.367 22.5615L103.621 18.95L104.164 18.9881C104.226 18.9924 104.255 19.025 104.25 19.0869L104.01 22.5135Z" fill="url(#paint51_linear_164_2)"/>
<path fill-rule="evenodd" clip-rule="evenodd" d="M111.23 24.7223C111.39 24.7132 111.561 24.644 111.743 24.5146C112.104 24.2583 112.337 23.831 112.442 23.2357L112.843 20.9664C112.949 20.3707 112.876 19.89 112.625 19.5258C112.498 19.3424 112.361 19.2189 112.213 19.1554L109.054 18.5995L108.07 24.1664L111.23 24.7223ZM110.617 23.4885C110.607 23.5498 110.571 23.5746 110.51 23.5638L109.973 23.4694L110.603 19.9041L111.14 19.9985C111.201 20.0093 111.226 20.0447 111.215 20.1058L110.617 23.4885Z" fill="url(#paint52_linear_164_2)"/>
<path d="M113.836 19.4845L115.55 19.8481L114.373 25.3775L112.658 25.0138L113.836 19.4845Z" fill="url(#paint53_linear_164_2)"/>
<path d="M119.062 20.7572C119.549 20.8874 119.858 21.0649 119.988 21.2901C120.116 21.5138 120.114 21.871 119.983 22.3592L119.757 23.201L118.063 22.7481L118.336 21.7299C118.353 21.6685 118.332 21.6287 118.272 21.6125L117.835 21.4959C117.775 21.4798 117.737 21.5038 117.721 21.5652L116.829 24.8842C116.814 24.9405 116.836 24.9779 116.896 24.994L117.332 25.1107C117.393 25.127 117.43 25.1052 117.445 25.0489L117.734 23.974L117.428 23.8922L117.592 23.2811L119.591 23.8157L118.856 26.5544L118.366 26.4235L118.339 25.8651C118.2 26.1805 117.835 26.2657 117.245 26.1237L116.117 25.8222C115.628 25.6914 115.318 25.5151 115.191 25.293C115.06 25.0687 115.06 24.7124 115.191 24.2266L115.98 21.2891C116.111 20.8009 116.289 20.4908 116.515 20.3616C116.737 20.2305 117.094 20.2312 117.583 20.362L119.062 20.7572Z" fill="url(#paint54_linear_164_2)"/>
<path d="M121.113 21.4169L122.78 21.9574L121.03 27.3337L119.362 26.7931L121.113 21.4169Z" fill="url(#paint55_linear_164_2)"/>
<path d="M123.448 22.1611L127.376 23.6657L127.011 24.6145L125.865 24.1755L124.2 28.5042L122.563 27.8775L124.228 23.5488L123.083 23.1099L123.448 22.1611Z" fill="url(#paint56_linear_164_2)"/>
<path fill-rule="evenodd" clip-rule="evenodd" d="M128.68 24.2317L125.173 28.8617L126.663 29.5236L127.434 28.399L128.381 28.8194L128.063 30.1456L129.549 30.8054L130.65 25.1071L128.68 24.2317ZM128.009 27.5504L129.048 26.0527L128.625 27.8243L128.009 27.5504Z" fill="url(#paint57_linear_164_2)"/>
<path d="M132.349 25.986L133.911 26.7801L131.969 30.5832L133.222 31.2204L132.592 32.4541L129.777 31.0226L132.349 25.986Z" fill="url(#paint58_linear_164_2)"/>
<path d="M140.051 30.3411C140.479 30.6077 140.723 30.8678 140.78 31.1209C140.839 31.3702 140.798 31.6053 140.66 31.8262L140.024 32.8421L138.537 31.9151L139.08 31.0479C139.115 30.9929 139.106 30.9499 139.053 30.9168L138.67 30.678C138.617 30.6449 138.574 30.6557 138.539 30.7107L136.715 33.6235C136.683 33.6742 136.694 33.7151 136.747 33.7482L137.13 33.987C137.183 34.0201 137.224 34.0114 137.256 33.9608L137.804 33.0861L139.291 34.0131L138.65 35.0365C138.514 35.2531 138.321 35.3905 138.071 35.4472C137.818 35.5065 137.477 35.4016 137.049 35.1351L135.751 34.3259C135.322 34.058 135.078 33.7981 135.022 33.5463C134.961 33.2957 135.066 32.9563 135.333 32.5297L136.948 29.9507C137.218 29.5198 137.479 29.2752 137.732 29.22C137.983 29.1593 138.324 29.264 138.754 29.5319L140.051 30.3411Z" fill="url(#paint59_linear_164_2)"/>
<path d="M145.18 33.9016L142.679 37.4654C142.39 37.8776 142.119 38.1067 141.866 38.1503C141.61 38.1963 141.275 38.0738 140.862 37.7851L139.608 36.9093C139.193 36.6195 138.963 36.3471 138.921 36.0926C138.873 35.8394 138.995 35.5058 139.285 35.0938L141.785 31.5299L143.222 32.5332L140.614 36.249C140.577 36.3021 140.584 36.3463 140.638 36.3835L141.005 36.6399C141.056 36.6757 141.099 36.667 141.136 36.614L143.744 32.8981L145.18 33.9016Z" fill="url(#paint60_linear_164_2)"/>
<path fill-rule="evenodd" clip-rule="evenodd" d="M148.164 36.3365C148.55 36.6599 148.756 36.9512 148.777 37.21C148.799 37.4669 148.646 37.7895 148.32 38.1768L148.214 38.3023C147.93 38.641 147.694 38.8355 147.508 38.8868C147.327 38.936 147.051 38.8503 146.678 38.6294C146.96 38.9581 147.091 39.2172 147.072 39.4055C147.054 39.5975 146.982 39.7678 146.858 39.9157L146.09 40.8284C145.832 41.1361 145.665 41.3813 145.593 41.5633L144.25 40.4389C144.335 40.2414 144.513 39.9823 144.783 39.6613L145.556 38.7427C145.581 38.7125 145.583 38.6781 145.565 38.6392L145.122 38.2684L143.691 39.9704L142.348 38.8459L145.989 34.5157L148.164 36.3365ZM147.104 36.9015C147.146 36.8518 147.143 36.8079 147.095 36.7679L146.677 36.4185L145.733 37.5415L146.15 37.891C146.198 37.9311 146.242 37.9262 146.281 37.8795L147.104 36.9015Z" fill="url(#paint61_linear_164_2)"/>
<path fill-rule="evenodd" clip-rule="evenodd" d="M151.892 39.7788C152.26 40.1218 152.45 40.4236 152.458 40.683C152.466 40.9408 152.296 41.2551 151.951 41.6247L151.839 41.7445C151.537 42.0679 151.292 42.2499 151.103 42.2914C150.92 42.331 150.648 42.2309 150.287 41.9909C150.551 42.334 150.669 42.5995 150.64 42.7865C150.612 42.9773 150.531 43.1437 150.399 43.2849L149.585 44.1563C149.31 44.4499 149.131 44.6861 149.05 44.8642L147.768 43.6713C147.863 43.4784 148.054 43.2289 148.341 42.9225L149.161 42.0455C149.187 42.0165 149.192 41.9823 149.175 41.9426L148.752 41.5492L147.234 43.1741L145.952 41.9811L149.815 37.8468L151.892 39.7788ZM150.803 40.2877C150.848 40.2403 150.847 40.1962 150.801 40.1539L150.403 39.7831L149.401 40.8552L149.799 41.226C149.845 41.2685 149.889 41.266 149.931 41.2213L150.803 40.2877Z" fill="url(#paint62_linear_164_2)"/>
<path d="M153.478 41.3415L155.673 43.6095L154.94 44.3155L153.963 43.3057L153.11 44.1272L154.087 45.137L153.366 45.8323L152.388 44.8225L151.353 45.8205L152.33 46.8303L151.597 47.5363L149.402 45.2682L153.478 41.3415Z" fill="url(#paint63_linear_164_2)"/>
<path d="M154.745 51.1779L159.02 47.4691L157.87 46.1491L155.956 47.8091L157.305 45.4999L156.204 44.2363L151.928 47.9451L153.078 49.2651L154.989 47.6076L153.644 49.9143L154.745 51.1779Z" fill="url(#paint64_linear_164_2)"/>
<path d="M161.297 50.5104C161.593 50.9174 161.722 51.2498 161.68 51.5061C161.641 51.759 161.515 51.9619 161.304 52.115L160.332 52.8192L159.302 51.4039L160.131 50.8028C160.183 50.7647 160.191 50.7215 160.155 50.671L159.889 50.3062C159.852 50.2558 159.809 50.2498 159.756 50.288L156.971 52.3069C156.923 52.342 156.917 52.3837 156.954 52.4343L157.219 52.799C157.256 52.8494 157.298 52.8569 157.346 52.8218L158.182 52.2155L159.213 53.6308L158.234 54.34C158.027 54.49 157.797 54.5456 157.544 54.5045C157.287 54.465 157.01 54.2401 156.713 53.8331L155.814 52.5978C155.516 52.1888 155.387 51.8566 155.431 51.6025C155.468 51.3474 155.693 51.0718 156.1 50.776L158.566 48.9886C158.978 48.69 159.312 48.5608 159.567 48.6039C159.822 48.6416 160.099 48.8661 160.397 49.2751L161.297 50.5104Z" fill="url(#paint65_linear_164_2)"/>
<path d="M160.466 54.9614L162.419 52.0937L163.323 53.4829L162.062 54.974L163.939 54.4289L164.842 55.8171L161.423 56.4317L159.358 57.7699L158.401 56.2996L160.466 54.9614Z" fill="url(#paint66_linear_164_2)"/>
<path d="M164.153 63.4656L164.381 63.9537C164.408 64.0125 164.451 64.0288 164.51 64.0015L168.299 62.2384L169.04 63.8237L164.75 65.8196C164.518 65.9275 164.28 65.936 164.039 65.8464C163.794 65.7575 163.566 65.4851 163.352 65.0281L162.895 64.0507L164.153 63.4656Z" fill="url(#paint67_linear_164_2)"/>
<path d="M171.191 69.0012C171.38 69.4676 171.424 69.8211 171.321 70.0597C171.222 70.2957 171.051 70.4622 170.809 70.5598L169.695 71.0085L169.039 69.3865L169.989 69.0034C170.049 68.9791 170.067 68.9391 170.044 68.8812L169.874 68.4633C169.851 68.4054 169.81 68.3891 169.75 68.4134L166.558 69.7001C166.503 69.7225 166.487 69.7616 166.511 69.8194L166.68 70.2375C166.703 70.2952 166.742 70.3125 166.797 70.2902L167.756 69.9038L168.412 71.5257L167.291 71.9777C167.054 72.0734 166.817 72.0716 166.581 71.9707C166.341 71.87 166.127 71.5852 165.938 71.1188L165.365 69.7031C165.175 69.2342 165.131 68.8809 165.234 68.6448C165.333 68.4063 165.617 68.193 166.084 68.0046L168.91 66.8653C169.382 66.675 169.738 66.6303 169.975 66.7337C170.213 66.8319 170.428 67.1166 170.618 67.5854L171.191 69.0012Z" fill="url(#paint68_linear_164_2)"/>
<path fill-rule="evenodd" clip-rule="evenodd" d="M172.829 73.6795C172.994 74.1552 173.019 74.5105 172.904 74.7435C172.793 74.9738 172.495 75.1716 172.013 75.3371L169.131 76.3271C168.655 76.491 168.3 76.5172 168.07 76.4042C167.836 76.2912 167.637 75.9956 167.473 75.5199L166.975 74.0762C166.81 73.5981 166.784 73.2429 166.9 73.0124C167.011 72.7794 167.306 72.5813 167.782 72.4176L170.664 71.4276C171.146 71.2621 171.503 71.236 171.734 71.3515C171.967 71.4622 172.166 71.7577 172.331 72.2358L172.829 73.6795ZM171.636 73.6165C171.693 73.5971 171.711 73.5589 171.69 73.4999L171.543 73.0736C171.523 73.0146 171.485 72.9953 171.429 73.0147L168.174 74.133C168.112 74.1541 168.092 74.1932 168.112 74.2522L168.26 74.6785C168.28 74.7375 168.32 74.7559 168.381 74.7348L171.636 73.6165Z" fill="url(#paint69_linear_164_2)"/>
<path d="M173.363 75.7081L173.846 77.3894L168.4 78.9476L167.917 77.2661L173.363 75.7081Z" fill="url(#paint70_linear_164_2)"/>
<path d="M169.465 83.6351L174.962 82.2675L174.538 80.5703L172.077 81.1824L174.329 79.7357L173.923 78.1114L168.426 79.4788L168.85 81.1761L171.307 80.5648L169.059 82.0105L169.465 83.6351Z" fill="url(#paint71_linear_164_2)"/>
<path fill-rule="evenodd" clip-rule="evenodd" d="M170.326 91.2109C170.376 91.3633 170.487 91.5104 170.659 91.6521C171.001 91.9335 171.475 92.0477 172.079 91.995L174.379 91.7942C174.983 91.7416 175.43 91.5469 175.717 91.2106C175.862 91.0412 175.946 90.877 175.969 90.7181L175.69 87.5293L170.046 88.0218L170.326 91.2109ZM171.362 90.3017C171.299 90.3071 171.266 90.2794 171.261 90.2174L171.213 89.6758L174.828 89.3602L174.875 89.9018C174.881 89.964 174.853 89.9969 174.791 90.0022L171.362 90.3017Z" fill="url(#paint72_linear_164_2)"/>
<path d="M176.082 92.4748L176.193 95.6256L175.175 95.6612L175.126 94.2584L173.941 94.2996L173.99 95.7024L172.988 95.7373L172.939 94.3347L171.5 94.3847L171.549 95.7875L170.531 95.8229L170.421 92.6721L176.082 92.4748Z" fill="url(#paint73_linear_164_2)"/>
<path d="M176.113 99.2616C176.105 99.7645 176.007 100.107 175.819 100.287C175.635 100.465 175.412 100.552 175.151 100.547L173.951 100.526L173.981 98.7771L175.006 98.7949C175.071 98.7961 175.103 98.7663 175.105 98.704L175.112 98.2531C175.114 98.1908 175.082 98.1599 175.017 98.1587L171.575 98.0987C171.516 98.0977 171.486 98.1276 171.485 98.19L171.477 98.6407C171.476 98.703 171.504 98.7339 171.564 98.7351L172.598 98.753L172.567 100.502L171.358 100.481C171.102 100.477 170.885 100.383 170.707 100.198C170.526 100.012 170.44 99.6659 170.449 99.1628L170.476 97.6362C170.485 97.1306 170.582 96.7881 170.77 96.611C170.954 96.43 171.299 96.3446 171.803 96.3534L174.851 96.4064C175.36 96.4152 175.704 96.5126 175.882 96.7001C176.063 96.8835 176.149 97.2294 176.14 97.7348L176.113 99.2616Z" fill="url(#paint74_linear_164_2)"/>
<path d="M176.066 101.374L175.846 104.519L174.83 104.448L174.928 103.048L173.746 102.965L173.648 104.365L172.647 104.296L172.745 102.895L171.309 102.795L171.21 104.195L170.194 104.124L170.415 100.979L176.066 101.374Z" fill="url(#paint75_linear_164_2)"/>
<path d="M169.588 108.888L175.211 109.577L175.425 107.841L172.908 107.532L175.53 106.987L175.734 105.325L170.111 104.636L169.897 106.372L172.411 106.68L169.792 107.226L169.588 108.888Z" fill="url(#paint76_linear_164_2)"/>
<path d="M175.018 110.195L174.287 114.329L173.284 114.153L173.497 112.947L168.921 112.142L169.225 110.419L173.802 111.224L174.015 110.018L175.018 110.195Z" fill="url(#paint77_linear_164_2)"/>
<path fill-rule="evenodd" clip-rule="evenodd" d="M173.288 117.898C173.157 118.384 172.979 118.693 172.753 118.822C172.529 118.95 172.171 118.948 171.682 118.817L171.523 118.775C171.095 118.66 170.819 118.53 170.694 118.383C170.573 118.24 170.534 117.954 170.577 117.524C170.397 117.917 170.217 118.145 170.039 118.208C169.856 118.273 169.671 118.28 169.484 118.23L168.331 117.921C167.942 117.818 167.649 117.77 167.454 117.783L167.907 116.093C168.123 116.086 168.433 116.138 168.839 116.246L170 116.556C170.038 116.567 170.07 116.554 170.098 116.521L170.247 115.964L168.096 115.389L168.55 113.699L174.022 115.162L173.288 117.898ZM172.326 117.178C172.389 117.195 172.428 117.174 172.444 117.114L172.585 116.589L171.166 116.209L171.025 116.734C171.009 116.795 171.031 116.832 171.09 116.848L172.326 117.178Z" fill="url(#paint78_linear_164_2)"/>
<path fill-rule="evenodd" clip-rule="evenodd" d="M172.312 121.052L167.33 118.056L166.826 119.603L168.028 120.251L167.708 121.234L166.353 121.058L165.85 122.601L171.645 123.098L172.312 121.052ZM168.934 120.733L170.535 121.607L168.725 121.373L168.934 120.733Z" fill="url(#paint79_linear_164_2)"/>
<path d="M170.908 124.863L170.28 126.496L166.286 124.966L165.782 126.276L164.487 125.78L165.619 122.837L170.908 124.863Z" fill="url(#paint80_linear_164_2)"/>
<path d="M169.52 128.484L168.807 130.082L163.632 127.783L164.345 126.185L169.52 128.484Z" fill="url(#paint81_linear_164_2)"/>
<path d="M168.482 130.734L167.24 130.103L166.512 131.528L163.475 128.088L161.699 131.566L162.936 132.194L163.594 130.905L166.691 134.242L168.482 130.734Z" fill="url(#paint82_linear_164_2)"/>
<path d="M166.38 134.708L164.848 137.466L163.958 136.973L164.64 135.745L163.603 135.172L162.921 136.4L162.044 135.914L162.726 134.687L161.466 133.99L160.784 135.218L159.894 134.725L161.425 131.968L166.38 134.708Z" fill="url(#paint83_linear_164_2)"/>
<path fill-rule="evenodd" clip-rule="evenodd" d="M157.895 137.8C157.844 137.952 157.844 138.137 157.896 138.353C157.999 138.783 158.309 139.159 158.823 139.479L160.781 140.7C161.295 141.021 161.769 141.134 162.202 141.038C162.42 140.989 162.586 140.909 162.7 140.796L164.4 138.081L159.596 135.085L157.895 137.8ZM159.271 137.696C159.218 137.663 159.209 137.621 159.242 137.568L159.53 137.107L162.607 139.026L162.319 139.487C162.286 139.54 162.243 139.549 162.191 139.516L159.271 137.696Z" fill="url(#paint84_linear_164_2)"/>
<path fill-rule="evenodd" clip-rule="evenodd" d="M153.888 143.08C153.821 143.226 153.802 143.409 153.831 143.63C153.888 144.068 154.157 144.474 154.634 144.847L156.454 146.265C156.932 146.637 157.392 146.799 157.832 146.749C158.053 146.724 158.227 146.661 158.353 146.56L160.328 144.038L155.863 140.558L153.888 143.08ZM155.267 143.12C155.218 143.082 155.213 143.039 155.251 142.99L155.587 142.561L158.446 144.79L158.11 145.219C158.072 145.268 158.029 145.273 157.98 145.235L155.267 143.12Z" fill="url(#paint85_linear_164_2)"/>
<path d="M157.3 147.844L156.173 149.184L151.833 145.55L152.96 144.21L157.3 147.844Z" fill="url(#paint86_linear_164_2)"/>
<path d="M153.613 151.805C153.269 152.173 152.967 152.362 152.707 152.37C152.448 152.378 152.133 152.209 151.763 151.864L151.124 151.27L152.32 149.99L153.093 150.709C153.139 150.753 153.184 150.753 153.227 150.708L153.535 150.378C153.577 150.332 153.574 150.287 153.527 150.244L151.009 147.901C150.966 147.861 150.923 147.862 150.88 147.908L150.572 148.237C150.53 148.283 150.531 148.326 150.574 148.366L151.39 149.125L151.606 148.894L152.069 149.325L150.658 150.836L148.579 148.902L148.925 148.532L149.432 148.77C149.218 148.499 149.314 148.139 149.717 147.685L150.513 146.833C150.859 146.463 151.16 146.273 151.416 146.265C151.676 146.255 151.991 146.423 152.36 146.766L154.589 148.84C154.96 149.185 155.15 149.487 155.158 149.747C155.17 150.004 155.002 150.318 154.656 150.688L153.613 151.805Z" fill="url(#paint87_linear_164_2)"/>
<path d="M152.129 153.288L150.868 154.503L146.933 150.437L148.194 149.222L152.129 153.288Z" fill="url(#paint88_linear_164_2)"/>
<path d="M150.393 154.981L147.218 157.736L146.55 156.969L147.476 156.165L144.427 152.666L145.75 151.518L148.799 155.018L149.725 154.214L150.393 154.981Z" fill="url(#paint89_linear_164_2)"/>
<path fill-rule="evenodd" clip-rule="evenodd" d="M146.15 158.552L143.608 153.333L142.341 154.356L142.995 155.552L142.19 156.203L141.149 155.319L139.886 156.34L144.474 159.906L146.15 158.552ZM143.492 156.449L144.357 158.053L142.967 156.873L143.492 156.449Z" fill="url(#paint90_linear_164_2)"/>
<path d="M142.834 161.008L141.416 162.036L138.902 158.583L137.764 159.408L136.948 158.288L139.504 156.435L142.834 161.008Z" fill="url(#paint91_linear_164_2)"/>
<path d="M135.344 165.772C134.908 166.024 134.563 166.117 134.312 166.049C134.064 165.984 133.875 165.837 133.744 165.612L133.144 164.574L134.662 163.7L135.175 164.585C135.207 164.641 135.25 164.653 135.304 164.622L135.695 164.397C135.749 164.366 135.76 164.323 135.727 164.267L134.006 161.292C133.976 161.241 133.935 161.23 133.881 161.262L133.49 161.487C133.435 161.518 133.424 161.559 133.454 161.61L133.97 162.504L132.452 163.378L131.847 162.333C131.72 162.112 131.688 161.878 131.756 161.631C131.822 161.38 132.075 161.129 132.512 160.877L133.837 160.113C134.276 159.861 134.62 159.768 134.869 159.837C135.119 159.901 135.371 160.153 135.623 160.588L137.146 163.222C137.401 163.662 137.495 164.007 137.425 164.255C137.361 164.505 137.108 164.756 136.67 165.009L135.344 165.772Z" fill="url(#paint92_linear_164_2)"/>
<path d="M129.848 168.595L127.801 164.754C127.564 164.31 127.483 163.964 127.559 163.72C127.634 163.471 127.896 163.229 128.341 162.993L129.692 162.276C130.139 162.039 130.487 161.958 130.733 162.036C130.981 162.109 131.223 162.368 131.46 162.813L133.507 166.654L131.959 167.475L129.825 163.47C129.794 163.413 129.751 163.4 129.694 163.43L129.298 163.64C129.243 163.669 129.231 163.712 129.262 163.769L131.396 167.774L129.848 168.595Z" fill="url(#paint93_linear_164_2)"/>
<path fill-rule="evenodd" clip-rule="evenodd" d="M126.207 170.075C125.74 170.263 125.386 170.307 125.147 170.205C124.909 170.103 124.695 169.817 124.506 169.348L124.444 169.196C124.278 168.786 124.216 168.488 124.258 168.3C124.3 168.117 124.506 167.914 124.876 167.689C124.453 167.783 124.162 167.777 124.004 167.672C123.843 167.566 123.726 167.422 123.653 167.243L123.206 166.139C123.055 165.766 122.916 165.505 122.789 165.356L124.414 164.701C124.549 164.868 124.695 165.147 124.853 165.535L125.303 166.647C125.318 166.683 125.347 166.702 125.39 166.703L125.926 166.487L125.092 164.428L126.717 163.772L128.84 169.013L126.207 170.075ZM126.205 168.875C126.229 168.936 126.27 168.954 126.328 168.93L126.833 168.727L126.282 167.367L125.777 167.571C125.719 167.594 125.703 167.635 125.726 167.692L126.205 168.875Z" fill="url(#paint94_linear_164_2)"/>
<path fill-rule="evenodd" clip-rule="evenodd" d="M121.465 171.78C120.989 171.943 120.632 171.969 120.399 171.854C120.167 171.741 119.969 171.443 119.804 170.965L119.751 170.81C119.606 170.392 119.56 170.091 119.612 169.905C119.663 169.725 119.879 169.533 120.261 169.328C119.833 169.399 119.543 169.378 119.391 169.265C119.236 169.15 119.126 169.001 119.063 168.819L118.675 167.692C118.543 167.313 118.419 167.044 118.299 166.889L119.957 166.319C120.083 166.494 120.214 166.779 120.35 167.176L120.742 168.309C120.755 168.347 120.783 168.366 120.826 168.37L121.372 168.183L120.648 166.082L122.305 165.512L124.149 170.857L121.465 171.78ZM121.526 170.582C121.547 170.643 121.586 170.663 121.645 170.643L122.16 170.466L121.682 169.08L121.167 169.257C121.108 169.277 121.089 169.317 121.109 169.375L121.526 170.582Z" fill="url(#paint95_linear_164_2)"/>
<path d="M119.302 172.458L116.265 173.327L115.984 172.35L117.336 171.963L117.01 170.826L115.657 171.213L115.381 170.251L116.733 169.864L116.336 168.483L114.984 168.87L114.703 167.893L117.741 167.024L119.302 172.458Z" fill="url(#paint96_linear_164_2)"/>
<path d="M109.98 168.889L111.254 174.397L112.962 174.003L112.391 171.538L113.802 173.81L115.437 173.433L114.162 167.925L112.454 168.319L113.024 170.78L111.615 168.512L109.98 168.889Z" fill="url(#paint97_linear_164_2)"/>
<path d="M107.479 174.962C106.979 175.032 106.625 174.989 106.418 174.832C106.212 174.679 106.092 174.473 106.055 174.215L105.888 173.029L107.625 172.785L107.767 173.798C107.776 173.862 107.811 173.889 107.873 173.881L108.32 173.818C108.382 173.809 108.408 173.773 108.399 173.709L107.92 170.308C107.911 170.249 107.877 170.224 107.815 170.233L107.368 170.295C107.306 170.304 107.28 170.337 107.288 170.396L107.432 171.418L105.696 171.661L105.527 170.466C105.492 170.213 105.551 169.984 105.706 169.781C105.862 169.573 106.191 169.434 106.69 169.364L108.206 169.152C108.707 169.081 109.062 169.124 109.266 169.281C109.474 169.434 109.613 169.761 109.683 170.259L110.107 173.271C110.178 173.774 110.136 174.129 109.978 174.333C109.824 174.541 109.496 174.679 108.994 174.75L107.479 174.962Z" fill="url(#paint98_linear_164_2)"/>
<path d="M103.943 172.111L105.563 175.178L103.91 175.322L103.182 173.512L102.784 175.421L101.131 175.565L102.192 172.264L101.978 169.817L103.728 169.664L103.943 172.111Z" fill="url(#paint99_linear_164_2)"/>
<path d="M163.92 58.1847C164.397 58.1847 164.785 58.5715 164.785 59.0483C164.785 59.5251 164.397 59.9118 163.92 59.9118C163.442 59.9118 163.054 59.5251 163.054 59.0483C163.054 58.5715 163.442 58.1847 163.92 58.1847Z" fill="url(#paint100_linear_164_2)"/>
<path d="M173.342 85.3471C173.342 84.8703 172.955 84.4836 172.477 84.4836C171.999 84.4836 171.612 84.8703 171.612 85.3471C171.612 85.8239 171.999 86.2106 172.477 86.2106C172.955 86.2106 173.342 85.8239 173.342 85.3471Z" fill="url(#paint101_linear_164_2)"/>
<path d="M31.2165 56.3426C31.6944 56.3426 32.082 56.7293 32.082 57.2061C32.082 57.6829 31.6944 58.0697 31.2165 58.0697C30.7387 58.0697 30.3511 57.6829 30.3511 57.2061C30.3511 56.7293 30.7387 56.3426 31.2165 56.3426Z" fill="url(#paint102_linear_164_2)"/>
<path d="M51.6271 36.0054C51.6271 35.5286 51.2395 35.1419 50.7617 35.1419C50.2838 35.1419 49.8962 35.5286 49.8962 36.0054C49.8962 36.4822 50.2838 36.869 50.7617 36.869C51.2395 36.869 51.6271 36.4822 51.6271 36.0054Z" fill="url(#paint103_linear_164_2)"/>
<path d="M69.606 166.903C70.0838 166.903 70.4714 167.289 70.4714 167.766C70.4714 168.243 70.0838 168.63 69.606 168.63C69.1281 168.63 68.7405 168.243 68.7405 167.766C68.7405 167.289 69.1281 166.903 69.606 166.903Z" fill="url(#paint104_linear_164_2)"/>
<path d="M99.028 172.794C99.028 172.318 98.6404 171.931 98.1625 171.931C97.6847 171.931 97.2971 172.318 97.2971 172.794C97.2971 173.271 97.6847 173.658 98.1625 173.658C98.6404 173.658 99.028 173.271 99.028 172.794Z" fill="url(#paint105_linear_164_2)"/>
<defs>
<linearGradient id="paint0_linear_164_2" x1="158.413" y1="209.605" x2="-63.4119" y2="102.717" gradientUnits="userSpaceOnUse">
<stop stop-color="#90C626"/>
<stop offset="1" stop-color="#20934A"/>
</linearGradient>
<linearGradient id="paint1_linear_164_2" x1="154.105" y1="147.537" x2="35.3686" y2="44.9683" gradientUnits="userSpaceOnUse">
<stop stop-color="#88C228"/>
<stop offset="1" stop-color="#399E42"/>
</linearGradient>
<linearGradient id="paint2_linear_164_2" x1="154.105" y1="147.537" x2="35.3686" y2="44.9683" gradientUnits="userSpaceOnUse">
<stop stop-color="#88C228"/>
<stop offset="1" stop-color="#399E42"/>
</linearGradient>
<linearGradient id="paint3_linear_164_2" x1="154.105" y1="147.537" x2="35.3686" y2="44.9683" gradientUnits="userSpaceOnUse">
<stop stop-color="#88C228"/>
<stop offset="1" stop-color="#399E42"/>
</linearGradient>
<linearGradient id="paint4_linear_164_2" x1="154.105" y1="147.537" x2="35.3686" y2="44.9683" gradientUnits="userSpaceOnUse">
<stop stop-color="#88C228"/>
<stop offset="1" stop-color="#399E42"/>
</linearGradient>
<linearGradient id="paint5_linear_164_2" x1="154.105" y1="147.537" x2="35.3686" y2="44.9683" gradientUnits="userSpaceOnUse">
<stop stop-color="#88C228"/>
<stop offset="1" stop-color="#399E42"/>
</linearGradient>
<linearGradient id="paint6_linear_164_2" x1="154.105" y1="147.537" x2="35.3686" y2="44.9683" gradientUnits="userSpaceOnUse">
<stop stop-color="#88C228"/>
<stop offset="1" stop-color="#399E42"/>
</linearGradient>
<linearGradient id="paint7_linear_164_2" x1="154.105" y1="147.537" x2="35.3686" y2="44.9683" gradientUnits="userSpaceOnUse">
<stop stop-color="#88C228"/>
<stop offset="1" stop-color="#399E42"/>
</linearGradient>
<linearGradient id="paint8_linear_164_2" x1="154.105" y1="147.537" x2="35.3686" y2="44.9683" gradientUnits="userSpaceOnUse">
<stop stop-color="#88C228"/>
<stop offset="1" stop-color="#399E42"/>
</linearGradient>
<linearGradient id="paint9_linear_164_2" x1="154.105" y1="147.537" x2="35.3686" y2="44.9683" gradientUnits="userSpaceOnUse">
<stop stop-color="#88C228"/>
<stop offset="1" stop-color="#399E42"/>
</linearGradient>
<linearGradient id="paint10_linear_164_2" x1="154.105" y1="147.537" x2="35.3686" y2="44.9683" gradientUnits="userSpaceOnUse">
<stop stop-color="#88C228"/>
<stop offset="1" stop-color="#399E42"/>
</linearGradient>
<linearGradient id="paint11_linear_164_2" x1="154.105" y1="147.537" x2="35.3686" y2="44.9683" gradientUnits="userSpaceOnUse">
<stop stop-color="#88C228"/>
<stop offset="1" stop-color="#399E42"/>
</linearGradient>
<linearGradient id="paint12_linear_164_2" x1="154.105" y1="147.537" x2="35.3686" y2="44.9683" gradientUnits="userSpaceOnUse">
<stop stop-color="#88C228"/>
<stop offset="1" stop-color="#399E42"/>
</linearGradient>
<linearGradient id="paint13_linear_164_2" x1="154.105" y1="147.537" x2="35.3686" y2="44.9683" gradientUnits="userSpaceOnUse">
<stop stop-color="#88C228"/>
<stop offset="1" stop-color="#399E42"/>
</linearGradient>
<linearGradient id="paint14_linear_164_2" x1="154.105" y1="147.537" x2="35.3686" y2="44.9683" gradientUnits="userSpaceOnUse">
<stop stop-color="#88C228"/>
<stop offset="1" stop-color="#399E42"/>
</linearGradient>
<linearGradient id="paint15_linear_164_2" x1="154.105" y1="147.537" x2="35.3686" y2="44.9683" gradientUnits="userSpaceOnUse">
<stop stop-color="#88C228"/>
<stop offset="1" stop-color="#399E42"/>
</linearGradient>
<linearGradient id="paint16_linear_164_2" x1="154.105" y1="147.537" x2="35.3686" y2="44.9683" gradientUnits="userSpaceOnUse">
<stop stop-color="#88C228"/>
<stop offset="1" stop-color="#399E42"/>
</linearGradient>
<linearGradient id="paint17_linear_164_2" x1="154.105" y1="147.537" x2="35.3686" y2="44.9683" gradientUnits="userSpaceOnUse">
<stop stop-color="#88C228"/>
<stop offset="1" stop-color="#399E42"/>
</linearGradient>
<linearGradient id="paint18_linear_164_2" x1="154.105" y1="147.537" x2="35.3686" y2="44.9683" gradientUnits="userSpaceOnUse">
<stop stop-color="#88C228"/>
<stop offset="1" stop-color="#399E42"/>
</linearGradient>
<linearGradient id="paint19_linear_164_2" x1="154.105" y1="147.537" x2="35.3686" y2="44.9683" gradientUnits="userSpaceOnUse">
<stop stop-color="#88C228"/>
<stop offset="1" stop-color="#399E42"/>
</linearGradient>
<linearGradient id="paint20_linear_164_2" x1="154.105" y1="147.537" x2="35.3686" y2="44.9683" gradientUnits="userSpaceOnUse">
<stop stop-color="#88C228"/>
<stop offset="1" stop-color="#399E42"/>
</linearGradient>
<linearGradient id="paint21_linear_164_2" x1="154.105" y1="147.537" x2="35.3686" y2="44.9683" gradientUnits="userSpaceOnUse">
<stop stop-color="#88C228"/>
<stop offset="1" stop-color="#399E42"/>
</linearGradient>
<linearGradient id="paint22_linear_164_2" x1="154.105" y1="147.537" x2="35.3686" y2="44.9683" gradientUnits="userSpaceOnUse">
<stop stop-color="#88C228"/>
<stop offset="1" stop-color="#399E42"/>
</linearGradient>
<linearGradient id="paint23_linear_164_2" x1="154.105" y1="147.537" x2="35.3686" y2="44.9683" gradientUnits="userSpaceOnUse">
<stop stop-color="#88C228"/>
<stop offset="1" stop-color="#399E42"/>
</linearGradient>
<linearGradient id="paint24_linear_164_2" x1="154.105" y1="147.537" x2="35.3686" y2="44.9683" gradientUnits="userSpaceOnUse">
<stop stop-color="#88C228"/>
<stop offset="1" stop-color="#399E42"/>
</linearGradient>
<linearGradient id="paint25_linear_164_2" x1="154.105" y1="147.537" x2="35.3686" y2="44.9683" gradientUnits="userSpaceOnUse">
<stop stop-color="#88C228"/>
<stop offset="1" stop-color="#399E42"/>
</linearGradient>
<linearGradient id="paint26_linear_164_2" x1="154.105" y1="147.537" x2="35.3686" y2="44.9683" gradientUnits="userSpaceOnUse">
<stop stop-color="#88C228"/>
<stop offset="1" stop-color="#399E42"/>
</linearGradient>
<linearGradient id="paint27_linear_164_2" x1="154.105" y1="147.537" x2="35.3686" y2="44.9683" gradientUnits="userSpaceOnUse">
<stop stop-color="#88C228"/>
<stop offset="1" stop-color="#399E42"/>
</linearGradient>
<linearGradient id="paint28_linear_164_2" x1="154.105" y1="147.537" x2="35.3686" y2="44.9683" gradientUnits="userSpaceOnUse">
<stop stop-color="#88C228"/>
<stop offset="1" stop-color="#399E42"/>
</linearGradient>
<linearGradient id="paint29_linear_164_2" x1="154.105" y1="147.537" x2="35.3686" y2="44.9683" gradientUnits="userSpaceOnUse">
<stop stop-color="#88C228"/>
<stop offset="1" stop-color="#399E42"/>
</linearGradient>
<linearGradient id="paint30_linear_164_2" x1="154.105" y1="147.537" x2="35.3686" y2="44.9683" gradientUnits="userSpaceOnUse">
<stop stop-color="#88C228"/>
<stop offset="1" stop-color="#399E42"/>
</linearGradient>
<linearGradient id="paint31_linear_164_2" x1="154.105" y1="147.537" x2="35.3686" y2="44.9683" gradientUnits="userSpaceOnUse">
<stop stop-color="#88C228"/>
<stop offset="1" stop-color="#399E42"/>
</linearGradient>
<linearGradient id="paint32_linear_164_2" x1="154.105" y1="147.537" x2="35.3686" y2="44.9683" gradientUnits="userSpaceOnUse">
<stop stop-color="#88C228"/>
<stop offset="1" stop-color="#399E42"/>
</linearGradient>
<linearGradient id="paint33_linear_164_2" x1="154.105" y1="147.537" x2="35.3686" y2="44.9683" gradientUnits="userSpaceOnUse">
<stop stop-color="#88C228"/>
<stop offset="1" stop-color="#399E42"/>
</linearGradient>
<linearGradient id="paint34_linear_164_2" x1="154.105" y1="147.537" x2="35.3686" y2="44.9683" gradientUnits="userSpaceOnUse">
<stop stop-color="#88C228"/>
<stop offset="1" stop-color="#399E42"/>
</linearGradient>
<linearGradient id="paint35_linear_164_2" x1="154.105" y1="147.537" x2="35.3686" y2="44.9683" gradientUnits="userSpaceOnUse">
<stop stop-color="#88C228"/>
<stop offset="1" stop-color="#399E42"/>
</linearGradient>
<linearGradient id="paint36_linear_164_2" x1="154.105" y1="147.537" x2="35.3686" y2="44.9683" gradientUnits="userSpaceOnUse">
<stop stop-color="#88C228"/>
<stop offset="1" stop-color="#399E42"/>
</linearGradient>
<linearGradient id="paint37_linear_164_2" x1="154.105" y1="147.537" x2="35.3686" y2="44.9683" gradientUnits="userSpaceOnUse">
<stop stop-color="#88C228"/>
<stop offset="1" stop-color="#399E42"/>
</linearGradient>
<linearGradient id="paint38_linear_164_2" x1="154.105" y1="147.537" x2="35.3686" y2="44.9683" gradientUnits="userSpaceOnUse">
<stop stop-color="#88C228"/>
<stop offset="1" stop-color="#399E42"/>
</linearGradient>
<linearGradient id="paint39_linear_164_2" x1="154.105" y1="147.537" x2="35.3686" y2="44.9683" gradientUnits="userSpaceOnUse">
<stop stop-color="#88C228"/>
<stop offset="1" stop-color="#399E42"/>
</linearGradient>
<linearGradient id="paint40_linear_164_2" x1="154.105" y1="147.537" x2="35.3686" y2="44.9683" gradientUnits="userSpaceOnUse">
<stop stop-color="#88C228"/>
<stop offset="1" stop-color="#399E42"/>
</linearGradient>
<linearGradient id="paint41_linear_164_2" x1="154.105" y1="147.537" x2="35.3686" y2="44.9683" gradientUnits="userSpaceOnUse">
<stop stop-color="#88C228"/>
<stop offset="1" stop-color="#399E42"/>
</linearGradient>
<linearGradient id="paint42_linear_164_2" x1="154.105" y1="147.537" x2="35.3686" y2="44.9683" gradientUnits="userSpaceOnUse">
<stop stop-color="#88C228"/>
<stop offset="1" stop-color="#399E42"/>
</linearGradient>
<linearGradient id="paint43_linear_164_2" x1="154.105" y1="147.537" x2="35.3686" y2="44.9683" gradientUnits="userSpaceOnUse">
<stop stop-color="#88C228"/>
<stop offset="1" stop-color="#399E42"/>
</linearGradient>
<linearGradient id="paint44_linear_164_2" x1="154.105" y1="147.537" x2="35.3686" y2="44.9683" gradientUnits="userSpaceOnUse">
<stop stop-color="#88C228"/>
<stop offset="1" stop-color="#399E42"/>
</linearGradient>
<linearGradient id="paint45_linear_164_2" x1="154.105" y1="147.537" x2="35.3686" y2="44.9683" gradientUnits="userSpaceOnUse">
<stop stop-color="#88C228"/>
<stop offset="1" stop-color="#399E42"/>
</linearGradient>
<linearGradient id="paint46_linear_164_2" x1="154.105" y1="147.537" x2="35.3686" y2="44.9683" gradientUnits="userSpaceOnUse">
<stop stop-color="#88C228"/>
<stop offset="1" stop-color="#399E42"/>
</linearGradient>
<linearGradient id="paint47_linear_164_2" x1="154.105" y1="147.537" x2="35.3686" y2="44.9683" gradientUnits="userSpaceOnUse">
<stop stop-color="#88C228"/>
<stop offset="1" stop-color="#399E42"/>
</linearGradient>
<linearGradient id="paint48_linear_164_2" x1="154.105" y1="147.537" x2="35.3686" y2="44.9683" gradientUnits="userSpaceOnUse">
<stop stop-color="#88C228"/>
<stop offset="1" stop-color="#399E42"/>
</linearGradient>
<linearGradient id="paint49_linear_164_2" x1="154.105" y1="147.537" x2="35.3686" y2="44.9683" gradientUnits="userSpaceOnUse">
<stop stop-color="#88C228"/>
<stop offset="1" stop-color="#399E42"/>
</linearGradient>
<linearGradient id="paint50_linear_164_2" x1="154.105" y1="147.537" x2="35.3686" y2="44.9683" gradientUnits="userSpaceOnUse">
<stop stop-color="#88C228"/>
<stop offset="1" stop-color="#399E42"/>
</linearGradient>
<linearGradient id="paint51_linear_164_2" x1="154.105" y1="147.537" x2="35.3686" y2="44.9683" gradientUnits="userSpaceOnUse">
<stop stop-color="#88C228"/>
<stop offset="1" stop-color="#399E42"/>
</linearGradient>
<linearGradient id="paint52_linear_164_2" x1="154.105" y1="147.537" x2="35.3686" y2="44.9683" gradientUnits="userSpaceOnUse">
<stop stop-color="#88C228"/>
<stop offset="1" stop-color="#399E42"/>
</linearGradient>
<linearGradient id="paint53_linear_164_2" x1="154.105" y1="147.537" x2="35.3686" y2="44.9683" gradientUnits="userSpaceOnUse">
<stop stop-color="#88C228"/>
<stop offset="1" stop-color="#399E42"/>
</linearGradient>
<linearGradient id="paint54_linear_164_2" x1="154.105" y1="147.537" x2="35.3686" y2="44.9683" gradientUnits="userSpaceOnUse">
<stop stop-color="#88C228"/>
<stop offset="1" stop-color="#399E42"/>
</linearGradient>
<linearGradient id="paint55_linear_164_2" x1="154.105" y1="147.537" x2="35.3686" y2="44.9683" gradientUnits="userSpaceOnUse">
<stop stop-color="#88C228"/>
<stop offset="1" stop-color="#399E42"/>
</linearGradient>
<linearGradient id="paint56_linear_164_2" x1="154.105" y1="147.537" x2="35.3686" y2="44.9683" gradientUnits="userSpaceOnUse">
<stop stop-color="#88C228"/>
<stop offset="1" stop-color="#399E42"/>
</linearGradient>
<linearGradient id="paint57_linear_164_2" x1="154.105" y1="147.537" x2="35.3686" y2="44.9683" gradientUnits="userSpaceOnUse">
<stop stop-color="#88C228"/>
<stop offset="1" stop-color="#399E42"/>
</linearGradient>
<linearGradient id="paint58_linear_164_2" x1="154.105" y1="147.537" x2="35.3686" y2="44.9683" gradientUnits="userSpaceOnUse">
<stop stop-color="#88C228"/>
<stop offset="1" stop-color="#399E42"/>
</linearGradient>
<linearGradient id="paint59_linear_164_2" x1="154.105" y1="147.537" x2="35.3686" y2="44.9683" gradientUnits="userSpaceOnUse">
<stop stop-color="#88C228"/>
<stop offset="1" stop-color="#399E42"/>
</linearGradient>
<linearGradient id="paint60_linear_164_2" x1="154.105" y1="147.537" x2="35.3686" y2="44.9683" gradientUnits="userSpaceOnUse">
<stop stop-color="#88C228"/>
<stop offset="1" stop-color="#399E42"/>
</linearGradient>
<linearGradient id="paint61_linear_164_2" x1="154.105" y1="147.537" x2="35.3686" y2="44.9683" gradientUnits="userSpaceOnUse">
<stop stop-color="#88C228"/>
<stop offset="1" stop-color="#399E42"/>
</linearGradient>
<linearGradient id="paint62_linear_164_2" x1="154.105" y1="147.537" x2="35.3686" y2="44.9683" gradientUnits="userSpaceOnUse">
<stop stop-color="#88C228"/>
<stop offset="1" stop-color="#399E42"/>
</linearGradient>
<linearGradient id="paint63_linear_164_2" x1="154.105" y1="147.537" x2="35.3686" y2="44.9683" gradientUnits="userSpaceOnUse">
<stop stop-color="#88C228"/>
<stop offset="1" stop-color="#399E42"/>
</linearGradient>
<linearGradient id="paint64_linear_164_2" x1="154.105" y1="147.537" x2="35.3686" y2="44.9683" gradientUnits="userSpaceOnUse">
<stop stop-color="#88C228"/>
<stop offset="1" stop-color="#399E42"/>
</linearGradient>
<linearGradient id="paint65_linear_164_2" x1="154.105" y1="147.537" x2="35.3686" y2="44.9683" gradientUnits="userSpaceOnUse">
<stop stop-color="#88C228"/>
<stop offset="1" stop-color="#399E42"/>
</linearGradient>
<linearGradient id="paint66_linear_164_2" x1="154.105" y1="147.537" x2="35.3686" y2="44.9683" gradientUnits="userSpaceOnUse">
<stop stop-color="#88C228"/>
<stop offset="1" stop-color="#399E42"/>
</linearGradient>
<linearGradient id="paint67_linear_164_2" x1="154.105" y1="147.537" x2="35.3686" y2="44.9683" gradientUnits="userSpaceOnUse">
<stop stop-color="#88C228"/>
<stop offset="1" stop-color="#399E42"/>
</linearGradient>
<linearGradient id="paint68_linear_164_2" x1="154.105" y1="147.537" x2="35.3686" y2="44.9683" gradientUnits="userSpaceOnUse">
<stop stop-color="#88C228"/>
<stop offset="1" stop-color="#399E42"/>
</linearGradient>
<linearGradient id="paint69_linear_164_2" x1="154.105" y1="147.537" x2="35.3686" y2="44.9683" gradientUnits="userSpaceOnUse">
<stop stop-color="#88C228"/>
<stop offset="1" stop-color="#399E42"/>
</linearGradient>
<linearGradient id="paint70_linear_164_2" x1="154.105" y1="147.537" x2="35.3686" y2="44.9683" gradientUnits="userSpaceOnUse">
<stop stop-color="#88C228"/>
<stop offset="1" stop-color="#399E42"/>
</linearGradient>
<linearGradient id="paint71_linear_164_2" x1="154.105" y1="147.537" x2="35.3686" y2="44.9683" gradientUnits="userSpaceOnUse">
<stop stop-color="#88C228"/>
<stop offset="1" stop-color="#399E42"/>
</linearGradient>
<linearGradient id="paint72_linear_164_2" x1="154.105" y1="147.537" x2="35.3686" y2="44.9683" gradientUnits="userSpaceOnUse">
<stop stop-color="#88C228"/>
<stop offset="1" stop-color="#399E42"/>
</linearGradient>
<linearGradient id="paint73_linear_164_2" x1="154.105" y1="147.537" x2="35.3686" y2="44.9683" gradientUnits="userSpaceOnUse">
<stop stop-color="#88C228"/>
<stop offset="1" stop-color="#399E42"/>
</linearGradient>
<linearGradient id="paint74_linear_164_2" x1="154.105" y1="147.537" x2="35.3686" y2="44.9683" gradientUnits="userSpaceOnUse">
<stop stop-color="#88C228"/>
<stop offset="1" stop-color="#399E42"/>
</linearGradient>
<linearGradient id="paint75_linear_164_2" x1="154.105" y1="147.537" x2="35.3686" y2="44.9683" gradientUnits="userSpaceOnUse">
<stop stop-color="#88C228"/>
<stop offset="1" stop-color="#399E42"/>
</linearGradient>
<linearGradient id="paint76_linear_164_2" x1="154.105" y1="147.537" x2="35.3686" y2="44.9683" gradientUnits="userSpaceOnUse">
<stop stop-color="#88C228"/>
<stop offset="1" stop-color="#399E42"/>
</linearGradient>
<linearGradient id="paint77_linear_164_2" x1="154.105" y1="147.537" x2="35.3686" y2="44.9683" gradientUnits="userSpaceOnUse">
<stop stop-color="#88C228"/>
<stop offset="1" stop-color="#399E42"/>
</linearGradient>
<linearGradient id="paint78_linear_164_2" x1="154.105" y1="147.537" x2="35.3686" y2="44.9683" gradientUnits="userSpaceOnUse">
<stop stop-color="#88C228"/>
<stop offset="1" stop-color="#399E42"/>
</linearGradient>
<linearGradient id="paint79_linear_164_2" x1="154.105" y1="147.537" x2="35.3686" y2="44.9683" gradientUnits="userSpaceOnUse">
<stop stop-color="#88C228"/>
<stop offset="1" stop-color="#399E42"/>
</linearGradient>
<linearGradient id="paint80_linear_164_2" x1="154.105" y1="147.537" x2="35.3686" y2="44.9683" gradientUnits="userSpaceOnUse">
<stop stop-color="#88C228"/>
<stop offset="1" stop-color="#399E42"/>
</linearGradient>
<linearGradient id="paint81_linear_164_2" x1="154.105" y1="147.537" x2="35.3686" y2="44.9683" gradientUnits="userSpaceOnUse">
<stop stop-color="#88C228"/>
<stop offset="1" stop-color="#399E42"/>
</linearGradient>
<linearGradient id="paint82_linear_164_2" x1="154.105" y1="147.537" x2="35.3686" y2="44.9683" gradientUnits="userSpaceOnUse">
<stop stop-color="#88C228"/>
<stop offset="1" stop-color="#399E42"/>
</linearGradient>
<linearGradient id="paint83_linear_164_2" x1="154.105" y1="147.537" x2="35.3686" y2="44.9683" gradientUnits="userSpaceOnUse">
<stop stop-color="#88C228"/>
<stop offset="1" stop-color="#399E42"/>
</linearGradient>
<linearGradient id="paint84_linear_164_2" x1="154.105" y1="147.537" x2="35.3686" y2="44.9683" gradientUnits="userSpaceOnUse">
<stop stop-color="#88C228"/>
<stop offset="1" stop-color="#399E42"/>
</linearGradient>
<linearGradient id="paint85_linear_164_2" x1="154.105" y1="147.537" x2="35.3686" y2="44.9683" gradientUnits="userSpaceOnUse">
<stop stop-color="#88C228"/>
<stop offset="1" stop-color="#399E42"/>
</linearGradient>
<linearGradient id="paint86_linear_164_2" x1="154.105" y1="147.537" x2="35.3686" y2="44.9683" gradientUnits="userSpaceOnUse">
<stop stop-color="#88C228"/>
<stop offset="1" stop-color="#399E42"/>
</linearGradient>
<linearGradient id="paint87_linear_164_2" x1="154.105" y1="147.537" x2="35.3686" y2="44.9683" gradientUnits="userSpaceOnUse">
<stop stop-color="#88C228"/>
<stop offset="1" stop-color="#399E42"/>
</linearGradient>
<linearGradient id="paint88_linear_164_2" x1="154.105" y1="147.537" x2="35.3686" y2="44.9683" gradientUnits="userSpaceOnUse">
<stop stop-color="#88C228"/>
<stop offset="1" stop-color="#399E42"/>
</linearGradient>
<linearGradient id="paint89_linear_164_2" x1="154.105" y1="147.537" x2="35.3686" y2="44.9683" gradientUnits="userSpaceOnUse">
<stop stop-color="#88C228"/>
<stop offset="1" stop-color="#399E42"/>
</linearGradient>
<linearGradient id="paint90_linear_164_2" x1="154.105" y1="147.537" x2="35.3686" y2="44.9683" gradientUnits="userSpaceOnUse">
<stop stop-color="#88C228"/>
<stop offset="1" stop-color="#399E42"/>
</linearGradient>
<linearGradient id="paint91_linear_164_2" x1="154.105" y1="147.537" x2="35.3686" y2="44.9683" gradientUnits="userSpaceOnUse">
<stop stop-color="#88C228"/>
<stop offset="1" stop-color="#399E42"/>
</linearGradient>
<linearGradient id="paint92_linear_164_2" x1="154.105" y1="147.537" x2="35.3686" y2="44.9683" gradientUnits="userSpaceOnUse">
<stop stop-color="#88C228"/>
<stop offset="1" stop-color="#399E42"/>
</linearGradient>
<linearGradient id="paint93_linear_164_2" x1="154.105" y1="147.537" x2="35.3686" y2="44.9683" gradientUnits="userSpaceOnUse">
<stop stop-color="#88C228"/>
<stop offset="1" stop-color="#399E42"/>
</linearGradient>
<linearGradient id="paint94_linear_164_2" x1="154.105" y1="147.537" x2="35.3686" y2="44.9683" gradientUnits="userSpaceOnUse">
<stop stop-color="#88C228"/>
<stop offset="1" stop-color="#399E42"/>
</linearGradient>
<linearGradient id="paint95_linear_164_2" x1="154.105" y1="147.537" x2="35.3686" y2="44.9683" gradientUnits="userSpaceOnUse">
<stop stop-color="#88C228"/>
<stop offset="1" stop-color="#399E42"/>
</linearGradient>
<linearGradient id="paint96_linear_164_2" x1="154.105" y1="147.537" x2="35.3686" y2="44.9683" gradientUnits="userSpaceOnUse">
<stop stop-color="#88C228"/>
<stop offset="1" stop-color="#399E42"/>
</linearGradient>
<linearGradient id="paint97_linear_164_2" x1="154.105" y1="147.537" x2="35.3686" y2="44.9683" gradientUnits="userSpaceOnUse">
<stop stop-color="#88C228"/>
<stop offset="1" stop-color="#399E42"/>
</linearGradient>
<linearGradient id="paint98_linear_164_2" x1="154.105" y1="147.537" x2="35.3686" y2="44.9683" gradientUnits="userSpaceOnUse">
<stop stop-color="#88C228"/>
<stop offset="1" stop-color="#399E42"/>
</linearGradient>
<linearGradient id="paint99_linear_164_2" x1="154.105" y1="147.537" x2="35.3686" y2="44.9683" gradientUnits="userSpaceOnUse">
<stop stop-color="#88C228"/>
<stop offset="1" stop-color="#399E42"/>
</linearGradient>
<linearGradient id="paint100_linear_164_2" x1="154.105" y1="147.537" x2="35.3686" y2="44.9683" gradientUnits="userSpaceOnUse">
<stop stop-color="#88C228"/>
<stop offset="1" stop-color="#399E42"/>
</linearGradient>
<linearGradient id="paint101_linear_164_2" x1="154.105" y1="147.537" x2="35.3686" y2="44.9683" gradientUnits="userSpaceOnUse">
<stop stop-color="#88C228"/>
<stop offset="1" stop-color="#399E42"/>
</linearGradient>
<linearGradient id="paint102_linear_164_2" x1="154.105" y1="147.537" x2="35.3686" y2="44.9683" gradientUnits="userSpaceOnUse">
<stop stop-color="#88C228"/>
<stop offset="1" stop-color="#399E42"/>
</linearGradient>
<linearGradient id="paint103_linear_164_2" x1="154.105" y1="147.537" x2="35.3686" y2="44.9683" gradientUnits="userSpaceOnUse">
<stop stop-color="#88C228"/>
<stop offset="1" stop-color="#399E42"/>
</linearGradient>
<linearGradient id="paint104_linear_164_2" x1="154.105" y1="147.537" x2="35.3686" y2="44.9683" gradientUnits="userSpaceOnUse">
<stop stop-color="#88C228"/>
<stop offset="1" stop-color="#399E42"/>
</linearGradient>
<linearGradient id="paint105_linear_164_2" x1="154.105" y1="147.537" x2="35.3686" y2="44.9683" gradientUnits="userSpaceOnUse">
<stop stop-color="#88C228"/>
<stop offset="1" stop-color="#399E42"/>
</linearGradient>
</defs>
</svg>
