<svg width="512" height="512" viewBox="0 0 512 512" fill="none" xmlns="http://www.w3.org/2000/svg">
<rect width="512" height="512" rx="20" fill="url(#paint0_linear_164_2)"/>
<path d="M258.377 32.3374C382.646 32.3375 483.387 133.078 483.387 257.348C483.387 381.618 382.646 482.359 258.377 482.359C180.852 482.359 112.484 443.152 72.0191 383.486L60.8365 365.175C56.3517 356.977 52.3622 348.468 48.9088 339.69C47.3761 335.645 43.9422 326.225 42.4693 320.913C36.5444 300.755 33.3658 279.423 33.3658 257.348C33.3658 240.486 35.221 224.056 38.7379 208.252C39.9785 202.184 42.618 193.206 43.7828 189.476C46.4421 181.06 49.5826 172.858 53.1724 164.902L63.1197 145.447C101.938 77.8579 174.842 32.3374 258.377 32.3374ZM257.856 73.4526C153.748 73.4526 69.3523 156.394 69.3521 258.707C69.3521 361.02 153.748 443.961 257.856 443.961C361.964 443.961 446.36 361.02 446.36 258.707C446.36 156.394 361.964 73.4527 257.856 73.4526Z" fill="#012426"/>
<path d="M257.869 79.9526C351.602 79.9528 428.787 149.533 438.791 238.967H433.171C433.423 241.148 433.635 243.342 433.803 245.546H428.203C428.375 247.728 428.505 249.922 428.591 252.126H422.021V255.417H434.273C434.294 256.511 434.304 257.608 434.304 258.707C434.304 259.806 434.294 260.902 434.273 261.997H439.857C438.07 359.202 357.276 437.46 257.869 437.46C157.342 437.46 75.8492 357.43 75.8492 258.707C75.8493 159.983 157.342 79.9526 257.869 79.9526ZM257.869 83.2427C159.193 83.2427 79.1989 161.8 79.1988 258.707C79.1988 355.613 159.193 434.17 257.869 434.17C354.302 434.17 432.891 359.144 436.415 265.287H428.591C425.63 340.704 371.982 403.356 300.154 421.316C299.802 422.375 298.89 423.22 297.697 423.446L285.694 425.718C284.547 425.935 283.425 425.527 282.693 424.736C274.589 425.894 266.3 426.495 257.869 426.495C163.51 426.495 87.0162 351.373 87.0162 258.707C87.0162 243.252 89.1434 228.286 93.1266 214.075C92.2686 213.552 91.8537 212.503 92.1852 211.521L96.6529 198.28C96.9914 197.277 97.9965 196.674 99.025 196.79C124.114 134.768 185.777 90.9194 257.869 90.9194C344.272 90.9196 415.695 153.908 427.125 235.677H435.012C423.529 149.654 348.596 83.2428 257.869 83.2427ZM257.869 85.436C346.2 85.4362 419.371 149.183 432.282 232.387H428.996C416.114 150.952 344.403 88.6247 257.869 88.6245C162.219 88.6245 84.6803 164.773 84.6803 258.707C84.6803 352.64 162.219 428.789 257.869 428.789C350.144 428.788 425.565 357.917 430.77 268.577H434.023C428.814 359.679 351.938 431.977 257.869 431.977C160.426 431.977 81.4322 354.401 81.4322 258.707C81.4323 163.012 160.426 85.436 257.869 85.436ZM257.869 94.0073C187.145 94.0073 126.646 137 101.992 197.824C102.741 198.373 103.085 199.352 102.775 200.272L98.3072 213.513C97.9896 214.454 97.0854 215.043 96.1256 215.016C92.2374 228.93 90.1607 243.58 90.1607 258.707C90.1607 349.668 165.246 423.406 257.869 423.406C266.059 423.406 274.113 422.829 281.989 421.715C282.319 420.616 283.248 419.731 284.473 419.499L296.475 417.226C297.657 417.002 298.812 417.443 299.542 418.282C369.926 400.607 422.488 339.204 425.445 265.287H421.722C421.336 265.942 420.614 266.383 419.788 266.383H417.366C413.29 349.427 343.44 415.528 257.869 415.528C257.496 415.528 257.123 415.526 256.752 415.524V407.255C257.123 407.258 257.496 407.259 257.869 407.259C338.033 407.259 403.633 346.018 408.805 268.577H411.648C406.494 347.198 340.209 409.474 258.986 410.041V412.637C342.423 412.065 410.368 347.471 414.423 266.383H409.737C408.91 266.383 408.188 265.942 407.802 265.287H406.239C402.735 342.786 337.648 404.561 257.869 404.561H257.472L256.752 404.557V402.368L259.554 401.868C334.787 401.03 396.331 344.229 403.046 271.867H400.184C394.585 331.004 351.631 379.497 294.719 394.369L294.715 392.5L294.719 385.4C345.331 371.229 383.727 328.599 390.822 276.253H394.069C387.015 329.582 348.244 373.132 296.949 388.056V390.343C350.887 374.926 391.336 328.403 396.819 271.867H392.987C391.754 271.867 390.754 270.885 390.754 269.673V265.287H385.171L371.77 287.219H353.903V290.509H342.736V279.543H353.903V283.929H371.77L385.171 261.997H390.754V258.707H384.053L371.77 270.77H353.903V275.157H342.736V264.19H353.903V267.48H371.77L384.053 255.417H390.754V252.126H353.903V256.513H342.736V245.546H353.903V248.836H390.754V245.546H384.053L371.77 233.484H353.903V237.871H342.736V226.904H353.903V230.194H371.77L384.053 242.257H390.754V238.967H385.171L365.07 217.034H353.903V221.42H342.736V210.454H353.903V213.744H365.07L385.171 235.677H390.754V233.484C390.754 232.273 391.753 231.291 392.987 231.291H394.662C384.483 182.047 347.426 142.39 299.184 127.73V130.028C344.749 144.124 380.062 180.916 391.38 226.904H388.066C376.71 181.918 341.811 146.058 296.953 132.66L296.951 130.402L296.953 123.648C348.137 137.906 387.631 179.468 398.079 231.291H400.983C389.495 173.114 342.141 127.509 282.429 117.56V120.535H271.26V109.566H271.268V107.933C341.16 113.846 397.717 165.574 409.648 232.387H406.767C395.538 170.71 345.548 122.224 282.429 112.103V114.837C343.698 124.851 392.283 171.696 403.793 231.419C404.654 231.724 405.27 232.533 405.27 233.484V235.677H412.873C401.608 161.937 337.083 105.311 258.985 104.776V101.889C338.709 102.425 404.554 160.337 415.844 235.677H423.95C412.544 155.619 342.533 94.0075 257.869 94.0073ZM257.869 96.4028C297.532 96.4029 333.932 110.124 362.415 132.997C363.502 132.607 364.767 132.807 365.685 133.622L374.756 141.667C375.701 142.506 376.024 143.768 375.695 144.894C399.105 168.266 415.36 198.572 420.975 232.387H417.892C412.31 199.412 396.416 169.86 373.574 147.037C372.517 147.366 371.314 147.151 370.432 146.369L361.361 138.323C360.453 137.517 360.12 136.32 360.387 135.228C332.444 112.826 296.754 99.3892 257.869 99.3892C257.122 99.3892 256.377 99.3949 255.632 99.4048V101.901L255.635 104.627L255.796 104.785C255.741 104.785 255.687 104.787 255.632 104.788V107.384C256.376 107.374 257.122 107.369 257.869 107.369V110.155C257.122 110.155 256.376 110.16 255.632 110.17V112.869C256.376 112.858 257.122 112.852 257.869 112.852V115.537C257.122 115.537 256.376 115.542 255.632 115.553V116.149H254.098C255.596 116.201 256.88 117.08 257.49 118.335C257.616 118.335 257.743 118.335 257.869 118.335V121.625L257.868 123.819L257.869 126.98L257.868 129.302L257.869 132.334L257.868 134.786L257.869 137.69L257.868 138.631C257.868 140.752 256.117 142.47 253.959 142.47C251.8 142.47 250.049 140.751 250.049 138.631V119.985C250.05 117.911 251.725 116.221 253.819 116.149H252.282V115.64C251.724 115.661 251.166 115.685 250.61 115.711V113.023C251.166 112.997 251.724 112.974 252.282 112.954V110.253C251.724 110.273 251.166 110.297 250.61 110.323V107.534C251.166 107.508 251.724 107.486 252.282 107.466V104.868C252.22 104.87 252.158 104.872 252.096 104.875L252.282 104.631V99.4819C165.273 102.374 95.6413 172.554 95.6412 258.707C95.6412 343.009 162.315 412.018 246.702 417.652V417.721H247.784C248.538 417.767 249.293 417.807 250.049 417.842V401.27H251.588C249.494 401.198 247.818 399.508 247.818 397.434V378.788C247.818 376.667 249.568 374.949 251.727 374.949C253.886 374.949 255.636 376.667 255.636 378.788V397.434C255.636 399.508 253.96 401.198 251.866 401.27H253.4V401.811L253.402 404.497L253.4 407.196L253.402 409.982L253.4 412.581L253.402 415.467L253.4 417.964C254.884 418.004 256.375 418.024 257.869 418.024C344.089 418.024 414.6 351.968 419.79 268.577H422.837C417.642 353.619 345.769 421.011 257.869 421.011C256.375 421.011 254.885 420.991 253.4 420.953V421.013H250.049V420.833C162.404 416.824 92.5992 345.771 92.5992 258.707C92.5993 170.905 163.593 99.3867 252.282 96.4937V96.4058H255.632V96.4165C256.377 96.4068 257.122 96.4028 257.869 96.4028ZM248.935 105.018C166.523 109.565 101.122 176.635 101.122 258.707C101.122 339.289 164.172 405.41 244.467 412.086V409.48C165.634 402.811 103.766 337.854 103.766 258.707C103.766 186.033 155.927 125.324 225.488 110.715V110.662H225.745C229.336 109.914 232.973 109.289 236.651 108.792L236.656 121.63H225.488V119.081C222.841 119.67 220.221 120.331 217.63 121.06L212.085 122.173V122.74C153.998 141.593 112.084 195.343 112.084 258.707C112.084 321.256 152.927 374.436 209.851 393.929V395.24L234.419 400.174L246.702 402.368V404.155C169.893 398.548 109.349 335.571 109.349 258.707C109.349 189.075 159.035 130.84 225.488 116.329V113.566C157.506 128.126 106.602 187.578 106.602 258.707C106.602 337.061 168.374 401.248 246.702 406.861V409.653L246.701 412.256L246.702 415.15C163.72 409.521 98.1832 341.63 98.1832 258.707C98.1833 175.041 164.899 106.677 248.935 102.126V105.018ZM212.085 129.169C212.082 129.17 212.079 129.172 212.077 129.172V131.497C212.079 131.496 212.082 131.495 212.085 131.494V134.853C168.354 150.447 135.224 187.743 126.192 233.484H128.601C137.544 189.034 169.666 152.764 212.085 137.327V140.568C212.082 140.569 212.079 140.57 212.077 140.571V143.197C212.079 143.196 212.082 143.195 212.085 143.194V146.318C178.289 159.608 151.883 187.173 140.6 221.42H175.234C175.234 220.209 176.234 219.227 177.467 219.227H199.801C201.035 219.227 202.035 220.209 202.035 221.42H219.901V224.71H202.035C202.035 225.922 201.035 226.904 199.801 226.904H177.467C176.234 226.904 175.234 225.922 175.234 224.71H136.491C147.102 188.101 174.425 158.402 209.843 144.076V141.429C170.251 157.081 140.409 191.508 131.752 233.484H175.234C175.234 232.273 176.234 231.291 177.467 231.291H199.801C201.035 231.291 202.035 232.273 202.035 233.484H219.901V236.774H202.035C202.035 237.985 201.035 238.967 199.801 238.967H177.467C176.234 238.967 175.234 237.985 175.234 236.774H122.323C130.35 188.567 164.399 148.951 209.843 132.293V129.955C160.423 147.738 124.093 192.182 118.918 245.546H175.234C175.234 244.335 176.234 243.354 177.467 243.354H199.801C201.034 243.354 202.035 244.335 202.035 245.546H219.901V248.836H202.035C202.035 250.048 201.035 251.03 199.801 251.03H177.467C176.234 251.03 175.234 250.048 175.234 248.836H118.639C118.403 252.096 118.283 255.388 118.283 258.707C118.283 317.018 155.357 366.826 207.62 386.637V384.283C156.618 364.585 120.516 315.786 120.516 258.707C120.516 258.341 120.518 257.975 120.521 257.61H175.234C175.234 256.399 176.234 255.417 177.467 255.417H199.801C201.035 255.417 202.035 256.399 202.035 257.61H219.901V260.9H202.035C202.035 262.111 201.035 263.093 199.801 263.093H177.467C176.234 263.093 175.234 262.111 175.234 260.9H129.208C130.097 312.243 162.166 356.128 207.62 375.081V372.414C164.546 354.03 133.957 312.733 131.804 264.19H134.765C136.933 311.935 167.271 352.483 209.851 370.192L209.853 377.149L209.851 379.25C161.478 360.652 127.031 314.783 126.119 260.9H123.754C124.671 316.086 160.146 363.021 209.851 381.742V390.96C154.53 371.588 114.933 319.688 114.933 258.707C114.933 196.907 155.599 144.435 212.085 125.691V129.169ZM241.118 168.128H265.685V128.206H290.253V168.128H334.066V275.815C334.066 311.601 317.401 340.254 288.019 352.879V390.305H263.452V359.228C259.674 359.652 255.763 359.869 251.724 359.869C247.324 359.869 243.038 359.626 238.884 359.143V390.305H216.551V353.748C187.973 342.693 169.651 316.87 169.651 277.963H204.405C204.405 310.188 219.911 326.57 251.724 326.57C283.805 326.57 298.777 304.28 298.777 275.815V201.16H200.762V168.128H218.785V128.206H241.118V168.128ZM388.436 276.253C381.388 327.311 344.018 368.909 294.719 382.983V374.22C336.452 361.393 368.638 327.356 378.187 284.964L382.792 276.297C375.959 323.516 342.025 362.166 296.949 376.571V379.145C343.425 364.613 378.444 324.854 385.318 276.253H388.436ZM276.852 270.754C277.578 273.016 277.968 275.414 277.968 277.898C277.968 291.525 266.219 302.573 251.726 302.573C237.233 302.573 225.485 291.525 225.485 277.898C225.485 275.414 225.875 273.016 226.601 270.754V219.227H276.852V270.754ZM405.27 261.997H407.504V258.707H405.27V261.997ZM422.021 261.997H431.025C431.046 260.902 431.057 259.806 431.057 258.707H422.021V261.997ZM406.239 252.126C406.288 253.22 406.325 254.317 406.35 255.417H407.504V252.126H406.239ZM405.791 245.546C405.89 246.64 405.978 247.736 406.052 248.836H407.802C408.188 248.181 408.91 247.74 409.737 247.74H419.788C420.614 247.74 421.336 248.181 421.722 248.836H425.371V245.546H405.791ZM405.27 242.257H430.257C430.15 241.158 430.032 240.061 429.903 238.967H405.27V242.257ZM296.953 135.089C340.503 148.354 374.384 183.204 385.629 226.904H382.439C371.545 185.634 339.949 152.553 299.184 138.99V141.581C337.84 154.729 367.966 185.814 379.242 224.698L373.975 218.067C361.311 183.175 332.801 155.668 296.953 143.903L296.951 142.464L296.953 135.089Z" fill="#022426"/>
<path d="M253.761 456.816L252.323 456.765C252.15 456.759 252.058 456.841 252.053 457.014L251.664 468.132L246.992 467.969L247.432 455.382C247.456 454.702 247.724 454.128 248.229 453.664C248.738 453.19 249.663 452.978 251.01 453.025L253.89 453.126L253.761 456.816Z" fill="url(#paint1_linear_164_2)"/>
<path d="M199.437 444.305L195.273 458.795L199.767 460.081L201.631 453.594L201.976 460.713L206.277 461.943L210.442 447.453L205.948 446.167L204.087 452.644L203.738 445.536L199.437 444.305Z" fill="url(#paint2_linear_164_2)"/>
<path fill-rule="evenodd" clip-rule="evenodd" d="M171.243 432.768C170.823 432.681 170.334 432.741 169.776 432.949C168.669 433.361 167.773 434.301 167.09 435.762L164.488 441.331C163.805 442.793 163.659 444.082 164.054 445.192C164.253 445.752 164.521 446.165 164.858 446.43L172.612 450.038L178.996 436.376L171.243 432.768ZM171.966 436.368C172.036 436.217 172.144 436.178 172.295 436.248L173.612 436.861L169.523 445.61L168.206 444.998C168.055 444.927 168.016 444.819 168.086 444.669L171.966 436.368Z" fill="url(#paint3_linear_164_2)"/>
<path d="M160.08 444.093L152.783 439.889L154.141 437.542L157.39 439.413L158.97 436.683L155.721 434.811L157.059 432.499L160.308 434.371L162.228 431.053L158.979 429.181L160.337 426.834L167.634 431.038L160.08 444.093Z" fill="url(#paint4_linear_164_2)"/>
<path d="M144.562 434.861C143.434 434.13 142.796 433.425 142.654 432.748C142.509 432.081 142.629 431.455 143.008 430.873L144.751 428.194L148.672 430.734L147.184 433.022C147.09 433.166 147.111 433.282 147.251 433.372L148.262 434.027C148.401 434.118 148.516 434.09 148.61 433.946L153.61 426.264C153.696 426.13 153.671 426.021 153.531 425.93L152.521 425.275C152.381 425.185 152.27 425.206 152.184 425.34L150.682 427.646L146.761 425.106L148.518 422.407C148.889 421.836 149.41 421.478 150.079 421.338C150.758 421.192 151.662 421.488 152.79 422.218L156.212 424.436C157.346 425.17 157.984 425.874 158.12 426.549C158.27 427.219 157.976 428.12 157.244 429.245L152.817 436.046C152.077 437.182 151.37 437.822 150.694 437.958C150.022 438.107 149.117 437.813 147.984 437.078L144.562 434.861Z" fill="url(#paint5_linear_164_2)"/>
<path d="M139.704 431.79L132.887 426.849L134.484 424.656L137.519 426.856L139.376 424.305L136.342 422.105L137.914 419.945L140.949 422.145L143.206 419.046L140.171 416.846L141.767 414.653L148.584 419.595L139.704 431.79Z" fill="url(#paint6_linear_164_2)"/>
<path d="M131.807 406.687L122.299 418.402L125.932 421.337L130.188 416.093L127.719 422.781L131.196 425.59L140.703 413.875L137.07 410.94L132.821 416.176L135.284 409.497L131.807 406.687Z" fill="url(#paint7_linear_164_2)"/>
<path d="M120.357 417.225L112.286 409.448L114.172 407.499L116.526 409.768L125.135 400.873L128.497 404.113L119.89 413.008L122.244 415.276L120.357 417.225Z" fill="url(#paint8_linear_164_2)"/>
<path fill-rule="evenodd" clip-rule="evenodd" d="M105.62 402.708C104.704 401.727 104.255 400.888 104.282 400.197C104.308 399.51 104.819 398.705 105.807 397.786L106.127 397.488C106.991 396.684 107.677 396.245 108.187 396.17C108.682 396.099 109.386 396.415 110.301 397.121C109.662 396.159 109.399 395.431 109.51 394.939C109.621 394.437 109.866 394.009 110.244 393.658L112.573 391.491C113.357 390.761 113.878 390.165 114.127 389.707L117.315 393.118C117.027 393.614 116.471 394.242 115.652 395.004L113.309 397.185C113.231 397.257 113.214 397.347 113.251 397.456L114.302 398.58L118.644 394.54L121.832 397.951L110.784 408.232L105.62 402.708ZM108.611 401.556C108.484 401.674 108.478 401.791 108.591 401.912L109.582 402.973L112.447 400.307L111.456 399.246C111.343 399.125 111.225 399.123 111.106 399.234L108.611 401.556Z" fill="url(#paint9_linear_164_2)"/>
<path fill-rule="evenodd" clip-rule="evenodd" d="M99.7165 396.244L113.546 389.238L110.751 385.914L107.586 387.71L105.809 385.598L108.123 382.79L105.336 379.475L96.0198 391.849L99.7165 396.244ZM105.213 389.073L100.968 391.451L104.056 387.698L105.213 389.073Z" fill="url(#paint10_linear_164_2)"/>
<path d="M92.8565 388.087L89.9784 384.412L98.9677 377.404L96.6581 374.455L99.5739 372.182L104.761 378.807L92.8565 388.087Z" fill="url(#paint11_linear_164_2)"/>
<path d="M86.6068 379.912L83.9255 376.09L96.3005 367.444L98.9819 371.265L86.6068 379.912Z" fill="url(#paint12_linear_164_2)"/>
<path d="M82.8031 374.531L85.9557 372.565L83.691 368.948L95.7426 366.746L90.2147 357.919L87.0763 359.876L89.1252 363.147L77.228 365.628L82.8031 374.531Z" fill="url(#paint13_linear_164_2)"/>
<path d="M76.2673 364.308L72.1824 356.954L74.5578 355.64L76.3766 358.914L79.1406 357.385L77.3222 354.112L79.662 352.817L81.4804 356.091L84.8386 354.234L83.0203 350.96L85.3956 349.646L89.4805 356.999L76.2673 364.308Z" fill="url(#paint14_linear_164_2)"/>
<path fill-rule="evenodd" clip-rule="evenodd" d="M80.9736 340.642C80.696 340.316 80.2741 340.063 79.706 339.884C78.5801 339.529 77.2938 339.719 75.8539 340.451L70.3672 343.241C68.9268 343.973 68.0172 344.899 67.6428 346.017C67.4544 346.581 67.4109 347.07 67.5126 347.486L71.3967 355.092L84.8577 348.249L80.9736 340.642ZM79.3223 343.923C79.4706 343.848 79.5803 343.883 79.6558 344.031L80.3154 345.323L71.6943 349.706L71.0348 348.414C70.9593 348.266 70.9952 348.157 71.1431 348.082L79.3223 343.923Z" fill="url(#paint15_linear_164_2)"/>
<path fill-rule="evenodd" clip-rule="evenodd" d="M74.2065 324.396C73.9644 324.042 73.5714 323.747 73.0251 323.51C71.9426 323.039 70.6435 323.094 69.1347 323.672L63.3856 325.874C61.8768 326.452 60.8752 327.278 60.3857 328.351C60.1392 328.892 60.0446 329.374 60.1024 329.798L63.1684 337.768L77.272 332.366L74.2065 324.396ZM72.2207 327.487C72.3761 327.427 72.481 327.474 72.5409 327.629L73.0615 328.982L64.0287 332.442L63.5077 331.089C63.4482 330.933 63.4953 330.829 63.6503 330.769L72.2207 327.487Z" fill="url(#paint16_linear_164_2)"/>
<path d="M58.678 325.427L57.2331 320.991L71.6011 316.333L73.0459 320.769L58.678 325.427Z" fill="url(#paint17_linear_164_2)"/>
<path d="M54.4474 311.673C54.0992 310.377 54.0978 309.427 54.4465 308.829C54.7934 308.235 55.6226 307.764 56.9275 307.415L59.1772 306.813L60.3871 311.319L57.6653 312.047C57.5014 312.091 57.437 312.192 57.4805 312.353L57.7923 313.514C57.8354 313.674 57.9415 313.73 58.1054 313.686L66.9761 311.314C67.1267 311.274 67.1844 311.175 67.1413 311.014L66.8295 309.853C66.7864 309.692 66.6865 309.635 66.5359 309.675L63.6632 310.443L63.8817 311.258L62.249 311.695L60.8201 306.374L68.1393 304.417L68.4893 305.72L67.2337 306.528C68.1487 306.428 68.8318 307.154 69.2906 308.704L70.0963 311.704C70.4459 313.006 70.4512 313.955 70.107 314.545C69.7623 315.146 68.9366 315.619 67.6379 315.966L59.7879 318.065C58.483 318.414 57.5276 318.417 56.928 318.069C56.3275 317.732 55.8531 316.908 55.5036 315.606L54.4474 311.673Z" fill="url(#paint18_linear_164_2)"/>
<path d="M53.2641 306.462L52.2128 301.916L66.933 298.526L67.9848 303.07L53.2641 306.462Z" fill="url(#paint19_linear_164_2)"/>
<path d="M51.7411 300.177L49.7926 289.151L52.4673 288.681L53.0359 291.897L65.239 289.75L66.0509 294.343L53.8478 296.49L54.4158 299.706L51.7411 300.177Z" fill="url(#paint20_linear_164_2)"/>
<path fill-rule="evenodd" clip-rule="evenodd" d="M49.2192 285.344L64.6421 286.983L64.1122 282.677L60.4772 282.463L60.1406 279.726L63.6138 278.628L63.0857 274.335L48.5184 279.648L49.2192 285.344ZM57.7435 282.317L52.8853 282.004L57.524 280.535L57.7435 282.317Z" fill="url(#paint21_linear_164_2)"/>
<path d="M48.0413 274.635L47.7149 269.982L59.0946 269.188L58.833 265.454L62.5239 265.196L63.1119 273.584L48.0413 274.635Z" fill="url(#paint22_linear_164_2)"/>
<path d="M47.7056 250.873C47.7526 249.532 48.0293 248.624 48.5383 248.153C49.0367 247.686 49.6354 247.466 50.331 247.49L53.5306 247.601L53.3676 252.264L50.6361 252.168C50.4633 252.163 50.3754 252.241 50.3696 252.407L50.3274 253.608C50.3216 253.774 50.4038 253.858 50.577 253.864L59.7511 254.184C59.9105 254.19 59.9913 254.111 59.9971 253.945L60.0393 252.744C60.0451 252.577 59.9696 252.494 59.8106 252.488L57.0555 252.392L57.2189 247.73L60.4417 247.842C61.1235 247.866 61.6991 248.127 62.1637 248.628C62.6389 249.133 62.8508 250.058 62.8042 251.399L62.6616 255.469C62.6145 256.816 62.3382 257.724 61.8292 258.188C61.3305 258.663 60.4057 258.874 59.0617 258.828L50.9399 258.544C49.5821 258.497 48.6681 258.221 48.2035 257.713C47.7287 257.216 47.5159 256.29 47.5635 254.943L47.7056 250.873Z" fill="url(#paint23_linear_164_2)"/>
<path d="M48.7098 234.255L60.2933 235.266C61.6324 235.383 62.5248 235.702 62.9627 236.227C63.4109 236.755 63.5738 237.691 63.4566 239.028L63.1008 243.084C62.9831 244.427 62.6598 245.32 62.1268 245.756C61.604 246.204 60.6695 246.367 59.3299 246.25L47.7468 245.239L48.1541 240.592L60.2311 241.646C60.4039 241.661 60.4959 241.585 60.511 241.412L60.6149 240.225C60.6296 240.059 60.5523 239.971 60.3795 239.956L48.3025 238.902L48.7098 234.255Z" fill="url(#paint24_linear_164_2)"/>
<path fill-rule="evenodd" clip-rule="evenodd" d="M49.961 224.581C50.1484 223.252 50.5184 222.377 51.074 221.963C51.6257 221.55 52.5739 221.441 53.9117 221.628L54.3452 221.689C55.5156 221.853 56.2884 222.109 56.6677 222.456C57.035 222.795 57.2318 223.541 57.258 224.694C57.6049 223.594 58.0064 222.931 58.4599 222.708C58.9209 222.478 59.4081 222.399 59.9194 222.471L63.0724 222.913C64.1353 223.062 64.9263 223.091 65.4402 222.996L64.7895 227.614C64.2219 227.702 63.3833 227.667 62.2743 227.512L59.1008 227.067C58.9964 227.052 58.9151 227.095 58.8534 227.193L58.6389 228.715L64.5186 229.54L63.8679 234.159L48.9074 232.061L49.961 224.581ZM52.7401 226.175C52.5682 226.151 52.4731 226.219 52.45 226.384L52.2475 227.819L56.1276 228.363L56.3297 226.928C56.3528 226.763 56.28 226.671 56.1187 226.648L52.7401 226.175Z" fill="url(#paint25_linear_164_2)"/>
<path fill-rule="evenodd" clip-rule="evenodd" d="M52.8031 210.595C53.1282 209.294 53.5884 208.462 54.184 208.108C54.776 207.755 55.7306 207.745 57.0413 208.071L57.4663 208.177C58.6127 208.462 59.3548 208.797 59.6955 209.182C60.0255 209.557 60.1428 210.319 60.0482 211.469C60.5083 210.411 60.9773 209.794 61.4512 209.619C61.934 209.438 62.4271 209.411 62.9281 209.536L66.0176 210.304C67.0587 210.563 67.8426 210.674 68.3636 210.633L67.2328 215.159C66.659 215.187 65.8284 215.065 64.7416 214.794L61.6325 214.021C61.5303 213.995 61.4446 214.03 61.3731 214.12L61 215.612L66.7611 217.046L65.6303 221.572L50.9714 217.925L52.8031 210.595ZM55.3996 212.47C55.2317 212.429 55.1296 212.487 55.0892 212.648L54.7378 214.055L58.5394 215L58.8907 213.594C58.9311 213.432 58.8685 213.333 58.7104 213.294L55.3996 212.47Z" fill="url(#paint26_linear_164_2)"/>
<path d="M54.0441 205.025L56.3666 196.943L58.9773 197.69L57.9433 201.288L60.9813 202.157L62.0153 198.559L64.587 199.295L63.553 202.893L67.2439 203.949L68.2779 200.351L70.8886 201.098L68.5662 209.18L54.0441 205.025Z" fill="url(#paint27_linear_164_2)"/>
<path d="M75.0166 189.042L60.7322 184.134L59.2105 188.544L65.6045 190.741L58.4621 190.712L57.0053 194.934L71.2897 199.841L72.8118 195.431L66.4271 193.238L73.5603 193.263L75.0166 189.042Z" fill="url(#paint28_linear_164_2)"/>
<path d="M64.2335 175.008C64.7371 173.765 65.3087 173.005 65.9479 172.737C66.5768 172.468 67.2146 172.465 67.86 172.726L70.8283 173.922L69.077 178.248L66.5431 177.226C66.3827 177.161 66.2735 177.205 66.2113 177.359L65.7596 178.474C65.6974 178.628 65.7453 178.735 65.9061 178.799L74.4175 182.23C74.5654 182.29 74.6684 182.244 74.7306 182.09L75.1819 180.975C75.2445 180.821 75.2023 180.717 75.0544 180.657L72.4988 179.627L74.25 175.302L77.2405 176.507C77.873 176.762 78.3243 177.203 78.589 177.833C78.8626 178.469 78.7445 179.412 78.2408 180.655L76.712 184.431C76.2061 185.681 75.6349 186.441 74.9976 186.702C74.3664 186.978 73.4248 186.861 72.1785 186.359L64.643 183.321C63.3838 182.813 62.619 182.242 62.3565 181.606C62.0811 180.976 62.1988 180.034 62.7047 178.784L64.2335 175.008Z" fill="url(#paint29_linear_164_2)"/>
<path d="M75.7806 170.391L66.5528 169.554L68.631 165.654L73.7464 166.661L70.0461 162.998L72.123 159.101L77.98 166.264L83.7776 169.339L81.5777 173.467L75.7806 170.391Z" fill="url(#paint30_linear_164_2)"/>
<path d="M231.387 466.506C230.056 466.319 229.179 465.95 228.763 465.395C228.349 464.852 228.193 464.235 228.29 463.547L228.735 460.383L233.365 461.033L232.984 463.733C232.96 463.904 233.029 463.999 233.194 464.022L234.387 464.19C234.552 464.213 234.644 464.14 234.669 463.969L235.946 454.899C235.968 454.741 235.898 454.653 235.734 454.63L234.54 454.462C234.375 454.439 234.284 454.505 234.262 454.663L233.878 457.386L229.249 456.737L229.698 453.551C229.792 452.876 230.112 452.333 230.661 451.924C231.213 451.505 232.158 451.391 233.489 451.578L237.531 452.145C238.869 452.333 239.745 452.702 240.154 453.255C240.575 453.8 240.689 454.739 240.502 456.068L239.371 464.099C239.182 465.441 238.812 466.319 238.257 466.727C237.711 467.146 236.766 467.26 235.428 467.072L231.387 466.506Z" fill="url(#paint31_linear_164_2)"/>
<path fill-rule="evenodd" clip-rule="evenodd" d="M218.27 464.527C216.95 464.271 216.094 463.856 215.707 463.28C215.323 462.716 215.262 461.766 215.521 460.436L217.072 452.475C217.328 451.158 217.74 450.306 218.309 449.927C218.883 449.537 219.832 449.473 221.152 449.729L225.158 450.506C226.484 450.763 227.341 451.178 227.72 451.752C228.111 452.318 228.176 453.262 227.92 454.579L226.369 462.539C226.11 463.87 225.694 464.728 225.118 465.106C224.551 465.496 223.602 465.561 222.275 465.304L218.27 464.527ZM220.006 461.861C219.976 462.017 220.041 462.109 220.204 462.141L221.387 462.371C221.551 462.402 221.645 462.341 221.676 462.185L223.427 453.194C223.46 453.024 223.397 452.925 223.233 452.894L222.05 452.664C221.887 452.633 221.791 452.7 221.758 452.87L220.006 461.861Z" fill="url(#paint32_linear_164_2)"/>
<path d="M212.985 463.396L208.43 462.347L211.829 447.659L216.384 448.708L212.985 463.396Z" fill="url(#paint33_linear_164_2)"/>
<path d="M92.9872 146.135L93.8333 144.973C93.935 144.834 93.9176 144.713 93.7782 144.611L84.7583 138.072L87.5058 134.299L97.7178 141.702C98.2695 142.102 98.5964 142.644 98.699 143.321C98.8082 144.007 98.4671 144.891 97.6748 145.979L95.9808 148.305L92.9872 146.135Z" fill="url(#paint34_linear_164_2)"/>
<path d="M96.6679 122.408C97.514 121.366 98.2833 120.806 98.9735 120.736C99.6535 120.662 100.264 120.846 100.805 121.283L103.293 123.293L100.351 126.919L98.2269 125.203C98.0923 125.094 97.9755 125.104 97.8706 125.233L97.112 126.167C97.0072 126.296 97.0223 126.413 97.1569 126.521L104.291 132.286C104.415 132.386 104.527 132.372 104.632 132.243L105.39 131.308C105.495 131.179 105.485 131.067 105.361 130.967L103.219 129.236L106.161 125.611L108.668 127.636C109.197 128.064 109.5 128.618 109.569 129.297C109.644 129.986 109.255 130.852 108.409 131.895L105.841 135.059C104.99 136.107 104.222 136.667 103.535 136.731C102.851 136.811 101.985 136.424 100.94 135.58L94.6239 130.477C93.5681 129.624 93.0045 128.855 92.9401 128.17C92.8606 127.488 93.2492 126.621 94.0998 125.573L96.6679 122.408Z" fill="url(#paint35_linear_164_2)"/>
<path fill-rule="evenodd" clip-rule="evenodd" d="M105.838 112.348C106.772 111.382 107.587 110.892 108.281 110.882C108.965 110.867 109.797 111.335 110.774 112.276L116.62 117.909C117.587 118.841 118.079 119.65 118.089 120.332C118.103 121.024 117.64 121.854 116.706 122.819L113.871 125.748C112.932 126.718 112.118 127.209 111.429 127.213C110.74 127.233 109.911 126.773 108.944 125.841L103.097 120.207C102.12 119.266 101.626 118.451 101.621 117.763C101.602 117.076 102.065 116.246 103.004 115.277L105.838 112.348ZM107.133 115.253C107.018 115.142 106.906 115.146 106.79 115.266L105.953 116.131C105.837 116.25 105.837 116.363 105.952 116.473L112.555 122.836C112.68 122.956 112.797 122.956 112.913 122.837L113.75 121.972C113.866 121.853 113.861 121.736 113.736 121.615L107.133 115.253Z" fill="url(#paint36_linear_164_2)"/>
<path d="M109.945 108.311L113.364 105.13L123.667 116.155L120.248 119.336L109.945 108.311Z" fill="url(#paint37_linear_164_2)"/>
<path d="M133.275 107.55L123.565 96.002L119.983 99.0005L124.33 104.169L118.223 100.475L114.795 103.345L124.506 114.892L128.087 111.893L123.747 106.732L129.848 110.419L133.275 107.55Z" fill="url(#paint38_linear_164_2)"/>
<path fill-rule="evenodd" clip-rule="evenodd" d="M153.631 92.5608C153.933 92.2567 154.148 91.8149 154.277 91.2348C154.534 90.0847 154.232 88.8226 153.376 87.4554L150.113 82.2445C149.256 80.8768 148.252 80.0534 147.103 79.7786C146.524 79.6404 146.031 79.6399 145.625 79.7773L138.37 84.3008L146.375 97.0847L153.631 92.5608ZM150.212 91.2055C150.3 91.3464 150.274 91.4581 150.133 91.5463L148.9 92.3143L143.773 84.1275L145.005 83.359C145.146 83.2709 145.259 83.2975 145.347 83.4379L150.212 91.2055Z" fill="url(#paint39_linear_164_2)"/>
<path d="M149.679 77.2246L157.048 73.1487L158.365 75.5188L155.084 77.3336L156.616 80.0915L159.897 78.2772L161.194 80.6118L157.913 82.4262L159.775 85.777L163.056 83.9627L164.373 86.3328L157.003 90.4087L149.679 77.2246Z" fill="url(#paint40_linear_164_2)"/>
<path d="M165.293 68.6921C166.491 68.0827 167.422 67.8837 168.081 68.1C168.732 68.3083 169.215 68.7245 169.531 69.3431L170.985 72.1892L166.819 74.3071L165.578 71.8777C165.5 71.7234 165.389 71.6849 165.24 71.7602L164.167 72.3062C164.018 72.3816 163.984 72.4937 164.063 72.6479L168.231 80.809C168.303 80.9508 168.411 80.9836 168.559 80.9083L169.633 80.3623C169.781 80.287 169.818 80.1806 169.746 80.0388L168.494 77.588L172.66 75.4705L174.124 78.3374C174.434 78.9441 174.484 79.5725 174.271 80.2209C174.058 80.8803 173.349 81.5141 172.152 82.123L168.516 83.972C167.312 84.584 166.381 84.7834 165.728 84.5636C165.071 84.3584 164.437 83.6542 163.826 82.459L160.137 75.2334C159.52 74.0257 159.319 73.0942 159.539 72.4427C159.745 71.7868 160.453 71.1526 161.657 70.5406L165.293 68.6921Z" fill="url(#paint41_linear_164_2)"/>
<path d="M170.498 66.3264L178.195 62.9068L179.3 65.3824L175.873 66.9052L177.158 69.7863L180.585 68.2635L181.673 70.7024L178.246 72.2247L179.808 75.7244L183.235 74.2021L184.34 76.6777L176.642 80.0977L170.498 66.3264Z" fill="url(#paint42_linear_164_2)"/>
<path d="M196.346 72.1764L190.932 58.1033L186.568 59.7749L188.992 66.0747L184.422 60.5966L180.245 62.1969L185.659 76.2696L190.023 74.5983L187.604 68.3079L192.169 73.7762L196.346 72.1764Z" fill="url(#paint43_linear_164_2)"/>
<path d="M193.413 57.2063L204.251 54.3088L204.954 56.9262L201.793 57.7713L204.999 69.7145L200.484 70.9217L197.277 58.9785L194.116 59.8237L193.413 57.2063Z" fill="url(#paint44_linear_164_2)"/>
<path fill-rule="evenodd" clip-rule="evenodd" d="M213.182 52.1323C214.497 51.8531 215.448 51.9015 216.029 52.2804C216.605 52.6566 217.033 53.508 217.314 54.8264L217.405 55.2541C217.651 56.4072 217.674 57.2196 217.477 57.6942C217.283 58.1542 216.648 58.5939 215.571 59.0127C216.727 58.9613 217.487 59.1119 217.853 59.4603C218.227 59.8139 218.468 60.2438 218.575 60.7477L219.237 63.8553C219.46 64.9025 219.704 65.6546 219.969 66.1039L215.397 67.0736C215.12 66.5715 214.866 65.7729 214.633 64.6796L213.967 61.5521C213.945 61.4493 213.877 61.3877 213.764 61.3633L212.256 61.6828L213.491 67.4778L208.918 68.4475L205.777 53.7025L213.182 52.1323ZM212.631 55.2829C212.595 55.1136 212.499 55.048 212.336 55.0826L210.914 55.3839L211.729 59.2077L213.15 58.9063C213.313 58.8718 213.375 58.7721 213.341 58.613L212.631 55.2829Z" fill="url(#paint45_linear_164_2)"/>
<path fill-rule="evenodd" clip-rule="evenodd" d="M221.654 50.2759L220.821 65.729L225.103 64.9756L225.126 61.3429L227.848 60.8638L229.129 64.2674L233.398 63.5163L227.317 49.2792L221.654 50.2759ZM225.13 58.6112L225.189 53.7539L226.902 58.2992L225.13 58.6112Z" fill="url(#paint46_linear_164_2)"/>
<path d="M232.338 48.6676L236.978 48.099L238.368 59.396L242.092 58.94L242.543 62.6047L234.179 63.6293L232.338 48.6676Z" fill="url(#paint47_linear_164_2)"/>
<path d="M242.597 47.8154L247.261 47.4896L248.315 62.5275L243.651 62.8528L242.597 47.8154Z" fill="url(#paint48_linear_164_2)"/>
<path d="M249.249 47.2109L249.314 50.9198L253.587 50.8454L249.272 62.2869L259.702 62.1052L259.638 58.4139L255.772 58.4813L259.768 47.0278L249.249 47.2109Z" fill="url(#paint49_linear_164_2)"/>
<path d="M261.241 47.2317L269.665 47.3784L269.618 50.088L265.867 50.0224L265.812 53.1756L269.563 53.2412L269.516 55.91L265.766 55.8444L265.699 59.6752L269.449 59.7404L269.402 62.4499L260.977 62.3033L261.241 47.2317Z" fill="url(#paint50_linear_164_2)"/>
<path fill-rule="evenodd" clip-rule="evenodd" d="M279.328 63.1382C279.751 63.0691 280.186 62.8382 280.632 62.4446C281.517 61.6646 282.017 60.4667 282.129 58.858L282.559 52.7284C282.671 51.1197 282.344 49.8646 281.577 48.9685C281.19 48.5173 280.791 48.228 280.382 48.1008L271.847 47.5051L270.793 62.5426L279.328 63.1382ZM277.36 60.0364C277.349 60.2022 277.262 60.2775 277.096 60.266L275.646 60.1645L276.321 50.5338L277.771 50.6353C277.937 50.6468 278.012 50.7337 278 50.899L277.36 60.0364Z" fill="url(#paint51_linear_164_2)"/>
<path fill-rule="evenodd" clip-rule="evenodd" d="M296.612 65.9267C297.04 65.9023 297.497 65.7179 297.981 65.3727C298.944 64.6893 299.566 63.5499 299.846 61.9624L300.916 55.9108C301.196 54.3225 301.002 53.0404 300.333 52.0694C299.995 51.5801 299.629 51.2508 299.235 51.0815L290.81 49.5991L288.187 64.4442L296.612 65.9267ZM294.98 62.6365C294.951 62.8001 294.857 62.8661 294.693 62.8373L293.262 62.5856L294.942 53.0781L296.373 53.3298C296.537 53.3586 296.603 53.453 296.574 53.6161L294.98 62.6365Z" fill="url(#paint52_linear_164_2)"/>
<path d="M303.562 51.959L308.134 52.9287L304.993 67.6737L300.421 66.704L303.562 51.959Z" fill="url(#paint53_linear_164_2)"/>
<path d="M317.498 55.3529C318.796 55.7004 319.622 56.1737 319.967 56.7742C320.309 57.3707 320.303 58.3231 319.953 59.6251L319.351 61.8698L314.835 60.6622L315.564 57.9468C315.608 57.7833 315.552 57.6769 315.392 57.6339L314.227 57.3228C314.067 57.2798 313.965 57.3441 313.921 57.5076L311.544 66.3583C311.504 66.5086 311.562 66.6083 311.722 66.6513L312.886 66.9624C313.047 67.0058 313.147 66.9478 313.187 66.7975L313.957 63.931L313.141 63.713L313.578 62.0834L318.91 63.5091L316.949 70.8123L315.644 70.4631L315.57 68.974C315.199 69.8151 314.228 70.0425 312.653 69.6636L309.646 68.8596C308.341 68.5108 307.515 68.0406 307.175 67.4485C306.826 66.8503 306.828 65.9001 307.176 64.6047L309.279 56.7715C309.629 55.4695 310.104 54.6425 310.706 54.2982C311.299 53.9485 312.251 53.9502 313.556 54.299L317.498 55.3529Z" fill="url(#paint54_linear_164_2)"/>
<path d="M322.968 57.1123L327.414 58.5535L322.745 72.8903L318.299 71.4487L322.968 57.1123Z" fill="url(#paint55_linear_164_2)"/>
<path d="M329.194 59.0969L339.668 63.109L338.695 65.639L335.64 64.4686L331.199 76.0116L326.835 74.3404L331.275 62.7974L328.22 61.6269L329.194 59.0969Z" fill="url(#paint56_linear_164_2)"/>
<path fill-rule="evenodd" clip-rule="evenodd" d="M343.147 64.6184L333.796 76.9649L337.768 78.7301L339.824 75.7311L342.348 76.8523L341.502 80.3889L345.463 82.1483L348.401 66.9527L343.147 64.6184ZM341.357 73.4682L344.128 69.4743L343.001 74.1986L341.357 73.4682Z" fill="url(#paint57_linear_164_2)"/>
<path d="M352.93 69.2966L357.095 71.4141L351.917 81.5558L355.259 83.2549L353.579 86.5446L346.071 82.7275L352.93 69.2966Z" fill="url(#paint58_linear_164_2)"/>
<path d="M373.471 80.9101C374.611 81.6209 375.261 82.3145 375.415 82.9895C375.571 83.6542 375.463 84.2813 375.094 84.8703L373.397 87.5794L369.433 85.1074L370.881 82.7949C370.973 82.6482 370.949 82.5334 370.807 82.4452L369.785 81.8084C369.644 81.7202 369.53 81.749 369.438 81.8957L364.574 89.6633C364.489 89.7985 364.517 89.9075 364.658 89.9957L365.68 90.6325C365.821 90.7207 365.931 90.6977 366.016 90.5625L367.477 88.23L371.442 90.7021L369.733 93.4312C369.371 94.0086 368.857 94.3752 368.19 94.5263C367.514 94.6845 366.605 94.4048 365.465 93.694L362.004 91.5362C360.858 90.8218 360.207 90.1286 360.06 89.4572C359.897 88.7889 360.176 87.8839 360.889 86.7463L365.195 79.8691C365.915 78.7199 366.611 78.0676 367.284 77.9204C367.954 77.7587 368.864 78.0379 370.01 78.7523L373.471 80.9101Z" fill="url(#paint59_linear_164_2)"/>
<path d="M387.147 90.4047L380.478 99.9082C379.706 101.007 378.983 101.618 378.309 101.735C377.626 101.857 376.732 101.531 375.631 100.761L372.288 98.4253C371.181 97.6524 370.568 96.9261 370.456 96.2476C370.329 95.5722 370.654 94.6827 371.426 93.5841L378.095 84.0801L381.924 86.7556L374.97 96.6646C374.871 96.806 374.892 96.9239 375.034 97.0232L376.012 97.707C376.149 97.8022 376.264 97.7792 376.364 97.6378L383.317 87.7288L387.147 90.4047Z" fill="url(#paint60_linear_164_2)"/>
<path fill-rule="evenodd" clip-rule="evenodd" d="M395.104 96.8977C396.134 97.7601 396.682 98.537 396.74 99.227C396.797 99.9122 396.388 100.772 395.52 101.805L395.239 102.14C394.479 103.043 393.852 103.562 393.355 103.699C392.873 103.83 392.135 103.601 391.141 103.012C391.893 103.889 392.242 104.58 392.193 105.082C392.143 105.594 391.952 106.048 391.62 106.442L389.574 108.876C388.884 109.697 388.44 110.351 388.248 110.836L384.668 107.837C384.894 107.311 385.368 106.62 386.088 105.764L388.148 103.314C388.216 103.234 388.222 103.142 388.172 103.038L386.991 102.05L383.175 106.588L379.594 103.59L389.305 92.0422L395.104 96.8977ZM392.277 98.4045C392.388 98.272 392.38 98.155 392.253 98.0481L391.14 97.1166L388.622 100.111L389.735 101.043C389.862 101.15 389.979 101.137 390.084 101.013L392.277 98.4045Z" fill="url(#paint61_linear_164_2)"/>
<path fill-rule="evenodd" clip-rule="evenodd" d="M405.044 106.077C406.028 106.992 406.533 107.797 406.556 108.489C406.577 109.176 406.123 110.014 405.202 111L404.903 111.319C404.098 112.182 403.444 112.667 402.942 112.778C402.452 112.883 401.728 112.616 400.766 111.976C401.47 112.891 401.784 113.599 401.707 114.098C401.632 114.607 401.417 115.05 401.065 115.427L398.893 117.751C398.161 118.534 397.684 119.163 397.467 119.638L394.048 116.457C394.302 115.943 394.812 115.278 395.576 114.46L397.761 112.122C397.833 112.045 397.844 111.953 397.8 111.847L396.672 110.798L392.623 115.131L389.204 111.95L399.508 100.925L405.044 106.077ZM402.142 107.434C402.26 107.308 402.258 107.19 402.137 107.077L401.074 106.089L398.402 108.948L399.465 109.936C399.586 110.05 399.704 110.043 399.815 109.924L402.142 107.434Z" fill="url(#paint62_linear_164_2)"/>
<path d="M409.273 110.244L415.127 116.292L413.173 118.175L410.567 115.482L408.294 117.673L410.899 120.366L408.975 122.22L406.369 119.527L403.607 122.188L406.213 124.881L404.259 126.764L398.406 120.716L409.273 110.244Z" fill="url(#paint63_linear_164_2)"/>
<path d="M412.652 136.475L424.054 126.585L420.987 123.065L415.883 127.492L419.479 121.334L416.544 117.964L405.142 127.854L408.209 131.374L413.305 126.954L409.717 133.105L412.652 136.475Z" fill="url(#paint64_linear_164_2)"/>
<path d="M430.125 134.695C430.915 135.78 431.258 136.667 431.147 137.35C431.042 138.025 430.706 138.566 430.143 138.974L427.553 140.852L424.805 137.077L427.016 135.475C427.156 135.373 427.177 135.258 427.079 135.123L426.371 134.15C426.273 134.016 426.157 134 426.016 134.102L418.59 139.486C418.461 139.579 418.445 139.69 418.543 139.825L419.251 140.798C419.35 140.932 419.461 140.952 419.589 140.859L421.819 139.242L424.567 143.016L421.958 144.907C421.406 145.307 420.792 145.455 420.117 145.346C419.431 145.24 418.693 144.641 417.902 143.555L415.504 140.261C414.709 139.171 414.367 138.285 414.482 137.607C414.582 136.927 415.18 136.192 416.268 135.403L422.843 130.637C423.942 129.84 424.832 129.496 425.512 129.611C426.193 129.711 426.932 130.31 427.726 131.401L430.125 134.695Z" fill="url(#paint65_linear_164_2)"/>
<path d="M427.91 146.564L433.117 138.917L435.528 142.622L432.166 146.598L437.17 145.144L439.579 148.846L430.461 150.485L424.955 154.053L422.403 150.133L427.91 146.564Z" fill="url(#paint66_linear_164_2)"/>
<path d="M437.741 169.242L438.349 170.544C438.422 170.7 438.536 170.744 438.693 170.671L448.798 165.97L450.773 170.197L439.334 175.52C438.716 175.807 438.081 175.83 437.438 175.591C436.783 175.354 436.175 174.627 435.605 173.409L434.387 170.802L437.741 169.242Z" fill="url(#paint67_linear_164_2)"/>
<path d="M456.509 184.004C457.012 185.247 457.13 186.19 456.857 186.826C456.592 187.456 456.135 187.9 455.489 188.16L452.521 189.356L450.77 185.031L453.304 184.01C453.465 183.945 453.512 183.838 453.45 183.684L452.999 182.569C452.936 182.415 452.827 182.372 452.667 182.436L444.156 185.867C444.008 185.927 443.965 186.031 444.028 186.186L444.479 187.301C444.541 187.454 444.645 187.5 444.792 187.441L447.348 186.411L449.099 190.736L446.109 191.941C445.477 192.196 444.845 192.191 444.216 191.922C443.576 191.654 443.005 190.894 442.501 189.651L440.973 185.875C440.467 184.625 440.349 183.683 440.625 183.053C440.887 182.417 441.646 181.849 442.892 181.346L450.427 178.308C451.687 177.801 452.634 177.681 453.266 177.957C453.902 178.219 454.474 178.978 454.98 180.228L456.509 184.004Z" fill="url(#paint68_linear_164_2)"/>
<path fill-rule="evenodd" clip-rule="evenodd" d="M460.878 196.479C461.316 197.748 461.384 198.695 461.078 199.316C460.781 199.931 459.986 200.458 458.702 200.899L451.017 203.539C449.746 203.976 448.801 204.046 448.187 203.745C447.562 203.444 447.032 202.655 446.594 201.387L445.265 197.537C444.826 196.262 444.757 195.315 445.066 194.7C445.361 194.079 446.148 193.551 447.42 193.114L455.104 190.474C456.388 190.033 457.341 189.963 457.957 190.271C458.579 190.566 459.11 191.354 459.55 192.629L460.878 196.479ZM457.697 196.311C457.848 196.259 457.895 196.157 457.841 196L457.448 194.863C457.394 194.706 457.294 194.655 457.143 194.706L448.463 197.689C448.3 197.745 448.246 197.849 448.3 198.006L448.693 199.143C448.747 199.3 448.853 199.35 449.017 199.293L457.697 196.311Z" fill="url(#paint69_linear_164_2)"/>
<path d="M462.3 201.889L463.589 206.372L449.067 210.527L447.778 206.043L462.3 201.889Z" fill="url(#paint70_linear_164_2)"/>
<path d="M451.906 223.027L466.564 219.38L465.434 214.855L458.872 216.487L464.878 212.629L463.795 208.297L449.136 211.944L450.267 216.47L456.819 214.84L450.823 218.695L451.906 223.027Z" fill="url(#paint71_linear_164_2)"/>
<path fill-rule="evenodd" clip-rule="evenodd" d="M454.201 243.23C454.336 243.636 454.633 244.028 455.092 244.406C456.003 245.157 457.267 245.461 458.877 245.32L465.011 244.785C466.621 244.645 467.813 244.126 468.579 243.229C468.966 242.777 469.19 242.339 469.252 241.916L468.506 233.412L453.456 234.725L454.201 243.23ZM456.964 240.805C456.798 240.82 456.71 240.746 456.696 240.58L456.569 239.136L466.208 238.294L466.334 239.739C466.349 239.904 466.274 239.992 466.109 240.006L456.964 240.805Z" fill="url(#paint72_linear_164_2)"/>
<path d="M469.553 246.6L469.847 255.002L467.133 255.097L467.002 251.356L463.843 251.466L463.974 255.207L461.301 255.3L461.17 251.56L457.332 251.693L457.463 255.434L454.749 255.528L454.455 247.126L469.553 246.6Z" fill="url(#paint73_linear_164_2)"/>
<path d="M469.636 264.698C469.612 266.039 469.352 266.952 468.851 267.432C468.361 267.908 467.766 268.138 467.07 268.126L463.869 268.07L463.951 263.406L466.683 263.454C466.856 263.457 466.942 263.377 466.946 263.211L466.966 262.009C466.97 261.843 466.886 261.76 466.713 261.757L457.534 261.597C457.375 261.594 457.295 261.674 457.292 261.84L457.271 263.042C457.268 263.208 457.345 263.291 457.505 263.294L460.261 263.342L460.179 268.006L456.955 267.95C456.273 267.938 455.692 267.687 455.219 267.194C454.735 266.698 454.507 265.776 454.531 264.435L454.602 260.364C454.626 259.016 454.886 258.102 455.386 257.63C455.877 257.147 456.798 256.919 458.142 256.943L466.268 257.084C467.626 257.108 468.545 257.367 469.018 257.867C469.502 258.357 469.73 259.279 469.707 260.627L469.636 264.698Z" fill="url(#paint74_linear_164_2)"/>
<path d="M469.51 270.33L468.922 278.717L466.213 278.528L466.475 274.794L463.322 274.574L463.06 278.308L460.391 278.122L460.653 274.388L456.823 274.12L456.561 277.855L453.851 277.665L454.44 269.278L469.51 270.33Z" fill="url(#paint75_linear_164_2)"/>
<path d="M452.234 290.368L467.229 292.205L467.799 287.575L461.087 286.753L468.079 285.299L468.624 280.868L453.629 279.03L453.059 283.66L459.762 284.481L452.78 285.936L452.234 290.368Z" fill="url(#paint76_linear_164_2)"/>
<path d="M466.714 293.854L464.766 304.879L462.091 304.408L462.659 301.193L450.456 299.046L451.268 294.452L463.471 296.599L464.039 293.383L466.714 293.854Z" fill="url(#paint77_linear_164_2)"/>
<path fill-rule="evenodd" clip-rule="evenodd" d="M462.1 314.396C461.752 315.692 461.278 316.516 460.676 316.86C460.078 317.201 459.124 317.195 457.819 316.847L457.395 316.733C456.254 316.428 455.518 316.08 455.184 315.689C454.861 315.308 454.757 314.544 454.872 313.397C454.393 314.447 453.913 315.055 453.436 315.222C452.95 315.394 452.457 315.413 451.958 315.28L448.883 314.458C447.846 314.181 447.065 314.055 446.543 314.087L447.753 309.582C448.327 309.564 449.155 309.701 450.237 309.99L453.332 310.818C453.434 310.845 453.52 310.812 453.593 310.723L453.992 309.237L448.257 307.704L449.467 303.199L464.059 307.1L462.1 314.396ZM459.537 312.476C459.704 312.521 459.807 312.465 459.85 312.304L460.226 310.904L456.442 309.892L456.066 311.292C456.023 311.453 456.084 311.553 456.241 311.595L459.537 312.476Z" fill="url(#paint78_linear_164_2)"/>
<path fill-rule="evenodd" clip-rule="evenodd" d="M459.497 322.805L446.214 314.816L444.871 318.942L448.074 320.669L447.221 323.291L443.607 322.822L442.268 326.936L457.72 328.262L459.497 322.805ZM450.49 321.954L454.761 324.286L449.934 323.661L450.49 321.954Z" fill="url(#paint79_linear_164_2)"/>
<path d="M455.754 332.967L454.079 337.322L443.429 333.243L442.085 336.737L438.631 335.414L441.65 327.565L455.754 332.967Z" fill="url(#paint80_linear_164_2)"/>
<path d="M452.053 342.625L450.152 346.887L436.351 340.756L438.252 336.495L452.053 342.625Z" fill="url(#paint81_linear_164_2)"/>
<path d="M449.286 348.626L445.973 346.942L444.033 350.741L435.935 341.568L431.198 350.842L434.495 352.518L436.25 349.081L444.509 357.979L449.286 348.626Z" fill="url(#paint82_linear_164_2)"/>
<path d="M443.681 359.222L439.596 366.575L437.22 365.262L439.039 361.988L436.275 360.459L434.456 363.733L432.116 362.439L433.935 359.165L430.577 357.307L428.758 360.581L426.383 359.267L430.468 351.914L443.681 359.222Z" fill="url(#paint83_linear_164_2)"/>
<path fill-rule="evenodd" clip-rule="evenodd" d="M421.055 367.468C420.917 367.873 420.917 368.365 421.056 368.942C421.331 370.088 422.157 371.091 423.527 371.945L428.75 375.201C430.12 376.056 431.385 376.357 432.538 376.101C433.119 375.972 433.562 375.757 433.867 375.456L438.4 368.217L425.589 360.228L421.055 367.468ZM424.723 367.19C424.582 367.102 424.556 366.99 424.645 366.85L425.414 365.62L433.62 370.736L432.85 371.966C432.762 372.107 432.649 372.132 432.508 372.044L424.723 367.19Z" fill="url(#paint84_linear_164_2)"/>
<path fill-rule="evenodd" clip-rule="evenodd" d="M410.369 381.547C410.19 381.936 410.138 382.425 410.216 383.014C410.369 384.182 411.085 385.265 412.359 386.258L417.211 390.041C418.485 391.034 419.711 391.465 420.884 391.331C421.476 391.263 421.939 391.096 422.274 390.828L427.541 384.101L415.636 374.821L410.369 381.547ZM414.046 381.654C413.915 381.552 413.901 381.438 414.004 381.307L414.898 380.164L422.523 386.108L421.628 387.251C421.525 387.381 421.411 387.395 421.28 387.293L414.046 381.654Z" fill="url(#paint85_linear_164_2)"/>
<path d="M419.467 394.25L416.462 397.824L404.889 388.134L407.894 384.561L419.467 394.25Z" fill="url(#paint86_linear_164_2)"/>
<path d="M409.634 404.813C408.717 405.795 407.911 406.299 407.217 406.322C406.529 406.343 405.689 405.89 404.701 404.971L402.998 403.386L406.186 399.975L408.247 401.892C408.371 402.008 408.491 402.009 408.605 401.887L409.426 401.007C409.54 400.886 409.531 400.767 409.407 400.651L402.69 394.402C402.576 394.296 402.461 394.3 402.348 394.421L401.526 395.3C401.412 395.422 401.416 395.537 401.53 395.643L403.706 397.667L404.282 397.05L405.519 398.2L401.753 402.229L396.212 397.072L397.134 396.086L398.486 396.72C397.916 395.999 398.17 395.037 399.245 393.827L401.368 391.555C402.29 390.569 403.093 390.062 403.777 390.041C404.47 390.014 405.31 390.462 406.293 391.376L412.237 396.907C413.226 397.826 413.734 398.633 413.756 399.325C413.787 400.012 413.339 400.85 412.417 401.836L409.634 404.813Z" fill="url(#paint87_linear_164_2)"/>
<path d="M405.678 408.769L402.316 412.009L391.821 401.166L395.184 397.926L405.678 408.769Z" fill="url(#paint88_linear_164_2)"/>
<path d="M401.049 413.284L392.581 420.629L390.799 418.583L393.269 416.441L385.139 407.11L388.667 404.049L396.797 413.381L399.267 411.239L401.049 413.284Z" fill="url(#paint89_linear_164_2)"/>
<path fill-rule="evenodd" clip-rule="evenodd" d="M389.734 422.806L382.955 408.887L379.575 411.618L381.32 414.807L379.173 416.542L376.398 414.184L373.03 416.907L385.265 426.418L389.734 422.806ZM382.645 417.197L384.953 421.474L381.246 418.327L382.645 417.197Z" fill="url(#paint90_linear_164_2)"/>
<path d="M380.892 429.355L377.11 432.097L370.405 422.889L367.37 425.089L365.195 422.102L372.012 417.16L380.892 429.355Z" fill="url(#paint91_linear_164_2)"/>
<path d="M360.918 442.06C359.754 442.731 358.835 442.979 358.165 442.797C357.504 442.623 356.999 442.233 356.652 441.631L355.051 438.865L359.1 436.533L360.466 438.894C360.553 439.044 360.666 439.076 360.81 438.994L361.853 438.392C361.998 438.309 362.026 438.195 361.939 438.046L357.349 430.113C357.27 429.975 357.16 429.948 357.015 430.032L355.972 430.633C355.828 430.716 355.797 430.824 355.876 430.962L357.254 433.343L353.206 435.676L351.593 432.889C351.252 432.3 351.169 431.674 351.349 431.016C351.526 430.346 352.2 429.677 353.365 429.006L356.899 426.97C358.069 426.296 358.988 426.048 359.651 426.233C360.319 426.404 360.988 427.074 361.661 428.236L365.724 435.258C366.403 436.432 366.654 437.352 366.468 438.014C366.297 438.68 365.622 439.35 364.452 440.024L360.918 442.06Z" fill="url(#paint92_linear_164_2)"/>
<path d="M346.262 449.588L340.803 439.344C340.172 438.16 339.954 437.239 340.157 436.587C340.357 435.924 341.055 435.278 342.242 434.648L345.845 432.736C347.038 432.103 347.965 431.888 348.621 432.096C349.283 432.29 349.929 432.983 350.56 434.168L356.019 444.411L351.891 446.601L346.2 435.921C346.119 435.768 346.004 435.733 345.851 435.814L344.796 436.374C344.649 436.452 344.617 436.565 344.698 436.717L350.39 447.398L346.262 449.588Z" fill="url(#paint93_linear_164_2)"/>
<path fill-rule="evenodd" clip-rule="evenodd" d="M336.553 453.533C335.307 454.035 334.362 454.153 333.724 453.88C333.091 453.61 332.521 452.845 332.015 451.595L331.851 451.19C331.409 450.097 331.244 449.301 331.356 448.8C331.466 448.313 332.015 447.77 333.003 447.171C331.874 447.421 331.099 447.406 330.678 447.126C330.248 446.842 329.936 446.46 329.743 445.983L328.55 443.037C328.148 442.044 327.777 441.346 327.437 440.95L331.772 439.202C332.132 439.649 332.521 440.391 332.94 441.427L334.141 444.392C334.18 444.49 334.258 444.539 334.374 444.543L335.803 443.967L333.578 438.474L337.913 436.727L343.572 450.703L336.553 453.533ZM336.547 450.335C336.612 450.495 336.719 450.543 336.874 450.481L338.221 449.938L336.753 446.314L335.406 446.856C335.251 446.918 335.208 447.028 335.269 447.178L336.547 450.335Z" fill="url(#paint94_linear_164_2)"/>
<path fill-rule="evenodd" clip-rule="evenodd" d="M323.907 458.079C322.636 458.516 321.687 458.584 321.064 458.279C320.446 457.975 319.917 457.183 319.477 455.908L319.335 455.494C318.95 454.38 318.828 453.576 318.966 453.081C319.102 452.601 319.678 452.088 320.696 451.541C319.555 451.732 318.782 451.676 318.377 451.374C317.962 451.068 317.67 450.671 317.502 450.184L316.466 447.18C316.116 446.168 315.783 445.451 315.464 445.038L319.885 443.519C320.22 443.984 320.57 444.745 320.935 445.802L321.978 448.825C322.012 448.925 322.088 448.977 322.203 448.988L323.66 448.487L321.727 442.886L326.147 441.367L331.065 455.62L323.907 458.079ZM324.069 454.886C324.125 455.049 324.23 455.103 324.387 455.049L325.761 454.577L324.486 450.88L323.112 451.352C322.955 451.406 322.905 451.513 322.958 451.667L324.069 454.886Z" fill="url(#paint95_linear_164_2)"/>
<path d="M318.139 459.888L310.039 462.205L309.291 459.6L312.897 458.568L312.026 455.537L308.42 456.569L307.682 454.003L311.288 452.971L310.23 449.288L306.624 450.32L305.876 447.715L313.975 445.398L318.139 459.888Z" fill="url(#paint96_linear_164_2)"/>
<path d="M293.279 450.37L296.677 465.059L301.232 464.009L299.711 457.434L303.472 463.493L307.832 462.489L304.433 447.801L299.878 448.85L301.397 455.415L297.639 449.366L293.279 450.37Z" fill="url(#paint97_linear_164_2)"/>
<path d="M286.609 466.566C285.278 466.753 284.333 466.639 283.78 466.22C283.232 465.812 282.911 465.261 282.815 464.574L282.369 461.41L286.999 460.761L287.379 463.461C287.403 463.632 287.496 463.705 287.66 463.682L288.854 463.515C289.018 463.492 289.087 463.396 289.063 463.225L287.786 454.155C287.763 453.997 287.672 453.931 287.507 453.954L286.314 454.122C286.149 454.145 286.079 454.234 286.101 454.391L286.485 457.115L281.856 457.764L281.407 454.577C281.312 453.903 281.469 453.292 281.883 452.749C282.298 452.194 283.176 451.825 284.507 451.638L288.548 451.072C289.886 450.884 290.831 450.998 291.377 451.418C291.931 451.825 292.301 452.697 292.488 454.026L293.619 462.056C293.808 463.398 293.695 464.344 293.274 464.889C292.865 465.442 291.989 465.812 290.651 465.999L286.609 466.566Z" fill="url(#paint98_linear_164_2)"/>
<path d="M277.18 458.964L281.503 467.142L277.093 467.527L275.153 462.698L274.09 467.789L269.683 468.174L272.513 459.371L271.941 452.845L276.608 452.437L277.18 458.964Z" fill="url(#paint99_linear_164_2)"/>
<path d="M437.119 155.16C438.393 155.16 439.427 156.191 439.427 157.463C439.427 158.734 438.393 159.765 437.119 159.765C435.845 159.765 434.811 158.734 434.811 157.463C434.811 156.191 435.845 155.16 437.119 155.16Z" fill="url(#paint100_linear_164_2)"/>
<path d="M462.246 227.593C462.246 226.321 461.213 225.29 459.939 225.29C458.664 225.29 457.631 226.321 457.631 227.593C457.631 228.864 458.664 229.896 459.939 229.896C461.213 229.896 462.246 228.864 462.246 227.593Z" fill="url(#paint101_linear_164_2)"/>
<path d="M83.244 150.247C84.5183 150.247 85.5519 151.279 85.5519 152.55C85.5519 153.822 84.5183 154.853 83.244 154.853C81.9697 154.853 80.9362 153.822 80.9362 152.55C80.9362 151.279 81.9697 150.247 83.244 150.247Z" fill="url(#paint102_linear_164_2)"/>
<path d="M137.672 96.015C137.672 94.7435 136.639 93.7122 135.364 93.7122C134.09 93.7122 133.057 94.7435 133.057 96.015C133.057 97.2865 134.09 98.3177 135.364 98.3177C136.639 98.3177 137.672 97.2865 137.672 96.015Z" fill="url(#paint103_linear_164_2)"/>
<path d="M185.616 445.075C186.89 445.075 187.924 446.106 187.924 447.377C187.924 448.649 186.89 449.68 185.616 449.68C184.342 449.68 183.308 448.649 183.308 447.377C183.308 446.106 184.342 445.075 185.616 445.075Z" fill="url(#paint104_linear_164_2)"/>
<path d="M264.075 460.785C264.075 459.514 263.041 458.483 261.767 458.483C260.492 458.483 259.459 459.514 259.459 460.785C259.459 462.057 260.492 463.088 261.767 463.088C263.041 463.088 264.075 462.057 264.075 460.785Z" fill="url(#paint105_linear_164_2)"/>
<defs>
<linearGradient id="paint0_linear_164_2" x1="422.435" y1="558.946" x2="-169.098" y2="273.911" gradientUnits="userSpaceOnUse">
<stop stop-color="#90C626"/>
<stop offset="1" stop-color="#20934A"/>
</linearGradient>
<linearGradient id="paint1_linear_164_2" x1="410.948" y1="393.432" x2="94.3162" y2="119.916" gradientUnits="userSpaceOnUse">
<stop stop-color="#88C228"/>
<stop offset="1" stop-color="#399E42"/>
</linearGradient>
<linearGradient id="paint2_linear_164_2" x1="410.948" y1="393.432" x2="94.3162" y2="119.916" gradientUnits="userSpaceOnUse">
<stop stop-color="#88C228"/>
<stop offset="1" stop-color="#399E42"/>
</linearGradient>
<linearGradient id="paint3_linear_164_2" x1="410.948" y1="393.432" x2="94.3162" y2="119.916" gradientUnits="userSpaceOnUse">
<stop stop-color="#88C228"/>
<stop offset="1" stop-color="#399E42"/>
</linearGradient>
<linearGradient id="paint4_linear_164_2" x1="410.948" y1="393.432" x2="94.3162" y2="119.916" gradientUnits="userSpaceOnUse">
<stop stop-color="#88C228"/>
<stop offset="1" stop-color="#399E42"/>
</linearGradient>
<linearGradient id="paint5_linear_164_2" x1="410.948" y1="393.432" x2="94.3162" y2="119.916" gradientUnits="userSpaceOnUse">
<stop stop-color="#88C228"/>
<stop offset="1" stop-color="#399E42"/>
</linearGradient>
<linearGradient id="paint6_linear_164_2" x1="410.948" y1="393.432" x2="94.3162" y2="119.916" gradientUnits="userSpaceOnUse">
<stop stop-color="#88C228"/>
<stop offset="1" stop-color="#399E42"/>
</linearGradient>
<linearGradient id="paint7_linear_164_2" x1="410.948" y1="393.432" x2="94.3162" y2="119.916" gradientUnits="userSpaceOnUse">
<stop stop-color="#88C228"/>
<stop offset="1" stop-color="#399E42"/>
</linearGradient>
<linearGradient id="paint8_linear_164_2" x1="410.948" y1="393.432" x2="94.3162" y2="119.916" gradientUnits="userSpaceOnUse">
<stop stop-color="#88C228"/>
<stop offset="1" stop-color="#399E42"/>
</linearGradient>
<linearGradient id="paint9_linear_164_2" x1="410.948" y1="393.432" x2="94.3162" y2="119.916" gradientUnits="userSpaceOnUse">
<stop stop-color="#88C228"/>
<stop offset="1" stop-color="#399E42"/>
</linearGradient>
<linearGradient id="paint10_linear_164_2" x1="410.948" y1="393.432" x2="94.3162" y2="119.916" gradientUnits="userSpaceOnUse">
<stop stop-color="#88C228"/>
<stop offset="1" stop-color="#399E42"/>
</linearGradient>
<linearGradient id="paint11_linear_164_2" x1="410.948" y1="393.432" x2="94.3162" y2="119.916" gradientUnits="userSpaceOnUse">
<stop stop-color="#88C228"/>
<stop offset="1" stop-color="#399E42"/>
</linearGradient>
<linearGradient id="paint12_linear_164_2" x1="410.948" y1="393.432" x2="94.3162" y2="119.916" gradientUnits="userSpaceOnUse">
<stop stop-color="#88C228"/>
<stop offset="1" stop-color="#399E42"/>
</linearGradient>
<linearGradient id="paint13_linear_164_2" x1="410.948" y1="393.432" x2="94.3162" y2="119.916" gradientUnits="userSpaceOnUse">
<stop stop-color="#88C228"/>
<stop offset="1" stop-color="#399E42"/>
</linearGradient>
<linearGradient id="paint14_linear_164_2" x1="410.948" y1="393.432" x2="94.3162" y2="119.916" gradientUnits="userSpaceOnUse">
<stop stop-color="#88C228"/>
<stop offset="1" stop-color="#399E42"/>
</linearGradient>
<linearGradient id="paint15_linear_164_2" x1="410.948" y1="393.432" x2="94.3162" y2="119.916" gradientUnits="userSpaceOnUse">
<stop stop-color="#88C228"/>
<stop offset="1" stop-color="#399E42"/>
</linearGradient>
<linearGradient id="paint16_linear_164_2" x1="410.948" y1="393.432" x2="94.3162" y2="119.916" gradientUnits="userSpaceOnUse">
<stop stop-color="#88C228"/>
<stop offset="1" stop-color="#399E42"/>
</linearGradient>
<linearGradient id="paint17_linear_164_2" x1="410.948" y1="393.432" x2="94.3162" y2="119.916" gradientUnits="userSpaceOnUse">
<stop stop-color="#88C228"/>
<stop offset="1" stop-color="#399E42"/>
</linearGradient>
<linearGradient id="paint18_linear_164_2" x1="410.948" y1="393.432" x2="94.3162" y2="119.916" gradientUnits="userSpaceOnUse">
<stop stop-color="#88C228"/>
<stop offset="1" stop-color="#399E42"/>
</linearGradient>
<linearGradient id="paint19_linear_164_2" x1="410.948" y1="393.432" x2="94.3162" y2="119.916" gradientUnits="userSpaceOnUse">
<stop stop-color="#88C228"/>
<stop offset="1" stop-color="#399E42"/>
</linearGradient>
<linearGradient id="paint20_linear_164_2" x1="410.948" y1="393.432" x2="94.3162" y2="119.916" gradientUnits="userSpaceOnUse">
<stop stop-color="#88C228"/>
<stop offset="1" stop-color="#399E42"/>
</linearGradient>
<linearGradient id="paint21_linear_164_2" x1="410.948" y1="393.432" x2="94.3162" y2="119.916" gradientUnits="userSpaceOnUse">
<stop stop-color="#88C228"/>
<stop offset="1" stop-color="#399E42"/>
</linearGradient>
<linearGradient id="paint22_linear_164_2" x1="410.948" y1="393.432" x2="94.3162" y2="119.916" gradientUnits="userSpaceOnUse">
<stop stop-color="#88C228"/>
<stop offset="1" stop-color="#399E42"/>
</linearGradient>
<linearGradient id="paint23_linear_164_2" x1="410.948" y1="393.432" x2="94.3162" y2="119.916" gradientUnits="userSpaceOnUse">
<stop stop-color="#88C228"/>
<stop offset="1" stop-color="#399E42"/>
</linearGradient>
<linearGradient id="paint24_linear_164_2" x1="410.948" y1="393.432" x2="94.3162" y2="119.916" gradientUnits="userSpaceOnUse">
<stop stop-color="#88C228"/>
<stop offset="1" stop-color="#399E42"/>
</linearGradient>
<linearGradient id="paint25_linear_164_2" x1="410.948" y1="393.432" x2="94.3162" y2="119.916" gradientUnits="userSpaceOnUse">
<stop stop-color="#88C228"/>
<stop offset="1" stop-color="#399E42"/>
</linearGradient>
<linearGradient id="paint26_linear_164_2" x1="410.948" y1="393.432" x2="94.3162" y2="119.916" gradientUnits="userSpaceOnUse">
<stop stop-color="#88C228"/>
<stop offset="1" stop-color="#399E42"/>
</linearGradient>
<linearGradient id="paint27_linear_164_2" x1="410.948" y1="393.432" x2="94.3162" y2="119.916" gradientUnits="userSpaceOnUse">
<stop stop-color="#88C228"/>
<stop offset="1" stop-color="#399E42"/>
</linearGradient>
<linearGradient id="paint28_linear_164_2" x1="410.948" y1="393.432" x2="94.3162" y2="119.916" gradientUnits="userSpaceOnUse">
<stop stop-color="#88C228"/>
<stop offset="1" stop-color="#399E42"/>
</linearGradient>
<linearGradient id="paint29_linear_164_2" x1="410.948" y1="393.432" x2="94.3162" y2="119.916" gradientUnits="userSpaceOnUse">
<stop stop-color="#88C228"/>
<stop offset="1" stop-color="#399E42"/>
</linearGradient>
<linearGradient id="paint30_linear_164_2" x1="410.948" y1="393.432" x2="94.3162" y2="119.916" gradientUnits="userSpaceOnUse">
<stop stop-color="#88C228"/>
<stop offset="1" stop-color="#399E42"/>
</linearGradient>
<linearGradient id="paint31_linear_164_2" x1="410.948" y1="393.432" x2="94.3162" y2="119.916" gradientUnits="userSpaceOnUse">
<stop stop-color="#88C228"/>
<stop offset="1" stop-color="#399E42"/>
</linearGradient>
<linearGradient id="paint32_linear_164_2" x1="410.948" y1="393.432" x2="94.3162" y2="119.916" gradientUnits="userSpaceOnUse">
<stop stop-color="#88C228"/>
<stop offset="1" stop-color="#399E42"/>
</linearGradient>
<linearGradient id="paint33_linear_164_2" x1="410.948" y1="393.432" x2="94.3162" y2="119.916" gradientUnits="userSpaceOnUse">
<stop stop-color="#88C228"/>
<stop offset="1" stop-color="#399E42"/>
</linearGradient>
<linearGradient id="paint34_linear_164_2" x1="410.948" y1="393.432" x2="94.3162" y2="119.916" gradientUnits="userSpaceOnUse">
<stop stop-color="#88C228"/>
<stop offset="1" stop-color="#399E42"/>
</linearGradient>
<linearGradient id="paint35_linear_164_2" x1="410.948" y1="393.432" x2="94.3162" y2="119.916" gradientUnits="userSpaceOnUse">
<stop stop-color="#88C228"/>
<stop offset="1" stop-color="#399E42"/>
</linearGradient>
<linearGradient id="paint36_linear_164_2" x1="410.948" y1="393.432" x2="94.3162" y2="119.916" gradientUnits="userSpaceOnUse">
<stop stop-color="#88C228"/>
<stop offset="1" stop-color="#399E42"/>
</linearGradient>
<linearGradient id="paint37_linear_164_2" x1="410.948" y1="393.432" x2="94.3162" y2="119.916" gradientUnits="userSpaceOnUse">
<stop stop-color="#88C228"/>
<stop offset="1" stop-color="#399E42"/>
</linearGradient>
<linearGradient id="paint38_linear_164_2" x1="410.948" y1="393.432" x2="94.3162" y2="119.916" gradientUnits="userSpaceOnUse">
<stop stop-color="#88C228"/>
<stop offset="1" stop-color="#399E42"/>
</linearGradient>
<linearGradient id="paint39_linear_164_2" x1="410.948" y1="393.432" x2="94.3162" y2="119.916" gradientUnits="userSpaceOnUse">
<stop stop-color="#88C228"/>
<stop offset="1" stop-color="#399E42"/>
</linearGradient>
<linearGradient id="paint40_linear_164_2" x1="410.948" y1="393.432" x2="94.3162" y2="119.916" gradientUnits="userSpaceOnUse">
<stop stop-color="#88C228"/>
<stop offset="1" stop-color="#399E42"/>
</linearGradient>
<linearGradient id="paint41_linear_164_2" x1="410.948" y1="393.432" x2="94.3162" y2="119.916" gradientUnits="userSpaceOnUse">
<stop stop-color="#88C228"/>
<stop offset="1" stop-color="#399E42"/>
</linearGradient>
<linearGradient id="paint42_linear_164_2" x1="410.948" y1="393.432" x2="94.3162" y2="119.916" gradientUnits="userSpaceOnUse">
<stop stop-color="#88C228"/>
<stop offset="1" stop-color="#399E42"/>
</linearGradient>
<linearGradient id="paint43_linear_164_2" x1="410.948" y1="393.432" x2="94.3162" y2="119.916" gradientUnits="userSpaceOnUse">
<stop stop-color="#88C228"/>
<stop offset="1" stop-color="#399E42"/>
</linearGradient>
<linearGradient id="paint44_linear_164_2" x1="410.948" y1="393.432" x2="94.3162" y2="119.916" gradientUnits="userSpaceOnUse">
<stop stop-color="#88C228"/>
<stop offset="1" stop-color="#399E42"/>
</linearGradient>
<linearGradient id="paint45_linear_164_2" x1="410.948" y1="393.432" x2="94.3162" y2="119.916" gradientUnits="userSpaceOnUse">
<stop stop-color="#88C228"/>
<stop offset="1" stop-color="#399E42"/>
</linearGradient>
<linearGradient id="paint46_linear_164_2" x1="410.948" y1="393.432" x2="94.3162" y2="119.916" gradientUnits="userSpaceOnUse">
<stop stop-color="#88C228"/>
<stop offset="1" stop-color="#399E42"/>
</linearGradient>
<linearGradient id="paint47_linear_164_2" x1="410.948" y1="393.432" x2="94.3162" y2="119.916" gradientUnits="userSpaceOnUse">
<stop stop-color="#88C228"/>
<stop offset="1" stop-color="#399E42"/>
</linearGradient>
<linearGradient id="paint48_linear_164_2" x1="410.948" y1="393.432" x2="94.3162" y2="119.916" gradientUnits="userSpaceOnUse">
<stop stop-color="#88C228"/>
<stop offset="1" stop-color="#399E42"/>
</linearGradient>
<linearGradient id="paint49_linear_164_2" x1="410.948" y1="393.432" x2="94.3162" y2="119.916" gradientUnits="userSpaceOnUse">
<stop stop-color="#88C228"/>
<stop offset="1" stop-color="#399E42"/>
</linearGradient>
<linearGradient id="paint50_linear_164_2" x1="410.948" y1="393.432" x2="94.3162" y2="119.916" gradientUnits="userSpaceOnUse">
<stop stop-color="#88C228"/>
<stop offset="1" stop-color="#399E42"/>
</linearGradient>
<linearGradient id="paint51_linear_164_2" x1="410.948" y1="393.432" x2="94.3162" y2="119.916" gradientUnits="userSpaceOnUse">
<stop stop-color="#88C228"/>
<stop offset="1" stop-color="#399E42"/>
</linearGradient>
<linearGradient id="paint52_linear_164_2" x1="410.948" y1="393.432" x2="94.3162" y2="119.916" gradientUnits="userSpaceOnUse">
<stop stop-color="#88C228"/>
<stop offset="1" stop-color="#399E42"/>
</linearGradient>
<linearGradient id="paint53_linear_164_2" x1="410.948" y1="393.432" x2="94.3162" y2="119.916" gradientUnits="userSpaceOnUse">
<stop stop-color="#88C228"/>
<stop offset="1" stop-color="#399E42"/>
</linearGradient>
<linearGradient id="paint54_linear_164_2" x1="410.948" y1="393.432" x2="94.3162" y2="119.916" gradientUnits="userSpaceOnUse">
<stop stop-color="#88C228"/>
<stop offset="1" stop-color="#399E42"/>
</linearGradient>
<linearGradient id="paint55_linear_164_2" x1="410.948" y1="393.432" x2="94.3162" y2="119.916" gradientUnits="userSpaceOnUse">
<stop stop-color="#88C228"/>
<stop offset="1" stop-color="#399E42"/>
</linearGradient>
<linearGradient id="paint56_linear_164_2" x1="410.948" y1="393.432" x2="94.3162" y2="119.916" gradientUnits="userSpaceOnUse">
<stop stop-color="#88C228"/>
<stop offset="1" stop-color="#399E42"/>
</linearGradient>
<linearGradient id="paint57_linear_164_2" x1="410.948" y1="393.432" x2="94.3162" y2="119.916" gradientUnits="userSpaceOnUse">
<stop stop-color="#88C228"/>
<stop offset="1" stop-color="#399E42"/>
</linearGradient>
<linearGradient id="paint58_linear_164_2" x1="410.948" y1="393.432" x2="94.3162" y2="119.916" gradientUnits="userSpaceOnUse">
<stop stop-color="#88C228"/>
<stop offset="1" stop-color="#399E42"/>
</linearGradient>
<linearGradient id="paint59_linear_164_2" x1="410.948" y1="393.432" x2="94.3162" y2="119.916" gradientUnits="userSpaceOnUse">
<stop stop-color="#88C228"/>
<stop offset="1" stop-color="#399E42"/>
</linearGradient>
<linearGradient id="paint60_linear_164_2" x1="410.948" y1="393.432" x2="94.3162" y2="119.916" gradientUnits="userSpaceOnUse">
<stop stop-color="#88C228"/>
<stop offset="1" stop-color="#399E42"/>
</linearGradient>
<linearGradient id="paint61_linear_164_2" x1="410.948" y1="393.432" x2="94.3162" y2="119.916" gradientUnits="userSpaceOnUse">
<stop stop-color="#88C228"/>
<stop offset="1" stop-color="#399E42"/>
</linearGradient>
<linearGradient id="paint62_linear_164_2" x1="410.948" y1="393.432" x2="94.3162" y2="119.916" gradientUnits="userSpaceOnUse">
<stop stop-color="#88C228"/>
<stop offset="1" stop-color="#399E42"/>
</linearGradient>
<linearGradient id="paint63_linear_164_2" x1="410.948" y1="393.432" x2="94.3162" y2="119.916" gradientUnits="userSpaceOnUse">
<stop stop-color="#88C228"/>
<stop offset="1" stop-color="#399E42"/>
</linearGradient>
<linearGradient id="paint64_linear_164_2" x1="410.948" y1="393.432" x2="94.3162" y2="119.916" gradientUnits="userSpaceOnUse">
<stop stop-color="#88C228"/>
<stop offset="1" stop-color="#399E42"/>
</linearGradient>
<linearGradient id="paint65_linear_164_2" x1="410.948" y1="393.432" x2="94.3162" y2="119.916" gradientUnits="userSpaceOnUse">
<stop stop-color="#88C228"/>
<stop offset="1" stop-color="#399E42"/>
</linearGradient>
<linearGradient id="paint66_linear_164_2" x1="410.948" y1="393.432" x2="94.3162" y2="119.916" gradientUnits="userSpaceOnUse">
<stop stop-color="#88C228"/>
<stop offset="1" stop-color="#399E42"/>
</linearGradient>
<linearGradient id="paint67_linear_164_2" x1="410.948" y1="393.432" x2="94.3162" y2="119.916" gradientUnits="userSpaceOnUse">
<stop stop-color="#88C228"/>
<stop offset="1" stop-color="#399E42"/>
</linearGradient>
<linearGradient id="paint68_linear_164_2" x1="410.948" y1="393.432" x2="94.3162" y2="119.916" gradientUnits="userSpaceOnUse">
<stop stop-color="#88C228"/>
<stop offset="1" stop-color="#399E42"/>
</linearGradient>
<linearGradient id="paint69_linear_164_2" x1="410.948" y1="393.432" x2="94.3162" y2="119.916" gradientUnits="userSpaceOnUse">
<stop stop-color="#88C228"/>
<stop offset="1" stop-color="#399E42"/>
</linearGradient>
<linearGradient id="paint70_linear_164_2" x1="410.948" y1="393.432" x2="94.3162" y2="119.916" gradientUnits="userSpaceOnUse">
<stop stop-color="#88C228"/>
<stop offset="1" stop-color="#399E42"/>
</linearGradient>
<linearGradient id="paint71_linear_164_2" x1="410.948" y1="393.432" x2="94.3162" y2="119.916" gradientUnits="userSpaceOnUse">
<stop stop-color="#88C228"/>
<stop offset="1" stop-color="#399E42"/>
</linearGradient>
<linearGradient id="paint72_linear_164_2" x1="410.948" y1="393.432" x2="94.3162" y2="119.916" gradientUnits="userSpaceOnUse">
<stop stop-color="#88C228"/>
<stop offset="1" stop-color="#399E42"/>
</linearGradient>
<linearGradient id="paint73_linear_164_2" x1="410.948" y1="393.432" x2="94.3162" y2="119.916" gradientUnits="userSpaceOnUse">
<stop stop-color="#88C228"/>
<stop offset="1" stop-color="#399E42"/>
</linearGradient>
<linearGradient id="paint74_linear_164_2" x1="410.948" y1="393.432" x2="94.3162" y2="119.916" gradientUnits="userSpaceOnUse">
<stop stop-color="#88C228"/>
<stop offset="1" stop-color="#399E42"/>
</linearGradient>
<linearGradient id="paint75_linear_164_2" x1="410.948" y1="393.432" x2="94.3162" y2="119.916" gradientUnits="userSpaceOnUse">
<stop stop-color="#88C228"/>
<stop offset="1" stop-color="#399E42"/>
</linearGradient>
<linearGradient id="paint76_linear_164_2" x1="410.948" y1="393.432" x2="94.3162" y2="119.916" gradientUnits="userSpaceOnUse">
<stop stop-color="#88C228"/>
<stop offset="1" stop-color="#399E42"/>
</linearGradient>
<linearGradient id="paint77_linear_164_2" x1="410.948" y1="393.432" x2="94.3162" y2="119.916" gradientUnits="userSpaceOnUse">
<stop stop-color="#88C228"/>
<stop offset="1" stop-color="#399E42"/>
</linearGradient>
<linearGradient id="paint78_linear_164_2" x1="410.948" y1="393.432" x2="94.3162" y2="119.916" gradientUnits="userSpaceOnUse">
<stop stop-color="#88C228"/>
<stop offset="1" stop-color="#399E42"/>
</linearGradient>
<linearGradient id="paint79_linear_164_2" x1="410.948" y1="393.432" x2="94.3162" y2="119.916" gradientUnits="userSpaceOnUse">
<stop stop-color="#88C228"/>
<stop offset="1" stop-color="#399E42"/>
</linearGradient>
<linearGradient id="paint80_linear_164_2" x1="410.948" y1="393.432" x2="94.3162" y2="119.916" gradientUnits="userSpaceOnUse">
<stop stop-color="#88C228"/>
<stop offset="1" stop-color="#399E42"/>
</linearGradient>
<linearGradient id="paint81_linear_164_2" x1="410.948" y1="393.432" x2="94.3162" y2="119.916" gradientUnits="userSpaceOnUse">
<stop stop-color="#88C228"/>
<stop offset="1" stop-color="#399E42"/>
</linearGradient>
<linearGradient id="paint82_linear_164_2" x1="410.948" y1="393.432" x2="94.3162" y2="119.916" gradientUnits="userSpaceOnUse">
<stop stop-color="#88C228"/>
<stop offset="1" stop-color="#399E42"/>
</linearGradient>
<linearGradient id="paint83_linear_164_2" x1="410.948" y1="393.432" x2="94.3162" y2="119.916" gradientUnits="userSpaceOnUse">
<stop stop-color="#88C228"/>
<stop offset="1" stop-color="#399E42"/>
</linearGradient>
<linearGradient id="paint84_linear_164_2" x1="410.948" y1="393.432" x2="94.3162" y2="119.916" gradientUnits="userSpaceOnUse">
<stop stop-color="#88C228"/>
<stop offset="1" stop-color="#399E42"/>
</linearGradient>
<linearGradient id="paint85_linear_164_2" x1="410.948" y1="393.432" x2="94.3162" y2="119.916" gradientUnits="userSpaceOnUse">
<stop stop-color="#88C228"/>
<stop offset="1" stop-color="#399E42"/>
</linearGradient>
<linearGradient id="paint86_linear_164_2" x1="410.948" y1="393.432" x2="94.3162" y2="119.916" gradientUnits="userSpaceOnUse">
<stop stop-color="#88C228"/>
<stop offset="1" stop-color="#399E42"/>
</linearGradient>
<linearGradient id="paint87_linear_164_2" x1="410.948" y1="393.432" x2="94.3162" y2="119.916" gradientUnits="userSpaceOnUse">
<stop stop-color="#88C228"/>
<stop offset="1" stop-color="#399E42"/>
</linearGradient>
<linearGradient id="paint88_linear_164_2" x1="410.948" y1="393.432" x2="94.3162" y2="119.916" gradientUnits="userSpaceOnUse">
<stop stop-color="#88C228"/>
<stop offset="1" stop-color="#399E42"/>
</linearGradient>
<linearGradient id="paint89_linear_164_2" x1="410.948" y1="393.432" x2="94.3162" y2="119.916" gradientUnits="userSpaceOnUse">
<stop stop-color="#88C228"/>
<stop offset="1" stop-color="#399E42"/>
</linearGradient>
<linearGradient id="paint90_linear_164_2" x1="410.948" y1="393.432" x2="94.3162" y2="119.916" gradientUnits="userSpaceOnUse">
<stop stop-color="#88C228"/>
<stop offset="1" stop-color="#399E42"/>
</linearGradient>
<linearGradient id="paint91_linear_164_2" x1="410.948" y1="393.432" x2="94.3162" y2="119.916" gradientUnits="userSpaceOnUse">
<stop stop-color="#88C228"/>
<stop offset="1" stop-color="#399E42"/>
</linearGradient>
<linearGradient id="paint92_linear_164_2" x1="410.948" y1="393.432" x2="94.3162" y2="119.916" gradientUnits="userSpaceOnUse">
<stop stop-color="#88C228"/>
<stop offset="1" stop-color="#399E42"/>
</linearGradient>
<linearGradient id="paint93_linear_164_2" x1="410.948" y1="393.432" x2="94.3162" y2="119.916" gradientUnits="userSpaceOnUse">
<stop stop-color="#88C228"/>
<stop offset="1" stop-color="#399E42"/>
</linearGradient>
<linearGradient id="paint94_linear_164_2" x1="410.948" y1="393.432" x2="94.3162" y2="119.916" gradientUnits="userSpaceOnUse">
<stop stop-color="#88C228"/>
<stop offset="1" stop-color="#399E42"/>
</linearGradient>
<linearGradient id="paint95_linear_164_2" x1="410.948" y1="393.432" x2="94.3162" y2="119.916" gradientUnits="userSpaceOnUse">
<stop stop-color="#88C228"/>
<stop offset="1" stop-color="#399E42"/>
</linearGradient>
<linearGradient id="paint96_linear_164_2" x1="410.948" y1="393.432" x2="94.3162" y2="119.916" gradientUnits="userSpaceOnUse">
<stop stop-color="#88C228"/>
<stop offset="1" stop-color="#399E42"/>
</linearGradient>
<linearGradient id="paint97_linear_164_2" x1="410.948" y1="393.432" x2="94.3162" y2="119.916" gradientUnits="userSpaceOnUse">
<stop stop-color="#88C228"/>
<stop offset="1" stop-color="#399E42"/>
</linearGradient>
<linearGradient id="paint98_linear_164_2" x1="410.948" y1="393.432" x2="94.3162" y2="119.916" gradientUnits="userSpaceOnUse">
<stop stop-color="#88C228"/>
<stop offset="1" stop-color="#399E42"/>
</linearGradient>
<linearGradient id="paint99_linear_164_2" x1="410.948" y1="393.432" x2="94.3162" y2="119.916" gradientUnits="userSpaceOnUse">
<stop stop-color="#88C228"/>
<stop offset="1" stop-color="#399E42"/>
</linearGradient>
<linearGradient id="paint100_linear_164_2" x1="410.948" y1="393.432" x2="94.3162" y2="119.916" gradientUnits="userSpaceOnUse">
<stop stop-color="#88C228"/>
<stop offset="1" stop-color="#399E42"/>
</linearGradient>
<linearGradient id="paint101_linear_164_2" x1="410.948" y1="393.432" x2="94.3162" y2="119.916" gradientUnits="userSpaceOnUse">
<stop stop-color="#88C228"/>
<stop offset="1" stop-color="#399E42"/>
</linearGradient>
<linearGradient id="paint102_linear_164_2" x1="410.948" y1="393.432" x2="94.3162" y2="119.916" gradientUnits="userSpaceOnUse">
<stop stop-color="#88C228"/>
<stop offset="1" stop-color="#399E42"/>
</linearGradient>
<linearGradient id="paint103_linear_164_2" x1="410.948" y1="393.432" x2="94.3162" y2="119.916" gradientUnits="userSpaceOnUse">
<stop stop-color="#88C228"/>
<stop offset="1" stop-color="#399E42"/>
</linearGradient>
<linearGradient id="paint104_linear_164_2" x1="410.948" y1="393.432" x2="94.3162" y2="119.916" gradientUnits="userSpaceOnUse">
<stop stop-color="#88C228"/>
<stop offset="1" stop-color="#399E42"/>
</linearGradient>
<linearGradient id="paint105_linear_164_2" x1="410.948" y1="393.432" x2="94.3162" y2="119.916" gradientUnits="userSpaceOnUse">
<stop stop-color="#88C228"/>
<stop offset="1" stop-color="#399E42"/>
</linearGradient>
</defs>
</svg>
