<svg width="779" height="205" viewBox="0 0 779 205" fill="none" xmlns="http://www.w3.org/2000/svg">
<path d="M242.623 14.3301C290.9 14.3301 330.036 53.4662 330.036 101.743C330.036 150.02 290.9 189.157 242.623 189.157C212.506 189.157 185.946 173.926 170.226 150.746H85.1427V150.692L85.1027 150.753L71.545 137.195C70.2027 138.08 68.5945 138.596 66.8663 138.596C62.1663 138.596 58.3556 134.785 58.3556 130.085C58.3556 125.385 62.1663 121.575 66.8663 121.575C71.1183 121.575 74.6423 124.693 75.2755 128.768L89.9659 143.458L89.8497 143.633H165.882C164.14 140.448 162.59 137.143 161.248 133.732H138.595V75.376H159.257C160.29 72.1068 161.51 68.9206 162.904 65.8301H138.416L121.575 82.6709H94.0099C92.6441 85.546 89.7132 87.5341 86.3185 87.5342C81.6184 87.5342 77.8077 83.7235 77.8077 79.0234C77.8078 74.3235 81.6185 70.5137 86.3185 70.5137C89.7132 70.5138 92.644 72.501 94.0099 75.376H116.712L133.604 58.4854V58.2715H166.769C181.849 32.0142 210.171 14.3301 242.623 14.3301ZM242.421 30.3027C201.977 30.3027 169.19 62.5243 169.19 102.271C169.19 142.019 201.976 174.24 242.421 174.24C282.866 174.24 315.652 142.019 315.652 102.271C315.652 62.5243 282.866 30.3027 242.421 30.3027ZM66.8663 126.438C64.8521 126.438 63.2189 128.071 63.2189 130.085C63.2189 132.099 64.852 133.732 66.8663 133.732C68.8806 133.732 70.5138 132.099 70.5138 130.085C70.5137 128.071 68.8805 126.438 66.8663 126.438ZM133.733 133.732H87.5343L80.2404 126.438H133.733V133.732ZM145.89 126.438H158.746C156.444 118.607 155.21 110.319 155.21 101.743C155.21 95.1925 155.931 88.8101 157.297 82.6709H145.89V126.438ZM32.8253 104.555C36.2201 104.555 39.1508 106.542 40.5167 109.417H82.671L89.965 116.712H40.5167C39.1509 119.587 36.2201 121.575 32.8253 121.575C28.1253 121.575 24.3156 117.765 24.3156 113.064C24.3156 108.364 28.1253 104.555 32.8253 104.555ZM32.8253 109.417C30.8111 109.417 29.1779 111.05 29.1779 113.064C29.1779 115.079 30.811 116.712 32.8253 116.712C34.8396 116.712 36.4728 115.079 36.4728 113.064C36.4727 111.05 34.8395 109.417 32.8253 109.417ZM101.703 109.417H133.733V116.712H97.2599V116.328L96.9738 116.712L59.5724 82.6709L64.4347 75.377L101.703 109.417ZM8.50989 87.5342C11.9046 87.5342 14.8354 89.5215 16.2013 92.3965H63.2189L70.5138 99.6914H16.2013C14.8354 102.566 11.9047 104.555 8.50989 104.555C3.81003 104.554 0.00012207 100.744 0.00012207 96.0439C0.000208654 91.3441 3.81009 87.5344 8.50989 87.5342ZM8.51086 92.3965C6.49661 92.3965 4.8635 94.0297 4.8634 96.0439C4.8634 98.0583 6.49655 99.6914 8.51086 99.6914C10.525 99.6912 12.1573 98.0581 12.1573 96.0439C12.1572 94.0299 10.5249 92.3967 8.51086 92.3965ZM133.732 99.6914H97.2589L89.965 92.3965H133.732V99.6914ZM44.9825 70.5137C48.377 70.5138 51.3071 72.5012 52.673 75.376H64.4337L59.5714 82.6709H52.673C51.3072 85.5459 48.3771 87.534 44.9825 87.5342C40.2825 87.5342 36.4718 83.7235 36.4718 79.0234C36.4719 74.3235 40.2825 70.5137 44.9825 70.5137ZM44.9816 75.376C42.9675 75.3762 41.3352 77.0094 41.3351 79.0234C41.3351 81.0376 42.9675 82.6706 44.9816 82.6709C46.9959 82.6709 48.629 81.0378 48.629 79.0234C48.6289 77.0092 46.9958 75.376 44.9816 75.376ZM86.3185 75.376C84.3042 75.376 82.6711 77.0092 82.671 79.0234C82.671 81.0378 84.3042 82.6709 86.3185 82.6709C88.3102 82.6708 89.9291 81.0741 89.965 79.0908V78.957C89.9292 76.9737 88.3103 75.3761 86.3185 75.376ZM69.297 53.4932C73.997 53.4932 77.8076 57.303 77.8077 62.0029C77.8077 66.703 73.9971 70.5137 69.297 70.5137C64.597 70.5136 60.7872 66.703 60.7872 62.0029C60.7874 57.303 64.597 53.4932 69.297 53.4932ZM69.297 58.3555C67.2828 58.3555 65.6497 59.9888 65.6495 62.0029C65.6495 64.0172 67.2827 65.6503 69.297 65.6504C71.3113 65.6504 72.9445 64.0172 72.9445 62.0029C72.9443 59.9887 71.3112 58.3555 69.297 58.3555ZM119.144 65.6504H77.8077V58.3555H126.438L119.144 65.6504Z" fill="white"/>
<path d="M242.427 32.8281C278.841 32.8281 308.826 59.8593 312.713 94.6035H310.53C310.628 95.4507 310.71 96.3027 310.775 97.1592H308.599C308.666 98.0068 308.717 98.8594 308.751 99.7158H306.198V100.993H310.958C310.966 101.418 310.969 101.845 310.969 102.271C310.969 102.698 310.966 103.125 310.958 103.55H313.127C312.433 141.313 281.045 171.715 242.427 171.715C203.373 171.715 171.715 140.624 171.715 102.271C171.715 63.919 203.373 32.8282 242.427 32.8281ZM242.427 34.1064C204.092 34.1065 173.016 64.6249 173.016 102.271C173.016 139.918 204.092 170.437 242.427 170.438C279.889 170.438 310.42 141.29 311.789 104.828H308.751C307.6 134.127 286.758 158.466 258.854 165.443C258.717 165.855 258.363 166.183 257.899 166.271L253.236 167.153C252.791 167.238 252.355 167.079 252.071 166.771C248.923 167.222 245.702 167.455 242.427 167.455C205.769 167.455 176.052 138.271 176.052 102.271C176.053 96.2677 176.879 90.4535 178.427 84.9326C178.093 84.7297 177.933 84.322 178.061 83.9404L179.797 78.7969C179.928 78.4071 180.319 78.1727 180.719 78.2178C190.465 54.1233 214.42 37.0889 242.427 37.0889C275.993 37.0889 303.74 61.5587 308.18 93.3252H311.245C306.784 59.9065 277.673 34.1064 242.427 34.1064ZM242.427 34.958C276.742 34.958 305.168 59.7232 310.183 92.0469H308.907C303.903 60.4102 276.044 36.1973 242.427 36.1973C205.268 36.1973 175.145 65.7797 175.145 102.271C175.145 138.763 205.268 168.346 242.427 168.346C278.274 168.346 307.574 140.813 309.596 106.105H310.86C308.836 141.498 278.971 169.585 242.427 169.585C204.571 169.585 173.884 139.448 173.884 102.271C173.884 65.0954 204.571 34.958 242.427 34.958ZM242.427 38.2881C214.952 38.2881 191.449 54.99 181.871 78.6191C182.162 78.8326 182.295 79.2129 182.175 79.5703L180.439 84.7148C180.316 85.0804 179.964 85.3091 179.592 85.2988C178.081 90.7041 177.274 96.3953 177.274 102.271C177.274 137.609 206.444 166.255 242.427 166.255C245.608 166.255 248.737 166.031 251.797 165.599C251.925 165.171 252.286 164.827 252.762 164.737L257.425 163.854C257.884 163.768 258.333 163.939 258.616 164.265C285.959 157.398 306.379 133.544 307.528 104.828H306.082C305.932 105.083 305.651 105.254 305.33 105.254H304.389C302.806 137.515 275.67 163.194 242.427 163.194C242.282 163.194 242.137 163.194 241.993 163.193V159.98C242.137 159.982 242.282 159.982 242.427 159.982C273.569 159.982 299.054 136.191 301.063 106.105H302.168C300.166 136.649 274.415 160.842 242.861 161.062V162.071C275.275 161.849 301.67 136.755 303.246 105.254H301.426C301.104 105.254 300.824 105.083 300.674 104.828H300.066C298.705 134.936 273.42 158.935 242.427 158.935L242.273 158.934L241.993 158.933V158.082L243.082 157.888C272.309 157.562 296.217 135.496 298.826 107.384H297.715C295.54 130.358 278.852 149.197 256.743 154.975L256.741 154.249L256.743 151.49C276.405 145.985 291.321 129.423 294.077 109.088H295.339C292.598 129.805 277.537 146.725 257.609 152.522V153.41C278.563 147.421 294.277 129.347 296.407 107.384H294.919C294.44 107.384 294.051 107.003 294.051 106.532V104.828H291.882L286.676 113.349H279.735V114.627H275.396V110.366H279.735V112.07H286.676L291.882 103.55H294.051V102.271H291.448L286.676 106.958H279.735V108.662H275.396V104.401H279.735V105.68H286.676L291.448 100.993H294.051V99.7158H279.735V101.42H275.396V97.1592H279.735V98.4375H294.051V97.1592H291.448L286.676 92.4727H279.735V94.1768H275.396V89.917H279.735V91.1943H286.676L291.448 95.8809H294.051V94.6035H291.882L284.073 86.082H279.735V87.7861H275.396V83.5264H279.735V84.8047H284.073L291.882 93.3252H294.051V92.4727C294.051 92.0022 294.44 91.6211 294.919 91.6211H295.569C291.615 72.4908 277.219 57.0839 258.477 51.3887V52.2812C276.178 57.7573 289.898 72.0512 294.295 89.917H293.007C288.595 72.4407 275.037 58.5086 257.61 53.3037L257.609 52.4268L257.61 49.8027C277.495 55.3416 292.837 71.4887 296.896 91.6211H298.025C293.562 69.0206 275.166 51.3036 251.969 47.4385V48.5938H247.63V44.333H247.633V43.6982C274.785 45.9952 296.756 66.0908 301.391 92.0469H300.272C295.91 68.0861 276.489 49.2505 251.969 45.3184V46.3799C275.77 50.2699 294.645 68.4693 299.116 91.6709C299.451 91.789 299.69 92.1033 299.69 92.4727V93.3252H302.643C298.267 64.678 273.2 42.6796 242.86 42.4717V41.3506C273.832 41.5589 299.412 64.0565 303.798 93.3252H306.947C302.516 62.2235 275.317 38.2881 242.427 38.2881ZM242.427 39.2188C257.835 39.2188 271.976 44.5488 283.042 53.4346C283.464 53.2834 283.956 53.3614 284.312 53.6777L287.836 56.8037C288.203 57.1293 288.328 57.6192 288.2 58.0566C297.295 67.1364 303.61 78.91 305.792 92.0469H304.594C302.425 79.2366 296.25 67.7563 287.377 58.8896C286.966 59.0177 286.499 58.9339 286.156 58.6299L282.633 55.5039C282.28 55.191 282.15 54.7258 282.254 54.3018C271.398 45.5988 257.533 40.3789 242.427 40.3789C242.137 40.3789 241.847 40.3809 241.558 40.3848V41.3545L241.559 42.4141L241.622 42.4756C241.601 42.4759 241.579 42.4753 241.558 42.4756V43.4854C241.847 43.4813 242.137 43.4785 242.427 43.4785V44.5615C242.137 44.5615 241.847 44.5633 241.558 44.5674V45.6152C241.847 45.611 242.137 45.6094 242.427 45.6094V46.6523C242.137 46.6523 241.847 46.6539 241.558 46.6582V46.8896H240.962C241.544 46.9097 242.042 47.2515 242.279 47.7393C242.328 47.7391 242.377 47.7393 242.427 47.7393V55.624C242.427 56.4476 241.747 57.1151 240.908 57.1152C240.069 57.1152 239.389 56.4477 239.389 55.624V48.3799C239.39 47.5743 240.04 46.9178 240.853 46.8896H240.257V46.6924C240.04 46.7004 239.823 46.7093 239.607 46.7197V45.6758C239.823 45.6656 240.04 45.6563 240.257 45.6484V44.5996C240.04 44.6073 239.823 44.616 239.607 44.626V43.543C239.823 43.5331 240.04 43.5242 240.257 43.5166V42.5078C240.233 42.5086 240.208 42.5089 240.184 42.5098L240.257 42.416V40.415C206.455 41.5384 179.403 68.8026 179.403 102.271C179.403 135.022 205.305 161.831 238.089 164.02V164.047H238.509C238.801 164.065 239.095 164.08 239.389 164.094V157.655H239.987C239.173 157.627 238.522 156.971 238.522 156.165V148.922C238.522 148.098 239.202 147.43 240.041 147.43C240.879 147.43 241.559 148.098 241.559 148.922V156.165C241.559 156.971 240.908 157.627 240.094 157.655H240.691V164.142C241.268 164.157 241.846 164.164 242.427 164.164C275.922 164.164 303.315 138.502 305.331 106.105H306.514C304.496 139.143 276.575 165.324 242.427 165.324C241.846 165.324 241.268 165.317 240.691 165.302V165.325H239.389V165.255C205.34 163.698 178.221 136.095 178.221 102.271C178.222 68.1616 205.802 40.3778 240.257 39.2539V39.2197H241.558V39.2246C241.847 39.2208 242.137 39.2188 242.427 39.2188ZM238.956 42.5654C206.94 44.3321 181.533 70.388 181.533 102.271C181.533 133.577 206.027 159.264 237.22 161.857V160.845C206.595 158.254 182.56 133.019 182.56 102.271C182.56 74.0389 202.824 50.4544 229.847 44.7793V44.7578H229.947C231.342 44.4673 232.755 44.2245 234.184 44.0312L234.186 49.0195H229.847V48.0293C228.819 48.2583 227.801 48.5147 226.795 48.7979L224.64 49.2305V49.4502C202.075 56.7745 185.791 77.6555 185.791 102.271C185.791 126.571 201.658 147.231 223.772 154.804V155.312L233.316 157.23L238.089 158.082V158.776C208.249 156.598 184.729 132.132 184.729 102.271C184.729 75.2208 204.031 52.5975 229.847 46.96V45.8867C203.437 51.5431 183.662 74.6392 183.662 102.271C183.662 132.711 207.659 157.647 238.089 159.827V160.912L238.088 161.924L238.089 163.048C205.851 160.861 180.391 134.486 180.391 102.271C180.391 69.7686 206.309 43.2105 238.956 41.4424V42.5654ZM224.64 51.9482L224.637 51.9492V52.8525L224.64 52.8516V54.1562C207.652 60.2144 194.781 74.703 191.272 92.4727H192.208C195.682 75.2044 208.161 61.1143 224.64 55.1172V56.376L224.637 56.377V57.3975L224.64 57.3965V58.6104C211.511 63.7733 201.253 74.4817 196.87 87.7861H210.324C210.324 87.3157 210.713 86.9346 211.192 86.9346H219.868C220.347 86.9346 220.736 87.3157 220.736 87.7861H227.677V89.0645H220.736C220.736 89.535 220.347 89.917 219.868 89.917H211.192C210.713 89.917 210.324 89.535 210.324 89.0645H195.273C199.396 74.8421 210.01 63.305 223.769 57.7393V56.7109C208.388 62.7913 196.796 76.1659 193.432 92.4727H210.324C210.324 92.0022 210.713 91.6211 211.192 91.6211H219.868C220.347 91.6211 220.736 92.0022 220.736 92.4727H227.677V93.751H220.736C220.736 94.2216 220.347 94.6035 219.868 94.6035H211.192C210.713 94.6035 210.324 94.2216 210.324 93.751H189.769C192.888 75.0232 206.115 59.6335 223.769 53.1621V52.2529C204.57 59.1617 190.457 76.4276 188.446 97.1592H210.324C210.324 96.6886 210.713 96.3076 211.192 96.3076H219.868C220.347 96.3076 220.736 96.6886 220.736 97.1592H227.677V98.4375H220.736C220.736 98.908 220.347 99.2891 219.868 99.2891H211.192C210.713 99.2891 210.324 98.908 210.324 98.4375H188.338C188.246 99.7038 188.2 100.982 188.2 102.271C188.2 124.925 202.603 144.274 222.906 151.971V151.057C203.092 143.404 189.067 124.446 189.067 102.271C189.067 102.129 189.068 101.987 189.069 101.846H210.324C210.324 101.375 210.713 100.993 211.192 100.993H219.868C220.347 100.993 220.736 101.375 220.736 101.846H227.677V103.124H220.736C220.736 103.594 220.347 103.976 219.868 103.976H211.192C210.713 103.976 210.324 103.594 210.324 103.124H192.443C192.789 123.07 205.248 140.119 222.906 147.481V146.445C206.173 139.304 194.289 123.26 193.453 104.401H194.602C195.445 122.949 207.231 138.702 223.772 145.582L223.773 148.285L223.772 149.102C204.98 141.876 191.598 124.057 191.244 103.124H190.325C190.681 124.563 204.463 142.797 223.772 150.069V153.65C202.281 146.124 186.898 125.962 186.898 102.271C186.898 78.2633 202.696 57.8786 224.64 50.5967V51.9482ZM235.92 67.083H245.464V51.5732H255.008V67.083H272.028V108.918C272.028 122.82 265.554 133.952 254.139 138.856V153.396H244.595V141.323C243.128 141.488 241.609 141.572 240.04 141.572C238.33 141.572 236.665 141.478 235.052 141.29V153.396H226.376V139.193C215.273 134.899 208.155 124.867 208.155 109.753H221.657C221.657 122.272 227.681 128.636 240.04 128.636C252.503 128.636 258.319 119.976 258.319 108.918V79.915H220.242V67.083H227.243V51.5732H235.92V67.083ZM293.15 109.088C290.412 128.923 275.895 145.084 256.743 150.552V147.146C272.955 142.163 285.459 128.941 289.169 112.473L290.958 109.105C288.303 127.449 275.12 142.464 257.609 148.061V149.061C275.665 143.415 289.269 127.968 291.939 109.088H293.15ZM249.802 106.952C250.084 107.831 250.235 108.763 250.235 109.728C250.235 115.021 245.671 119.313 240.041 119.313C234.411 119.313 229.846 115.021 229.845 109.728C229.845 108.763 229.998 107.831 230.28 106.952V86.9346H249.802V106.952ZM299.69 103.55H300.558V102.271H299.69V103.55ZM306.198 103.55H309.696C309.704 103.125 309.708 102.698 309.708 102.271H306.198V103.55ZM300.066 99.7158C300.085 100.14 300.1 100.566 300.11 100.993H300.558V99.7158H300.066ZM299.892 97.1592C299.931 97.5839 299.965 98.0101 299.994 98.4375H300.674C300.824 98.1828 301.104 98.0117 301.426 98.0117H305.33C305.651 98.0117 305.932 98.1828 306.082 98.4375H307.499V97.1592H299.892ZM299.69 95.8809H309.397C309.355 95.4539 309.309 95.0281 309.26 94.6035H299.69V95.8809ZM257.61 54.248C274.529 59.4013 287.691 72.9402 292.059 89.917H290.821C286.589 73.8842 274.314 61.032 258.477 55.7627V56.7695C273.495 61.8777 285.199 73.9538 289.579 89.0596L287.533 86.4834C282.613 72.9282 271.537 62.2425 257.61 57.6719L257.609 57.1133L257.61 54.248Z" fill="white"/>
<path d="M166.396 158.047C183.647 181.631 211.526 196.95 242.985 196.95C274.443 196.95 302.323 181.631 319.574 158.047H328.448C310.204 185.869 278.742 204.245 242.987 204.245C207.231 204.245 175.768 185.869 157.525 158.047H166.396ZM242.987 0C280.786 0.000163386 313.787 20.5375 331.445 51.0615H322.906C306.054 24.7405 276.557 7.29396 242.985 7.29395C209.412 7.29404 179.915 24.7405 163.064 51.0615H154.528C172.185 20.5373 205.187 0 242.987 0Z" fill="white"/>
<path d="M240.831 179.234L240.272 179.214C240.205 179.212 240.17 179.244 240.168 179.311L240.016 183.63L238.201 183.567L238.373 178.677C238.382 178.412 238.486 178.189 238.682 178.009C238.88 177.825 239.239 177.743 239.762 177.761L240.881 177.8L240.831 179.234Z" fill="#012426"/>
<path d="M219.727 174.373L218.11 180.003L219.855 180.502L220.579 177.982L220.713 180.748L222.384 181.226L224.002 175.596L222.256 175.097L221.533 177.613L221.398 174.851L219.727 174.373Z" fill="#012426"/>
<path fill-rule="evenodd" clip-rule="evenodd" d="M208.774 169.891C208.611 169.858 208.421 169.881 208.204 169.962C207.774 170.122 207.426 170.487 207.161 171.055L206.15 173.218C205.884 173.786 205.828 174.287 205.981 174.718C206.059 174.936 206.163 175.096 206.294 175.199L209.306 176.601L211.786 171.293L208.774 169.891ZM209.055 171.29C209.082 171.231 209.124 171.216 209.183 171.243L209.694 171.481L208.106 174.881L207.594 174.642C207.536 174.615 207.52 174.573 207.548 174.515L209.055 171.29Z" fill="#012426"/>
<path d="M204.438 174.291L201.603 172.658L202.13 171.746L203.392 172.473L204.006 171.412L202.744 170.685L203.264 169.787L204.526 170.514L205.272 169.225L204.01 168.498L204.537 167.586L207.372 169.219L204.438 174.291Z" fill="#012426"/>
<path d="M198.409 170.704C197.971 170.421 197.723 170.147 197.668 169.884C197.611 169.624 197.658 169.381 197.805 169.155L198.482 168.114L200.006 169.101L199.427 169.99C199.391 170.046 199.399 170.091 199.454 170.126L199.846 170.38C199.9 170.416 199.945 170.405 199.981 170.349L201.924 167.365C201.958 167.313 201.948 167.27 201.893 167.235L201.501 166.981C201.447 166.945 201.403 166.954 201.37 167.006L200.787 167.902L199.263 166.915L199.946 165.866C200.09 165.644 200.292 165.505 200.552 165.451C200.816 165.394 201.167 165.509 201.605 165.793L202.935 166.655C203.375 166.94 203.623 167.213 203.676 167.475C203.734 167.736 203.62 168.086 203.336 168.523L201.616 171.165C201.329 171.606 201.054 171.855 200.791 171.908C200.53 171.966 200.179 171.851 199.738 171.566L198.409 170.704Z" fill="#012426"/>
<path d="M196.522 169.512L193.873 167.592L194.494 166.74L195.673 167.595L196.394 166.604L195.215 165.749L195.826 164.91L197.005 165.765L197.882 164.561L196.703 163.706L197.323 162.854L199.971 164.774L196.522 169.512Z" fill="#012426"/>
<path d="M193.454 159.759L189.76 164.31L191.172 165.451L192.825 163.413L191.866 166.011L193.216 167.103L196.91 162.552L195.499 161.411L193.848 163.446L194.805 160.851L193.454 159.759Z" fill="#012426"/>
<path d="M189.006 163.853L185.87 160.832L186.603 160.075L187.517 160.956L190.862 157.501L192.168 158.76L188.824 162.215L189.739 163.096L189.006 163.853Z" fill="#012426"/>
<path fill-rule="evenodd" clip-rule="evenodd" d="M183.281 158.213C182.924 157.832 182.75 157.507 182.76 157.238C182.771 156.971 182.969 156.659 183.353 156.301L183.478 156.186C183.813 155.873 184.08 155.703 184.278 155.674C184.47 155.646 184.744 155.769 185.099 156.043C184.851 155.669 184.749 155.386 184.792 155.195C184.835 155 184.93 154.834 185.077 154.698L185.981 153.856C186.286 153.572 186.489 153.341 186.585 153.163L187.824 154.488C187.712 154.681 187.496 154.924 187.178 155.221L186.267 156.068C186.237 156.096 186.231 156.131 186.245 156.173L186.653 156.61L188.34 155.04L189.579 156.366L185.286 160.359L183.281 158.213ZM184.442 157.766C184.393 157.812 184.391 157.857 184.435 157.904L184.82 158.316L185.933 157.281L185.548 156.869C185.504 156.821 185.458 156.821 185.412 156.864L184.442 157.766Z" fill="#012426"/>
<path fill-rule="evenodd" clip-rule="evenodd" d="M180.987 155.703L186.36 152.981L185.274 151.689L184.044 152.387L183.354 151.567L184.253 150.475L183.17 149.188L179.551 153.995L180.987 155.703ZM183.122 152.916L181.473 153.84L182.673 152.382L183.122 152.916Z" fill="#012426"/>
<path d="M178.322 152.534L177.204 151.106L180.696 148.383L179.799 147.238L180.932 146.354L182.947 148.928L178.322 152.534Z" fill="#012426"/>
<path d="M175.894 149.357L174.852 147.873L179.66 144.514L180.702 145.998L175.894 149.357Z" fill="#012426"/>
<path d="M174.416 147.267L175.641 146.503L174.761 145.098L179.443 144.243L177.296 140.814L176.076 141.574L176.872 142.845L172.251 143.808L174.416 147.267Z" fill="#012426"/>
<path d="M171.877 143.296L170.29 140.439L171.213 139.928L171.92 141.2L172.994 140.606L172.287 139.334L173.196 138.832L173.903 140.104L175.207 139.382L174.501 138.11L175.424 137.6L177.01 140.456L171.877 143.296Z" fill="#012426"/>
<path fill-rule="evenodd" clip-rule="evenodd" d="M173.706 134.102C173.598 133.975 173.434 133.877 173.213 133.807C172.776 133.669 172.276 133.743 171.717 134.028L169.585 135.111C169.026 135.396 168.672 135.756 168.527 136.19C168.454 136.409 168.437 136.599 168.476 136.761L169.985 139.715L175.215 137.057L173.706 134.102ZM173.064 135.376C173.122 135.347 173.164 135.361 173.194 135.418L173.45 135.92L170.101 137.623L169.845 137.121C169.815 137.064 169.829 137.021 169.887 136.992L173.064 135.376Z" fill="#012426"/>
<path fill-rule="evenodd" clip-rule="evenodd" d="M171.077 127.79C170.983 127.653 170.83 127.538 170.618 127.446C170.197 127.263 169.693 127.285 169.106 127.509L166.873 128.365C166.287 128.589 165.898 128.91 165.708 129.327C165.612 129.537 165.575 129.724 165.597 129.889L166.789 132.985L172.268 130.887L171.077 127.79ZM170.305 128.991C170.366 128.968 170.406 128.986 170.43 129.046L170.632 129.572L167.123 130.916L166.92 130.39C166.897 130.33 166.916 130.289 166.976 130.266L170.305 128.991Z" fill="#012426"/>
<path d="M165.044 128.191L164.483 126.468L170.065 124.658L170.626 126.381L165.044 128.191Z" fill="#012426"/>
<path d="M163.401 122.848C163.265 122.344 163.265 121.975 163.4 121.743C163.535 121.512 163.857 121.329 164.364 121.193L165.238 120.96L165.708 122.71L164.651 122.993C164.587 123.01 164.562 123.049 164.579 123.112L164.7 123.563C164.717 123.625 164.758 123.647 164.822 123.63L168.268 122.708C168.326 122.693 168.349 122.654 168.332 122.592L168.211 122.141C168.194 122.078 168.155 122.056 168.097 122.072L166.981 122.37L167.066 122.686L166.431 122.856L165.876 120.789L168.72 120.029L168.856 120.535L168.368 120.849C168.723 120.81 168.989 121.092 169.167 121.694L169.48 122.86C169.616 123.366 169.618 123.734 169.484 123.963C169.35 124.197 169.029 124.381 168.525 124.516L165.475 125.331C164.968 125.466 164.597 125.468 164.364 125.332C164.131 125.201 163.947 124.881 163.811 124.376L163.401 122.848Z" fill="#012426"/>
<path d="M162.941 120.823L162.533 119.057L168.251 117.74L168.66 119.506L162.941 120.823Z" fill="#012426"/>
<path d="M162.349 118.382L161.592 114.098L162.631 113.916L162.852 115.165L167.593 114.331L167.908 116.115L163.168 116.949L163.388 118.199L162.349 118.382Z" fill="#012426"/>
<path fill-rule="evenodd" clip-rule="evenodd" d="M161.37 112.619L167.361 113.256L167.155 111.583L165.743 111.5L165.612 110.437L166.962 110.01L166.756 108.342L161.097 110.407L161.37 112.619ZM164.681 111.443L162.794 111.322L164.596 110.751L164.681 111.443Z" fill="#012426"/>
<path d="M160.912 108.459L160.785 106.651L165.206 106.343L165.104 104.892L166.538 104.792L166.767 108.05L160.912 108.459Z" fill="#012426"/>
<path d="M160.781 99.2277C160.8 98.7069 160.907 98.3539 161.105 98.1711C161.299 97.9894 161.531 97.904 161.801 97.9135L163.044 97.9567L162.981 99.7679L161.92 99.7309C161.853 99.7287 161.819 99.759 161.816 99.8235L161.8 100.29C161.798 100.355 161.83 100.387 161.897 100.39L165.461 100.514C165.523 100.516 165.554 100.486 165.557 100.421L165.573 99.9544C165.575 99.8898 165.546 99.8573 165.484 99.8552L164.414 99.8179L164.477 98.0066L165.729 98.0504C165.994 98.0595 166.218 98.1609 166.398 98.3555C166.583 98.5516 166.665 98.9112 166.647 99.432L166.592 101.013C166.573 101.536 166.466 101.889 166.268 102.069C166.075 102.254 165.715 102.336 165.193 102.318L162.038 102.208C161.511 102.189 161.155 102.082 160.975 101.885C160.79 101.692 160.708 101.332 160.726 100.809L160.781 99.2277Z" fill="#012426"/>
<path d="M161.172 92.7717L165.672 93.1646C166.192 93.21 166.539 93.334 166.709 93.5378C166.883 93.7432 166.946 94.1067 166.901 94.626L166.762 96.2018C166.717 96.7235 166.591 97.0704 166.384 97.24C166.181 97.4139 165.818 97.4772 165.297 97.4318L160.798 97.0389L160.956 95.2337L165.648 95.6433C165.715 95.6491 165.75 95.6193 165.756 95.5524L165.797 95.091C165.802 95.0268 165.772 94.9925 165.705 94.9866L161.013 94.577L161.172 92.7717Z" fill="#012426"/>
<path fill-rule="evenodd" clip-rule="evenodd" d="M161.658 89.0134C161.73 88.4974 161.874 88.1576 162.09 87.9964C162.304 87.8363 162.673 87.7936 163.192 87.8664L163.361 87.8902C163.816 87.9539 164.116 88.0532 164.263 88.1882C164.406 88.3199 164.482 88.6097 164.492 89.0575C164.627 88.63 164.783 88.3728 164.959 88.2858C165.138 88.1967 165.328 88.166 165.526 88.1937L166.751 88.3656C167.164 88.4234 167.472 88.4348 167.671 88.3977L167.418 90.1921C167.198 90.2262 166.872 90.2126 166.441 90.1521L165.208 89.9793C165.168 89.9736 165.136 89.9903 165.112 90.0282L165.029 90.6198L167.313 90.9402L167.06 92.7345L161.248 91.9194L161.658 89.0134ZM162.737 89.6327C162.671 89.6234 162.634 89.6499 162.625 89.714L162.546 90.2716L164.053 90.4831L164.132 89.9252C164.141 89.8614 164.113 89.8255 164.05 89.8168L162.737 89.6327Z" fill="#012426"/>
<path fill-rule="evenodd" clip-rule="evenodd" d="M162.762 83.5803C162.888 83.0746 163.067 82.7517 163.298 82.6139C163.528 82.477 163.899 82.4731 164.408 82.5996L164.573 82.6408C165.019 82.7515 165.307 82.8816 165.439 83.0314C165.568 83.1771 165.613 83.4732 165.576 83.9198C165.755 83.5087 165.937 83.2692 166.122 83.201C166.309 83.1309 166.501 83.1203 166.695 83.1687L167.895 83.4672C168.3 83.5679 168.604 83.6111 168.807 83.5951L168.368 85.3533C168.145 85.3643 167.822 85.3166 167.4 85.2116L166.192 84.9112C166.152 84.9012 166.119 84.9146 166.091 84.9497L165.946 85.5294L168.184 86.0862L167.745 87.8446L162.05 86.4278L162.762 83.5803ZM163.771 84.3087C163.705 84.2926 163.666 84.3151 163.65 84.3778L163.513 84.9243L164.99 85.2916L165.127 84.7452C165.142 84.6825 165.118 84.6439 165.057 84.6288L163.771 84.3087Z" fill="#012426"/>
<path d="M163.244 81.4163L164.146 78.2767L165.16 78.5669L164.759 79.9646L165.939 80.3024L166.341 78.9045L167.34 79.1904L166.938 80.5882L168.372 80.9985L168.774 79.6006L169.788 79.8909L168.886 83.0306L163.244 81.4163Z" fill="#012426"/>
<path d="M171.391 75.207L165.842 73.3005L165.251 75.0137L167.735 75.8671L164.96 75.8561L164.394 77.496L169.944 79.4026L170.535 77.6894L168.055 76.8371L170.826 76.847L171.391 75.207Z" fill="#012426"/>
<path d="M167.202 69.7553C167.398 69.2722 167.62 68.9771 167.868 68.8728C168.113 68.7683 168.36 68.7674 168.611 68.8685L169.764 69.3334L169.084 71.0137L168.1 70.6169C168.037 70.5918 167.995 70.6086 167.971 70.6685L167.795 71.1015C167.771 71.1614 167.79 71.2029 167.852 71.2281L171.159 72.561C171.216 72.5842 171.256 72.5663 171.28 72.5064L171.456 72.0734C171.48 72.0135 171.464 71.9731 171.406 71.9498L170.413 71.5495L171.094 69.8693L172.255 70.3376C172.501 70.4366 172.676 70.6081 172.779 70.8526C172.886 71.0998 172.84 71.466 172.644 71.9491L172.05 73.4158C171.854 73.9015 171.632 74.1966 171.384 74.2982C171.139 74.4053 170.773 74.36 170.289 74.1647L167.361 72.9847C166.872 72.7874 166.575 72.5655 166.473 72.3186C166.366 72.0738 166.412 71.7077 166.608 71.222L167.202 69.7553Z" fill="#012426"/>
<path d="M171.688 67.9617L168.103 67.6365L168.911 66.1214L170.898 66.5126L169.46 65.0896L170.267 63.5755L172.543 66.3581L174.795 67.553L173.94 69.1565L171.688 67.9617Z" fill="#012426"/>
<path d="M232.139 182.998C231.622 182.926 231.281 182.782 231.12 182.567C230.959 182.356 230.898 182.116 230.936 181.849L231.109 180.62L232.907 180.872L232.76 181.921C232.75 181.988 232.777 182.024 232.841 182.033L233.305 182.098C233.369 182.107 233.405 182.079 233.414 182.013L233.91 178.489C233.919 178.428 233.892 178.393 233.828 178.384L233.364 178.319C233.3 178.31 233.265 178.336 233.256 178.397L233.107 179.455L231.308 179.203L231.483 177.965C231.52 177.703 231.644 177.492 231.857 177.333C232.072 177.171 232.439 177.126 232.956 177.199L234.526 177.419C235.046 177.492 235.386 177.635 235.545 177.851C235.709 178.062 235.753 178.427 235.68 178.943L235.241 182.063C235.168 182.584 235.024 182.926 234.808 183.084C234.596 183.247 234.229 183.291 233.709 183.218L232.139 182.998Z" fill="#012426"/>
<path fill-rule="evenodd" clip-rule="evenodd" d="M227.043 182.229C226.53 182.13 226.198 181.969 226.048 181.745C225.898 181.526 225.875 181.157 225.976 180.64L226.578 177.547C226.678 177.036 226.838 176.705 227.058 176.557C227.282 176.406 227.65 176.381 228.163 176.481L229.719 176.783C230.235 176.882 230.567 177.043 230.715 177.266C230.867 177.486 230.892 177.853 230.792 178.365L230.19 181.457C230.089 181.974 229.927 182.307 229.704 182.454C229.484 182.606 229.115 182.631 228.599 182.531L227.043 182.229ZM227.718 181.194C227.706 181.254 227.731 181.29 227.795 181.302L228.254 181.392C228.318 181.404 228.355 181.38 228.367 181.32L229.047 177.827C229.06 177.761 229.035 177.722 228.972 177.71L228.512 177.621C228.449 177.609 228.411 177.635 228.398 177.701L227.718 181.194Z" fill="#012426"/>
<path d="M224.99 181.79L223.221 181.382L224.541 175.676L226.311 176.084L224.99 181.79Z" fill="#012426"/>
<path d="M178.373 58.5385L178.701 58.087C178.741 58.0328 178.734 57.9858 178.68 57.9464L175.176 55.406L176.243 53.9402L180.211 56.8161C180.425 56.9716 180.552 57.1823 180.592 57.4454C180.634 57.7119 180.502 58.055 180.194 58.4777L179.536 59.3816L178.373 58.5385Z" fill="#012426"/>
<path d="M179.803 49.3209C180.131 48.916 180.43 48.6985 180.698 48.6713C180.963 48.6426 181.2 48.714 181.41 48.8838L182.376 49.6647L181.233 51.0731L180.408 50.4064C180.356 50.3643 180.311 50.368 180.27 50.4181L179.975 50.7812C179.935 50.8313 179.94 50.8766 179.993 50.9188L182.764 53.1582C182.812 53.1971 182.856 53.1916 182.896 53.1415L183.191 52.7784C183.232 52.7283 183.228 52.6847 183.18 52.6458L182.348 51.9735L183.491 50.565L184.464 51.3518C184.67 51.5181 184.788 51.7333 184.815 51.9971C184.844 52.2646 184.693 52.6012 184.364 53.0063L183.366 54.2356C183.036 54.6426 182.737 54.8603 182.471 54.8852C182.205 54.916 181.868 54.7659 181.462 54.4379L179.009 52.4554C178.598 52.1242 178.38 51.8253 178.354 51.5593C178.324 51.2941 178.475 50.9574 178.805 50.5502L179.803 49.3209Z" fill="#012426"/>
<path fill-rule="evenodd" clip-rule="evenodd" d="M183.365 45.4125C183.728 45.0375 184.045 44.8469 184.314 44.8431C184.58 44.8375 184.903 45.0189 185.283 45.3846L187.554 47.5731C187.93 47.9351 188.121 48.2492 188.124 48.5143C188.13 48.7832 187.95 49.1055 187.587 49.4805L186.486 50.6184C186.121 50.9951 185.805 51.1858 185.537 51.1876C185.27 51.1951 184.947 51.0164 184.572 50.6544L182.3 48.4659C181.921 48.1002 181.729 47.7834 181.727 47.5164C181.72 47.2495 181.899 46.9271 182.264 46.5504L183.365 45.4125ZM183.868 46.5411C183.824 46.498 183.78 46.4997 183.735 46.5462L183.41 46.8822C183.365 46.9286 183.365 46.9724 183.409 47.0152L185.975 49.487C186.023 49.5337 186.069 49.5339 186.114 49.4876L186.439 49.1515C186.484 49.105 186.482 49.0596 186.434 49.0129L183.868 46.5411Z" fill="#012426"/>
<path d="M184.961 43.8444L186.289 42.6086L190.292 46.8914L188.963 48.1273L184.961 43.8444Z" fill="#012426"/>
<path d="M194.024 43.5486L190.252 39.0624L188.86 40.2273L190.549 42.2353L188.176 40.7999L186.845 41.9149L190.617 46.4009L192.009 45.236L190.322 43.231L192.693 44.6634L194.024 43.5486Z" fill="#012426"/>
<path fill-rule="evenodd" clip-rule="evenodd" d="M201.932 37.7255C202.049 37.6074 202.133 37.4358 202.183 37.2104C202.283 36.7636 202.166 36.2733 201.833 35.7422L200.565 33.7178C200.232 33.1865 199.842 32.8666 199.396 32.7599C199.171 32.7062 198.98 32.706 198.822 32.7594L196.003 34.5167L199.113 39.483L201.932 37.7255ZM200.604 37.1991C200.638 37.2538 200.628 37.2972 200.573 37.3315L200.094 37.6298L198.102 34.4493L198.581 34.1508C198.636 34.1165 198.68 34.1269 198.714 34.1815L200.604 37.1991Z" fill="#012426"/>
<path d="M200.397 31.7677L203.26 30.1842L203.771 31.105L202.497 31.81L203.092 32.8814L204.366 32.1766L204.87 33.0835L203.596 33.7884L204.319 35.0902L205.593 34.3853L206.105 35.3061L203.242 36.8895L200.397 31.7677Z" fill="#012426"/>
<path d="M206.463 28.4529C206.928 28.2162 207.29 28.1389 207.546 28.2229C207.799 28.3038 207.986 28.4655 208.109 28.7058L208.674 29.8115L207.055 30.6343L206.574 29.6904C206.543 29.6305 206.5 29.6155 206.442 29.6448L206.025 29.8569C205.967 29.8862 205.954 29.9298 205.985 29.9897L207.604 33.1602C207.632 33.2152 207.674 33.228 207.731 33.1987L208.149 32.9866C208.206 32.9573 208.221 32.916 208.193 32.8609L207.706 31.9088L209.325 31.0862L209.893 32.2C210.014 32.4357 210.033 32.6798 209.95 32.9317C209.868 33.1879 209.592 33.4341 209.127 33.6706L207.715 34.3889C207.247 34.6267 206.885 34.7042 206.632 34.6188C206.376 34.5391 206.13 34.2655 205.893 33.8011L204.459 30.9941C204.22 30.5249 204.142 30.163 204.227 29.91C204.307 29.6551 204.582 29.4088 205.05 29.171L206.463 28.4529Z" fill="#012426"/>
<path d="M208.484 27.5339L211.475 26.2054L211.904 27.1671L210.573 27.7587L211.072 28.878L212.403 28.2864L212.826 29.2339L211.495 29.8252L212.101 31.1849L213.433 30.5935L213.862 31.5552L210.872 32.8838L208.484 27.5339Z" fill="#012426"/>
<path d="M218.526 29.8065L216.423 24.3393L214.728 24.9887L215.669 27.4361L213.894 25.3079L212.271 25.9296L214.375 31.3966L216.07 30.7474L215.13 28.3036L216.904 30.428L218.526 29.8065Z" fill="#012426"/>
<path d="M217.387 23.9908L221.597 22.8652L221.87 23.882L220.642 24.2103L221.888 28.8501L220.134 29.3191L218.888 24.6793L217.66 25.0076L217.387 23.9908Z" fill="#012426"/>
<path fill-rule="evenodd" clip-rule="evenodd" d="M225.067 22.0196C225.578 21.9112 225.947 21.93 226.173 22.0772C226.397 22.2233 226.563 22.5541 226.672 23.0663L226.707 23.2324C226.803 23.6804 226.812 23.996 226.735 24.1804C226.66 24.3591 226.413 24.5299 225.995 24.6926C226.444 24.6726 226.739 24.7311 226.881 24.8665C227.027 25.0038 227.12 25.1708 227.162 25.3666L227.419 26.5739C227.506 26.9807 227.6 27.2729 227.704 27.4474L225.927 27.8241C225.82 27.6291 225.721 27.3188 225.631 26.8941L225.372 25.6791C225.363 25.6392 225.337 25.6152 225.293 25.6057L224.707 25.7299L225.187 27.9812L223.41 28.3579L222.19 22.6296L225.067 22.0196ZM224.853 23.2436C224.839 23.1778 224.801 23.1523 224.738 23.1658L224.186 23.2829L224.502 24.7683L225.054 24.6513C225.118 24.6378 225.142 24.5991 225.129 24.5373L224.853 23.2436Z" fill="#012426"/>
<path fill-rule="evenodd" clip-rule="evenodd" d="M228.358 21.2984L228.034 27.3018L229.698 27.0091L229.707 25.5978L230.764 25.4117L231.262 26.734L232.921 26.4422L230.558 20.9112L228.358 21.2984ZM229.708 24.5366L229.731 22.6496L230.397 24.4154L229.708 24.5366Z" fill="#012426"/>
<path d="M232.509 20.6736L234.311 20.4528L234.851 24.8415L236.298 24.6643L236.473 26.088L233.224 26.4861L232.509 20.6736Z" fill="#012426"/>
<path d="M236.494 20.3426L238.306 20.216L238.715 26.058L236.904 26.1844L236.494 20.3426Z" fill="#012426"/>
<path d="M239.078 20.1077L239.104 21.5486L240.764 21.5197L239.087 25.9645L243.139 25.894L243.114 24.46L241.612 24.4861L243.165 20.0366L239.078 20.1077Z" fill="#012426"/>
<path d="M243.737 20.1158L247.01 20.1728L246.992 21.2254L245.534 21.2L245.513 22.4249L246.97 22.4504L246.952 23.4872L245.495 23.4617L245.469 24.95L246.926 24.9753L246.907 26.0279L243.635 25.9709L243.737 20.1158Z" fill="#012426"/>
<path fill-rule="evenodd" clip-rule="evenodd" d="M250.764 26.2953C250.928 26.2684 251.097 26.1787 251.27 26.0258C251.614 25.7228 251.808 25.2575 251.852 24.6325L252.019 22.2512C252.063 21.6263 251.935 21.1387 251.637 20.7905C251.487 20.6153 251.332 20.5029 251.173 20.4534L247.858 20.222L247.448 26.0639L250.764 26.2953ZM249.999 25.0903C249.995 25.1547 249.961 25.1839 249.896 25.1795L249.333 25.14L249.596 21.3986L250.159 21.4381C250.223 21.4426 250.253 21.4763 250.248 21.5405L249.999 25.0903Z" fill="#012426"/>
<path fill-rule="evenodd" clip-rule="evenodd" d="M257.478 27.3786C257.645 27.3691 257.822 27.2975 258.01 27.1634C258.384 26.8979 258.626 26.4552 258.735 25.8385L259.15 23.4875C259.259 22.8705 259.184 22.3724 258.924 21.9952C258.793 21.8051 258.65 21.6772 258.497 21.6114L255.224 21.0355L254.205 26.8027L257.478 27.3786ZM256.844 26.1004C256.833 26.1639 256.796 26.1896 256.733 26.1784L256.177 26.0806L256.83 22.3871L257.385 22.4848C257.449 22.496 257.475 22.5327 257.463 22.5961L256.844 26.1004Z" fill="#012426"/>
<path d="M260.178 21.9523L261.955 22.329L260.734 28.0573L258.958 27.6806L260.178 21.9523Z" fill="#012426"/>
<path d="M265.592 23.2708C266.097 23.4058 266.417 23.5897 266.551 23.8229C266.684 24.0547 266.682 24.4247 266.546 24.9305L266.312 25.8025L264.557 25.3334L264.841 24.2785C264.858 24.215 264.836 24.1736 264.774 24.1569L264.322 24.0361C264.259 24.0194 264.22 24.0443 264.203 24.1079L263.279 27.5463C263.264 27.6046 263.286 27.6434 263.348 27.6601L263.8 27.7809C263.863 27.7978 263.902 27.7752 263.917 27.7169L264.217 26.6033L263.899 26.5186L264.069 25.8855L266.141 26.4394L265.379 29.2766L264.872 29.1409L264.843 28.5624C264.699 28.8892 264.322 28.9775 263.71 28.8303L262.542 28.518C262.035 28.3825 261.714 28.1998 261.582 27.9698C261.446 27.7374 261.447 27.3682 261.582 26.865L262.399 23.8219C262.535 23.3161 262.72 22.9948 262.954 22.861C263.184 22.7252 263.554 22.7259 264.061 22.8614L265.592 23.2708Z" fill="#012426"/>
<path d="M267.717 23.9543L269.444 24.5142L267.631 30.0838L265.904 29.5238L267.717 23.9543Z" fill="#012426"/>
<path d="M270.136 24.7253L274.205 26.2839L273.827 27.2668L272.64 26.8121L270.915 31.2964L269.219 30.6472L270.945 26.1629L269.758 25.7082L270.136 24.7253Z" fill="#012426"/>
<path fill-rule="evenodd" clip-rule="evenodd" d="M275.556 26.8703L271.924 31.6668L273.467 32.3525L274.265 31.1874L275.246 31.623L274.918 32.9969L276.456 33.6804L277.597 27.7771L275.556 26.8703ZM274.861 30.3084L275.938 28.7568L275.5 30.5921L274.861 30.3084Z" fill="#012426"/>
<path d="M279.357 28.6877L280.975 29.5104L278.963 33.4503L280.262 34.1104L279.609 35.3884L276.693 33.9055L279.357 28.6877Z" fill="#012426"/>
<path d="M287.337 33.1994C287.78 33.4756 288.032 33.745 288.092 34.0072C288.153 34.2655 288.111 34.5091 287.967 34.7379L287.308 35.7904L285.768 34.83L286.331 33.9316C286.366 33.8747 286.357 33.8301 286.302 33.7958L285.905 33.5484C285.85 33.5141 285.806 33.5253 285.77 33.5823L283.881 36.5999C283.848 36.6524 283.858 36.6948 283.913 36.729L284.31 36.9764C284.365 37.0107 284.408 37.0018 284.441 36.9492L285.008 36.0431L286.549 37.0035L285.885 38.0637C285.744 38.288 285.545 38.4304 285.285 38.4891C285.023 38.5506 284.67 38.4419 284.227 38.1658L282.882 37.3275C282.437 37.05 282.184 36.7807 282.127 36.5199C282.064 36.2602 282.172 35.9087 282.449 35.4667L284.122 32.795C284.402 32.3486 284.672 32.0951 284.933 32.038C285.194 31.9751 285.547 32.0836 285.992 32.3611L287.337 33.1994Z" fill="#012426"/>
<path d="M292.65 36.8879L290.059 40.5799C289.759 41.0069 289.478 41.2443 289.216 41.2894C288.951 41.3371 288.604 41.2102 288.176 40.9112L286.877 40.0039C286.447 39.7036 286.209 39.4214 286.166 39.1578C286.116 38.8954 286.243 38.5499 286.542 38.1231L289.133 34.4309L290.621 35.4703L287.919 39.3198C287.881 39.3748 287.889 39.4206 287.944 39.4591L288.324 39.7248C288.377 39.7618 288.422 39.7528 288.461 39.6979L291.162 35.8484L292.65 36.8879Z" fill="#012426"/>
<path fill-rule="evenodd" clip-rule="evenodd" d="M295.741 39.4104C296.141 39.7454 296.354 40.0472 296.377 40.3153C296.399 40.5815 296.24 40.9156 295.903 41.317L295.793 41.447C295.498 41.7978 295.255 41.9993 295.062 42.0525C294.874 42.1034 294.588 42.0146 294.202 41.7858C294.494 42.1263 294.629 42.3948 294.61 42.5898C294.591 42.7887 294.517 42.9651 294.388 43.1184L293.593 44.0639C293.325 44.3826 293.152 44.6367 293.078 44.8252L291.687 43.6603C291.775 43.4558 291.959 43.1874 292.238 42.8548L293.039 41.9032C293.065 41.8719 293.068 41.8362 293.048 41.7959L292.589 41.4118L291.107 43.175L289.716 42.0101L293.488 37.5241L295.741 39.4104ZM294.643 39.9958C294.686 39.9443 294.683 39.8988 294.633 39.8573L294.201 39.4954L293.223 40.6588L293.655 41.0208C293.705 41.0623 293.75 41.0574 293.791 41.009L294.643 39.9958Z" fill="#012426"/>
<path fill-rule="evenodd" clip-rule="evenodd" d="M299.603 42.9765C299.985 43.3319 300.181 43.6445 300.19 43.9133C300.198 44.1803 300.022 44.5059 299.664 44.8888L299.548 45.0129C299.235 45.348 298.981 45.5365 298.786 45.5795C298.596 45.6205 298.314 45.5169 297.941 45.2682C298.214 45.6236 298.336 45.8987 298.306 46.0924C298.277 46.2901 298.193 46.4624 298.057 46.6087L297.213 47.5114C296.929 47.8156 296.743 48.0603 296.659 48.2449L295.331 47.009C295.429 46.8092 295.627 46.5507 295.924 46.2333L296.773 45.3247C296.801 45.2947 296.806 45.2593 296.788 45.2181L296.35 44.8106L294.777 46.4939L293.449 45.2581L297.452 40.975L299.603 42.9765ZM298.475 43.5037C298.521 43.4546 298.52 43.409 298.473 43.3651L298.06 42.981L297.022 44.0916L297.435 44.4757C297.482 44.5198 297.528 44.5172 297.571 44.4709L298.475 43.5037Z" fill="#012426"/>
<path d="M301.246 44.5954L303.52 46.945L302.761 47.6764L301.748 46.6303L300.865 47.4813L301.877 48.5274L301.13 49.2477L300.117 48.2016L299.044 49.2355L300.057 50.2816L299.298 51.013L297.024 48.6634L301.246 44.5954Z" fill="#012426"/>
<path d="M302.558 54.7855L306.988 50.9434L305.796 49.5759L303.814 51.2957L305.21 48.9034L304.07 47.5944L299.641 51.4365L300.832 52.804L302.812 51.0868L301.418 53.4765L302.558 54.7855Z" fill="#012426"/>
<path d="M309.346 54.0941C309.653 54.5158 309.786 54.8601 309.743 55.1256C309.703 55.3876 309.572 55.5978 309.353 55.7564L308.347 56.4859L307.28 55.0197L308.138 54.397C308.193 54.3575 308.201 54.3128 308.163 54.2604L307.888 53.8825C307.85 53.8303 307.805 53.8241 307.75 53.8637L304.865 55.9552C304.815 55.9916 304.809 56.0348 304.847 56.0871L305.122 56.465C305.16 56.5172 305.203 56.5249 305.253 56.4886L306.12 55.8605L307.187 57.3267L306.174 58.0614C305.959 58.2169 305.721 58.2744 305.458 58.2318C305.192 58.1909 304.905 57.9579 304.598 57.5363L303.666 56.2565C303.357 55.8328 303.224 55.4887 303.269 55.2254C303.308 54.9612 303.54 54.6757 303.963 54.3692L306.517 52.5176C306.944 52.2082 307.29 52.0744 307.554 52.119C307.819 52.1581 308.106 52.3907 308.414 52.8144L309.346 54.0941Z" fill="#012426"/>
<path d="M308.486 58.7051L310.509 55.7344L311.445 57.1735L310.139 58.7182L312.083 58.1535L313.019 59.5916L309.477 60.2283L307.338 61.6146L306.346 60.0914L308.486 58.7051Z" fill="#012426"/>
<path d="M312.305 67.5152L312.541 68.0208C312.57 68.0818 312.614 68.0986 312.675 68.0704L316.6 66.2439L317.368 67.8862L312.924 69.9539C312.684 70.0656 312.437 70.0744 312.187 69.9816C311.933 69.8895 311.697 69.6073 311.475 69.1339L311.002 68.1214L312.305 67.5152Z" fill="#012426"/>
<path d="M319.596 73.2499C319.792 73.733 319.837 74.0992 319.731 74.3465C319.628 74.5909 319.451 74.7635 319.2 74.8645L318.047 75.3294L317.366 73.649L318.351 73.2521C318.413 73.227 318.432 73.1855 318.408 73.1256L318.232 72.6926C318.208 72.6327 318.166 72.6158 318.103 72.641L314.797 73.9739C314.739 73.9971 314.723 74.0376 314.747 74.0975L314.923 74.5307C314.947 74.5904 314.987 74.6083 315.044 74.5853L316.037 74.185L316.718 75.8652L315.556 76.3335C315.31 76.4326 315.065 76.4307 314.821 76.3262C314.572 76.2219 314.35 75.9268 314.154 75.4437L313.56 73.977C313.364 73.4913 313.318 73.1253 313.425 72.8806C313.527 72.6336 313.822 72.4127 314.306 72.2174L317.233 71.0372C317.723 70.8401 318.091 70.7938 318.336 70.9008C318.583 71.0026 318.806 71.2975 319.002 71.7832L319.596 73.2499Z" fill="#012426"/>
<path fill-rule="evenodd" clip-rule="evenodd" d="M321.294 78.0965C321.464 78.5892 321.49 78.9573 321.371 79.1987C321.256 79.4373 320.947 79.6422 320.448 79.8137L317.463 80.8393C316.969 81.009 316.602 81.0362 316.363 80.9192C316.12 80.8021 315.914 80.4958 315.744 80.003L315.228 78.5074C315.057 78.0121 315.031 77.6442 315.151 77.4054C315.265 77.164 315.571 76.9588 316.065 76.7892L319.05 75.7636C319.549 75.5921 319.919 75.5651 320.159 75.6847C320.4 75.7994 320.607 76.1055 320.777 76.6008L321.294 78.0965ZM320.058 78.0312C320.116 78.0111 320.135 77.9715 320.113 77.9103L319.961 77.4687C319.94 77.4076 319.901 77.3876 319.842 77.4078L316.47 78.5663C316.407 78.5882 316.386 78.6286 316.407 78.6897L316.559 79.1314C316.581 79.1925 316.622 79.2116 316.686 79.1897L320.058 78.0312Z" fill="#012426"/>
<path d="M321.846 80.1979L322.346 81.9398L316.705 83.554L316.204 81.812L321.846 80.1979Z" fill="#012426"/>
<path d="M317.808 88.41L323.502 86.9933L323.063 85.2351L320.514 85.8692L322.847 84.3705L322.427 82.6877L316.732 84.1043L317.171 85.8626L319.717 85.2294L317.387 86.7271L317.808 88.41Z" fill="#012426"/>
<path fill-rule="evenodd" clip-rule="evenodd" d="M318.7 96.2583C318.752 96.4162 318.867 96.5686 319.046 96.7154C319.399 97.0069 319.891 97.1252 320.516 97.0706L322.899 96.8627C323.525 96.8081 323.987 96.6065 324.285 96.258C324.435 96.0826 324.522 95.9124 324.546 95.7479L324.257 92.4443L318.41 92.9546L318.7 96.2583ZM319.773 95.3164C319.708 95.3221 319.674 95.2933 319.669 95.2291L319.619 94.668L323.364 94.3411L323.413 94.9022C323.419 94.9666 323.39 95.0006 323.326 95.0062L319.773 95.3164Z" fill="#012426"/>
<path d="M324.664 97.5677L324.778 100.832L323.723 100.869L323.672 99.4154L322.445 99.4581L322.496 100.911L321.458 100.948L321.407 99.4944L319.916 99.5462L319.967 101L318.912 101.036L318.798 97.772L324.664 97.5677Z" fill="#012426"/>
<path d="M324.696 104.599C324.687 105.12 324.585 105.474 324.391 105.661C324.2 105.846 323.969 105.935 323.699 105.93L322.455 105.909L322.487 104.097L323.549 104.115C323.616 104.116 323.649 104.085 323.651 104.021L323.659 103.554C323.66 103.489 323.627 103.457 323.56 103.456L319.994 103.394C319.932 103.393 319.902 103.424 319.9 103.488L319.892 103.955C319.891 104.02 319.921 104.052 319.983 104.053L321.053 104.072L321.022 105.884L319.769 105.862C319.504 105.857 319.279 105.76 319.095 105.568C318.907 105.376 318.818 105.017 318.827 104.496L318.855 102.915C318.864 102.391 318.966 102.036 319.16 101.853C319.351 101.665 319.708 101.577 320.23 101.586L323.387 101.641C323.915 101.65 324.272 101.751 324.456 101.945C324.644 102.135 324.732 102.493 324.723 103.017L324.696 104.599Z" fill="#012426"/>
<path d="M324.647 106.786L324.418 110.045L323.366 109.971L323.468 108.521L322.243 108.435L322.141 109.886L321.104 109.814L321.206 108.363L319.718 108.259L319.616 109.71L318.564 109.636L318.792 106.378L324.647 106.786Z" fill="#012426"/>
<path d="M317.935 114.571L323.761 115.285L323.982 113.486L321.374 113.166L324.091 112.602L324.303 110.88L318.477 110.166L318.256 111.965L320.86 112.284L318.147 112.849L317.935 114.571Z" fill="#012426"/>
<path d="M323.56 115.925L322.804 120.208L321.765 120.026L321.985 118.776L317.245 117.942L317.56 116.158L322.301 116.992L322.521 115.742L323.56 115.925Z" fill="#012426"/>
<path fill-rule="evenodd" clip-rule="evenodd" d="M321.768 123.906C321.633 124.409 321.449 124.729 321.215 124.863C320.983 124.995 320.612 124.993 320.105 124.858L319.94 124.814C319.497 124.695 319.211 124.56 319.081 124.408C318.956 124.26 318.915 123.963 318.96 123.517C318.774 123.925 318.588 124.162 318.402 124.226C318.214 124.293 318.022 124.301 317.828 124.249L316.633 123.929C316.231 123.822 315.927 123.773 315.724 123.786L316.194 122.035C316.417 122.028 316.739 122.082 317.159 122.194L318.362 122.515C318.401 122.526 318.435 122.513 318.463 122.479L318.618 121.901L316.39 121.306L316.86 119.555L322.529 121.071L321.768 123.906ZM320.772 123.16C320.837 123.177 320.877 123.155 320.894 123.093L321.04 122.549L319.57 122.156L319.424 122.7C319.407 122.762 319.431 122.801 319.492 122.818L320.772 123.16Z" fill="#012426"/>
<path fill-rule="evenodd" clip-rule="evenodd" d="M320.757 127.172L315.597 124.069L315.075 125.672L316.319 126.342L315.988 127.361L314.584 127.179L314.064 128.777L320.067 129.292L320.757 127.172ZM317.258 126.842L318.917 127.748L317.042 127.505L317.258 126.842Z" fill="#012426"/>
<path d="M319.303 131.12L318.652 132.812L314.515 131.227L313.992 132.585L312.651 132.071L313.824 129.022L319.303 131.12Z" fill="#012426"/>
<path d="M317.865 134.872L317.126 136.528L311.765 134.146L312.504 132.491L317.865 134.872Z" fill="#012426"/>
<path d="M316.79 137.203L315.503 136.549L314.749 138.025L311.603 134.461L309.763 138.064L311.044 138.716L311.726 137.38L314.934 140.837L316.79 137.203Z" fill="#012426"/>
<path d="M314.613 141.32L313.026 144.176L312.103 143.666L312.809 142.394L311.735 141.8L311.029 143.072L310.12 142.569L310.826 141.298L309.522 140.576L308.815 141.848L307.892 141.337L309.479 138.481L314.613 141.32Z" fill="#012426"/>
<path fill-rule="evenodd" clip-rule="evenodd" d="M305.823 144.523C305.769 144.681 305.769 144.872 305.823 145.096C305.93 145.541 306.251 145.931 306.783 146.263L308.812 147.528C309.344 147.859 309.836 147.976 310.284 147.877C310.509 147.827 310.681 147.743 310.8 147.627L312.561 144.814L307.584 141.711L305.823 144.523ZM307.248 144.415C307.193 144.381 307.183 144.338 307.217 144.283L307.516 143.805L310.704 145.793L310.405 146.271C310.371 146.325 310.327 146.335 310.272 146.301L307.248 144.415Z" fill="#012426"/>
<path fill-rule="evenodd" clip-rule="evenodd" d="M301.671 149.993C301.602 150.144 301.582 150.334 301.612 150.563C301.671 151.017 301.95 151.437 302.444 151.823L304.329 153.293C304.824 153.678 305.301 153.846 305.756 153.794C305.986 153.767 306.166 153.702 306.296 153.598L308.342 150.985L303.717 147.38L301.671 149.993ZM303.1 150.034C303.049 149.995 303.043 149.95 303.083 149.899L303.431 149.456L306.393 151.765L306.045 152.209C306.005 152.259 305.961 152.265 305.91 152.225L303.1 150.034Z" fill="#012426"/>
<path d="M305.206 154.928L304.038 156.316L299.542 152.552L300.71 151.164L305.206 154.928Z" fill="#012426"/>
<path d="M301.386 159.031C301.03 159.413 300.716 159.609 300.447 159.617C300.179 159.626 299.853 159.45 299.469 159.093L298.808 158.477L300.046 157.152L300.847 157.897C300.895 157.941 300.942 157.942 300.986 157.895L301.305 157.553C301.349 157.506 301.346 157.459 301.297 157.414L298.688 154.987C298.644 154.946 298.599 154.947 298.555 154.994L298.236 155.336C298.192 155.383 298.193 155.428 298.238 155.469L299.083 156.255L299.307 156.015L299.787 156.462L298.324 158.027L296.171 156.024L296.53 155.641L297.055 155.887C296.833 155.607 296.932 155.233 297.35 154.763L298.175 153.881C298.533 153.498 298.845 153.301 299.11 153.292C299.38 153.282 299.706 153.456 300.088 153.811L302.397 155.96C302.781 156.317 302.979 156.63 302.987 156.899C302.999 157.166 302.825 157.492 302.467 157.875L301.386 159.031Z" fill="#012426"/>
<path d="M299.849 160.568L298.543 161.827L294.466 157.615L295.772 156.356L299.849 160.568Z" fill="#012426"/>
<path d="M298.05 162.322L294.761 165.175L294.069 164.381L295.028 163.549L291.87 159.923L293.241 158.735L296.399 162.36L297.358 161.528L298.05 162.322Z" fill="#012426"/>
<path fill-rule="evenodd" clip-rule="evenodd" d="M293.655 166.021L291.021 160.614L289.708 161.675L290.386 162.914L289.552 163.588L288.474 162.672L287.165 163.73L291.919 167.424L293.655 166.021ZM290.901 163.842L291.797 165.504L290.357 164.281L290.901 163.842Z" fill="#012426"/>
<path d="M290.22 168.566L288.751 169.631L286.146 166.053L284.967 166.908L284.122 165.748L286.77 163.828L290.22 168.566Z" fill="#012426"/>
<path d="M282.46 173.501C282.008 173.762 281.651 173.858 281.391 173.788C281.134 173.72 280.938 173.568 280.803 173.335L280.181 172.26L281.754 171.354L282.285 172.271C282.318 172.329 282.362 172.342 282.418 172.31L282.824 172.076C282.88 172.044 282.891 172 282.857 171.942L281.074 168.86C281.043 168.807 281 168.796 280.944 168.828L280.539 169.062C280.483 169.094 280.471 169.136 280.502 169.19L281.037 170.115L279.464 171.021L278.838 169.939C278.705 169.71 278.673 169.467 278.743 169.211C278.812 168.951 279.073 168.69 279.526 168.43L280.899 167.639C281.353 167.377 281.71 167.281 281.968 167.353C282.227 167.419 282.488 167.679 282.749 168.131L284.327 170.859C284.591 171.315 284.688 171.672 284.616 171.929C284.55 172.188 284.288 172.449 283.833 172.71L282.46 173.501Z" fill="#012426"/>
<path d="M276.766 176.426L274.646 172.446C274.401 171.986 274.316 171.628 274.395 171.375C274.473 171.118 274.744 170.867 275.205 170.622L276.605 169.879C277.068 169.633 277.428 169.55 277.683 169.63C277.94 169.706 278.191 169.975 278.436 170.435L280.557 174.415L278.954 175.265L276.742 171.116C276.711 171.057 276.666 171.043 276.607 171.075L276.197 171.292C276.14 171.323 276.128 171.367 276.159 171.426L278.37 175.575L276.766 176.426Z" fill="#012426"/>
<path fill-rule="evenodd" clip-rule="evenodd" d="M272.995 177.958C272.511 178.154 272.144 178.199 271.896 178.093C271.65 177.988 271.429 177.691 271.232 177.206L271.168 177.048C270.996 176.624 270.932 176.314 270.976 176.12C271.019 175.931 271.232 175.72 271.616 175.487C271.177 175.584 270.876 175.578 270.712 175.469C270.545 175.359 270.424 175.211 270.349 175.025L269.886 173.881C269.729 173.495 269.586 173.224 269.454 173.07L271.137 172.391C271.277 172.565 271.428 172.853 271.591 173.256L272.058 174.407C272.073 174.445 272.103 174.464 272.148 174.466L272.703 174.242L271.839 172.108L273.523 171.429L275.722 176.859L272.995 177.958ZM272.992 176.716C273.018 176.778 273.059 176.797 273.119 176.773L273.643 176.562L273.072 175.154L272.549 175.365C272.489 175.389 272.472 175.431 272.496 175.49L272.992 176.716Z" fill="#012426"/>
<path fill-rule="evenodd" clip-rule="evenodd" d="M268.082 179.725C267.588 179.894 267.219 179.921 266.977 179.802C266.737 179.684 266.532 179.376 266.361 178.881L266.306 178.72C266.156 178.287 266.109 177.975 266.162 177.783C266.215 177.596 266.439 177.397 266.835 177.184C266.391 177.259 266.091 177.237 265.934 177.12C265.772 177.001 265.659 176.846 265.594 176.657L265.191 175.49C265.055 175.097 264.926 174.819 264.802 174.658L266.519 174.068C266.65 174.249 266.786 174.544 266.927 174.955L267.333 176.13C267.346 176.168 267.375 176.189 267.42 176.193L267.986 175.998L267.235 173.822L268.952 173.232L270.863 178.769L268.082 179.725ZM268.145 178.484C268.167 178.547 268.207 178.568 268.269 178.547L268.802 178.364L268.307 176.928L267.773 177.111C267.712 177.132 267.693 177.174 267.713 177.233L268.145 178.484Z" fill="#012426"/>
<path d="M265.841 180.427L262.695 181.327L262.404 180.315L263.805 179.915L263.466 178.737L262.065 179.138L261.779 178.141L263.18 177.74L262.769 176.309L261.368 176.71L261.077 175.698L264.224 174.798L265.841 180.427Z" fill="#012426"/>
<path d="M256.183 176.73L257.504 182.436L259.273 182.028L258.682 179.474L260.143 181.828L261.837 181.438L260.517 175.732L258.747 176.139L259.337 178.69L257.877 176.34L256.183 176.73Z" fill="#012426"/>
<path d="M253.592 183.021C253.075 183.094 252.708 183.05 252.493 182.887C252.281 182.728 252.156 182.515 252.118 182.248L251.945 181.019L253.744 180.766L253.891 181.815C253.901 181.882 253.937 181.91 254.001 181.901L254.464 181.836C254.528 181.827 254.555 181.79 254.546 181.724L254.049 178.2C254.041 178.139 254.005 178.113 253.941 178.122L253.478 178.187C253.413 178.196 253.386 178.231 253.395 178.292L253.544 179.35L251.746 179.602L251.571 178.364C251.534 178.102 251.595 177.865 251.756 177.654C251.918 177.438 252.258 177.295 252.776 177.222L254.346 177.002C254.865 176.929 255.232 176.974 255.444 177.137C255.66 177.295 255.803 177.634 255.876 178.15L256.316 181.269C256.389 181.791 256.345 182.158 256.181 182.37C256.023 182.585 255.682 182.728 255.162 182.801L253.592 183.021Z" fill="#012426"/>
<path d="M249.929 180.068L251.608 183.245L249.895 183.395L249.142 181.519L248.729 183.497L247.017 183.646L248.116 180.226L247.894 177.691L249.707 177.533L249.929 180.068Z" fill="#012426"/>
<path d="M312.063 62.0444C312.558 62.0444 312.96 62.445 312.96 62.939C312.96 63.4329 312.558 63.8336 312.063 63.8336C311.568 63.8336 311.167 63.4329 311.167 62.939C311.167 62.445 311.568 62.0444 312.063 62.0444Z" fill="#012426"/>
<path d="M321.825 90.1836C321.825 89.6897 321.423 89.2891 320.928 89.2891C320.433 89.2891 320.032 89.6897 320.032 90.1836C320.032 90.6776 320.433 91.0782 320.928 91.0782C321.423 91.0782 321.825 90.6776 321.825 90.1836Z" fill="#012426"/>
<path d="M174.588 60.136C175.083 60.136 175.484 60.5367 175.484 61.0306C175.484 61.5246 175.083 61.9252 174.588 61.9252C174.093 61.9252 173.691 61.5246 173.691 61.0306C173.691 60.5367 174.093 60.136 174.588 60.136Z" fill="#012426"/>
<path d="M195.732 39.0675C195.732 38.5735 195.331 38.1729 194.836 38.1729C194.341 38.1729 193.939 38.5735 193.939 39.0675C193.939 39.5614 194.341 39.962 194.836 39.962C195.331 39.962 195.732 39.5614 195.732 39.0675Z" fill="#012426"/>
<path d="M214.358 174.672C214.853 174.672 215.254 175.073 215.254 175.567C215.254 176.061 214.853 176.462 214.358 176.462C213.863 176.462 213.461 176.061 213.461 175.567C213.461 175.073 213.863 174.672 214.358 174.672Z" fill="#012426"/>
<path d="M244.838 180.776C244.838 180.282 244.436 179.881 243.941 179.881C243.446 179.881 243.045 180.282 243.045 180.776C243.045 181.27 243.446 181.67 243.941 181.67C244.436 181.67 244.838 181.27 244.838 180.776Z" fill="#012426"/>
<mask id="path-5-outside-1_250_4" maskUnits="userSpaceOnUse" x="287.705" y="30.6982" width="446" height="121" fill="black">
<rect fill="white" x="287.705" y="30.6982" width="446" height="121"/>
<path d="M352.713 72.1471H372.301V139.698H353.592V131.914C348.695 137.815 341.538 140.703 332.498 140.703C313.413 140.703 298.723 127.142 298.723 105.923C298.723 84.7031 313.413 71.1426 332.498 71.1426C340.785 71.1426 347.816 73.7794 352.713 79.304V72.1471ZM335.888 124.631C345.556 124.631 353.09 117.6 353.09 105.923C353.09 94.2456 345.556 87.2143 335.888 87.2143C326.095 87.2143 318.561 94.2456 318.561 105.923C318.561 117.6 326.095 124.631 335.888 124.631ZM400.229 62.7301C392.946 62.7301 388.049 57.9588 388.049 51.8064C388.049 45.654 392.946 40.8827 400.229 40.8827C407.511 40.8827 412.408 45.4029 412.408 51.4297C412.408 57.9588 407.511 62.7301 400.229 62.7301ZM390.435 139.698V72.1471H410.022V139.698H390.435ZM514.712 71.1426C530.783 71.1426 542.335 80.434 542.335 101.026V139.698H522.748V104.039C522.748 93.1156 517.851 88.0932 509.94 88.0932C501.151 88.0932 494.999 93.7434 494.999 105.797V139.698H475.412V104.039C475.412 93.1156 470.766 88.0932 462.604 88.0932C453.941 88.0932 447.788 93.7434 447.788 105.797V139.698H428.201V72.1471H446.909V79.9318C451.932 74.1561 459.465 71.1426 468.129 71.1426C477.546 71.1426 485.582 74.7839 490.353 82.1919C495.752 75.2861 504.541 71.1426 514.712 71.1426ZM609.596 72.1471H629.183V139.698H610.475V131.914C605.578 137.815 598.421 140.703 589.381 140.703C570.295 140.703 555.605 127.142 555.605 105.923C555.605 84.7031 570.295 71.1426 589.381 71.1426C597.667 71.1426 604.699 73.7794 609.596 79.304V72.1471ZM592.771 124.631C602.439 124.631 609.972 117.6 609.972 105.923C609.972 94.2456 602.439 87.2143 592.771 87.2143C582.977 87.2143 575.443 94.2456 575.443 105.923C575.443 117.6 582.977 124.631 592.771 124.631ZM712.483 139.698H690.259L675.443 118.981L660.125 139.698H638.779L664.77 105.672L639.658 72.1471H661.631L675.945 91.86L690.636 72.1471H711.479L686.367 105.169L712.483 139.698Z"/>
</mask>
<path d="M352.713 72.1471H372.301V139.698H353.592V131.914C348.695 137.815 341.538 140.703 332.498 140.703C313.413 140.703 298.723 127.142 298.723 105.923C298.723 84.7031 313.413 71.1426 332.498 71.1426C340.785 71.1426 347.816 73.7794 352.713 79.304V72.1471ZM335.888 124.631C345.556 124.631 353.09 117.6 353.09 105.923C353.09 94.2456 345.556 87.2143 335.888 87.2143C326.095 87.2143 318.561 94.2456 318.561 105.923C318.561 117.6 326.095 124.631 335.888 124.631ZM400.229 62.7301C392.946 62.7301 388.049 57.9588 388.049 51.8064C388.049 45.654 392.946 40.8827 400.229 40.8827C407.511 40.8827 412.408 45.4029 412.408 51.4297C412.408 57.9588 407.511 62.7301 400.229 62.7301ZM390.435 139.698V72.1471H410.022V139.698H390.435ZM514.712 71.1426C530.783 71.1426 542.335 80.434 542.335 101.026V139.698H522.748V104.039C522.748 93.1156 517.851 88.0932 509.94 88.0932C501.151 88.0932 494.999 93.7434 494.999 105.797V139.698H475.412V104.039C475.412 93.1156 470.766 88.0932 462.604 88.0932C453.941 88.0932 447.788 93.7434 447.788 105.797V139.698H428.201V72.1471H446.909V79.9318C451.932 74.1561 459.465 71.1426 468.129 71.1426C477.546 71.1426 485.582 74.7839 490.353 82.1919C495.752 75.2861 504.541 71.1426 514.712 71.1426ZM609.596 72.1471H629.183V139.698H610.475V131.914C605.578 137.815 598.421 140.703 589.381 140.703C570.295 140.703 555.605 127.142 555.605 105.923C555.605 84.7031 570.295 71.1426 589.381 71.1426C597.667 71.1426 604.699 73.7794 609.596 79.304V72.1471ZM592.771 124.631C602.439 124.631 609.972 117.6 609.972 105.923C609.972 94.2456 602.439 87.2143 592.771 87.2143C582.977 87.2143 575.443 94.2456 575.443 105.923C575.443 117.6 582.977 124.631 592.771 124.631ZM712.483 139.698H690.259L675.443 118.981L660.125 139.698H638.779L664.77 105.672L639.658 72.1471H661.631L675.945 91.86L690.636 72.1471H711.479L686.367 105.169L712.483 139.698Z" fill="url(#paint0_linear_250_4)"/>
<path d="M352.713 72.1471V62.0462H342.612V72.1471H352.713ZM372.301 72.1471H382.401V62.0462H372.301V72.1471ZM372.301 139.698V149.799H382.401V139.698H372.301ZM353.592 139.698H343.491V149.799H353.592V139.698ZM353.592 131.914H363.693V103.923L345.819 125.463L353.592 131.914ZM352.713 79.304L345.154 86.004L362.814 105.928V79.304H352.713ZM352.713 72.1471V82.248H372.301V72.1471V62.0462H352.713V72.1471ZM372.301 72.1471H362.2V139.698H372.301H382.401V72.1471H372.301ZM372.301 139.698V129.597H353.592V139.698V149.799H372.301V139.698ZM353.592 139.698H363.693V131.914H353.592H343.491V139.698H353.592ZM353.592 131.914L345.819 125.463C343.266 128.54 339.269 130.602 332.498 130.602V140.703V150.804C343.807 150.804 354.124 147.09 361.365 138.364L353.592 131.914ZM332.498 140.703V130.602C325.39 130.602 319.588 128.11 315.587 124.118C311.613 120.155 308.823 114.121 308.823 105.923H298.723H288.622C288.622 118.944 293.178 130.3 301.32 138.422C309.435 146.516 320.521 150.804 332.498 150.804V140.703ZM298.723 105.923H308.823C308.823 97.7243 311.613 91.6906 315.587 87.727C319.588 83.7358 325.39 81.2435 332.498 81.2435V71.1426V61.0417C320.521 61.0417 309.435 65.3297 301.32 73.4236C293.178 81.5451 288.622 92.9015 288.622 105.923H298.723ZM332.498 71.1426V81.2435C338.6 81.2435 342.597 83.1191 345.154 86.004L352.713 79.304L360.272 72.604C353.036 64.4397 342.97 61.0417 332.498 61.0417V71.1426ZM352.713 79.304H362.814V72.1471H352.713H342.612V79.304H352.713ZM335.888 124.631V134.732C343.236 134.732 350.244 132.017 355.398 126.655C360.552 121.291 363.191 113.979 363.191 105.923H353.09H342.989C342.989 109.543 341.861 111.585 340.831 112.657C339.801 113.729 338.209 114.53 335.888 114.53V124.631ZM353.09 105.923H363.191C363.191 97.8664 360.552 90.5542 355.398 85.1907C350.244 79.828 343.236 77.1134 335.888 77.1134V87.2143V97.3151C338.209 97.3151 339.801 98.1162 340.831 99.1884C341.861 100.26 342.989 102.302 342.989 105.923H353.09ZM335.888 87.2143V77.1134C328.512 77.1134 321.471 79.8041 316.287 85.1723C311.1 90.5422 308.46 97.8657 308.46 105.923H318.561H328.662C328.662 102.303 329.789 100.272 330.817 99.2068C331.848 98.1401 333.47 97.3151 335.888 97.3151V87.2143ZM318.561 105.923H308.46C308.46 113.98 311.1 121.303 316.287 126.673C321.471 132.041 328.512 134.732 335.888 134.732V124.631V114.53C333.47 114.53 331.848 113.705 330.817 112.638C329.789 111.573 328.662 109.543 328.662 105.923H318.561ZM390.435 139.698H380.334V149.799H390.435V139.698ZM390.435 72.1471V62.0462H380.334V72.1471H390.435ZM410.022 72.1471H420.123V62.0462H410.022V72.1471ZM410.022 139.698V149.799H420.123V139.698H410.022ZM400.229 62.7301V52.6292C398.816 52.6292 398.302 52.1926 398.243 52.1386C398.196 52.0951 398.188 52.0738 398.186 52.0682C398.184 52.0637 398.15 51.9911 398.15 51.8064H388.049H377.949C377.949 64.3225 388.187 72.831 400.229 72.831V62.7301ZM388.049 51.8064H398.15C398.15 51.6218 398.184 51.5491 398.186 51.5447C398.188 51.539 398.196 51.5178 398.243 51.4742C398.302 51.4202 398.816 50.9836 400.229 50.9836V40.8827V30.7818C388.187 30.7818 377.949 39.2903 377.949 51.8064H388.049ZM400.229 40.8827V50.9836C401.789 50.9836 402.343 51.45 402.366 51.4702C402.387 51.4888 402.352 51.4609 402.32 51.389C402.287 51.315 402.307 51.3084 402.307 51.4297H412.408H422.509C422.509 38.6733 411.865 30.7818 400.229 30.7818V40.8827ZM412.408 51.4297H402.307C402.307 51.7893 402.242 51.9763 402.215 52.0421C402.188 52.1056 402.163 52.139 402.127 52.1729C402.1 52.1981 401.637 52.6292 400.229 52.6292V62.7301V72.831C406.102 72.831 411.73 70.8765 415.972 66.8838C420.247 62.8607 422.509 57.3219 422.509 51.4297H412.408ZM390.435 139.698H400.536V72.1471H390.435H380.334V139.698H390.435ZM390.435 72.1471V82.248H410.022V72.1471V62.0462H390.435V72.1471ZM410.022 72.1471H399.922V139.698H410.022H420.123V72.1471H410.022ZM410.022 139.698V129.597H390.435V139.698V149.799H410.022V139.698ZM542.335 139.698V149.799H552.436V139.698H542.335ZM522.748 139.698H512.647V149.799H522.748V139.698ZM494.999 139.698V149.799H505.1V139.698H494.999ZM475.412 139.698H465.311V149.799H475.412V139.698ZM447.788 139.698V149.799H457.889V139.698H447.788ZM428.201 139.698H418.1V149.799H428.201V139.698ZM428.201 72.1471V62.0462H418.1V72.1471H428.201ZM446.909 72.1471H457.01V62.0462H446.909V72.1471ZM446.909 79.9318H436.809V106.941L454.532 86.5598L446.909 79.9318ZM490.353 82.1919L481.861 87.6613L489.557 99.6099L498.311 88.4132L490.353 82.1919ZM514.712 71.1426V81.2435C520.841 81.2435 524.889 82.986 527.408 85.5047C529.905 88.0023 532.234 92.5984 532.234 101.026H542.335H552.436C552.436 88.8615 548.989 78.516 541.693 71.2199C534.418 63.945 524.654 61.0417 514.712 61.0417V71.1426ZM542.335 101.026H532.234V139.698H542.335H552.436V101.026H542.335ZM542.335 139.698V129.597H522.748V139.698V149.799H542.335V139.698ZM522.748 139.698H532.848V104.039H522.748H512.647V139.698H522.748ZM522.748 104.039H532.848C532.848 97.2577 531.35 90.5728 527.028 85.4536C522.467 80.0511 516.134 77.9923 509.94 77.9923V88.0932V98.1941C510.861 98.1941 511.315 98.3405 511.461 98.4002C511.561 98.4412 511.565 98.4533 511.592 98.4861C511.696 98.609 512.647 99.8971 512.647 104.039H522.748ZM509.94 88.0932V77.9923C503.32 77.9923 496.616 80.1878 491.678 85.6545C486.857 90.9923 484.898 98.1467 484.898 105.797H494.999H505.1C505.1 101.394 506.217 99.6962 506.67 99.1955C507.005 98.8237 507.772 98.1941 509.94 98.1941V88.0932ZM494.999 105.797H484.898V139.698H494.999H505.1V105.797H494.999ZM494.999 139.698V129.597H475.412V139.698V149.799H494.999V139.698ZM475.412 139.698H485.512V104.039H475.412H465.311V139.698H475.412ZM475.412 104.039H485.512C485.512 97.3761 484.129 90.6703 479.832 85.508C475.253 80.0065 468.847 77.9923 462.604 77.9923V88.0932V98.1941C463.626 98.1941 464.113 98.3524 464.255 98.4102C464.323 98.4376 464.333 98.4499 464.314 98.436C464.294 98.4212 464.289 98.4123 464.305 98.4317C464.371 98.5115 465.311 99.7787 465.311 104.039H475.412ZM462.604 88.0932V77.9923C456.006 77.9923 449.337 80.2138 444.432 85.6768C439.646 91.0066 437.688 98.1455 437.688 105.797H447.788H457.889C457.889 101.395 459.007 99.6819 459.464 99.1732C459.801 98.7976 460.539 98.1941 462.604 98.1941V88.0932ZM447.788 105.797H437.688V139.698H447.788H457.889V105.797H447.788ZM447.788 139.698V129.597H428.201V139.698V149.799H447.788V139.698ZM428.201 139.698H438.302V72.1471H428.201H418.1V139.698H428.201ZM428.201 72.1471V82.248H446.909V72.1471V62.0462H428.201V72.1471ZM446.909 72.1471H436.809V79.9318H446.909H457.01V72.1471H446.909ZM446.909 79.9318L454.532 86.5598C457.282 83.397 461.803 81.2435 468.129 81.2435V71.1426V61.0417C457.128 61.0417 446.582 64.9151 439.287 73.3038L446.909 79.9318ZM468.129 71.1426V81.2435C474.87 81.2435 479.325 83.724 481.861 87.6613L490.353 82.1919L498.845 76.7225C491.838 65.8437 480.222 61.0417 468.129 61.0417V71.1426ZM490.353 82.1919L498.311 88.4132C501.581 84.2307 507.283 81.2435 514.712 81.2435V71.1426V61.0417C501.799 61.0417 489.924 66.3414 482.396 75.9705L490.353 82.1919ZM609.596 72.1471V62.0462H599.495V72.1471H609.596ZM629.183 72.1471H639.284V62.0462H629.183V72.1471ZM629.183 139.698V149.799H639.284V139.698H629.183ZM610.475 139.698H600.374V149.799H610.475V139.698ZM610.475 131.914H620.575V103.923L602.701 125.463L610.475 131.914ZM609.596 79.304L602.037 86.004L619.697 105.928V79.304H609.596ZM609.596 72.1471V82.248H629.183V72.1471V62.0462H609.596V72.1471ZM629.183 72.1471H619.082V139.698H629.183H639.284V72.1471H629.183ZM629.183 139.698V129.597H610.475V139.698V149.799H629.183V139.698ZM610.475 139.698H620.575V131.914H610.475H600.374V139.698H610.475ZM610.475 131.914L602.701 125.463C600.149 128.54 596.152 130.602 589.381 130.602V140.703V150.804C600.69 150.804 611.007 147.09 618.248 138.364L610.475 131.914ZM589.381 140.703V130.602C582.273 130.602 576.47 128.11 572.469 124.118C568.495 120.155 565.706 114.121 565.706 105.923H555.605H545.504C545.504 118.944 550.06 130.3 558.203 138.422C566.318 146.516 577.403 150.804 589.381 150.804V140.703ZM555.605 105.923H565.706C565.706 97.7243 568.495 91.6906 572.469 87.727C576.47 83.7358 582.273 81.2435 589.381 81.2435V71.1426V61.0417C577.403 61.0417 566.318 65.3297 558.203 73.4236C550.06 81.5451 545.504 92.9015 545.504 105.923H555.605ZM589.381 71.1426V81.2435C595.482 81.2435 599.48 83.1191 602.037 86.004L609.596 79.304L617.155 72.604C609.918 64.4397 599.853 61.0417 589.381 61.0417V71.1426ZM609.596 79.304H619.697V72.1471H609.596H599.495V79.304H609.596ZM592.771 124.631V134.732C600.118 134.732 607.127 132.017 612.28 126.655C617.434 121.291 620.073 113.979 620.073 105.923H609.972H599.871C599.871 109.543 598.744 111.585 597.714 112.657C596.684 113.729 595.091 114.53 592.771 114.53V124.631ZM609.972 105.923H620.073C620.073 97.8664 617.434 90.5542 612.28 85.1907C607.127 79.828 600.118 77.1134 592.771 77.1134V87.2143V97.3151C595.091 97.3151 596.684 98.1162 597.714 99.1884C598.744 100.26 599.871 102.302 599.871 105.923H609.972ZM592.771 87.2143V77.1134C585.395 77.1134 578.354 79.8041 573.169 85.1723C567.983 90.5422 565.343 97.8657 565.343 105.923H575.443H585.544C585.544 102.303 586.671 100.272 587.7 99.2068C588.73 98.1401 590.353 97.3151 592.771 97.3151V87.2143ZM575.443 105.923H565.343C565.343 113.98 567.983 121.303 573.169 126.673C578.354 132.041 585.395 134.732 592.771 134.732V124.631V114.53C590.353 114.53 588.73 113.705 587.7 112.638C586.671 111.573 585.544 109.543 585.544 105.923H575.443ZM712.483 139.698V149.799H732.788L720.539 133.605L712.483 139.698ZM690.259 139.698L682.043 145.574L685.065 149.799H690.259V139.698ZM675.443 118.981L683.659 113.105L675.579 101.807L667.321 112.976L675.443 118.981ZM660.125 139.698V149.799H665.218L668.246 145.703L660.125 139.698ZM638.779 139.698L630.752 133.567L618.354 149.799H638.779V139.698ZM664.77 105.672L672.797 111.803L677.435 105.731L672.855 99.6159L664.77 105.672ZM639.658 72.1471V62.0462H619.472L631.574 78.2028L639.658 72.1471ZM661.631 72.1471L669.805 66.2122L666.78 62.0462H661.631V72.1471ZM675.945 91.86L667.772 97.7948L675.839 108.906L684.044 97.8957L675.945 91.86ZM690.636 72.1471V62.0462H685.566L682.536 66.1114L690.636 72.1471ZM711.479 72.1471L719.519 78.2613L731.85 62.0462H711.479V72.1471ZM686.367 105.169L678.326 99.0551L673.689 105.153L678.311 111.263L686.367 105.169ZM712.483 139.698V129.597H690.259V139.698V149.799H712.483V139.698ZM690.259 139.698L698.475 133.823L683.659 113.105L675.443 118.981L667.227 124.857L682.043 145.574L690.259 139.698ZM675.443 118.981L667.321 112.976L652.003 133.693L660.125 139.698L668.246 145.703L683.565 124.986L675.443 118.981ZM660.125 139.698V129.597H638.779V139.698V149.799H660.125V139.698ZM638.779 139.698L646.807 145.83L672.797 111.803L664.77 105.672L656.743 99.5402L630.752 133.567L638.779 139.698ZM664.77 105.672L672.855 99.6159L647.743 66.0914L639.658 72.1471L631.574 78.2028L656.686 111.727L664.77 105.672ZM639.658 72.1471V82.248H661.631V72.1471V62.0462H639.658V72.1471ZM661.631 72.1471L653.458 78.082L667.772 97.7948L675.945 91.86L684.119 85.9251L669.805 66.2122L661.631 72.1471ZM675.945 91.86L684.044 97.8957L698.735 78.1828L690.636 72.1471L682.536 66.1114L667.846 85.8242L675.945 91.86ZM690.636 72.1471V82.248H711.479V72.1471V62.0462H690.636V72.1471ZM711.479 72.1471L703.438 66.0329L678.326 99.0551L686.367 105.169L694.407 111.284L719.519 78.2613L711.479 72.1471ZM686.367 105.169L678.311 111.263L704.427 145.792L712.483 139.698L720.539 133.605L694.423 99.076L686.367 105.169Z" fill="#085655" mask="url(#path-5-outside-1_250_4)"/>
<path d="M739.15 141.613C743.867 141.613 747.691 145.437 747.691 150.153C747.691 154.87 743.867 158.694 739.15 158.694C735.744 158.694 732.805 156.698 731.435 153.813H643.373L637.68 146.493H731.434C732.804 143.608 735.744 141.614 739.15 141.613ZM739.15 146.493C737.129 146.493 735.49 148.132 735.49 150.153C735.49 152.174 737.129 153.813 739.15 153.813C741.172 153.813 742.81 152.175 742.811 150.153C742.81 148.132 741.172 146.493 739.15 146.493ZM770.466 113.145C775.182 113.145 779.007 116.968 779.007 121.685C779.007 126.401 775.182 130.225 770.466 130.226C767.06 130.225 764.12 128.23 762.749 125.346H706.005L700.311 118.024H762.749C764.12 115.14 767.059 113.145 770.466 113.145ZM770.467 118.024C768.445 118.024 766.807 119.663 766.807 121.685C766.807 123.706 768.445 125.345 770.467 125.345C772.488 125.344 774.127 123.706 774.127 121.685C774.127 119.663 772.488 118.025 770.467 118.024ZM727.763 78.9824C732.479 78.9826 736.304 82.8067 736.304 87.5234C736.303 92.2398 732.479 96.0633 727.763 96.0635C724.356 96.0633 721.416 94.0679 720.045 91.1826H703.157L708.852 83.8623H720.046C721.417 80.9775 724.356 78.9826 727.763 78.9824ZM727.764 83.8633C725.742 83.8633 724.104 85.5019 724.104 87.5234C724.104 89.5448 725.742 91.1836 727.764 91.1836C729.785 91.1834 731.424 89.5447 731.424 87.5234C731.424 85.5021 729.785 83.8635 727.764 83.8633ZM750.538 53.3604C755.255 53.3605 759.079 57.1846 759.079 61.9014C759.079 66.6179 755.255 70.4412 750.538 70.4414C747.132 70.4412 744.192 68.4463 742.821 65.5615H691.771L697.464 58.2412H742.82C744.191 55.3559 747.131 53.3605 750.538 53.3604ZM750.537 58.2402C748.516 58.2404 746.877 59.8799 746.877 61.9014C746.877 63.9226 748.516 65.5614 750.537 65.5615C752.558 65.5614 754.197 63.9225 754.197 61.9014C754.197 59.88 752.558 58.2404 750.537 58.2402Z" fill="url(#paint1_linear_250_4)"/>
<path d="M347.724 152.521L352.892 162.515L358.074 152.521H361.068L354.205 164.989V172.427H351.566V164.989L344.703 152.521H347.724ZM361.67 165.194V164.88C361.67 163.813 361.825 162.825 362.135 161.913C362.445 160.993 362.891 160.195 363.474 159.521C364.058 158.837 364.764 158.308 365.594 157.935C366.423 157.552 367.353 157.36 368.383 157.36C369.422 157.36 370.356 157.552 371.185 157.935C372.024 158.308 372.735 158.837 373.318 159.521C373.911 160.195 374.362 160.993 374.672 161.913C374.982 162.825 375.137 163.813 375.137 164.88V165.194C375.137 166.261 374.982 167.25 374.672 168.161C374.362 169.073 373.911 169.87 373.318 170.554C372.735 171.228 372.029 171.757 371.199 172.14C370.379 172.513 369.449 172.7 368.41 172.7C367.371 172.7 366.437 172.513 365.607 172.14C364.778 171.757 364.067 171.228 363.474 170.554C362.891 169.87 362.445 169.073 362.135 168.161C361.825 167.25 361.67 166.261 361.67 165.194ZM364.199 164.88V165.194C364.199 165.933 364.286 166.63 364.459 167.286C364.632 167.933 364.892 168.507 365.238 169.009C365.594 169.51 366.036 169.907 366.564 170.198C367.093 170.481 367.708 170.622 368.41 170.622C369.103 170.622 369.709 170.481 370.228 170.198C370.757 169.907 371.195 169.51 371.541 169.009C371.887 168.507 372.147 167.933 372.32 167.286C372.502 166.63 372.594 165.933 372.594 165.194V164.88C372.594 164.151 372.502 163.463 372.32 162.815C372.147 162.159 371.883 161.58 371.527 161.079C371.181 160.569 370.743 160.168 370.215 159.876C369.695 159.584 369.085 159.438 368.383 159.438C367.69 159.438 367.079 159.584 366.551 159.876C366.031 160.168 365.594 160.569 365.238 161.079C364.892 161.58 364.632 162.159 364.459 162.815C364.286 163.463 364.199 164.151 364.199 164.88ZM387.359 169.009V157.634H389.902V172.427H387.482L387.359 169.009ZM387.838 165.892L388.891 165.864C388.891 166.849 388.786 167.76 388.576 168.599C388.376 169.428 388.047 170.148 387.592 170.759C387.136 171.369 386.539 171.848 385.801 172.194C385.062 172.532 384.165 172.7 383.107 172.7C382.387 172.7 381.726 172.595 381.125 172.386C380.532 172.176 380.022 171.853 379.594 171.415C379.165 170.978 378.833 170.408 378.596 169.706C378.368 169.004 378.254 168.161 378.254 167.177V157.634H380.783V167.204C380.783 167.869 380.856 168.421 381.002 168.858C381.157 169.287 381.362 169.629 381.617 169.884C381.881 170.13 382.173 170.303 382.492 170.403C382.82 170.504 383.157 170.554 383.504 170.554C384.579 170.554 385.432 170.349 386.06 169.938C386.689 169.519 387.141 168.959 387.414 168.257C387.696 167.546 387.838 166.757 387.838 165.892ZM396.287 159.958V172.427H393.758V157.634H396.219L396.287 159.958ZM400.908 157.552L400.894 159.903C400.685 159.858 400.484 159.83 400.293 159.821C400.111 159.803 399.901 159.794 399.664 159.794C399.081 159.794 398.566 159.885 398.119 160.067C397.672 160.25 397.294 160.505 396.984 160.833C396.674 161.161 396.428 161.553 396.246 162.009C396.073 162.455 395.959 162.948 395.904 163.485L395.193 163.896C395.193 163.002 395.28 162.164 395.453 161.38C395.635 160.596 395.913 159.903 396.287 159.302C396.661 158.691 397.135 158.217 397.709 157.88C398.292 157.534 398.985 157.36 399.787 157.36C399.969 157.36 400.179 157.383 400.416 157.429C400.653 157.465 400.817 157.506 400.908 157.552ZM421.963 152.521H424.588V165.987C424.588 167.482 424.255 168.726 423.59 169.72C422.924 170.713 422.04 171.461 420.937 171.962C419.844 172.454 418.654 172.7 417.369 172.7C416.02 172.7 414.799 172.454 413.705 171.962C412.62 171.461 411.759 170.713 411.121 169.72C410.492 168.726 410.178 167.482 410.178 165.987V152.521H412.789V165.987C412.789 167.026 412.98 167.883 413.363 168.558C413.746 169.232 414.279 169.733 414.963 170.062C415.655 170.39 416.458 170.554 417.369 170.554C418.29 170.554 419.092 170.39 419.775 170.062C420.468 169.733 421.006 169.232 421.389 168.558C421.771 167.883 421.963 167.026 421.963 165.987V152.521ZM430.877 160.792V172.427H428.348V157.634H430.74L430.877 160.792ZM430.275 164.47L429.223 164.429C429.232 163.417 429.382 162.483 429.674 161.626C429.965 160.76 430.376 160.008 430.904 159.37C431.433 158.732 432.062 158.24 432.791 157.894C433.529 157.538 434.345 157.36 435.238 157.36C435.967 157.36 436.624 157.461 437.207 157.661C437.79 157.853 438.287 158.162 438.697 158.591C439.116 159.019 439.435 159.575 439.654 160.259C439.873 160.933 439.982 161.758 439.982 162.733V172.427H437.439V162.706C437.439 161.931 437.325 161.312 437.098 160.847C436.87 160.373 436.537 160.031 436.099 159.821C435.662 159.603 435.124 159.493 434.486 159.493C433.857 159.493 433.283 159.625 432.764 159.89C432.253 160.154 431.811 160.519 431.437 160.983C431.073 161.448 430.786 161.981 430.576 162.583C430.376 163.175 430.275 163.804 430.275 164.47ZM446.572 151.427V172.427H444.029V151.427H446.572ZM449.963 165.194V164.88C449.963 163.813 450.118 162.825 450.428 161.913C450.738 160.993 451.184 160.195 451.767 159.521C452.351 158.837 453.057 158.308 453.887 157.935C454.716 157.552 455.646 157.36 456.676 157.36C457.715 157.36 458.649 157.552 459.478 157.935C460.317 158.308 461.028 158.837 461.611 159.521C462.204 160.195 462.655 160.993 462.965 161.913C463.275 162.825 463.43 163.813 463.43 164.88V165.194C463.43 166.261 463.275 167.25 462.965 168.161C462.655 169.073 462.204 169.87 461.611 170.554C461.028 171.228 460.321 171.757 459.492 172.14C458.672 172.513 457.742 172.7 456.703 172.7C455.664 172.7 454.73 172.513 453.9 172.14C453.071 171.757 452.36 171.228 451.767 170.554C451.184 169.87 450.738 169.073 450.428 168.161C450.118 167.25 449.963 166.261 449.963 165.194ZM452.492 164.88V165.194C452.492 165.933 452.579 166.63 452.752 167.286C452.925 167.933 453.185 168.507 453.531 169.009C453.887 169.51 454.329 169.907 454.857 170.198C455.386 170.481 456.001 170.622 456.703 170.622C457.396 170.622 458.002 170.481 458.521 170.198C459.05 169.907 459.488 169.51 459.834 169.009C460.18 168.507 460.44 167.933 460.613 167.286C460.795 166.63 460.887 165.933 460.887 165.194V164.88C460.887 164.151 460.795 163.463 460.613 162.815C460.44 162.159 460.176 161.58 459.82 161.079C459.474 160.569 459.036 160.168 458.508 159.876C457.988 159.584 457.377 159.438 456.676 159.438C455.983 159.438 455.372 159.584 454.844 159.876C454.324 160.168 453.887 160.569 453.531 161.079C453.185 161.58 452.925 162.159 452.752 162.815C452.579 163.463 452.492 164.151 452.492 164.88ZM472.521 170.622C473.123 170.622 473.679 170.499 474.189 170.253C474.7 170.007 475.119 169.67 475.447 169.241C475.775 168.804 475.962 168.307 476.008 167.751H478.414C478.368 168.626 478.072 169.442 477.525 170.198C476.988 170.946 476.281 171.552 475.406 172.017C474.531 172.472 473.57 172.7 472.521 172.7C471.409 172.7 470.439 172.504 469.609 172.112C468.789 171.72 468.105 171.183 467.558 170.499C467.021 169.815 466.615 169.032 466.342 168.147C466.077 167.254 465.945 166.311 465.945 165.317V164.743C465.945 163.75 466.077 162.811 466.342 161.927C466.615 161.034 467.021 160.245 467.558 159.562C468.105 158.878 468.789 158.34 469.609 157.948C470.439 157.556 471.409 157.36 472.521 157.36C473.679 157.36 474.691 157.597 475.557 158.071C476.422 158.536 477.101 159.174 477.594 159.985C478.095 160.787 478.368 161.699 478.414 162.72H476.008C475.962 162.109 475.789 161.558 475.488 161.065C475.196 160.573 474.795 160.181 474.285 159.89C473.784 159.589 473.196 159.438 472.521 159.438C471.747 159.438 471.095 159.593 470.566 159.903C470.047 160.204 469.632 160.614 469.322 161.134C469.021 161.644 468.803 162.214 468.666 162.843C468.538 163.463 468.474 164.096 468.474 164.743V165.317C468.474 165.965 468.538 166.603 468.666 167.231C468.793 167.86 469.008 168.43 469.308 168.94C469.618 169.451 470.033 169.861 470.553 170.171C471.081 170.472 471.738 170.622 472.521 170.622ZM483.801 151.427V172.427H481.258V151.427H483.801ZM492.838 157.634L486.385 164.538L482.775 168.284L482.57 165.591L485.154 162.501L489.748 157.634H492.838ZM490.527 172.427L485.25 165.372L486.562 163.116L493.508 172.427H490.527ZM498.197 157.634V172.427H495.654V157.634H498.197ZM495.463 153.71C495.463 153.3 495.586 152.953 495.832 152.671C496.087 152.388 496.461 152.247 496.953 152.247C497.436 152.247 497.805 152.388 498.06 152.671C498.325 152.953 498.457 153.3 498.457 153.71C498.457 154.102 498.325 154.439 498.06 154.722C497.805 154.995 497.436 155.132 496.953 155.132C496.461 155.132 496.087 154.995 495.832 154.722C495.586 154.439 495.463 154.102 495.463 153.71ZM504.787 160.792V172.427H502.258V157.634H504.65L504.787 160.792ZM504.185 164.47L503.133 164.429C503.142 163.417 503.292 162.483 503.584 161.626C503.876 160.76 504.286 160.008 504.814 159.37C505.343 158.732 505.972 158.24 506.701 157.894C507.439 157.538 508.255 157.36 509.148 157.36C509.877 157.36 510.534 157.461 511.117 157.661C511.7 157.853 512.197 158.162 512.607 158.591C513.027 159.019 513.346 159.575 513.564 160.259C513.783 160.933 513.892 161.758 513.892 162.733V172.427H511.349V162.706C511.349 161.931 511.236 161.312 511.008 160.847C510.78 160.373 510.447 160.031 510.01 159.821C509.572 159.603 509.034 159.493 508.396 159.493C507.767 159.493 507.193 159.625 506.674 159.89C506.163 160.154 505.721 160.519 505.348 160.983C504.983 161.448 504.696 161.981 504.486 162.583C504.286 163.175 504.185 163.804 504.185 164.47ZM527.318 157.634H529.615V172.112C529.615 173.416 529.351 174.528 528.822 175.448C528.293 176.369 527.555 177.066 526.607 177.54C525.668 178.023 524.584 178.265 523.353 178.265C522.843 178.265 522.241 178.183 521.549 178.019C520.865 177.864 520.191 177.595 519.525 177.212C518.869 176.838 518.318 176.332 517.871 175.694L519.197 174.19C519.817 174.938 520.464 175.457 521.139 175.749C521.822 176.041 522.497 176.187 523.162 176.187C523.964 176.187 524.657 176.036 525.24 175.735C525.823 175.435 526.275 174.988 526.594 174.396C526.922 173.812 527.086 173.092 527.086 172.235V160.888L527.318 157.634ZM517.133 165.194V164.907C517.133 163.777 517.265 162.752 517.529 161.831C517.803 160.901 518.19 160.104 518.691 159.438C519.202 158.773 519.817 158.263 520.537 157.907C521.257 157.543 522.068 157.36 522.971 157.36C523.9 157.36 524.711 157.524 525.404 157.853C526.106 158.172 526.698 158.641 527.182 159.261C527.674 159.871 528.061 160.61 528.344 161.476C528.626 162.341 528.822 163.321 528.932 164.415V165.673C528.831 166.757 528.635 167.733 528.344 168.599C528.061 169.465 527.674 170.203 527.182 170.813C526.698 171.424 526.106 171.894 525.404 172.222C524.702 172.541 523.882 172.7 522.943 172.7C522.059 172.7 521.257 172.513 520.537 172.14C519.826 171.766 519.215 171.242 518.705 170.567C518.195 169.893 517.803 169.1 517.529 168.188C517.265 167.268 517.133 166.27 517.133 165.194ZM519.662 164.907V165.194C519.662 165.933 519.735 166.625 519.881 167.272C520.036 167.92 520.268 168.489 520.578 168.981C520.897 169.474 521.303 169.861 521.795 170.144C522.287 170.417 522.875 170.554 523.558 170.554C524.397 170.554 525.09 170.376 525.637 170.021C526.183 169.665 526.616 169.196 526.935 168.612C527.264 168.029 527.519 167.396 527.701 166.712V163.417C527.601 162.916 527.446 162.433 527.236 161.968C527.036 161.494 526.771 161.075 526.443 160.71C526.124 160.336 525.728 160.04 525.254 159.821C524.78 159.603 524.224 159.493 523.586 159.493C522.893 159.493 522.296 159.639 521.795 159.931C521.303 160.213 520.897 160.605 520.578 161.106C520.268 161.599 520.036 162.173 519.881 162.829C519.735 163.476 519.662 164.169 519.662 164.907ZM546.021 166.411L549.973 152.521H551.887L550.779 157.921L546.527 172.427H544.627L546.021 166.411ZM541.933 152.521L545.078 166.138L546.021 172.427H544.135L539.308 152.521H541.933ZM557 166.124L560.076 152.521H562.715L557.902 172.427H556.016L557 166.124ZM552.174 152.521L556.016 166.411L557.41 172.427H555.51L551.408 157.921L550.287 152.521H552.174ZM570.959 172.7C569.929 172.7 568.995 172.527 568.156 172.181C567.327 171.825 566.611 171.328 566.01 170.69C565.417 170.052 564.961 169.296 564.642 168.421C564.323 167.546 564.164 166.589 564.164 165.55V164.976C564.164 163.772 564.342 162.701 564.697 161.763C565.053 160.815 565.536 160.013 566.146 159.356C566.757 158.7 567.45 158.203 568.224 157.866C568.999 157.529 569.801 157.36 570.631 157.36C571.688 157.36 572.599 157.543 573.365 157.907C574.14 158.272 574.773 158.782 575.266 159.438C575.758 160.086 576.122 160.851 576.359 161.735C576.596 162.61 576.715 163.567 576.715 164.606V165.741H565.668V163.677H574.185V163.485C574.149 162.829 574.012 162.191 573.775 161.571C573.547 160.951 573.183 160.441 572.682 160.04C572.18 159.639 571.497 159.438 570.631 159.438C570.057 159.438 569.528 159.562 569.045 159.808C568.562 160.045 568.147 160.4 567.801 160.874C567.454 161.348 567.185 161.927 566.994 162.61C566.803 163.294 566.707 164.082 566.707 164.976V165.55C566.707 166.252 566.803 166.912 566.994 167.532C567.195 168.143 567.482 168.681 567.855 169.146C568.238 169.61 568.698 169.975 569.236 170.239C569.783 170.504 570.403 170.636 571.096 170.636C571.989 170.636 572.745 170.453 573.365 170.089C573.985 169.724 574.527 169.237 574.992 168.626L576.523 169.843C576.204 170.326 575.799 170.786 575.307 171.224C574.814 171.661 574.208 172.017 573.488 172.29C572.777 172.563 571.934 172.7 570.959 172.7ZM588.391 169.897V162.282C588.391 161.699 588.272 161.193 588.035 160.765C587.807 160.327 587.461 159.99 586.996 159.753C586.531 159.516 585.957 159.397 585.273 159.397C584.635 159.397 584.075 159.507 583.592 159.726C583.118 159.944 582.744 160.231 582.471 160.587C582.206 160.942 582.074 161.325 582.074 161.735H579.545C579.545 161.207 579.682 160.683 579.955 160.163C580.228 159.644 580.62 159.174 581.131 158.755C581.65 158.326 582.27 157.989 582.99 157.743C583.719 157.488 584.53 157.36 585.424 157.36C586.499 157.36 587.447 157.543 588.267 157.907C589.097 158.272 589.744 158.823 590.209 159.562C590.683 160.291 590.92 161.207 590.92 162.31V169.2C590.92 169.692 590.961 170.216 591.043 170.772C591.134 171.328 591.266 171.807 591.439 172.208V172.427H588.801C588.673 172.135 588.573 171.748 588.5 171.265C588.427 170.772 588.391 170.317 588.391 169.897ZM588.828 163.458L588.855 165.235H586.299C585.579 165.235 584.936 165.295 584.371 165.413C583.806 165.522 583.332 165.691 582.949 165.919C582.566 166.147 582.275 166.434 582.074 166.78C581.874 167.118 581.773 167.514 581.773 167.97C581.773 168.435 581.878 168.858 582.088 169.241C582.297 169.624 582.612 169.929 583.031 170.157C583.46 170.376 583.984 170.485 584.603 170.485C585.378 170.485 586.062 170.321 586.654 169.993C587.247 169.665 587.716 169.264 588.062 168.79C588.418 168.316 588.609 167.856 588.637 167.409L589.717 168.626C589.653 169.009 589.48 169.433 589.197 169.897C588.915 170.362 588.536 170.809 588.062 171.237C587.598 171.657 587.042 172.007 586.394 172.29C585.756 172.563 585.036 172.7 584.234 172.7C583.232 172.7 582.352 172.504 581.596 172.112C580.848 171.72 580.265 171.196 579.846 170.54C579.435 169.875 579.23 169.132 579.23 168.312C579.23 167.519 579.385 166.821 579.695 166.22C580.005 165.609 580.452 165.103 581.035 164.702C581.618 164.292 582.32 163.982 583.141 163.772C583.961 163.563 584.877 163.458 585.889 163.458H588.828ZM597.646 151.427V172.427H595.103V151.427H597.646ZM607.9 157.634V159.575H599.902V157.634H607.9ZM602.609 154.038H605.139V168.763C605.139 169.264 605.216 169.642 605.371 169.897C605.526 170.153 605.726 170.321 605.973 170.403C606.219 170.485 606.483 170.526 606.766 170.526C606.975 170.526 607.194 170.508 607.422 170.472C607.659 170.426 607.836 170.39 607.955 170.362L607.969 172.427C607.768 172.491 607.504 172.55 607.176 172.604C606.857 172.668 606.469 172.7 606.014 172.7C605.394 172.7 604.824 172.577 604.305 172.331C603.785 172.085 603.37 171.675 603.06 171.101C602.76 170.517 602.609 169.733 602.609 168.749V154.038ZM613.396 151.427V172.427H610.867V151.427H613.396ZM612.795 164.47L611.742 164.429C611.751 163.417 611.902 162.483 612.193 161.626C612.485 160.76 612.895 160.008 613.424 159.37C613.952 158.732 614.581 158.24 615.31 157.894C616.049 157.538 616.864 157.36 617.758 157.36C618.487 157.36 619.143 157.461 619.726 157.661C620.31 157.853 620.807 158.162 621.217 158.591C621.636 159.019 621.955 159.575 622.174 160.259C622.392 160.933 622.502 161.758 622.502 162.733V172.427H619.959V162.706C619.959 161.931 619.845 161.312 619.617 160.847C619.389 160.373 619.057 160.031 618.619 159.821C618.182 159.603 617.644 159.493 617.006 159.493C616.377 159.493 615.803 159.625 615.283 159.89C614.773 160.154 614.331 160.519 613.957 160.983C613.592 161.448 613.305 161.981 613.096 162.583C612.895 163.175 612.795 163.804 612.795 164.47Z" fill="white"/>
<defs>
<linearGradient id="paint0_linear_250_4" x1="245.039" y1="103.817" x2="590.886" y2="17.1235" gradientUnits="userSpaceOnUse">
<stop stop-color="white"/>
<stop offset="1" stop-color="white"/>
</linearGradient>
<linearGradient id="paint1_linear_250_4" x1="620.928" y1="112.649" x2="743.068" y2="97.649" gradientUnits="userSpaceOnUse">
<stop stop-color="white"/>
<stop offset="1" stop-color="white"/>
</linearGradient>
</defs>
</svg>
