<svg width="32" height="32" viewBox="0 0 32 32" fill="none" xmlns="http://www.w3.org/2000/svg">
<path d="M0 16C0 7.16344 7.16344 0 16 0C24.8366 0 32 7.16344 32 16C32 24.8366 24.8366 32 16 32C7.16344 32 0 24.8366 0 16Z" fill="url(#paint0_linear_148_3)"/>
<path d="M16.1489 2.021C23.9156 2.02117 30.2114 8.31771 30.2114 16.0845C30.2112 23.8511 23.9155 30.1468 16.1489 30.147C11.3037 30.147 7.03049 27.6972 4.5014 23.9683L3.80219 22.8237C3.52196 22.3114 3.27286 21.7794 3.05707 21.231C2.9613 20.9782 2.74682 20.3892 2.65472 20.0571C2.28444 18.7974 2.08542 17.464 2.08539 16.0845C2.08539 15.0307 2.20157 14.0037 2.42133 13.0161C2.49886 12.6369 2.66395 12.0755 2.73676 11.8423C2.90297 11.3163 3.0993 10.8034 3.32367 10.3062L3.94476 9.09033C6.37093 4.86603 10.9279 2.021 16.1489 2.021ZM16.1157 4.59033C9.60906 4.59051 4.33441 9.77497 4.33441 16.1694C4.33455 22.5638 9.60915 27.7474 16.1157 27.7476C22.6223 27.7476 27.8977 22.5639 27.8979 16.1694C27.8979 9.77487 22.6224 4.59033 16.1157 4.59033Z" fill="#012426"/>
<path d="M16.1166 4.99707C21.9749 4.99707 26.7989 9.34588 27.4242 14.9355H27.0736C27.0893 15.0718 27.1021 15.2089 27.1127 15.3467H26.7631C26.7738 15.483 26.7821 15.6201 26.7875 15.7578H26.3763V15.9639H27.142C27.1433 16.0321 27.1439 16.1004 27.1439 16.1689C27.1439 16.2376 27.1433 16.3066 27.142 16.375H27.4916C27.3798 22.4502 22.3295 27.3418 16.1166 27.3418C9.83378 27.3417 4.7406 22.3391 4.7406 16.1689C4.74074 9.99894 9.83386 4.99719 16.1166 4.99707ZM16.1166 5.20312C9.9495 5.20324 4.94972 10.1125 4.94958 16.1689C4.94958 22.2255 9.94942 27.1356 16.1166 27.1357C22.1436 27.1357 27.0555 22.4462 27.2758 16.5801H26.7875C26.6024 21.2937 23.2484 25.2095 18.7592 26.332C18.7372 26.3983 18.6804 26.4517 18.6058 26.4658L17.8558 26.6074C17.7842 26.621 17.7141 26.5953 17.6683 26.5459C17.1618 26.6183 16.6435 26.6562 16.1166 26.6562C10.2192 26.6561 5.43884 21.9605 5.43884 16.1689C5.43887 15.2032 5.57177 14.268 5.82068 13.3799C5.76705 13.3472 5.74137 13.2811 5.76208 13.2197L6.04041 12.3926C6.06154 12.3299 6.12463 12.2927 6.18884 12.2998C7.75686 8.42352 11.611 5.68271 16.1166 5.68262C21.5167 5.68262 25.9812 9.61902 26.6957 14.7295H27.1879C26.47 9.35326 21.7869 5.20312 16.1166 5.20312ZM16.1166 5.33984C21.6373 5.33984 26.211 9.32415 27.0179 14.5244H26.8119C26.0068 9.43468 21.525 5.53906 16.1166 5.53906C10.1387 5.53918 5.2925 10.2983 5.29236 16.1689C5.29236 22.0397 10.1386 26.7987 16.1166 26.7988C21.8838 26.7988 26.5979 22.3699 26.9232 16.7861H27.1263C26.8007 22.48 21.9959 26.999 16.1166 26.999C10.0265 26.9989 5.08923 22.1498 5.08923 16.1689C5.08937 10.1882 10.0266 5.33996 16.1166 5.33984ZM16.1166 5.875C11.6964 5.87509 7.91525 8.5628 6.37439 12.3643C6.42113 12.3986 6.44244 12.4592 6.42322 12.5166L6.14392 13.3447C6.12404 13.4033 6.06798 13.44 6.00818 13.4385C5.76519 14.308 5.63515 15.2236 5.63513 16.1689C5.63513 21.8539 10.3278 26.4628 16.1166 26.4629C16.6285 26.4629 17.1321 26.4271 17.6244 26.3574C17.645 26.2887 17.7031 26.2333 17.7797 26.2188L18.5297 26.0762C18.6034 26.0622 18.6755 26.0903 18.7211 26.1426C23.1201 25.0379 26.4054 21.1999 26.5902 16.5801H26.3578C26.3337 16.6211 26.2884 16.6494 26.2367 16.6494H26.0853C25.8304 21.8395 21.4646 25.9707 16.1166 25.9707C16.0934 25.9707 16.0703 25.9709 16.0472 25.9707V25.4531C16.0703 25.4533 16.0934 25.4541 16.1166 25.4541C21.1268 25.4541 25.2268 21.6262 25.5502 16.7861H25.7279C25.4058 21.6998 21.2632 25.5924 16.1869 25.6279V25.79C21.4015 25.7542 25.6481 21.7171 25.9017 16.6494H25.6088C25.5571 16.6494 25.5118 16.6211 25.4877 16.5801H25.39C25.171 21.4238 21.1028 25.2852 16.1166 25.2852H16.0472V25.1484L16.222 25.1172C20.9241 25.0648 24.7711 21.5139 25.1908 16.9912H25.0111C24.6612 20.6872 21.9772 23.7189 18.4203 24.6484L18.4193 24.5312L18.4203 24.0879C21.5834 23.2022 23.9827 20.5372 24.4261 17.2656H24.6293C24.1884 20.5987 21.7649 23.3212 18.559 24.2539V24.3965C21.9301 23.4329 24.4584 20.5247 24.8011 16.9912H24.5619C24.4848 16.9912 24.4222 16.9302 24.4222 16.8545V16.5801H24.0736L23.2357 17.9512H22.1185V18.1572H21.4213V17.4717H22.1185V17.7461H23.2357L24.0736 16.375H24.4222V16.1689H24.0033L23.2357 16.9229H22.1185V17.1973H21.4213V16.5117H22.1185V16.7178H23.2357L24.0033 15.9639H24.4222V15.7578H22.1185V16.0322H21.4213V15.3467H22.1185V15.5527H24.4222V15.3467H24.0033L23.2357 14.5928H22.1185V14.8672H21.4213V14.1816H22.1185V14.3867H23.2357L24.0033 15.1406H24.4222V14.9355H24.0736L22.8168 13.5645H22.1185V13.8389H21.4213V13.1533H22.1185V13.3594H22.8168L24.0736 14.7295H24.4222V14.5928C24.4222 14.5171 24.4848 14.4561 24.5619 14.4561H24.6664C24.0302 11.3784 21.7137 8.89965 18.6986 7.9834V8.12695C21.5464 9.00795 23.7539 11.3074 24.4613 14.1816H24.2543C23.5445 11.3701 21.3635 9.12845 18.5599 8.29102L18.559 8.15039L18.5599 7.72754C21.7588 8.6187 24.2273 11.2172 24.8802 14.4561H25.0619C24.3439 10.82 21.3837 7.96946 17.6517 7.34766V7.5332H16.9535V6.84766L16.9545 6.74609C21.3226 7.11569 24.8573 10.3486 25.6029 14.5244H25.4232C24.7214 10.6696 21.5967 7.63941 17.6517 7.00684V7.17773C21.481 7.80355 24.5174 10.7312 25.2367 14.4639C25.2906 14.4829 25.3295 14.5333 25.3295 14.5928V14.7295H25.8041C25.0999 10.121 21.0677 6.58242 16.1869 6.54883V6.36816C21.1694 6.40182 25.2849 10.021 25.9906 14.7295H26.4965C25.7834 9.72603 21.4079 5.875 16.1166 5.875ZM15.9769 6.02637C16.0234 6.02576 16.07 6.02539 16.1166 6.02539C18.5955 6.02539 20.8706 6.88295 22.6508 8.3125C22.7186 8.28817 22.7975 8.30076 22.8549 8.35156L23.4222 8.85449C23.4812 8.90683 23.5013 8.98537 23.4808 9.05566C24.944 10.5164 25.96 12.4109 26.3109 14.5244H26.1185C25.7697 12.4635 24.7757 10.6159 23.348 9.18945C23.282 9.20995 23.2068 9.19729 23.1517 9.14844L22.5853 8.64551C22.5287 8.59528 22.5073 8.52025 22.5238 8.45215C20.7773 7.05204 18.5469 6.21191 16.1166 6.21191C16.07 6.21192 16.0234 6.21227 15.9769 6.21289V6.53906L15.9877 6.54883C15.9843 6.54887 15.9803 6.54878 15.9769 6.54883V6.71191C16.0234 6.71127 16.07 6.71094 16.1166 6.71094V6.88477C16.07 6.88477 16.0234 6.88508 15.9769 6.88574V7.05469C16.0234 7.05401 16.07 7.05371 16.1166 7.05371V7.2207C16.07 7.2207 16.0234 7.22099 15.9769 7.22168V7.25977H15.8812C15.9748 7.26302 16.0551 7.31801 16.0931 7.39648C16.101 7.39646 16.1088 7.39551 16.1166 7.39551V8.66406C16.1166 8.79657 16.0074 8.9043 15.8724 8.9043C15.7375 8.90429 15.6283 8.79657 15.6283 8.66406V7.49902C15.6283 7.36945 15.7328 7.26432 15.8636 7.25977H15.7679V7.22754C15.7332 7.22883 15.6981 7.23075 15.6635 7.23242V7.06445C15.6981 7.06282 15.7332 7.06083 15.7679 7.05957V6.89062C15.7332 6.89187 15.6981 6.8939 15.6635 6.89551V6.7207C15.6981 6.71913 15.7332 6.71801 15.7679 6.7168V6.55469C15.7641 6.55482 15.76 6.55455 15.7562 6.55469L15.7679 6.53906V6.21777C10.33 6.3985 5.97804 10.7846 5.97791 16.1689C5.97791 21.4378 10.1451 25.7514 15.4193 26.1035V26.1074H15.4867C15.5338 26.1103 15.5811 26.113 15.6283 26.1152V25.0791H15.724C15.5933 25.0745 15.4888 24.9693 15.4886 24.8398V23.6738C15.4889 23.5416 15.5981 23.4347 15.7328 23.4346C15.8676 23.4346 15.9767 23.5415 15.9769 23.6738V24.8398C15.9768 24.9694 15.8724 25.0746 15.7416 25.0791H15.8373V26.123C15.93 26.1255 16.0233 26.127 16.1166 26.127C21.5053 26.127 25.9123 21.9981 26.2367 16.7861H26.4271C26.1024 22.1012 21.6104 26.3135 16.1166 26.3135C16.0233 26.3135 15.93 26.312 15.8373 26.3096V26.3135H15.6283V26.3018C10.1505 26.0512 5.78748 21.6105 5.78748 16.1689C5.78761 10.6814 10.225 6.21206 15.7679 6.03125V6.02539H15.9769V6.02637ZM15.558 6.56348C10.4075 6.84791 6.31984 11.0398 6.3197 16.1689C6.3197 21.2054 10.2612 25.3386 15.2797 25.7559V25.5928C10.3526 25.1759 6.48572 21.1157 6.48572 16.1689C6.48584 11.627 9.74567 7.83292 14.0931 6.91992V6.91602H14.1088C14.3331 6.8693 14.5606 6.83089 14.7904 6.7998L14.7914 7.60156H14.0931V7.44238C13.9277 7.47923 13.7638 7.52085 13.6019 7.56641L13.2552 7.63574V7.6709C9.62493 8.84922 7.00536 12.2088 7.00525 16.1689C7.00525 20.0783 9.55783 23.4028 13.1156 24.6211V24.7021L14.6508 25.0107L15.4193 25.1484V25.2598C10.6188 24.9093 6.83435 20.973 6.83435 16.1689C6.83447 11.8171 9.93992 8.17747 14.0931 7.27051V7.09766C9.84433 8.00764 6.6626 11.7235 6.66248 16.1689C6.66248 21.0661 10.5238 25.0779 15.4193 25.4287V25.6035L15.4183 25.7656L15.4193 25.9473C10.2329 25.5954 6.13611 21.3516 6.13611 16.1689C6.13624 10.9401 10.306 6.66747 15.558 6.38281V6.56348ZM13.2552 8.42871C10.5222 9.40338 8.45156 11.734 7.88708 14.5928H8.03748C8.59637 11.8146 10.6041 9.54784 13.2552 8.58301V9.14453C11.143 9.97516 9.49262 11.6984 8.78748 13.8389H10.9525C10.9525 13.7632 11.0151 13.7021 11.0922 13.7021H12.4877C12.5647 13.7022 12.6273 13.7632 12.6273 13.8389H13.7435V14.0449H12.6273C12.6271 14.1204 12.5646 14.1816 12.4877 14.1816H11.0922C11.0152 14.1816 10.9528 14.1204 10.9525 14.0449H8.53064C9.19386 11.7568 10.9019 9.90031 13.1156 9.00488V8.83984C10.6411 9.81806 8.77585 11.9693 8.23474 14.5928H10.9525C10.9525 14.5171 11.0151 14.4561 11.0922 14.4561H12.4877C12.5647 14.4561 12.6273 14.5171 12.6273 14.5928H13.7435V14.7988H12.6273C12.6271 14.8743 12.5646 14.9355 12.4877 14.9355H11.0922C11.0152 14.9355 10.9528 14.8743 10.9525 14.7988H7.6449C8.14659 11.7859 10.2753 9.30967 13.1156 8.26855V8.12207C10.0268 9.23356 7.75549 12.0114 7.43201 15.3467H10.9525C10.9525 15.271 11.0151 15.21 11.0922 15.21H12.4877C12.5647 15.21 12.6273 15.271 12.6273 15.3467H13.7435V15.5527H12.6273C12.6271 15.6282 12.5646 15.6894 12.4877 15.6895H11.0922C11.0152 15.6895 10.9527 15.6283 10.9525 15.5527H7.41541C7.40067 15.7563 7.39295 15.9617 7.39294 16.1689C7.39294 19.8134 9.70966 22.9268 12.976 24.165V24.0176C9.78849 22.7864 7.53259 19.7363 7.53259 16.1689C7.53259 16.1462 7.53241 16.1233 7.53259 16.1006H10.9525C10.9526 16.0249 11.0151 15.9639 11.0922 15.9639H12.4877C12.5647 15.9639 12.6273 16.0249 12.6273 16.1006H13.7435V16.3066H12.6273C12.6271 16.3822 12.5646 16.4433 12.4877 16.4434H11.0922C11.0152 16.4434 10.9527 16.3822 10.9525 16.3066H8.07556C8.13131 19.5153 10.1354 22.2578 12.976 23.4424V23.2754C10.2841 22.1263 8.37218 19.5455 8.23767 16.5117H8.42322C8.55871 19.4957 10.4545 22.0298 13.1156 23.1367V23.7031C10.0924 22.5408 7.93934 19.6741 7.8822 16.3066H7.73474C7.79223 19.7555 10.0093 22.6883 13.1156 23.8584V24.4355C9.65803 23.2247 7.18298 19.9803 7.18298 16.1689C7.18309 12.3066 9.72497 9.02697 13.2552 7.85547V8.42871ZM15.0697 10.5078H16.6058V8.0127H18.141V10.5078H20.8793V17.2383C20.8793 19.4748 19.8376 21.2655 18.0013 22.0547V24.3945H16.4662V22.4521C16.23 22.4786 15.9852 22.4922 15.7328 22.4922C15.4578 22.4922 15.1897 22.4765 14.9301 22.4463V24.3945H13.5345V22.1094C11.7485 21.4185 10.603 19.8045 10.6029 17.373H12.7758C12.7759 19.3869 13.7446 20.4102 15.7328 20.4102C17.7379 20.4102 18.6732 19.0174 18.6732 17.2383V12.5723H12.5472V10.5078H13.6742V8.0127H15.0697V10.5078ZM24.2777 17.2656C23.8372 20.4566 21.5013 23.0568 18.4203 23.9365V23.3887C21.0284 22.5869 23.0402 20.4598 23.6371 17.8105L23.9242 17.2686C23.4972 20.2197 21.3762 22.6358 18.559 23.5361V23.6963C21.4638 22.788 23.6528 20.3032 24.0824 17.2656H24.2777ZM17.3031 16.9219C17.3485 17.0632 17.3734 17.2139 17.3734 17.3691C17.3731 18.2206 16.6384 18.9111 15.7328 18.9111C14.8272 18.9111 14.0934 18.2206 14.0931 17.3691C14.0931 17.2139 14.1171 17.0632 14.1625 16.9219V13.7021H17.3031V16.9219ZM25.3295 16.375H25.4691V16.1689H25.3295V16.375ZM26.3763 16.375H26.9388C26.9402 16.3066 26.9408 16.2376 26.9408 16.1689H26.3763V16.375ZM25.39 15.7578C25.3931 15.8262 25.3953 15.8951 25.3969 15.9639H25.4691V15.7578H25.39ZM25.3617 15.3467C25.3679 15.415 25.3736 15.484 25.3783 15.5527H25.4877C25.5118 15.5118 25.5571 15.4834 25.6088 15.4834H26.2367C26.2884 15.4834 26.3337 15.5118 26.3578 15.5527H26.5853V15.3467H25.3617ZM25.3295 15.1406H26.891C26.8843 15.0721 26.8766 15.0037 26.8685 14.9355H25.3295V15.1406ZM18.5599 8.44336C21.2816 9.27252 23.3992 11.4505 24.1019 14.1816H23.9027C23.2219 11.6023 21.2464 9.53426 18.6986 8.68652V8.84863C21.1146 9.67044 22.9978 11.6137 23.7025 14.0439L23.3734 13.6289C22.5819 11.4484 20.8002 9.72951 18.5599 8.99414L18.559 8.9043L18.5599 8.44336Z" fill="#022426"/>
<path d="M15.8601 28.5512L15.7702 28.5481C15.7593 28.5477 15.7536 28.5528 15.7533 28.5636L15.729 29.2584L15.437 29.2483L15.4645 28.4616C15.466 28.4191 15.4827 28.3832 15.5143 28.3542C15.5461 28.3246 15.6039 28.3114 15.6881 28.3143L15.8681 28.3206L15.8601 28.5512Z" fill="url(#paint1_linear_148_3)"/>
<path d="M12.4648 27.7693L12.2046 28.6749L12.4854 28.7553L12.6019 28.3499L12.6235 28.7948L12.8923 28.8717L13.1526 27.966L12.8717 27.8857L12.7554 28.2905L12.7336 27.8462L12.4648 27.7693Z" fill="url(#paint2_linear_148_3)"/>
<path fill-rule="evenodd" clip-rule="evenodd" d="M10.7027 27.0482C10.6764 27.0428 10.6458 27.0466 10.611 27.0595C10.5418 27.0853 10.4858 27.144 10.4431 27.2353L10.2805 27.5834C10.2378 27.6748 10.2287 27.7553 10.2534 27.8247C10.2658 27.8597 10.2825 27.8855 10.3036 27.9021L10.7882 28.1276L11.1873 27.2737L10.7027 27.0482ZM10.7478 27.2732C10.7522 27.2638 10.759 27.2613 10.7684 27.2657L10.8507 27.304L10.5951 27.8509L10.5129 27.8126C10.5034 27.8082 10.501 27.8014 10.5054 27.792L10.7478 27.2732Z" fill="url(#paint3_linear_148_3)"/>
<path d="M10.005 27.756L9.54893 27.4933L9.63379 27.3466L9.83686 27.4636L9.93563 27.2929L9.73256 27.1759L9.81618 27.0314L10.0192 27.1484L10.1392 26.941L9.93615 26.824L10.021 26.6774L10.4771 26.9401L10.005 27.756Z" fill="url(#paint4_linear_148_3)"/>
<path d="M9.03508 27.179C8.96462 27.1333 8.92473 27.0893 8.91585 27.0469C8.9068 27.0053 8.91427 26.9662 8.93797 26.9298L9.04693 26.7623L9.29199 26.9211L9.19897 27.0641C9.19308 27.0731 9.19444 27.0803 9.20319 27.086L9.26634 27.1269C9.27506 27.1326 9.28222 27.1309 9.28811 27.1218L9.6006 26.6417C9.60601 26.6333 9.60443 26.6265 9.59568 26.6209L9.53253 26.5799C9.52381 26.5743 9.51687 26.5756 9.51146 26.5839L9.41763 26.7281L9.17257 26.5693L9.28233 26.4006C9.30557 26.3649 9.3381 26.3426 9.37993 26.3339C9.42235 26.3247 9.47887 26.3432 9.54935 26.3889L9.76324 26.5275C9.83408 26.5734 9.87397 26.6174 9.88247 26.6595C9.89188 26.7014 9.87347 26.7577 9.82773 26.828L9.55107 27.2531C9.50482 27.3241 9.4606 27.3641 9.41838 27.3726C9.37635 27.3819 9.31981 27.3635 9.24899 27.3176L9.03508 27.179Z" fill="url(#paint5_linear_148_3)"/>
<path d="M8.7315 26.9871L8.30544 26.6782L8.40524 26.5412L8.59492 26.6787L8.71101 26.5193L8.52133 26.3818L8.61962 26.2468L8.8093 26.3843L8.95035 26.1906L8.76067 26.0531L8.86044 25.916L9.2865 26.2249L8.7315 26.9871Z" fill="url(#paint6_linear_148_3)"/>
<path d="M8.2379 25.4182L7.64368 26.1503L7.87075 26.3338L8.13674 26.006L7.9824 26.424L8.19973 26.5996L8.79393 25.8674L8.56688 25.6839L8.30128 26.0112L8.45523 25.5938L8.2379 25.4182Z" fill="url(#paint7_linear_148_3)"/>
<path d="M7.52229 26.0768L7.01787 25.5907L7.13576 25.4689L7.28289 25.6107L7.8209 25.0548L8.03106 25.2573L7.49308 25.8132L7.64021 25.9549L7.52229 26.0768Z" fill="url(#paint8_linear_148_3)"/>
<path fill-rule="evenodd" clip-rule="evenodd" d="M6.60125 25.1694C6.54395 25.1081 6.51594 25.0557 6.51758 25.0125C6.51924 24.9696 6.55117 24.9193 6.61293 24.8619L6.63295 24.8432C6.68694 24.793 6.7298 24.7655 6.76164 24.7608C6.79259 24.7564 6.83662 24.7762 6.89378 24.8202C6.85386 24.7601 6.83743 24.7146 6.84437 24.6839C6.85131 24.6525 6.86663 24.6258 6.89023 24.6038L7.03577 24.4684C7.08482 24.4227 7.11735 24.3855 7.13293 24.3569L7.33219 24.5701C7.31414 24.6011 7.27944 24.6403 7.22823 24.688L7.08177 24.8243C7.07694 24.8288 7.07585 24.8344 7.07816 24.8412L7.14386 24.9115L7.41524 24.659L7.6145 24.8722L6.92395 25.5147L6.60125 25.1694ZM6.78815 25.0975C6.78024 25.1048 6.77983 25.1121 6.7869 25.1197L6.84884 25.186L7.02794 25.0194L6.96601 24.9531C6.9589 24.9455 6.95155 24.9454 6.94411 24.9523L6.78815 25.0975Z" fill="url(#paint9_linear_148_3)"/>
<path fill-rule="evenodd" clip-rule="evenodd" d="M6.23227 24.7655L7.09659 24.3276L6.9219 24.1198L6.72408 24.2321L6.61307 24.1001L6.75767 23.9246L6.58351 23.7174L6.00122 24.4907L6.23227 24.7655ZM6.57579 24.3173L6.31049 24.4659L6.5035 24.2313L6.57579 24.3173Z" fill="url(#paint10_linear_148_3)"/>
<path d="M5.80351 24.2557L5.62363 24.0259L6.18546 23.588L6.04111 23.4036L6.22335 23.2616L6.54756 23.6756L5.80351 24.2557Z" fill="url(#paint11_linear_148_3)"/>
<path d="M5.41291 23.7447L5.24532 23.5059L6.01876 22.9655L6.18635 23.2043L5.41291 23.7447Z" fill="url(#paint12_linear_148_3)"/>
<path d="M5.17517 23.4084L5.37221 23.2855L5.23067 23.0595L5.9839 22.9219L5.6384 22.3701L5.44225 22.4924L5.5703 22.6969L4.82673 22.852L5.17517 23.4084Z" fill="url(#paint13_linear_148_3)"/>
<path d="M4.76669 22.7694L4.51138 22.3098L4.65984 22.2277L4.77352 22.4324L4.94627 22.3368L4.83262 22.1322L4.97886 22.0513L5.09251 22.2559L5.3024 22.1398L5.18875 21.9352L5.33721 21.8531L5.59251 22.3127L4.76669 22.7694Z" fill="url(#paint14_linear_148_3)"/>
<path fill-rule="evenodd" clip-rule="evenodd" d="M5.06083 21.2904C5.04348 21.27 5.01711 21.2542 4.98161 21.243C4.91124 21.2208 4.83084 21.2326 4.74085 21.2784L4.39793 21.4528C4.30791 21.4985 4.25105 21.5564 4.22765 21.6263C4.21588 21.6615 4.21316 21.6921 4.21952 21.7181L4.46228 22.1935L5.30359 21.7658L5.06083 21.2904ZM4.95762 21.4954C4.96689 21.4907 4.97375 21.4929 4.97847 21.5022L5.01969 21.5829L4.48088 21.8568L4.43965 21.7761C4.43494 21.7668 4.43718 21.76 4.44643 21.7553L4.95762 21.4954Z" fill="url(#paint15_linear_148_3)"/>
<path fill-rule="evenodd" clip-rule="evenodd" d="M4.63789 20.275C4.62276 20.2529 4.59819 20.2344 4.56405 20.2196C4.4964 20.1902 4.4152 20.1936 4.3209 20.2297L3.96158 20.3673C3.86728 20.4035 3.80468 20.4551 3.77409 20.5221C3.75868 20.5559 3.75277 20.5861 3.75638 20.6126L3.948 21.1107L4.82948 20.7731L4.63789 20.275ZM4.51377 20.4681C4.52349 20.4644 4.53004 20.4673 4.53379 20.477L4.56632 20.5616L4.00177 20.7778L3.96921 20.6933C3.96549 20.6835 3.96843 20.677 3.97812 20.6733L4.51377 20.4681Z" fill="url(#paint16_linear_148_3)"/>
<path d="M3.66735 20.3394L3.57705 20.0622L4.47505 19.771L4.56535 20.0483L3.66735 20.3394Z" fill="url(#paint17_linear_148_3)"/>
<path d="M3.40294 19.4798C3.38118 19.3988 3.3811 19.3394 3.40289 19.302C3.42457 19.2649 3.47639 19.2354 3.55795 19.2136L3.69856 19.1761L3.77417 19.4577L3.60406 19.5031C3.59382 19.5059 3.58979 19.5122 3.59251 19.5223L3.612 19.5948C3.61469 19.6049 3.62133 19.6083 3.63157 19.6056L4.18599 19.4574C4.1954 19.4549 4.19901 19.4486 4.19631 19.4386L4.17683 19.366C4.17413 19.356 4.16789 19.3524 4.15848 19.3549L3.97893 19.4029L3.99259 19.4538L3.89054 19.4811L3.80124 19.1486L4.25869 19.0263L4.28057 19.1077L4.20209 19.1582C4.25927 19.152 4.30197 19.1973 4.33064 19.2942L4.381 19.4817C4.40285 19.5631 4.40318 19.6224 4.38167 19.6593C4.36012 19.6968 4.30852 19.7264 4.22735 19.7481L3.73673 19.8793C3.65517 19.9011 3.59546 19.9013 3.55798 19.8795C3.52045 19.8584 3.4908 19.807 3.46895 19.7256L3.40294 19.4798Z" fill="url(#paint18_linear_148_3)"/>
<path d="M3.32899 19.1541L3.26328 18.87L4.18329 18.6581L4.24903 18.9421L3.32899 19.1541Z" fill="url(#paint19_linear_148_3)"/>
<path d="M3.2338 18.7613L3.11202 18.0722L3.27919 18.0428L3.31472 18.2438L4.07742 18.1096L4.12816 18.3967L3.36547 18.5309L3.40097 18.7318L3.2338 18.7613Z" fill="url(#paint20_linear_148_3)"/>
<path fill-rule="evenodd" clip-rule="evenodd" d="M3.07618 17.8342L4.04011 17.9367L4.00699 17.6675L3.77981 17.6541L3.75877 17.4831L3.97585 17.4145L3.94284 17.1461L3.03238 17.4782L3.07618 17.8342ZM3.60895 17.645L3.30531 17.6255L3.59523 17.5336L3.60895 17.645Z" fill="url(#paint21_linear_148_3)"/>
<path d="M3.00256 17.1649L2.98216 16.8741L3.69339 16.8245L3.67704 16.5911L3.90772 16.575L3.94448 17.0992L3.00256 17.1649Z" fill="url(#paint22_linear_148_3)"/>
<path d="M2.98158 15.6798C2.98452 15.596 3.00181 15.5392 3.03363 15.5098C3.06477 15.4806 3.10219 15.4668 3.14567 15.4683L3.34565 15.4753L3.33546 15.7667L3.16474 15.7607C3.15394 15.7604 3.14844 15.7652 3.14808 15.7756L3.14544 15.8507C3.14508 15.8611 3.15022 15.8663 3.16104 15.8667L3.73442 15.8867C3.74439 15.8871 3.74944 15.8822 3.7498 15.8718L3.75244 15.7967C3.7528 15.7863 3.74808 15.7811 3.73814 15.7807L3.56595 15.7747L3.57616 15.4833L3.77759 15.4904C3.8202 15.4918 3.85617 15.5081 3.88521 15.5394C3.91491 15.571 3.92816 15.6289 3.92524 15.7126L3.91633 15.967C3.91339 16.0512 3.89612 16.108 3.86431 16.137C3.83313 16.1666 3.77534 16.1798 3.69134 16.1769L3.18372 16.1592C3.09886 16.1563 3.04173 16.139 3.0127 16.1073C2.98302 16.0762 2.96973 16.0183 2.9727 15.9341L2.98158 15.6798Z" fill="url(#paint23_linear_148_3)"/>
<path d="M3.04434 14.6411L3.76831 14.7043C3.85201 14.7116 3.90778 14.7316 3.93515 14.7644C3.96316 14.7974 3.97335 14.8559 3.96602 14.9394L3.94378 15.193C3.93643 15.2769 3.91622 15.3327 3.88291 15.36C3.85023 15.388 3.79183 15.3982 3.7081 15.3908L2.98416 15.3276L3.00961 15.0372L3.76443 15.1031C3.77523 15.1041 3.78097 15.0993 3.78192 15.0885L3.78841 15.0143C3.78933 15.0039 3.7845 14.9984 3.7737 14.9975L3.01889 14.9316L3.04434 14.6411Z" fill="url(#paint24_linear_148_3)"/>
<path fill-rule="evenodd" clip-rule="evenodd" d="M3.12254 14.0365C3.13426 13.9535 3.15738 13.8988 3.19211 13.8729C3.22658 13.8471 3.28585 13.8402 3.36946 13.852L3.39656 13.8558C3.4697 13.866 3.51801 13.882 3.54171 13.9037C3.56467 13.9249 3.57697 13.9715 3.57861 14.0436C3.60029 13.9748 3.62538 13.9334 3.65372 13.9194C3.68254 13.9051 3.71299 13.9002 3.74494 13.9046L3.94201 13.9323C4.00844 13.9416 4.05788 13.9434 4.08999 13.9374L4.04933 14.2261C4.01385 14.2316 3.96144 14.2294 3.89212 14.2197L3.69378 14.1919C3.68726 14.191 3.68218 14.1937 3.67832 14.1997L3.66491 14.2949L4.03239 14.3465L3.99172 14.6351L3.05669 14.504L3.12254 14.0365ZM3.29623 14.1361C3.28549 14.1346 3.27955 14.1389 3.27811 14.1492L3.26545 14.2389L3.50796 14.2729L3.52059 14.1832C3.52203 14.1729 3.51748 14.1671 3.5074 14.1657L3.29623 14.1361Z" fill="url(#paint25_linear_148_3)"/>
<path fill-rule="evenodd" clip-rule="evenodd" d="M3.30018 13.1624C3.3205 13.0811 3.34925 13.0291 3.38648 13.0069C3.42348 12.9849 3.48314 12.9843 3.56506 13.0046L3.59162 13.0113C3.66327 13.0291 3.70966 13.05 3.73095 13.0741C3.75158 13.0975 3.7589 13.1452 3.75299 13.217C3.78175 13.1509 3.81106 13.1124 3.84068 13.1014C3.87086 13.0901 3.90167 13.0884 3.93299 13.0962L4.12608 13.1442C4.19115 13.1604 4.24015 13.1674 4.27271 13.1648L4.20203 13.4477C4.16617 13.4494 4.11426 13.4417 4.04633 13.4249L3.85201 13.3765C3.84563 13.3749 3.84027 13.3771 3.8358 13.3827L3.81248 13.476L4.17255 13.5656L4.10188 13.8484L3.18569 13.6205L3.30018 13.1624ZM3.46246 13.2796C3.45196 13.277 3.44558 13.2806 3.44305 13.2907L3.4211 13.3786L3.65869 13.4377L3.68065 13.3498C3.68318 13.3397 3.67926 13.3335 3.66938 13.3311L3.46246 13.2796Z" fill="url(#paint26_linear_148_3)"/>
<path d="M3.37774 12.8143L3.52289 12.3092L3.68606 12.3559L3.62144 12.5807L3.81131 12.6351L3.87594 12.4102L4.03667 12.4562L3.97204 12.681L4.20273 12.747L4.26735 12.5222L4.43052 12.5689L4.28537 13.074L3.37774 12.8143Z" fill="url(#paint27_linear_148_3)"/>
<path d="M4.68852 11.8153L3.79574 11.5086L3.70064 11.7842L4.10026 11.9215L3.65386 11.9197L3.56281 12.1836L4.45559 12.4903L4.55072 12.2147L4.15168 12.0776L4.5975 12.0791L4.68852 11.8153Z" fill="url(#paint28_linear_148_3)"/>
<path d="M4.01457 10.9382C4.04605 10.8605 4.08178 10.813 4.12172 10.7963C4.16103 10.7794 4.20089 10.7793 4.24123 10.7956L4.42675 10.8704L4.31729 11.1407L4.15892 11.0768C4.1489 11.0728 4.14207 11.0755 4.13819 11.0852L4.10995 11.1548C4.10607 11.1645 4.10907 11.1711 4.11911 11.1752L4.65107 11.3896C4.66032 11.3934 4.66676 11.3905 4.67064 11.3808L4.69885 11.3112C4.70276 11.3015 4.70013 11.295 4.69088 11.2913L4.53115 11.2269L4.64061 10.9566L4.82751 11.0319C4.86704 11.0478 4.89525 11.0754 4.91179 11.1148C4.92889 11.1545 4.92151 11.2135 4.89003 11.2912L4.79448 11.5271C4.76286 11.6053 4.72716 11.6528 4.68733 11.6691C4.64788 11.6863 4.58903 11.679 4.51114 11.6476L4.04017 11.4578C3.96147 11.426 3.91367 11.3903 3.89726 11.3506C3.88005 11.3112 3.88741 11.2523 3.91902 11.1742L4.01457 10.9382Z" fill="url(#paint29_linear_148_3)"/>
<path d="M4.73627 10.6497L4.15953 10.5974L4.28942 10.3536L4.60913 10.4165L4.37786 10.1876L4.50767 9.94403L4.87373 10.3917L5.23608 10.5839L5.09859 10.8419L4.73627 10.6497Z" fill="url(#paint30_linear_148_3)"/>
<path d="M14.4617 29.1568C14.3785 29.1451 14.3237 29.1221 14.2977 29.0874C14.2718 29.0535 14.262 29.0149 14.2681 28.9719L14.2959 28.7742L14.5853 28.8148L14.5615 28.9835C14.56 28.9942 14.5643 29.0002 14.5746 29.0016L14.6492 29.0121C14.6595 29.0135 14.6652 29.009 14.6668 28.9983L14.7466 28.4314C14.748 28.4215 14.7436 28.416 14.7333 28.4146L14.6587 28.4041C14.6484 28.4027 14.6427 28.4068 14.6413 28.4166L14.6174 28.5869L14.328 28.5463L14.3561 28.3471C14.362 28.305 14.382 28.271 14.4163 28.2455C14.4508 28.2193 14.5099 28.2122 14.5931 28.2239L14.8457 28.2593C14.9293 28.271 14.9841 28.2941 15.0096 28.3287C15.0359 28.3627 15.0431 28.4214 15.0314 28.5045L14.9607 29.0064C14.9489 29.0902 14.9257 29.1451 14.891 29.1706C14.8569 29.1968 14.7978 29.204 14.7142 29.1922L14.4617 29.1568Z" fill="url(#paint31_linear_148_3)"/>
<path fill-rule="evenodd" clip-rule="evenodd" d="M13.6418 29.0331C13.5593 29.0171 13.5058 28.9912 13.4817 28.9552C13.4576 28.92 13.4539 28.8606 13.47 28.7774L13.567 28.2799C13.583 28.1976 13.6087 28.1444 13.6443 28.1206C13.6802 28.0963 13.7395 28.0923 13.822 28.1083L14.0724 28.1569C14.1552 28.1729 14.2088 28.1988 14.2325 28.2347C14.2569 28.2701 14.261 28.3291 14.245 28.4114L14.148 28.9089C14.1318 28.9921 14.1058 29.0457 14.0699 29.0693C14.0344 29.0937 13.9751 29.0977 13.8922 29.0817L13.6418 29.0331ZM13.7504 28.8665C13.7485 28.8763 13.7525 28.882 13.7627 28.884L13.8367 28.8984C13.8469 28.9003 13.8528 28.8965 13.8547 28.8868L13.9642 28.3248C13.9663 28.3142 13.9623 28.308 13.9521 28.3061L13.8781 28.2917C13.8679 28.2898 13.8619 28.294 13.8599 28.3046L13.7504 28.8665Z" fill="url(#paint32_linear_148_3)"/>
<path d="M13.3116 28.9625L13.0269 28.8969L13.2393 27.9789L13.524 28.0445L13.3116 28.9625Z" fill="url(#paint33_linear_148_3)"/>
<path d="M5.81168 9.13366L5.86456 9.06103C5.87092 9.05231 5.86983 9.04475 5.86112 9.03841L5.29737 8.62971L5.4691 8.39388L6.10735 8.85656C6.14182 8.88157 6.16225 8.91548 6.16867 8.9578C6.1755 9.00068 6.15418 9.05588 6.10465 9.12388L5.99878 9.2693L5.81168 9.13366Z" fill="url(#paint34_linear_148_3)"/>
<path d="M6.04172 7.65073C6.0946 7.58558 6.14268 7.5506 6.18582 7.54622C6.22832 7.5416 6.26649 7.55309 6.3003 7.58041L6.45579 7.70604L6.27191 7.93262L6.13916 7.82537C6.13075 7.81859 6.12345 7.8192 6.1169 7.82726L6.06948 7.88567C6.06293 7.89373 6.06387 7.90102 6.07229 7.9078L6.51816 8.26808C6.52591 8.27434 6.5329 8.27345 6.53945 8.26539L6.58684 8.20697C6.59339 8.19891 6.59278 8.19191 6.58504 8.18565L6.45115 8.07748L6.63506 7.85088L6.79171 7.97747C6.82482 8.00422 6.8437 8.03885 6.84803 8.08128C6.85272 8.12432 6.8284 8.17847 6.77552 8.24365L6.61502 8.44142C6.56186 8.5069 6.51383 8.54191 6.47094 8.54592C6.42816 8.55088 6.37403 8.52673 6.30872 8.47396L5.91397 8.15501C5.84799 8.10172 5.81276 8.05364 5.80874 8.01084C5.80377 7.96819 5.82806 7.91401 5.88122 7.8485L6.04172 7.65073Z" fill="url(#paint35_linear_148_3)"/>
<path fill-rule="evenodd" clip-rule="evenodd" d="M6.61487 7.02195C6.67325 6.96162 6.72419 6.93095 6.76755 6.93035C6.8103 6.92943 6.86227 6.95863 6.92334 7.01746L7.28874 7.36954C7.34917 7.42779 7.37993 7.47831 7.38052 7.52096C7.38143 7.56423 7.35248 7.61608 7.2941 7.67641L7.11691 7.85947C7.05825 7.92007 7.00734 7.95076 6.96429 7.95104C6.92123 7.95226 6.86941 7.92351 6.80897 7.86526L6.44357 7.51318C6.3825 7.45435 6.3516 7.40338 6.35132 7.36042C6.3501 7.31749 6.37906 7.26561 6.43771 7.20501L6.61487 7.02195ZM6.69579 7.20351C6.6886 7.19659 6.68158 7.19686 6.67434 7.20434L6.62204 7.25838C6.61479 7.26586 6.61479 7.2729 6.62195 7.27979L7.03466 7.67746C7.04246 7.68497 7.04978 7.68499 7.05703 7.67754L7.10933 7.62348C7.11658 7.616 7.11627 7.60869 7.1085 7.60118L6.69579 7.20351Z" fill="url(#paint36_linear_148_3)"/>
<path d="M6.87154 6.76967L7.08521 6.57085L7.72918 7.25988L7.51548 7.4587L6.87154 6.76967Z" fill="url(#paint37_linear_148_3)"/>
<path d="M8.32967 6.72208L7.72276 6.00034L7.49894 6.18775L7.77062 6.5108L7.3889 6.27987L7.17468 6.45925L7.78159 7.18096L8.00541 6.99355L7.73415 6.67098L8.11545 6.90143L8.32967 6.72208Z" fill="url(#paint38_linear_148_3)"/>
<path fill-rule="evenodd" clip-rule="evenodd" d="M9.6019 5.78526C9.62078 5.76626 9.63424 5.73864 9.64232 5.70239C9.65834 5.63051 9.63949 5.55162 9.58597 5.46617L9.38202 5.14049C9.32847 5.05502 9.2657 5.00355 9.19392 4.98638C9.15772 4.97774 9.12693 4.97771 9.10153 4.9863L8.64808 5.26901L9.14845 6.06801L9.6019 5.78526ZM9.38821 5.70056C9.3937 5.70937 9.39209 5.71635 9.38326 5.72186L9.30626 5.76986L8.9858 5.25818L9.06281 5.21015C9.07163 5.20464 9.07866 5.2063 9.08416 5.21509L9.38821 5.70056Z" fill="url(#paint39_linear_148_3)"/>
<path d="M9.35489 4.82675L9.81551 4.57201L9.89779 4.72014L9.69273 4.83356L9.7885 5.00593L9.99356 4.89254L10.0746 5.03845L9.86956 5.15185L9.9859 5.36128L10.191 5.24788L10.2733 5.39601L9.81268 5.65076L9.35489 4.82675Z" fill="url(#paint40_linear_148_3)"/>
<path d="M10.3308 4.29347C10.4057 4.25538 10.4638 4.24295 10.505 4.25646C10.5457 4.26948 10.5759 4.29549 10.5957 4.33416L10.6865 4.51204L10.4262 4.64441L10.3486 4.49257C10.3437 4.48293 10.3368 4.48052 10.3275 4.48523L10.2604 4.51935C10.2511 4.52406 10.249 4.53107 10.2539 4.54071L10.5144 5.05078C10.5189 5.05964 10.5257 5.06169 10.5349 5.05698L10.602 5.02286C10.6113 5.01815 10.6136 5.0115 10.6091 5.00264L10.5309 4.84946L10.7912 4.71712L10.8827 4.8963C10.9021 4.93422 10.9052 4.9735 10.8919 5.01402C10.8786 5.05524 10.8343 5.09485 10.7595 5.1329L10.5322 5.24846C10.457 5.28671 10.3988 5.29918 10.358 5.28544C10.3169 5.27262 10.2773 5.2286 10.2391 5.1539L10.0085 4.7023C9.96999 4.62682 9.95739 4.5686 9.97116 4.52788C9.98401 4.48689 10.0283 4.44725 10.1035 4.409L10.3308 4.29347Z" fill="url(#paint41_linear_148_3)"/>
<path d="M10.6561 4.14561L11.1372 3.93189L11.2062 4.08662L10.992 4.18179L11.0724 4.36186L11.2866 4.26668L11.3546 4.41911L11.1404 4.51425L11.238 4.73299L11.4522 4.63785L11.5212 4.79257L11.0401 5.00632L10.6561 4.14561Z" fill="url(#paint42_linear_148_3)"/>
<path d="M12.2716 4.51124L11.9332 3.63167L11.6605 3.73615L11.812 4.12988L11.5264 3.7875L11.2653 3.88752L11.6037 4.76706L11.8764 4.66261L11.7252 4.26946L12.0106 4.61123L12.2716 4.51124Z" fill="url(#paint43_linear_148_3)"/>
<path d="M12.0883 3.5756L12.7656 3.39451L12.8096 3.5581L12.612 3.61092L12.8124 4.35737L12.5302 4.43282L12.3298 3.68637L12.1322 3.73919L12.0883 3.5756Z" fill="url(#paint44_linear_148_3)"/>
<path fill-rule="evenodd" clip-rule="evenodd" d="M13.3239 3.25848C13.4061 3.24103 13.4655 3.24405 13.5018 3.26774C13.5378 3.29125 13.5645 3.34446 13.5821 3.42686L13.5878 3.45359C13.6032 3.52567 13.6046 3.57644 13.5923 3.6061C13.5802 3.63485 13.5405 3.66233 13.4732 3.6885C13.5454 3.68529 13.5929 3.69471 13.6158 3.71648C13.6392 3.73858 13.6542 3.76545 13.6609 3.79695L13.7023 3.99117C13.7162 4.05662 13.7315 4.10362 13.7481 4.13171L13.4623 4.19232C13.445 4.16093 13.4291 4.11102 13.4146 4.04269L13.3729 3.84722C13.3716 3.84079 13.3673 3.83694 13.3602 3.83542L13.266 3.85539L13.3432 4.21758L13.0574 4.27818L12.8611 3.35662L13.3239 3.25848ZM13.2894 3.45539C13.2872 3.44481 13.2811 3.44071 13.271 3.44287L13.1821 3.46171L13.233 3.70069L13.3219 3.68186C13.3321 3.6797 13.3359 3.67347 13.3338 3.66352L13.2894 3.45539Z" fill="url(#paint45_linear_148_3)"/>
<path fill-rule="evenodd" clip-rule="evenodd" d="M13.8534 3.14245L13.8013 4.10828L14.0689 4.06119L14.0704 3.83415L14.2405 3.8042L14.3205 4.01693L14.5874 3.96998L14.2073 3.08016L13.8534 3.14245ZM14.0706 3.66341L14.0743 3.35983L14.1813 3.64391L14.0706 3.66341Z" fill="url(#paint46_linear_148_3)"/>
<path d="M14.5211 3.04194L14.8111 3.0064L14.898 3.71247L15.1307 3.68396L15.1589 3.913L14.6362 3.97704L14.5211 3.04194Z" fill="url(#paint47_linear_148_3)"/>
<path d="M15.1623 2.98867L15.4538 2.96832L15.5197 3.90818L15.2282 3.92851L15.1623 2.98867Z" fill="url(#paint48_linear_148_3)"/>
<path d="M15.578 2.95089L15.5821 3.1827L15.8492 3.17805L15.5794 3.89314L16.2314 3.88179L16.2273 3.65108L15.9857 3.6553L16.2355 2.93945L15.578 2.95089Z" fill="url(#paint49_linear_148_3)"/>
<path d="M16.3275 2.95219L16.8541 2.96136L16.8511 3.13071L16.6167 3.12661L16.6132 3.32369L16.8477 3.32779L16.8447 3.49459L16.6103 3.49049L16.6061 3.72991L16.8406 3.73399L16.8376 3.90334L16.3111 3.89417L16.3275 2.95219Z" fill="url(#paint50_linear_148_3)"/>
<path fill-rule="evenodd" clip-rule="evenodd" d="M17.458 3.94635C17.4844 3.94203 17.5116 3.9276 17.5395 3.903C17.5948 3.85425 17.626 3.77938 17.6331 3.67884L17.6599 3.29574C17.6669 3.19519 17.6465 3.11675 17.5985 3.06074C17.5743 3.03255 17.5494 3.01446 17.5238 3.00651L16.9904 2.96928L16.9246 3.90913L17.458 3.94635ZM17.335 3.75249C17.3343 3.76285 17.3288 3.76756 17.3185 3.76684L17.2279 3.76049L17.2701 3.15858L17.3606 3.16492C17.371 3.16564 17.3757 3.17107 17.375 3.1814L17.335 3.75249Z" fill="url(#paint51_linear_148_3)"/>
<path fill-rule="evenodd" clip-rule="evenodd" d="M18.5382 4.12063C18.565 4.11911 18.5935 4.10758 18.6238 4.08601C18.684 4.0433 18.7228 3.97208 18.7404 3.87287L18.8072 3.49464C18.8247 3.39537 18.8126 3.31524 18.7708 3.25455C18.7497 3.22397 18.7268 3.20339 18.7022 3.19281L18.1756 3.10016L18.0116 4.02798L18.5382 4.12063ZM18.4362 3.915C18.4344 3.92522 18.4285 3.92934 18.4183 3.92754L18.3289 3.91181L18.4339 3.31759L18.5233 3.33333C18.5335 3.33513 18.5377 3.34102 18.5359 3.35122L18.4362 3.915Z" fill="url(#paint52_linear_148_3)"/>
<path d="M18.9726 3.24765L19.2584 3.30826L19.0621 4.22982L18.7763 4.16921L18.9726 3.24765Z" fill="url(#paint53_linear_148_3)"/>
<path d="M19.8436 3.45977C19.9248 3.48149 19.9763 3.51107 19.9979 3.5486C20.0193 3.58588 20.0189 3.64541 19.9971 3.72678L19.9594 3.86708L19.6771 3.7916L19.7227 3.62189C19.7255 3.61167 19.722 3.60502 19.712 3.60233L19.6392 3.58289C19.6291 3.5802 19.6228 3.58422 19.6201 3.59444L19.4715 4.14761C19.469 4.157 19.4726 4.16323 19.4826 4.16592L19.5554 4.18536C19.5654 4.18808 19.5717 4.18445 19.5742 4.17506L19.6223 3.9959L19.5713 3.98228L19.5986 3.88043L19.9319 3.96953L19.8093 4.42598L19.7277 4.40415L19.7231 4.31109C19.6999 4.36366 19.6392 4.37787 19.5408 4.35419L19.3529 4.30394C19.2713 4.28214 19.2197 4.25275 19.1984 4.21575C19.1766 4.17835 19.1767 4.11897 19.1985 4.03801L19.3299 3.54843C19.3518 3.46705 19.3815 3.41537 19.4191 3.39385C19.4562 3.37199 19.5157 3.3721 19.5972 3.3939L19.8436 3.45977Z" fill="url(#paint54_linear_148_3)"/>
<path d="M20.1855 3.56973L20.4633 3.65981L20.1716 4.55586L19.8937 4.46576L20.1855 3.56973Z" fill="url(#paint55_linear_148_3)"/>
<path d="M20.5746 3.69377L21.2292 3.94452L21.1684 4.10265L20.9775 4.0295L20.6999 4.75094L20.4272 4.64649L20.7047 3.92505L20.5137 3.8519L20.5746 3.69377Z" fill="url(#paint56_linear_148_3)"/>
<path fill-rule="evenodd" clip-rule="evenodd" d="M21.4467 4.03887L20.8622 4.81052L21.1105 4.92084L21.239 4.73341L21.3967 4.80348L21.3439 5.02452L21.5914 5.13448L21.775 4.18475L21.4467 4.03887ZM21.3348 4.59198L21.508 4.34236L21.4375 4.63763L21.3348 4.59198Z" fill="url(#paint57_linear_148_3)"/>
<path d="M22.0581 4.33125L22.3184 4.4636L21.9948 5.09745L22.2037 5.20365L22.0987 5.40925L21.6294 5.17068L22.0581 4.33125Z" fill="url(#paint58_linear_148_3)"/>
<path d="M23.3419 5.05709C23.4131 5.10152 23.4538 5.14487 23.4634 5.18705C23.4732 5.2286 23.4664 5.2678 23.4433 5.30461L23.3373 5.47393L23.0895 5.31943L23.18 5.1749C23.1858 5.16573 23.1843 5.15855 23.1754 5.15304L23.1116 5.11324C23.1027 5.10773 23.0956 5.10953 23.0899 5.1187L22.7859 5.60417C22.7806 5.61262 22.7823 5.61943 22.7911 5.62494L22.855 5.66475C22.8638 5.67026 22.8707 5.66882 22.876 5.66037L22.9673 5.51459L23.2151 5.66909L23.1083 5.83966C23.0857 5.87575 23.0536 5.89866 23.0119 5.90811C22.9696 5.91799 22.9128 5.90052 22.8415 5.85609L22.6252 5.72122C22.5536 5.67657 22.5129 5.63325 22.5037 5.59129C22.4936 5.54952 22.511 5.49296 22.5555 5.42186L22.8247 4.99203C22.8697 4.92021 22.9132 4.87944 22.9553 4.87024C22.9971 4.86013 23.054 4.87758 23.1256 4.92223L23.3419 5.05709Z" fill="url(#paint59_linear_148_3)"/>
<path d="M24.1967 5.65051L23.7798 6.24448C23.7316 6.31317 23.6864 6.35137 23.6443 6.35862C23.6016 6.3663 23.5458 6.34588 23.4769 6.29777L23.268 6.1518C23.1988 6.10349 23.1605 6.05809 23.1535 6.01569C23.1455 5.97347 23.1659 5.91788 23.2141 5.84922L23.6309 5.25522L23.8702 5.42244L23.4356 6.04175C23.4294 6.05059 23.4307 6.05796 23.4396 6.06416L23.5008 6.1069C23.5093 6.11285 23.5165 6.11141 23.5227 6.10258L23.9573 5.48326L24.1967 5.65051Z" fill="url(#paint60_linear_148_3)"/>
<path fill-rule="evenodd" clip-rule="evenodd" d="M24.694 6.05632C24.7584 6.11022 24.7926 6.15878 24.7962 6.2019C24.7998 6.24473 24.7743 6.29849 24.72 6.36305L24.7024 6.38397C24.6549 6.44041 24.6157 6.47282 24.5847 6.48138C24.5545 6.48958 24.5084 6.47529 24.4463 6.43848C24.4933 6.49326 24.5151 6.53645 24.512 6.56783C24.5089 6.59982 24.497 6.62821 24.4763 6.65286L24.3483 6.80498C24.3052 6.85625 24.2775 6.89714 24.2655 6.92747L24.0417 6.74006C24.0558 6.70715 24.0855 6.66397 24.1305 6.61046L24.2592 6.45737C24.2635 6.45232 24.2639 6.44659 24.2607 6.44011L24.1869 6.37831L23.9484 6.66198L23.7246 6.47457L24.3315 5.75285L24.694 6.05632ZM24.5173 6.1505C24.5243 6.14221 24.5238 6.1349 24.5158 6.12822L24.4462 6.07L24.2888 6.25716L24.3584 6.31541C24.3664 6.32209 24.3737 6.32129 24.3802 6.3135L24.5173 6.1505Z" fill="url(#paint61_linear_148_3)"/>
<path fill-rule="evenodd" clip-rule="evenodd" d="M25.3152 6.63004C25.3767 6.68721 25.4083 6.73751 25.4097 6.78075C25.411 6.82371 25.3827 6.87609 25.3251 6.93769L25.3064 6.95766C25.2561 7.01156 25.2152 7.04189 25.1838 7.04881C25.1533 7.05541 25.108 7.03873 25.0479 6.99874C25.0919 7.05591 25.1115 7.10017 25.1067 7.13133C25.102 7.16313 25.0885 7.19085 25.0665 7.2144L24.9308 7.35962C24.885 7.40856 24.8552 7.44792 24.8417 7.47762L24.628 7.2788C24.6438 7.24664 24.6757 7.20506 24.7235 7.15399L24.8601 7.00782C24.8645 7.003 24.8653 6.99729 24.8625 6.99067L24.792 6.92511L24.5389 7.19592L24.3252 6.9971L24.9692 6.30804L25.3152 6.63004ZM25.1339 6.71485C25.1412 6.70696 25.1411 6.69962 25.1335 6.69256L25.0671 6.63076L24.9001 6.80944L24.9665 6.87124C24.9741 6.87833 24.9815 6.87791 24.9884 6.87046L25.1339 6.71485Z" fill="url(#paint62_linear_148_3)"/>
<path d="M25.5796 6.89049L25.9454 7.26849L25.8233 7.38615L25.6604 7.21786L25.5183 7.35477L25.6812 7.52307L25.5609 7.63896L25.398 7.47066L25.2254 7.63699L25.3883 7.80529L25.2662 7.92295L24.9004 7.54495L25.5796 6.89049Z" fill="url(#paint63_linear_148_3)"/>
<path d="M25.7907 8.52989L26.5034 7.91176L26.3117 7.69175L25.9927 7.96843L26.2174 7.58356L26.034 7.37297L25.3214 7.99109L25.513 8.2111L25.8315 7.93484L25.6073 8.31929L25.7907 8.52989Z" fill="url(#paint64_linear_148_3)"/>
<path d="M26.8828 8.41865C26.9322 8.48648 26.9536 8.54188 26.9467 8.58459C26.9401 8.62675 26.9191 8.66057 26.8839 8.68608L26.722 8.80344L26.5503 8.56755L26.6885 8.46737C26.6972 8.46103 26.6985 8.45382 26.6924 8.4454L26.6481 8.38461C26.642 8.37621 26.6348 8.37522 26.626 8.38159L26.1618 8.71807C26.1538 8.72391 26.1528 8.73087 26.1589 8.73929L26.2032 8.80008C26.2093 8.80847 26.2163 8.80972 26.2243 8.80388L26.3637 8.70283L26.5354 8.93872L26.3724 9.05691C26.3379 9.08192 26.2995 9.09117 26.2573 9.08433C26.2144 9.07774 26.1683 9.04026 26.1189 8.97242L25.969 8.76654C25.9193 8.69838 25.8979 8.64301 25.9051 8.60066C25.9114 8.55814 25.9487 8.51221 26.0167 8.46291L26.4277 8.16501C26.4963 8.11524 26.552 8.09372 26.5945 8.10089C26.637 8.10718 26.6832 8.1446 26.7328 8.21276L26.8828 8.41865Z" fill="url(#paint65_linear_148_3)"/>
<path d="M26.7443 9.16047L27.0698 8.68253L27.2205 8.91407L27.0103 9.16258L27.3231 9.07173L27.4737 9.30309L26.9038 9.40552L26.5596 9.62855L26.4002 9.3835L26.7443 9.16047Z" fill="url(#paint66_linear_148_3)"/>
<path d="M27.3588 10.5778L27.3968 10.6592C27.4014 10.669 27.4085 10.6717 27.4183 10.6672L28.0498 10.3733L28.1733 10.6375L27.4583 10.9702C27.4197 10.9882 27.3801 10.9896 27.3399 10.9746C27.2989 10.9598 27.2609 10.9144 27.2253 10.8383L27.1492 10.6754L27.3588 10.5778Z" fill="url(#paint67_linear_148_3)"/>
<path d="M28.5318 11.5004C28.5633 11.5782 28.5706 11.6371 28.5535 11.6769C28.537 11.7162 28.5084 11.7439 28.4681 11.7602L28.2826 11.835L28.1731 11.5647L28.3315 11.5008C28.3415 11.4968 28.3445 11.4901 28.3406 11.4805L28.3124 11.4108C28.3085 11.4011 28.3017 11.3984 28.2917 11.4025L27.7597 11.6169C27.7505 11.6207 27.7478 11.6272 27.7517 11.6368L27.7799 11.7065C27.7838 11.7161 27.7903 11.719 27.7995 11.7153L27.9592 11.6509L28.0687 11.9212L27.8818 11.9965C27.8423 12.0125 27.8028 12.0122 27.7635 11.9954C27.7235 11.9786 27.6878 11.9311 27.6563 11.8534L27.5608 11.6174C27.5292 11.5393 27.5218 11.4804 27.539 11.441C27.5554 11.4013 27.6028 11.3658 27.6807 11.3343L28.1517 11.1445C28.2304 11.1128 28.2896 11.1053 28.3291 11.1225C28.3689 11.1389 28.4046 11.1863 28.4363 11.2645L28.5318 11.5004Z" fill="url(#paint68_linear_148_3)"/>
<path fill-rule="evenodd" clip-rule="evenodd" d="M28.8049 12.2802C28.8323 12.3594 28.8365 12.4187 28.8174 12.4575C28.7988 12.4959 28.7491 12.5288 28.6689 12.5564L28.1886 12.7214C28.1091 12.7487 28.05 12.7531 28.0117 12.7343C27.9726 12.7154 27.9395 12.6662 27.9121 12.5869L27.8291 12.3463C27.8016 12.2666 27.7973 12.2074 27.8166 12.169C27.8351 12.1301 27.8843 12.0971 27.9637 12.0698L28.444 11.9048C28.5243 11.8773 28.5838 11.8729 28.6223 11.8922C28.6612 11.9106 28.6944 11.9599 28.7219 12.0395L28.8049 12.2802ZM28.606 12.2697C28.6155 12.2664 28.6184 12.2601 28.615 12.2502L28.5905 12.1792C28.5871 12.1693 28.5808 12.1661 28.5714 12.1694L28.0289 12.3558C28.0187 12.3593 28.0153 12.3658 28.0187 12.3756L28.0433 12.4467C28.0467 12.4565 28.0533 12.4596 28.0636 12.4561L28.606 12.2697Z" fill="url(#paint69_linear_148_3)"/>
<path d="M28.8937 12.6183L28.9743 12.8985L28.0666 13.1582L27.9861 12.8779L28.8937 12.6183Z" fill="url(#paint70_linear_148_3)"/>
<path d="M28.2441 13.9394L29.1603 13.7115L29.0896 13.4286L28.6795 13.5306L29.0548 13.2895L28.9872 13.0188L28.071 13.2467L28.1417 13.5296L28.5512 13.4277L28.1764 13.6687L28.2441 13.9394Z" fill="url(#paint71_linear_148_3)"/>
<path fill-rule="evenodd" clip-rule="evenodd" d="M28.3876 15.2021C28.396 15.2275 28.4145 15.252 28.4432 15.2756C28.5002 15.3225 28.5792 15.3415 28.6798 15.3327L29.0632 15.2993C29.1638 15.2905 29.2383 15.2581 29.2862 15.202C29.3103 15.1738 29.3244 15.1464 29.3282 15.1199L29.2816 14.5885L28.341 14.6706L28.3876 15.2021ZM28.5602 15.0505C28.5499 15.0514 28.5444 15.0468 28.5435 15.0365L28.5356 14.9462L29.138 14.8936L29.1459 14.9839C29.1468 14.9942 29.1421 14.9997 29.1318 15.0006L28.5602 15.0505Z" fill="url(#paint72_linear_148_3)"/>
<path d="M29.3471 15.4127L29.3654 15.9378L29.1958 15.9438L29.1876 15.71L28.9902 15.7168L28.9984 15.9506L28.8313 15.9565L28.8231 15.7227L28.5832 15.731L28.5914 15.9648L28.4218 15.9707L28.4034 15.4456L29.3471 15.4127Z" fill="url(#paint73_linear_148_3)"/>
<path d="M29.3522 16.5438C29.3507 16.6277 29.3345 16.6847 29.3032 16.7147C29.2725 16.7445 29.2354 16.7588 29.1919 16.7581L28.9918 16.7546L28.9969 16.4631L29.1677 16.4661C29.1785 16.4663 29.1839 16.4613 29.1841 16.4509L29.1854 16.3758C29.1856 16.3654 29.1804 16.3602 29.1695 16.36L28.5959 16.35C28.5859 16.3499 28.5809 16.3549 28.5807 16.3652L28.5794 16.4404C28.5793 16.4507 28.5841 16.4559 28.594 16.4561L28.7663 16.4591L28.7612 16.7506L28.5597 16.7471C28.517 16.7463 28.4808 16.7307 28.4512 16.6999C28.4209 16.6688 28.4067 16.6112 28.4081 16.5274L28.4126 16.2729C28.4141 16.1887 28.4303 16.1316 28.4616 16.1021C28.4923 16.0719 28.5499 16.0577 28.6339 16.0591L29.1417 16.068C29.2266 16.0694 29.284 16.0857 29.3136 16.1169C29.3439 16.1475 29.3581 16.2051 29.3567 16.2894L29.3522 16.5438Z" fill="url(#paint74_linear_148_3)"/>
<path d="M29.3444 16.8958L29.3076 17.42L29.1383 17.4082L29.1547 17.1748L28.9576 17.1611L28.9412 17.3945L28.7744 17.3828L28.7908 17.1494L28.5514 17.1327L28.535 17.3661L28.3657 17.3543L28.4025 16.8301L29.3444 16.8958Z" fill="url(#paint75_linear_148_3)"/>
<path d="M28.2646 18.1482L29.2018 18.263L29.2374 17.9737L28.8179 17.9223L29.2549 17.8314L29.289 17.5544L28.3518 17.4396L28.3162 17.729L28.7351 17.7803L28.2987 17.8712L28.2646 18.1482Z" fill="url(#paint76_linear_148_3)"/>
<path d="M29.1696 18.3661L29.0478 19.0551L28.8807 19.0257L28.9162 18.8248L28.1535 18.6906L28.2042 18.4035L28.9669 18.5376L29.0024 18.3367L29.1696 18.3661Z" fill="url(#paint77_linear_148_3)"/>
<path fill-rule="evenodd" clip-rule="evenodd" d="M28.8812 19.65C28.8595 19.731 28.8298 19.7824 28.7922 19.804C28.7549 19.8253 28.6952 19.8249 28.6136 19.8031L28.5872 19.796C28.5159 19.777 28.4698 19.7552 28.449 19.7308C28.4288 19.707 28.4223 19.6592 28.4295 19.5875C28.3995 19.6531 28.3696 19.6911 28.3397 19.7016C28.3094 19.7123 28.2785 19.7135 28.2474 19.7052L28.0551 19.6538C27.9904 19.6365 27.9415 19.6287 27.9089 19.6307L27.9845 19.3491C28.0204 19.348 28.0722 19.3565 28.1398 19.3746L28.3332 19.4263C28.3396 19.428 28.345 19.426 28.3496 19.4204L28.3745 19.3275L28.016 19.2317L28.0916 18.9501L29.0037 19.194L28.8812 19.65ZM28.721 19.53C28.7315 19.5328 28.7379 19.5293 28.7406 19.5192L28.7641 19.4317L28.5276 19.3685L28.5041 19.456C28.5014 19.466 28.5052 19.4723 28.515 19.4749L28.721 19.53Z" fill="url(#paint78_linear_148_3)"/>
<path fill-rule="evenodd" clip-rule="evenodd" d="M28.7186 20.1755L27.8884 19.6762L27.8044 19.9341L28.0046 20.042L27.9513 20.2059L27.7254 20.1766L27.6417 20.4337L28.6075 20.5166L28.7186 20.1755ZM28.1556 20.1223L28.4225 20.2681L28.1209 20.2291L28.1556 20.1223Z" fill="url(#paint79_linear_148_3)"/>
<path d="M28.4846 20.8107L28.3799 21.0828L27.7143 20.8279L27.6303 21.0463L27.4144 20.9636L27.6031 20.4731L28.4846 20.8107Z" fill="url(#paint80_linear_148_3)"/>
<path d="M28.2533 21.4143L28.1345 21.6806L27.2719 21.2974L27.3907 21.0311L28.2533 21.4143Z" fill="url(#paint81_linear_148_3)"/>
<path d="M28.0804 21.7893L27.8733 21.6841L27.752 21.9215L27.2459 21.3482L26.9499 21.9279L27.1559 22.0326L27.2656 21.8178L27.7818 22.3739L28.0804 21.7893Z" fill="url(#paint82_linear_148_3)"/>
<path d="M27.7301 22.4516L27.4747 22.9112L27.3263 22.8291L27.4399 22.6245L27.2672 22.5289L27.1535 22.7335L27.0072 22.6526L27.1209 22.448L26.911 22.3319L26.7974 22.5365L26.6489 22.4544L26.9042 21.9948L27.7301 22.4516Z" fill="url(#paint83_linear_148_3)"/>
<path fill-rule="evenodd" clip-rule="evenodd" d="M26.3159 22.9669C26.3073 22.9923 26.3073 23.023 26.316 23.0591C26.3332 23.1307 26.3848 23.1934 26.4704 23.2468L26.7968 23.4503C26.8825 23.5037 26.9615 23.5225 27.0336 23.5065C27.0699 23.4985 27.0976 23.485 27.1166 23.4662L27.4 23.0138L26.5993 22.5145L26.3159 22.9669ZM26.5452 22.9496C26.5364 22.9441 26.5347 22.9371 26.5403 22.9283L26.5884 22.8515L27.1012 23.1712L27.0531 23.2481C27.0476 23.2569 27.0406 23.2584 27.0318 23.253L26.5452 22.9496Z" fill="url(#paint84_linear_148_3)"/>
<path fill-rule="evenodd" clip-rule="evenodd" d="M25.648 23.8469C25.6368 23.8712 25.6336 23.9018 25.6385 23.9386C25.6481 24.0116 25.6928 24.0793 25.7724 24.1413L26.0757 24.3778C26.1553 24.4398 26.2319 24.4668 26.3053 24.4584C26.3422 24.4542 26.3712 24.4437 26.3921 24.427L26.7213 24.0065L25.9772 23.4265L25.648 23.8469ZM25.8779 23.8536C25.8697 23.8472 25.8688 23.8401 25.8752 23.8319L25.9311 23.7605L26.4076 24.132L26.3517 24.2034C26.3453 24.2116 26.3382 24.2124 26.33 24.206L25.8779 23.8536Z" fill="url(#paint85_linear_148_3)"/>
<path d="M26.2167 24.6409L26.0289 24.8642L25.3055 24.2586L25.4933 24.0353L26.2167 24.6409Z" fill="url(#paint86_linear_148_3)"/>
<path d="M25.6021 25.3011C25.5448 25.3624 25.4944 25.3939 25.4511 25.3953C25.408 25.3966 25.3555 25.3684 25.2938 25.3109L25.1873 25.2119L25.3866 24.9986L25.5154 25.1185C25.5232 25.1257 25.5307 25.1258 25.5378 25.1182L25.5891 25.0632C25.5962 25.0556 25.5956 25.0481 25.5879 25.0409L25.1681 24.6503C25.161 24.6437 25.1538 24.6439 25.1467 24.6515L25.0953 24.7065C25.0883 24.7141 25.0885 24.7213 25.0956 24.7279L25.2316 24.8544L25.2676 24.8158L25.3449 24.8877L25.1096 25.1395L24.7632 24.8172L24.8208 24.7556L24.9054 24.7952C24.8697 24.7502 24.8856 24.69 24.9528 24.6144L25.0855 24.4724C25.1431 24.4108 25.1933 24.3791 25.236 24.3778C25.2794 24.3761 25.3319 24.4041 25.3933 24.4612L25.7648 24.8069C25.8266 24.8644 25.8584 24.9148 25.8597 24.958C25.8617 25.001 25.8337 25.0533 25.7761 25.115L25.6021 25.3011Z" fill="url(#paint87_linear_148_3)"/>
<path d="M25.3549 25.5483L25.1447 25.7508L24.4888 25.0731L24.699 24.8706L25.3549 25.5483Z" fill="url(#paint88_linear_148_3)"/>
<path d="M25.0655 25.8305L24.5363 26.2895L24.4249 26.1617L24.5793 26.0278L24.0712 25.4446L24.2917 25.2533L24.7998 25.8365L24.9541 25.7026L25.0655 25.8305Z" fill="url(#paint89_linear_148_3)"/>
<path fill-rule="evenodd" clip-rule="evenodd" d="M24.3584 26.4256L23.9346 25.5557L23.7234 25.7263L23.8325 25.9256L23.6983 26.0341L23.5249 25.8867L23.3143 26.0569L24.0791 26.6513L24.3584 26.4256ZM23.9153 26.075L24.0595 26.3423L23.8279 26.1457L23.9153 26.075Z" fill="url(#paint90_linear_148_3)"/>
<path d="M23.8057 26.8349L23.5694 27.0063L23.1503 26.4307L22.9606 26.5683L22.8247 26.3816L23.2507 26.0727L23.8057 26.8349Z" fill="url(#paint91_linear_148_3)"/>
<path d="M22.5574 27.629C22.4846 27.6709 22.4272 27.6864 22.3853 27.675C22.344 27.6642 22.3124 27.6398 22.2907 27.6022L22.1907 27.4293L22.4437 27.2835L22.5291 27.4311C22.5345 27.4404 22.5416 27.4425 22.5506 27.4373L22.6158 27.3997C22.6248 27.3945 22.6266 27.3874 22.6212 27.3781L22.3343 26.8823C22.3293 26.8737 22.3225 26.872 22.3134 26.8772L22.2482 26.9148C22.2392 26.92 22.2373 26.9267 22.2422 26.9353L22.3284 27.0842L22.0753 27.23L21.9746 27.0558C21.9532 27.0189 21.948 26.9799 21.9593 26.9387C21.9703 26.8969 22.0125 26.855 22.0853 26.8131L22.3062 26.6858C22.3793 26.6437 22.4367 26.6282 22.4782 26.6398C22.5199 26.6504 22.5618 26.6923 22.6038 26.765L22.8577 27.2039C22.9002 27.2772 22.9158 27.3347 22.9042 27.3761C22.8935 27.4177 22.8514 27.4596 22.7783 27.5017L22.5574 27.629Z" fill="url(#paint92_linear_148_3)"/>
<path d="M21.6413 28.0995L21.3002 27.4592C21.2607 27.3852 21.2471 27.3277 21.2598 27.2869C21.2723 27.2455 21.3159 27.2051 21.3901 27.1657L21.6153 27.0462C21.6899 27.0067 21.7478 26.9932 21.7888 27.0062C21.8302 27.0183 21.8705 27.0617 21.91 27.1357L22.2512 27.7759L21.9932 27.9128L21.6375 27.2453C21.6324 27.2357 21.6252 27.2335 21.6157 27.2386L21.5497 27.2736C21.5405 27.2785 21.5385 27.2855 21.5436 27.2951L21.8993 27.9626L21.6413 28.0995Z" fill="url(#paint93_linear_148_3)"/>
<path fill-rule="evenodd" clip-rule="evenodd" d="M21.0345 28.346C20.9566 28.3774 20.8976 28.3848 20.8577 28.3677C20.8181 28.3508 20.7826 28.3031 20.7509 28.2249L20.7407 28.1996C20.713 28.1313 20.7027 28.0816 20.7097 28.0502C20.7166 28.0198 20.7509 27.9859 20.8127 27.9484C20.7421 27.9641 20.6936 27.9631 20.6674 27.9456C20.6405 27.9279 20.621 27.904 20.6089 27.8741L20.5343 27.69C20.5092 27.628 20.4861 27.5844 20.4648 27.5596L20.7357 27.4504C20.7582 27.4783 20.7825 27.5247 20.8087 27.5894L20.8838 27.7747C20.8862 27.7808 20.8911 27.7839 20.8983 27.7842L20.9876 27.7481L20.8486 27.4048L21.1195 27.2956L21.4732 28.1692L21.0345 28.346ZM21.0342 28.1461C21.0382 28.1562 21.0449 28.1592 21.0546 28.1553L21.1388 28.1213L21.047 27.8948L20.9628 27.9287C20.9532 27.9326 20.9505 27.9394 20.9543 27.9489L21.0342 28.1461Z" fill="url(#paint94_linear_148_3)"/>
<path fill-rule="evenodd" clip-rule="evenodd" d="M20.2442 28.6302C20.1647 28.6575 20.1054 28.6617 20.0665 28.6426C20.0279 28.6237 19.9948 28.5741 19.9673 28.4945L19.9584 28.4686C19.9344 28.399 19.9267 28.3487 19.9353 28.3178C19.9438 28.2878 19.9799 28.2557 20.0435 28.2215C19.9722 28.2335 19.9239 28.2299 19.8985 28.2111C19.8726 28.192 19.8544 28.1671 19.8439 28.1367L19.7791 27.949C19.7572 27.8857 19.7364 27.8409 19.7165 27.8151L19.9928 27.7201C20.0138 27.7492 20.0356 27.7968 20.0584 27.8628L20.1236 28.0518C20.1257 28.058 20.1305 28.0613 20.1376 28.062L20.2287 28.0307L20.1079 27.6806L20.3842 27.5857L20.6916 28.4765L20.2442 28.6302ZM20.2543 28.4306C20.2578 28.4408 20.2643 28.4441 20.2742 28.4408L20.3601 28.4113L20.2803 28.1802L20.1945 28.2097C20.1846 28.2131 20.1816 28.2198 20.1849 28.2294L20.2543 28.4306Z" fill="url(#paint95_linear_148_3)"/>
<path d="M19.8837 28.7432L19.3774 28.888L19.3307 28.7252L19.556 28.6607L19.5016 28.4713L19.2762 28.5358L19.2301 28.3754L19.4555 28.3109L19.3894 28.0807L19.164 28.1452L19.1172 27.9824L19.6234 27.8376L19.8837 28.7432Z" fill="url(#paint96_linear_148_3)"/>
<path d="M18.3299 28.1484L18.5423 29.0664L18.827 29.0008L18.7319 28.5899L18.967 28.9685L19.2395 28.9058L19.027 27.9878L18.7424 28.0534L18.8373 28.4637L18.6024 28.0856L18.3299 28.1484Z" fill="url(#paint97_linear_148_3)"/>
<path d="M17.9131 29.1606C17.8298 29.1723 17.7708 29.1651 17.7362 29.139C17.702 29.1134 17.6819 29.079 17.6759 29.0361L17.648 28.8384L17.9374 28.7978L17.9612 28.9666C17.9627 28.9772 17.9685 28.9818 17.9787 28.9803L18.0533 28.9699C18.0636 28.9684 18.0679 28.9625 18.0664 28.9518L17.9866 28.3849C17.9852 28.375 17.9795 28.3709 17.9692 28.3724L17.8946 28.3828C17.8843 28.3843 17.8799 28.3898 17.8813 28.3996L17.9053 28.5699L17.616 28.6105L17.5879 28.4113C17.582 28.3692 17.5918 28.331 17.6177 28.297C17.6436 28.2623 17.6985 28.2393 17.7817 28.2276L18.0342 28.1922C18.1179 28.1805 18.1769 28.1876 18.211 28.2138C18.2457 28.2393 18.2688 28.2938 18.2805 28.3768L18.3512 28.8787C18.363 28.9626 18.3559 29.0217 18.3296 29.0558C18.3041 29.0903 18.2493 29.1134 18.1657 29.1252L17.9131 29.1606Z" fill="url(#paint98_linear_148_3)"/>
<path d="M17.3238 28.6855L17.5939 29.1966L17.3183 29.2207L17.197 28.9188L17.1306 29.237L16.8551 29.2611L17.032 28.7109L16.9963 28.303L17.288 28.2775L17.3238 28.6855Z" fill="url(#paint99_linear_148_3)"/>
<path d="M27.3199 9.6977C27.3996 9.6977 27.4642 9.76215 27.4642 9.84162C27.4642 9.92109 27.3996 9.98554 27.3199 9.98554C27.2403 9.98554 27.1757 9.92109 27.1757 9.84162C27.1757 9.76215 27.2403 9.6977 27.3199 9.6977Z" fill="url(#paint100_linear_148_3)"/>
<path d="M28.8904 14.2248C28.8904 14.1453 28.8258 14.0808 28.7461 14.0808C28.6665 14.0808 28.6019 14.1453 28.6019 14.2248C28.6019 14.3042 28.6665 14.3687 28.7461 14.3687C28.8258 14.3687 28.8904 14.3042 28.8904 14.2248Z" fill="url(#paint101_linear_148_3)"/>
<path d="M5.20273 9.39068C5.28237 9.39068 5.34697 9.45513 5.34697 9.5346C5.34697 9.61406 5.28237 9.67852 5.20273 9.67852C5.12309 9.67852 5.05849 9.61406 5.05849 9.5346C5.05849 9.45513 5.12309 9.39068 5.20273 9.39068Z" fill="url(#paint102_linear_148_3)"/>
<path d="M8.6045 6.00115C8.6045 5.92168 8.5399 5.85723 8.46026 5.85723C8.38061 5.85723 8.31602 5.92168 8.31602 6.00115C8.31602 6.08062 8.38061 6.14507 8.46026 6.14507C8.5399 6.14507 8.6045 6.08062 8.6045 6.00115Z" fill="url(#paint103_linear_148_3)"/>
<path d="M11.601 27.8174C11.6806 27.8174 11.7452 27.8818 11.7452 27.9613C11.7452 28.0408 11.6806 28.1052 11.601 28.1052C11.5213 28.1052 11.4567 28.0408 11.4567 27.9613C11.4567 27.8818 11.5213 27.8174 11.601 27.8174Z" fill="url(#paint104_linear_148_3)"/>
<path d="M16.5046 28.7993C16.5046 28.7198 16.44 28.6554 16.3604 28.6554C16.2808 28.6554 16.2162 28.7198 16.2162 28.7993C16.2162 28.8788 16.2808 28.9432 16.3604 28.9432C16.44 28.9432 16.5046 28.8788 16.5046 28.7993Z" fill="url(#paint105_linear_148_3)"/>
<defs>
<linearGradient id="paint0_linear_148_3" x1="26.4022" y1="34.9341" x2="-10.5687" y2="17.1195" gradientUnits="userSpaceOnUse">
<stop stop-color="#90C626"/>
<stop offset="1" stop-color="#20934A"/>
</linearGradient>
<linearGradient id="paint1_linear_148_3" x1="25.6842" y1="24.5897" x2="5.89474" y2="7.49496" gradientUnits="userSpaceOnUse">
<stop stop-color="#88C228"/>
<stop offset="1" stop-color="#399E42"/>
</linearGradient>
<linearGradient id="paint2_linear_148_3" x1="25.6842" y1="24.5897" x2="5.89474" y2="7.49496" gradientUnits="userSpaceOnUse">
<stop stop-color="#88C228"/>
<stop offset="1" stop-color="#399E42"/>
</linearGradient>
<linearGradient id="paint3_linear_148_3" x1="25.6842" y1="24.5897" x2="5.89474" y2="7.49496" gradientUnits="userSpaceOnUse">
<stop stop-color="#88C228"/>
<stop offset="1" stop-color="#399E42"/>
</linearGradient>
<linearGradient id="paint4_linear_148_3" x1="25.6842" y1="24.5897" x2="5.89474" y2="7.49496" gradientUnits="userSpaceOnUse">
<stop stop-color="#88C228"/>
<stop offset="1" stop-color="#399E42"/>
</linearGradient>
<linearGradient id="paint5_linear_148_3" x1="25.6842" y1="24.5897" x2="5.89474" y2="7.49496" gradientUnits="userSpaceOnUse">
<stop stop-color="#88C228"/>
<stop offset="1" stop-color="#399E42"/>
</linearGradient>
<linearGradient id="paint6_linear_148_3" x1="25.6842" y1="24.5897" x2="5.89474" y2="7.49496" gradientUnits="userSpaceOnUse">
<stop stop-color="#88C228"/>
<stop offset="1" stop-color="#399E42"/>
</linearGradient>
<linearGradient id="paint7_linear_148_3" x1="25.6842" y1="24.5897" x2="5.89474" y2="7.49496" gradientUnits="userSpaceOnUse">
<stop stop-color="#88C228"/>
<stop offset="1" stop-color="#399E42"/>
</linearGradient>
<linearGradient id="paint8_linear_148_3" x1="25.6842" y1="24.5897" x2="5.89474" y2="7.49496" gradientUnits="userSpaceOnUse">
<stop stop-color="#88C228"/>
<stop offset="1" stop-color="#399E42"/>
</linearGradient>
<linearGradient id="paint9_linear_148_3" x1="25.6842" y1="24.5897" x2="5.89474" y2="7.49496" gradientUnits="userSpaceOnUse">
<stop stop-color="#88C228"/>
<stop offset="1" stop-color="#399E42"/>
</linearGradient>
<linearGradient id="paint10_linear_148_3" x1="25.6842" y1="24.5897" x2="5.89474" y2="7.49496" gradientUnits="userSpaceOnUse">
<stop stop-color="#88C228"/>
<stop offset="1" stop-color="#399E42"/>
</linearGradient>
<linearGradient id="paint11_linear_148_3" x1="25.6842" y1="24.5897" x2="5.89474" y2="7.49496" gradientUnits="userSpaceOnUse">
<stop stop-color="#88C228"/>
<stop offset="1" stop-color="#399E42"/>
</linearGradient>
<linearGradient id="paint12_linear_148_3" x1="25.6842" y1="24.5897" x2="5.89474" y2="7.49496" gradientUnits="userSpaceOnUse">
<stop stop-color="#88C228"/>
<stop offset="1" stop-color="#399E42"/>
</linearGradient>
<linearGradient id="paint13_linear_148_3" x1="25.6842" y1="24.5897" x2="5.89474" y2="7.49496" gradientUnits="userSpaceOnUse">
<stop stop-color="#88C228"/>
<stop offset="1" stop-color="#399E42"/>
</linearGradient>
<linearGradient id="paint14_linear_148_3" x1="25.6842" y1="24.5897" x2="5.89474" y2="7.49496" gradientUnits="userSpaceOnUse">
<stop stop-color="#88C228"/>
<stop offset="1" stop-color="#399E42"/>
</linearGradient>
<linearGradient id="paint15_linear_148_3" x1="25.6842" y1="24.5897" x2="5.89474" y2="7.49496" gradientUnits="userSpaceOnUse">
<stop stop-color="#88C228"/>
<stop offset="1" stop-color="#399E42"/>
</linearGradient>
<linearGradient id="paint16_linear_148_3" x1="25.6842" y1="24.5897" x2="5.89474" y2="7.49496" gradientUnits="userSpaceOnUse">
<stop stop-color="#88C228"/>
<stop offset="1" stop-color="#399E42"/>
</linearGradient>
<linearGradient id="paint17_linear_148_3" x1="25.6842" y1="24.5897" x2="5.89474" y2="7.49496" gradientUnits="userSpaceOnUse">
<stop stop-color="#88C228"/>
<stop offset="1" stop-color="#399E42"/>
</linearGradient>
<linearGradient id="paint18_linear_148_3" x1="25.6842" y1="24.5897" x2="5.89474" y2="7.49496" gradientUnits="userSpaceOnUse">
<stop stop-color="#88C228"/>
<stop offset="1" stop-color="#399E42"/>
</linearGradient>
<linearGradient id="paint19_linear_148_3" x1="25.6842" y1="24.5897" x2="5.89474" y2="7.49496" gradientUnits="userSpaceOnUse">
<stop stop-color="#88C228"/>
<stop offset="1" stop-color="#399E42"/>
</linearGradient>
<linearGradient id="paint20_linear_148_3" x1="25.6842" y1="24.5897" x2="5.89474" y2="7.49496" gradientUnits="userSpaceOnUse">
<stop stop-color="#88C228"/>
<stop offset="1" stop-color="#399E42"/>
</linearGradient>
<linearGradient id="paint21_linear_148_3" x1="25.6842" y1="24.5897" x2="5.89474" y2="7.49496" gradientUnits="userSpaceOnUse">
<stop stop-color="#88C228"/>
<stop offset="1" stop-color="#399E42"/>
</linearGradient>
<linearGradient id="paint22_linear_148_3" x1="25.6842" y1="24.5897" x2="5.89474" y2="7.49496" gradientUnits="userSpaceOnUse">
<stop stop-color="#88C228"/>
<stop offset="1" stop-color="#399E42"/>
</linearGradient>
<linearGradient id="paint23_linear_148_3" x1="25.6842" y1="24.5897" x2="5.89474" y2="7.49496" gradientUnits="userSpaceOnUse">
<stop stop-color="#88C228"/>
<stop offset="1" stop-color="#399E42"/>
</linearGradient>
<linearGradient id="paint24_linear_148_3" x1="25.6842" y1="24.5897" x2="5.89474" y2="7.49496" gradientUnits="userSpaceOnUse">
<stop stop-color="#88C228"/>
<stop offset="1" stop-color="#399E42"/>
</linearGradient>
<linearGradient id="paint25_linear_148_3" x1="25.6842" y1="24.5897" x2="5.89474" y2="7.49496" gradientUnits="userSpaceOnUse">
<stop stop-color="#88C228"/>
<stop offset="1" stop-color="#399E42"/>
</linearGradient>
<linearGradient id="paint26_linear_148_3" x1="25.6842" y1="24.5897" x2="5.89474" y2="7.49496" gradientUnits="userSpaceOnUse">
<stop stop-color="#88C228"/>
<stop offset="1" stop-color="#399E42"/>
</linearGradient>
<linearGradient id="paint27_linear_148_3" x1="25.6842" y1="24.5897" x2="5.89474" y2="7.49496" gradientUnits="userSpaceOnUse">
<stop stop-color="#88C228"/>
<stop offset="1" stop-color="#399E42"/>
</linearGradient>
<linearGradient id="paint28_linear_148_3" x1="25.6842" y1="24.5897" x2="5.89474" y2="7.49496" gradientUnits="userSpaceOnUse">
<stop stop-color="#88C228"/>
<stop offset="1" stop-color="#399E42"/>
</linearGradient>
<linearGradient id="paint29_linear_148_3" x1="25.6842" y1="24.5897" x2="5.89474" y2="7.49496" gradientUnits="userSpaceOnUse">
<stop stop-color="#88C228"/>
<stop offset="1" stop-color="#399E42"/>
</linearGradient>
<linearGradient id="paint30_linear_148_3" x1="25.6842" y1="24.5897" x2="5.89474" y2="7.49496" gradientUnits="userSpaceOnUse">
<stop stop-color="#88C228"/>
<stop offset="1" stop-color="#399E42"/>
</linearGradient>
<linearGradient id="paint31_linear_148_3" x1="25.6842" y1="24.5897" x2="5.89474" y2="7.49496" gradientUnits="userSpaceOnUse">
<stop stop-color="#88C228"/>
<stop offset="1" stop-color="#399E42"/>
</linearGradient>
<linearGradient id="paint32_linear_148_3" x1="25.6842" y1="24.5897" x2="5.89474" y2="7.49496" gradientUnits="userSpaceOnUse">
<stop stop-color="#88C228"/>
<stop offset="1" stop-color="#399E42"/>
</linearGradient>
<linearGradient id="paint33_linear_148_3" x1="25.6842" y1="24.5897" x2="5.89474" y2="7.49496" gradientUnits="userSpaceOnUse">
<stop stop-color="#88C228"/>
<stop offset="1" stop-color="#399E42"/>
</linearGradient>
<linearGradient id="paint34_linear_148_3" x1="25.6842" y1="24.5897" x2="5.89474" y2="7.49496" gradientUnits="userSpaceOnUse">
<stop stop-color="#88C228"/>
<stop offset="1" stop-color="#399E42"/>
</linearGradient>
<linearGradient id="paint35_linear_148_3" x1="25.6842" y1="24.5897" x2="5.89474" y2="7.49496" gradientUnits="userSpaceOnUse">
<stop stop-color="#88C228"/>
<stop offset="1" stop-color="#399E42"/>
</linearGradient>
<linearGradient id="paint36_linear_148_3" x1="25.6842" y1="24.5897" x2="5.89474" y2="7.49496" gradientUnits="userSpaceOnUse">
<stop stop-color="#88C228"/>
<stop offset="1" stop-color="#399E42"/>
</linearGradient>
<linearGradient id="paint37_linear_148_3" x1="25.6842" y1="24.5897" x2="5.89474" y2="7.49496" gradientUnits="userSpaceOnUse">
<stop stop-color="#88C228"/>
<stop offset="1" stop-color="#399E42"/>
</linearGradient>
<linearGradient id="paint38_linear_148_3" x1="25.6842" y1="24.5897" x2="5.89474" y2="7.49496" gradientUnits="userSpaceOnUse">
<stop stop-color="#88C228"/>
<stop offset="1" stop-color="#399E42"/>
</linearGradient>
<linearGradient id="paint39_linear_148_3" x1="25.6842" y1="24.5897" x2="5.89474" y2="7.49496" gradientUnits="userSpaceOnUse">
<stop stop-color="#88C228"/>
<stop offset="1" stop-color="#399E42"/>
</linearGradient>
<linearGradient id="paint40_linear_148_3" x1="25.6842" y1="24.5897" x2="5.89474" y2="7.49496" gradientUnits="userSpaceOnUse">
<stop stop-color="#88C228"/>
<stop offset="1" stop-color="#399E42"/>
</linearGradient>
<linearGradient id="paint41_linear_148_3" x1="25.6842" y1="24.5897" x2="5.89474" y2="7.49496" gradientUnits="userSpaceOnUse">
<stop stop-color="#88C228"/>
<stop offset="1" stop-color="#399E42"/>
</linearGradient>
<linearGradient id="paint42_linear_148_3" x1="25.6842" y1="24.5897" x2="5.89474" y2="7.49496" gradientUnits="userSpaceOnUse">
<stop stop-color="#88C228"/>
<stop offset="1" stop-color="#399E42"/>
</linearGradient>
<linearGradient id="paint43_linear_148_3" x1="25.6842" y1="24.5897" x2="5.89474" y2="7.49496" gradientUnits="userSpaceOnUse">
<stop stop-color="#88C228"/>
<stop offset="1" stop-color="#399E42"/>
</linearGradient>
<linearGradient id="paint44_linear_148_3" x1="25.6842" y1="24.5897" x2="5.89474" y2="7.49496" gradientUnits="userSpaceOnUse">
<stop stop-color="#88C228"/>
<stop offset="1" stop-color="#399E42"/>
</linearGradient>
<linearGradient id="paint45_linear_148_3" x1="25.6842" y1="24.5897" x2="5.89474" y2="7.49496" gradientUnits="userSpaceOnUse">
<stop stop-color="#88C228"/>
<stop offset="1" stop-color="#399E42"/>
</linearGradient>
<linearGradient id="paint46_linear_148_3" x1="25.6842" y1="24.5897" x2="5.89474" y2="7.49496" gradientUnits="userSpaceOnUse">
<stop stop-color="#88C228"/>
<stop offset="1" stop-color="#399E42"/>
</linearGradient>
<linearGradient id="paint47_linear_148_3" x1="25.6842" y1="24.5897" x2="5.89474" y2="7.49496" gradientUnits="userSpaceOnUse">
<stop stop-color="#88C228"/>
<stop offset="1" stop-color="#399E42"/>
</linearGradient>
<linearGradient id="paint48_linear_148_3" x1="25.6842" y1="24.5897" x2="5.89474" y2="7.49496" gradientUnits="userSpaceOnUse">
<stop stop-color="#88C228"/>
<stop offset="1" stop-color="#399E42"/>
</linearGradient>
<linearGradient id="paint49_linear_148_3" x1="25.6842" y1="24.5897" x2="5.89474" y2="7.49496" gradientUnits="userSpaceOnUse">
<stop stop-color="#88C228"/>
<stop offset="1" stop-color="#399E42"/>
</linearGradient>
<linearGradient id="paint50_linear_148_3" x1="25.6842" y1="24.5897" x2="5.89474" y2="7.49496" gradientUnits="userSpaceOnUse">
<stop stop-color="#88C228"/>
<stop offset="1" stop-color="#399E42"/>
</linearGradient>
<linearGradient id="paint51_linear_148_3" x1="25.6842" y1="24.5897" x2="5.89474" y2="7.49496" gradientUnits="userSpaceOnUse">
<stop stop-color="#88C228"/>
<stop offset="1" stop-color="#399E42"/>
</linearGradient>
<linearGradient id="paint52_linear_148_3" x1="25.6842" y1="24.5897" x2="5.89474" y2="7.49496" gradientUnits="userSpaceOnUse">
<stop stop-color="#88C228"/>
<stop offset="1" stop-color="#399E42"/>
</linearGradient>
<linearGradient id="paint53_linear_148_3" x1="25.6842" y1="24.5897" x2="5.89474" y2="7.49496" gradientUnits="userSpaceOnUse">
<stop stop-color="#88C228"/>
<stop offset="1" stop-color="#399E42"/>
</linearGradient>
<linearGradient id="paint54_linear_148_3" x1="25.6842" y1="24.5897" x2="5.89474" y2="7.49496" gradientUnits="userSpaceOnUse">
<stop stop-color="#88C228"/>
<stop offset="1" stop-color="#399E42"/>
</linearGradient>
<linearGradient id="paint55_linear_148_3" x1="25.6842" y1="24.5897" x2="5.89474" y2="7.49496" gradientUnits="userSpaceOnUse">
<stop stop-color="#88C228"/>
<stop offset="1" stop-color="#399E42"/>
</linearGradient>
<linearGradient id="paint56_linear_148_3" x1="25.6842" y1="24.5897" x2="5.89474" y2="7.49496" gradientUnits="userSpaceOnUse">
<stop stop-color="#88C228"/>
<stop offset="1" stop-color="#399E42"/>
</linearGradient>
<linearGradient id="paint57_linear_148_3" x1="25.6842" y1="24.5897" x2="5.89474" y2="7.49496" gradientUnits="userSpaceOnUse">
<stop stop-color="#88C228"/>
<stop offset="1" stop-color="#399E42"/>
</linearGradient>
<linearGradient id="paint58_linear_148_3" x1="25.6842" y1="24.5897" x2="5.89474" y2="7.49496" gradientUnits="userSpaceOnUse">
<stop stop-color="#88C228"/>
<stop offset="1" stop-color="#399E42"/>
</linearGradient>
<linearGradient id="paint59_linear_148_3" x1="25.6842" y1="24.5897" x2="5.89474" y2="7.49496" gradientUnits="userSpaceOnUse">
<stop stop-color="#88C228"/>
<stop offset="1" stop-color="#399E42"/>
</linearGradient>
<linearGradient id="paint60_linear_148_3" x1="25.6842" y1="24.5897" x2="5.89474" y2="7.49496" gradientUnits="userSpaceOnUse">
<stop stop-color="#88C228"/>
<stop offset="1" stop-color="#399E42"/>
</linearGradient>
<linearGradient id="paint61_linear_148_3" x1="25.6842" y1="24.5897" x2="5.89474" y2="7.49496" gradientUnits="userSpaceOnUse">
<stop stop-color="#88C228"/>
<stop offset="1" stop-color="#399E42"/>
</linearGradient>
<linearGradient id="paint62_linear_148_3" x1="25.6842" y1="24.5897" x2="5.89474" y2="7.49496" gradientUnits="userSpaceOnUse">
<stop stop-color="#88C228"/>
<stop offset="1" stop-color="#399E42"/>
</linearGradient>
<linearGradient id="paint63_linear_148_3" x1="25.6842" y1="24.5897" x2="5.89474" y2="7.49496" gradientUnits="userSpaceOnUse">
<stop stop-color="#88C228"/>
<stop offset="1" stop-color="#399E42"/>
</linearGradient>
<linearGradient id="paint64_linear_148_3" x1="25.6842" y1="24.5897" x2="5.89474" y2="7.49496" gradientUnits="userSpaceOnUse">
<stop stop-color="#88C228"/>
<stop offset="1" stop-color="#399E42"/>
</linearGradient>
<linearGradient id="paint65_linear_148_3" x1="25.6842" y1="24.5897" x2="5.89474" y2="7.49496" gradientUnits="userSpaceOnUse">
<stop stop-color="#88C228"/>
<stop offset="1" stop-color="#399E42"/>
</linearGradient>
<linearGradient id="paint66_linear_148_3" x1="25.6842" y1="24.5897" x2="5.89474" y2="7.49496" gradientUnits="userSpaceOnUse">
<stop stop-color="#88C228"/>
<stop offset="1" stop-color="#399E42"/>
</linearGradient>
<linearGradient id="paint67_linear_148_3" x1="25.6842" y1="24.5897" x2="5.89474" y2="7.49496" gradientUnits="userSpaceOnUse">
<stop stop-color="#88C228"/>
<stop offset="1" stop-color="#399E42"/>
</linearGradient>
<linearGradient id="paint68_linear_148_3" x1="25.6842" y1="24.5897" x2="5.89474" y2="7.49496" gradientUnits="userSpaceOnUse">
<stop stop-color="#88C228"/>
<stop offset="1" stop-color="#399E42"/>
</linearGradient>
<linearGradient id="paint69_linear_148_3" x1="25.6842" y1="24.5897" x2="5.89474" y2="7.49496" gradientUnits="userSpaceOnUse">
<stop stop-color="#88C228"/>
<stop offset="1" stop-color="#399E42"/>
</linearGradient>
<linearGradient id="paint70_linear_148_3" x1="25.6842" y1="24.5897" x2="5.89474" y2="7.49496" gradientUnits="userSpaceOnUse">
<stop stop-color="#88C228"/>
<stop offset="1" stop-color="#399E42"/>
</linearGradient>
<linearGradient id="paint71_linear_148_3" x1="25.6842" y1="24.5897" x2="5.89474" y2="7.49496" gradientUnits="userSpaceOnUse">
<stop stop-color="#88C228"/>
<stop offset="1" stop-color="#399E42"/>
</linearGradient>
<linearGradient id="paint72_linear_148_3" x1="25.6842" y1="24.5897" x2="5.89474" y2="7.49496" gradientUnits="userSpaceOnUse">
<stop stop-color="#88C228"/>
<stop offset="1" stop-color="#399E42"/>
</linearGradient>
<linearGradient id="paint73_linear_148_3" x1="25.6842" y1="24.5897" x2="5.89474" y2="7.49496" gradientUnits="userSpaceOnUse">
<stop stop-color="#88C228"/>
<stop offset="1" stop-color="#399E42"/>
</linearGradient>
<linearGradient id="paint74_linear_148_3" x1="25.6842" y1="24.5897" x2="5.89474" y2="7.49496" gradientUnits="userSpaceOnUse">
<stop stop-color="#88C228"/>
<stop offset="1" stop-color="#399E42"/>
</linearGradient>
<linearGradient id="paint75_linear_148_3" x1="25.6842" y1="24.5897" x2="5.89474" y2="7.49496" gradientUnits="userSpaceOnUse">
<stop stop-color="#88C228"/>
<stop offset="1" stop-color="#399E42"/>
</linearGradient>
<linearGradient id="paint76_linear_148_3" x1="25.6842" y1="24.5897" x2="5.89474" y2="7.49496" gradientUnits="userSpaceOnUse">
<stop stop-color="#88C228"/>
<stop offset="1" stop-color="#399E42"/>
</linearGradient>
<linearGradient id="paint77_linear_148_3" x1="25.6842" y1="24.5897" x2="5.89474" y2="7.49496" gradientUnits="userSpaceOnUse">
<stop stop-color="#88C228"/>
<stop offset="1" stop-color="#399E42"/>
</linearGradient>
<linearGradient id="paint78_linear_148_3" x1="25.6842" y1="24.5897" x2="5.89474" y2="7.49496" gradientUnits="userSpaceOnUse">
<stop stop-color="#88C228"/>
<stop offset="1" stop-color="#399E42"/>
</linearGradient>
<linearGradient id="paint79_linear_148_3" x1="25.6842" y1="24.5897" x2="5.89474" y2="7.49496" gradientUnits="userSpaceOnUse">
<stop stop-color="#88C228"/>
<stop offset="1" stop-color="#399E42"/>
</linearGradient>
<linearGradient id="paint80_linear_148_3" x1="25.6842" y1="24.5897" x2="5.89474" y2="7.49496" gradientUnits="userSpaceOnUse">
<stop stop-color="#88C228"/>
<stop offset="1" stop-color="#399E42"/>
</linearGradient>
<linearGradient id="paint81_linear_148_3" x1="25.6842" y1="24.5897" x2="5.89474" y2="7.49496" gradientUnits="userSpaceOnUse">
<stop stop-color="#88C228"/>
<stop offset="1" stop-color="#399E42"/>
</linearGradient>
<linearGradient id="paint82_linear_148_3" x1="25.6842" y1="24.5897" x2="5.89474" y2="7.49496" gradientUnits="userSpaceOnUse">
<stop stop-color="#88C228"/>
<stop offset="1" stop-color="#399E42"/>
</linearGradient>
<linearGradient id="paint83_linear_148_3" x1="25.6842" y1="24.5897" x2="5.89474" y2="7.49496" gradientUnits="userSpaceOnUse">
<stop stop-color="#88C228"/>
<stop offset="1" stop-color="#399E42"/>
</linearGradient>
<linearGradient id="paint84_linear_148_3" x1="25.6842" y1="24.5897" x2="5.89474" y2="7.49496" gradientUnits="userSpaceOnUse">
<stop stop-color="#88C228"/>
<stop offset="1" stop-color="#399E42"/>
</linearGradient>
<linearGradient id="paint85_linear_148_3" x1="25.6842" y1="24.5897" x2="5.89474" y2="7.49496" gradientUnits="userSpaceOnUse">
<stop stop-color="#88C228"/>
<stop offset="1" stop-color="#399E42"/>
</linearGradient>
<linearGradient id="paint86_linear_148_3" x1="25.6842" y1="24.5897" x2="5.89474" y2="7.49496" gradientUnits="userSpaceOnUse">
<stop stop-color="#88C228"/>
<stop offset="1" stop-color="#399E42"/>
</linearGradient>
<linearGradient id="paint87_linear_148_3" x1="25.6842" y1="24.5897" x2="5.89474" y2="7.49496" gradientUnits="userSpaceOnUse">
<stop stop-color="#88C228"/>
<stop offset="1" stop-color="#399E42"/>
</linearGradient>
<linearGradient id="paint88_linear_148_3" x1="25.6842" y1="24.5897" x2="5.89474" y2="7.49496" gradientUnits="userSpaceOnUse">
<stop stop-color="#88C228"/>
<stop offset="1" stop-color="#399E42"/>
</linearGradient>
<linearGradient id="paint89_linear_148_3" x1="25.6842" y1="24.5897" x2="5.89474" y2="7.49496" gradientUnits="userSpaceOnUse">
<stop stop-color="#88C228"/>
<stop offset="1" stop-color="#399E42"/>
</linearGradient>
<linearGradient id="paint90_linear_148_3" x1="25.6842" y1="24.5897" x2="5.89474" y2="7.49496" gradientUnits="userSpaceOnUse">
<stop stop-color="#88C228"/>
<stop offset="1" stop-color="#399E42"/>
</linearGradient>
<linearGradient id="paint91_linear_148_3" x1="25.6842" y1="24.5897" x2="5.89474" y2="7.49496" gradientUnits="userSpaceOnUse">
<stop stop-color="#88C228"/>
<stop offset="1" stop-color="#399E42"/>
</linearGradient>
<linearGradient id="paint92_linear_148_3" x1="25.6842" y1="24.5897" x2="5.89474" y2="7.49496" gradientUnits="userSpaceOnUse">
<stop stop-color="#88C228"/>
<stop offset="1" stop-color="#399E42"/>
</linearGradient>
<linearGradient id="paint93_linear_148_3" x1="25.6842" y1="24.5897" x2="5.89474" y2="7.49496" gradientUnits="userSpaceOnUse">
<stop stop-color="#88C228"/>
<stop offset="1" stop-color="#399E42"/>
</linearGradient>
<linearGradient id="paint94_linear_148_3" x1="25.6842" y1="24.5897" x2="5.89474" y2="7.49496" gradientUnits="userSpaceOnUse">
<stop stop-color="#88C228"/>
<stop offset="1" stop-color="#399E42"/>
</linearGradient>
<linearGradient id="paint95_linear_148_3" x1="25.6842" y1="24.5897" x2="5.89474" y2="7.49496" gradientUnits="userSpaceOnUse">
<stop stop-color="#88C228"/>
<stop offset="1" stop-color="#399E42"/>
</linearGradient>
<linearGradient id="paint96_linear_148_3" x1="25.6842" y1="24.5897" x2="5.89474" y2="7.49496" gradientUnits="userSpaceOnUse">
<stop stop-color="#88C228"/>
<stop offset="1" stop-color="#399E42"/>
</linearGradient>
<linearGradient id="paint97_linear_148_3" x1="25.6842" y1="24.5897" x2="5.89474" y2="7.49496" gradientUnits="userSpaceOnUse">
<stop stop-color="#88C228"/>
<stop offset="1" stop-color="#399E42"/>
</linearGradient>
<linearGradient id="paint98_linear_148_3" x1="25.6842" y1="24.5897" x2="5.89474" y2="7.49496" gradientUnits="userSpaceOnUse">
<stop stop-color="#88C228"/>
<stop offset="1" stop-color="#399E42"/>
</linearGradient>
<linearGradient id="paint99_linear_148_3" x1="25.6842" y1="24.5897" x2="5.89474" y2="7.49496" gradientUnits="userSpaceOnUse">
<stop stop-color="#88C228"/>
<stop offset="1" stop-color="#399E42"/>
</linearGradient>
<linearGradient id="paint100_linear_148_3" x1="25.6842" y1="24.5897" x2="5.89474" y2="7.49496" gradientUnits="userSpaceOnUse">
<stop stop-color="#88C228"/>
<stop offset="1" stop-color="#399E42"/>
</linearGradient>
<linearGradient id="paint101_linear_148_3" x1="25.6842" y1="24.5897" x2="5.89474" y2="7.49496" gradientUnits="userSpaceOnUse">
<stop stop-color="#88C228"/>
<stop offset="1" stop-color="#399E42"/>
</linearGradient>
<linearGradient id="paint102_linear_148_3" x1="25.6842" y1="24.5897" x2="5.89474" y2="7.49496" gradientUnits="userSpaceOnUse">
<stop stop-color="#88C228"/>
<stop offset="1" stop-color="#399E42"/>
</linearGradient>
<linearGradient id="paint103_linear_148_3" x1="25.6842" y1="24.5897" x2="5.89474" y2="7.49496" gradientUnits="userSpaceOnUse">
<stop stop-color="#88C228"/>
<stop offset="1" stop-color="#399E42"/>
</linearGradient>
<linearGradient id="paint104_linear_148_3" x1="25.6842" y1="24.5897" x2="5.89474" y2="7.49496" gradientUnits="userSpaceOnUse">
<stop stop-color="#88C228"/>
<stop offset="1" stop-color="#399E42"/>
</linearGradient>
<linearGradient id="paint105_linear_148_3" x1="25.6842" y1="24.5897" x2="5.89474" y2="7.49496" gradientUnits="userSpaceOnUse">
<stop stop-color="#88C228"/>
<stop offset="1" stop-color="#399E42"/>
</linearGradient>
</defs>
</svg>
