<svg width="180" height="180" viewBox="0 0 180 180" fill="none" xmlns="http://www.w3.org/2000/svg">
<rect width="180" height="180" rx="20" fill="url(#paint0_linear_164_2)"/>
<path d="M90.8356 11.3687C134.524 11.3688 169.941 46.7856 169.941 90.4741C169.941 134.163 134.524 169.579 90.8356 169.58C63.5808 169.58 39.5449 155.795 25.319 134.819L21.3874 128.382C19.8107 125.5 18.4081 122.508 17.194 119.422C16.6552 118 15.4482 114.689 14.9304 112.821C12.8474 105.734 11.7302 98.2347 11.7302 90.4741C11.7302 84.546 12.3825 78.77 13.6188 73.2144C14.055 71.0811 14.9828 67.9243 15.3923 66.6128C16.3272 63.654 17.432 60.7702 18.694 57.9731L22.1901 51.1333C35.8373 27.3716 61.468 11.3687 90.8356 11.3687ZM90.652 25.8228C54.0518 25.823 24.3815 54.9824 24.3815 90.9517C24.3816 126.921 54.0518 156.079 90.652 156.08C127.252 156.08 156.923 126.921 156.924 90.9517C156.924 54.9822 127.253 25.8228 90.652 25.8228Z" fill="#012426"/>
<path d="M90.657 28.1084C123.61 28.1084 150.745 52.5699 154.262 84.0117H152.287C152.375 84.7786 152.449 85.55 152.509 86.3252H150.54C150.6 87.0922 150.646 87.8637 150.676 88.6387H148.367V89.7949H152.675C152.682 90.1795 152.685 90.5649 152.685 90.9512C152.685 91.3376 152.682 91.7237 152.675 92.1084H154.637C154.009 126.282 125.605 153.795 90.657 153.795C55.3156 153.795 26.6657 125.659 26.6657 90.9512C26.666 56.244 55.3158 28.1084 90.657 28.1084ZM90.657 29.2646C55.9662 29.2646 27.8437 56.8828 27.8435 90.9512C27.8435 125.02 55.9661 152.639 90.657 152.639C124.559 152.639 152.188 126.261 153.426 93.2646H150.676C149.635 119.779 130.775 141.805 105.523 148.119C105.399 148.492 105.078 148.789 104.659 148.868L100.439 149.667C100.036 149.743 99.6417 149.599 99.3845 149.321C96.5353 149.729 93.6212 149.939 90.657 149.939C57.4838 149.939 30.5915 123.529 30.5915 90.9512C30.5916 85.5182 31.3397 80.2567 32.74 75.2607C32.4384 75.0772 32.2926 74.7086 32.4089 74.3633L33.9792 69.708C34.0982 69.3554 34.4517 69.143 34.8132 69.1836C43.6335 47.3792 65.3124 31.9639 90.657 31.9639C121.033 31.9639 146.143 54.1083 150.161 82.8555H152.934C148.897 52.6131 122.553 29.2647 90.657 29.2646ZM90.657 30.0361C121.711 30.0362 147.435 52.4469 151.974 81.6982H150.819C146.29 53.0687 121.079 31.1573 90.657 31.1572C57.0304 31.1572 29.7705 57.9279 29.7702 90.9512C29.7702 123.975 57.0302 150.746 90.657 150.746C123.098 150.746 149.613 125.83 151.443 94.4219H152.586C150.754 126.45 123.728 151.867 90.657 151.867C56.3997 151.867 28.6286 124.594 28.6286 90.9512C28.6289 57.3087 56.3999 30.0361 90.657 30.0361ZM90.657 33.0498C65.7931 33.0498 44.5236 48.1643 35.8562 69.5479C36.1197 69.7411 36.2407 70.0848 36.1316 70.4082L34.5612 75.0635C34.4495 75.3943 34.1311 75.6011 33.7937 75.5918C32.4268 80.4832 31.697 85.6335 31.697 90.9512C31.697 122.93 58.0943 148.854 90.657 148.854C93.5363 148.854 96.3675 148.651 99.1364 148.26C99.2525 147.873 99.5796 147.562 100.01 147.48L104.229 146.681C104.644 146.602 105.051 146.757 105.307 147.052C130.052 140.838 148.53 119.251 149.57 93.2646H148.261C148.126 93.495 147.872 93.6503 147.582 93.6504H146.73C145.297 122.846 120.74 146.084 90.657 146.084C90.526 146.084 90.3951 146.084 90.2644 146.083V143.176C90.3951 143.177 90.526 143.177 90.657 143.177C118.84 143.177 141.902 121.647 143.72 94.4219H144.72C142.908 122.062 119.604 143.956 91.0495 144.155V145.068C120.383 144.867 144.27 122.158 145.696 93.6504H144.049C143.758 93.6504 143.504 93.4951 143.368 93.2646H142.818C141.586 120.511 118.704 142.228 90.657 142.229H90.5173L90.2644 142.228V141.457L91.2497 141.281C117.699 140.987 139.335 121.018 141.696 95.5781H140.689C138.721 116.369 123.62 133.417 103.612 138.646L103.611 137.988L103.612 135.492C121.405 130.51 134.904 115.523 137.398 97.1201H138.54C136.06 115.869 122.43 131.179 104.396 136.426V137.229C123.359 131.809 137.579 115.454 139.507 95.5781H138.16C137.726 95.5781 137.375 95.2325 137.375 94.8066V93.2646H135.412L130.7 100.976H124.419V102.132H120.493V98.2773H124.419V99.8193H130.7L135.412 92.1084H137.375V90.9512H135.019L130.7 95.1924H124.419V96.7344H120.493V92.8789H124.419V94.0361H130.7L135.019 89.7949H137.375V88.6387H124.419V90.1807H120.493V86.3252H124.419V87.4814H137.375V86.3252H135.019L130.7 82.084H124.419V83.626H120.493V79.7705H124.419V80.9277H130.7L135.019 85.1689H137.375V84.0117H135.412L128.344 76.3008H124.419V77.8428H120.493V73.9883H124.419V75.1445H128.344L135.412 82.8555H137.375V82.084C137.375 81.6582 137.726 81.3135 138.16 81.3135H138.748C135.169 64.0016 122.142 50.0593 105.182 44.9053V45.7129C121.201 50.6685 133.615 63.6031 137.594 79.7705H136.429C132.437 63.9554 120.168 51.3488 104.397 46.6387L104.396 45.8447L104.397 43.4697C122.392 48.4821 136.277 63.0946 139.95 81.3135H140.97C136.932 60.861 120.284 44.8278 99.2917 41.3301V42.375H95.365V38.5195H95.3679V37.9453C119.939 40.0239 139.823 58.2092 144.017 81.6982H143.005C139.057 60.0149 121.482 42.9694 99.2917 39.4111V40.3721C120.831 43.8923 137.911 60.362 141.958 81.3584C142.261 81.4653 142.478 81.7497 142.478 82.084V82.8555H145.15C141.19 56.9311 118.506 37.0231 91.0495 36.835V35.8203C119.078 36.0089 142.226 56.3687 146.195 82.8555H149.045C145.035 54.7099 120.422 33.0498 90.657 33.0498ZM90.657 33.8916C104.601 33.8916 117.398 38.7156 127.412 46.7568C127.794 46.62 128.238 46.6902 128.561 46.9766L131.751 49.8047C132.083 50.0994 132.195 50.5436 132.08 50.9395C140.31 59.1561 146.025 69.8101 147.999 81.6982H146.916C144.953 70.1055 139.365 59.7163 131.335 51.6924C130.963 51.8082 130.54 51.733 130.23 51.458L127.041 48.6289C126.722 48.3457 126.605 47.9247 126.699 47.541C116.875 39.6652 104.328 34.9414 90.657 34.9414C90.3945 34.9414 90.1324 34.9438 89.8708 34.9473V35.8242L89.8718 36.7832L89.9284 36.8389C89.9093 36.8391 89.89 36.8386 89.8708 36.8389V37.752C90.1324 37.7483 90.3945 37.7471 90.657 37.7471V38.7266C90.3945 38.7266 90.1324 38.7277 89.8708 38.7314V39.6807C90.1324 39.6769 90.3945 39.6748 90.657 39.6748V40.6182C90.3945 40.6182 90.1324 40.6202 89.8708 40.624V40.834H89.3318C89.8583 40.8523 90.3099 41.1611 90.5241 41.6025C90.5684 41.6024 90.6127 41.6025 90.657 41.6025V48.7373C90.657 49.4827 90.0409 50.0869 89.282 50.0869C88.5232 50.0867 87.9079 49.4825 87.9079 48.7373V42.1826C87.9079 41.4534 88.497 40.8595 89.2331 40.834H88.6931V40.6543C88.4969 40.6616 88.3008 40.6703 88.1052 40.6797V39.7344C88.3008 39.7251 88.4969 39.7171 88.6931 39.71V38.7607C88.4969 38.7677 88.3008 38.7761 88.1052 38.7852V37.8047C88.3008 37.7958 88.497 37.7881 88.6931 37.7812V36.8672C88.6714 36.8679 88.6494 36.8693 88.6277 36.8701L88.6931 36.7842V34.9746C58.1042 35.9912 33.624 60.6635 33.6237 90.9512C33.6237 120.589 57.0639 144.85 86.7312 146.831V146.855H87.1111C87.376 146.871 87.642 146.885 87.9079 146.897V141.071H88.4489C87.7126 141.046 87.1237 140.452 87.1237 139.723V133.168C87.1237 132.423 87.7388 131.818 88.4978 131.818C89.2568 131.818 89.8718 132.423 89.8718 133.168V139.723C89.8718 140.452 89.283 141.046 88.5466 141.071H89.0857V141.262L89.0866 142.206L89.0857 143.154L89.0866 144.135L89.0857 145.048L89.0866 146.062L89.0857 146.94C89.6075 146.954 90.1316 146.962 90.657 146.962C120.969 146.962 145.757 123.739 147.582 94.4219H148.654C146.828 124.319 121.559 148.012 90.657 148.012C90.1317 148.012 89.6076 148.005 89.0857 147.991V148.013H87.9079V147.949C57.0952 146.54 32.5544 121.56 32.5544 90.9512C32.5546 60.0835 57.5135 34.9409 88.6931 33.9238V33.8926H89.8708V33.8965C90.1324 33.8931 90.3945 33.8916 90.657 33.8916ZM87.5163 36.9199C58.5434 38.5186 35.5508 62.0982 35.5505 90.9512C35.5505 119.281 57.7163 142.527 85.945 144.874V143.958C58.2304 141.613 36.4802 118.776 36.4802 90.9512C36.4804 65.4021 54.8184 44.0595 79.2732 38.9238V38.9043H79.363C80.6255 38.6414 81.9047 38.422 83.198 38.2471L83.1999 42.7607H79.2732V41.8643C78.3425 42.0715 77.4211 42.3043 76.5105 42.5605L74.5612 42.9521V43.1504C54.1404 49.7786 39.4042 68.675 39.404 90.9512C39.404 112.941 53.7637 131.638 73.7761 138.491V138.951L82.4128 140.687L86.7312 141.457V142.086C59.7281 140.115 38.4431 117.974 38.4431 90.9512C38.4433 66.4716 55.911 45.9982 79.2732 40.8965V39.9258C55.3733 45.0445 37.4775 65.9453 37.4773 90.9512C37.4773 118.498 59.1941 141.064 86.7312 143.037V145.951C57.5579 143.972 34.5173 120.104 34.5173 90.9512C34.5175 61.5376 57.9725 37.5042 87.5163 35.9043V36.9199ZM74.5612 45.4111L74.5583 45.4121V46.2295L74.5612 46.2285V47.4092C59.1872 52.8915 47.5393 66.0032 44.364 82.084H45.2116C48.3555 66.457 59.6485 53.7064 74.5612 48.2793V49.418L74.5583 49.4189V50.3428L74.5612 50.3418V51.4395C62.6801 56.1116 53.3969 65.803 49.4304 77.8428H61.6052C61.6054 77.4171 61.9578 77.0723 62.3913 77.0723H70.2429C70.6762 77.0725 71.0278 77.4172 71.028 77.8428H77.3093V79H71.028C71.028 79.4257 70.6763 79.7703 70.2429 79.7705H62.3913C61.9578 79.7705 61.6053 79.4258 61.6052 79H47.9851C51.7157 66.1293 61.3213 55.6881 73.7732 50.6514V49.7217C59.854 55.2241 49.3628 67.3271 46.3191 82.084H61.6052C61.6053 81.6582 61.9578 81.3135 62.3913 81.3135H70.2429C70.6763 81.3137 71.0279 81.6583 71.028 82.084H77.3093V83.2412H71.028C71.0278 83.6668 70.6762 84.0115 70.2429 84.0117H62.3913C61.9578 84.0117 61.6054 83.6669 61.6052 83.2412H43.0046C45.8266 66.2933 57.7967 52.366 73.7732 46.5098V45.6875C56.3988 51.9396 43.6269 67.5641 41.8073 86.3252H61.6052C61.6052 85.8993 61.9577 85.5537 62.3913 85.5537H70.2429C70.6763 85.5539 71.028 85.8995 71.028 86.3252H77.3093V87.4814H71.028C71.028 87.9072 70.6763 88.2527 70.2429 88.2529H62.3913C61.9577 88.2529 61.6052 87.9073 61.6052 87.4814H41.7087C41.6257 88.6273 41.5837 89.7846 41.5837 90.9512C41.5837 111.451 54.6175 128.963 72.9909 135.928V135.1C55.0607 128.174 42.3689 111.018 42.3689 90.9512C42.3689 90.8228 42.3698 90.6945 42.3708 90.5664H61.6052C61.6052 90.1406 61.9577 89.7949 62.3913 89.7949H70.2429C70.6763 89.7951 71.028 90.1407 71.028 90.5664H77.3093V91.7227H71.028C71.028 92.1484 70.6763 92.4939 70.2429 92.4941H62.3913C61.9577 92.4941 61.6052 92.1485 61.6052 91.7227H45.4245C45.7373 109.773 57.0113 125.201 72.9909 131.864V130.927C57.8481 124.464 47.0943 109.945 46.3376 92.8789H47.3786C48.1408 109.664 58.8066 123.92 73.7761 130.146L73.7771 132.592L73.7761 133.33C56.7698 126.792 44.6591 110.666 44.3386 91.7227H43.5075C43.8301 111.124 56.3016 127.625 73.7761 134.206V137.447C54.3273 130.637 40.406 112.39 40.406 90.9512C40.4062 69.225 54.7031 50.7783 74.5612 44.1885V45.4111ZM84.7683 59.1074H93.405V45.0723H102.042V59.1074H117.445V96.9658C117.445 109.547 111.586 119.621 101.257 124.06V137.217H92.6198V126.291C91.2916 126.44 89.9166 126.517 88.4968 126.517C86.9498 126.517 85.4434 126.431 83.9831 126.262V137.217H76.1316V124.364C66.0844 120.478 59.6424 111.4 59.6423 97.7217H71.8611C71.8611 109.051 77.3125 114.81 88.4968 114.81C99.7753 114.81 105.039 106.973 105.039 96.9658V70.7197H70.5808V59.1074H76.9167V45.0723H84.7683V59.1074ZM136.559 97.1201C134.082 115.07 120.944 129.695 103.612 134.643V131.562C118.284 127.052 129.599 115.086 132.957 100.183L134.575 97.1357C132.173 113.736 120.243 127.323 104.396 132.388V133.293C120.736 128.184 133.047 114.206 135.464 97.1201H136.559ZM97.3308 95.1875C97.586 95.9823 97.7233 96.8252 97.7234 97.6982C97.7234 102.489 93.5929 106.373 88.4978 106.373C83.4025 106.373 79.2722 102.489 79.2722 97.6982C79.2722 96.8252 79.4095 95.9823 79.6648 95.1875V77.0723H97.3308V95.1875ZM142.478 92.1084H143.263V90.9512H142.478V92.1084ZM148.367 92.1084H151.532C151.539 91.7237 151.544 91.3376 151.544 90.9512H148.367V92.1084ZM142.818 88.6387C142.835 89.023 142.848 89.4084 142.857 89.7949H143.263V88.6387H142.818ZM142.661 86.3252C142.696 86.7094 142.726 87.0948 142.753 87.4814H143.368C143.504 87.251 143.758 87.0967 144.049 87.0967H147.582C147.872 87.0968 148.126 87.2512 148.261 87.4814H149.545V86.3252H142.661ZM142.478 85.1689H151.262C151.225 84.7823 151.183 84.3962 151.137 84.0117H142.478V85.1689ZM104.397 47.4922C119.708 52.1556 131.619 64.4075 135.572 79.7705H134.451C130.621 65.2619 119.513 53.6318 105.182 48.8633V49.7744C118.772 54.3971 129.363 65.3253 133.327 78.9951L131.475 76.6641C127.023 64.3973 117 54.727 104.397 50.5908L104.396 50.085L104.397 47.4922Z" fill="#022426"/>
<path d="M89.213 160.599L88.7072 160.582C88.6463 160.579 88.6143 160.608 88.6123 160.669L88.4755 164.577L86.833 164.52L86.9879 160.095C86.9962 159.856 87.0905 159.654 87.268 159.491C87.447 159.325 87.7721 159.25 88.2457 159.267L89.2583 159.302L89.213 160.599Z" fill="url(#paint1_linear_164_2)"/>
<path d="M70.1147 156.201L68.6508 161.295L70.2305 161.747L70.8859 159.467L71.0072 161.969L72.5194 162.402L73.9834 157.308L72.4035 156.856L71.7492 159.133L71.6268 156.634L70.1147 156.201Z" fill="url(#paint2_linear_164_2)"/>
<path fill-rule="evenodd" clip-rule="evenodd" d="M60.2025 152.145C60.0548 152.114 59.8829 152.136 59.6868 152.209C59.2978 152.353 58.9827 152.684 58.7425 153.198L57.8277 155.155C57.5875 155.669 57.5365 156.123 57.6753 156.513C57.7452 156.71 57.8394 156.855 57.9579 156.948L60.6838 158.216L62.9284 153.413L60.2025 152.145ZM60.4567 153.41C60.4814 153.357 60.5194 153.344 60.5724 153.368L61.0354 153.584L59.5978 156.66L59.1349 156.444C59.0819 156.42 59.0681 156.382 59.0928 156.329L60.4567 153.41Z" fill="url(#paint3_linear_164_2)"/>
<path d="M56.2782 156.126L53.7129 154.648L54.1902 153.823L55.3324 154.481L55.888 153.521L54.7458 152.863L55.2161 152.051L56.3582 152.709L57.0332 151.542L55.891 150.884L56.3685 150.059L58.9338 151.537L56.2782 156.126Z" fill="url(#paint4_linear_164_2)"/>
<path d="M50.8224 152.881C50.4261 152.624 50.2017 152.376 50.1518 152.138C50.1008 151.903 50.1429 151.683 50.2762 151.479L50.8891 150.537L52.2676 151.43L51.7443 152.234C51.7112 152.285 51.7189 152.326 51.768 152.357L52.1233 152.587C52.1723 152.619 52.2126 152.61 52.2457 152.559L54.0035 149.858C54.0339 149.811 54.025 149.773 53.9758 149.741L53.6206 149.511C53.5716 149.479 53.5325 149.486 53.5021 149.533L52.9743 150.344L51.5958 149.451L52.2132 148.502C52.3439 148.302 52.5269 148.176 52.7622 148.127C53.0008 148.075 53.3188 148.179 53.7152 148.436L54.9183 149.216C55.3168 149.474 55.5412 149.721 55.589 149.958C55.6419 150.194 55.5384 150.511 55.2811 150.906L53.7249 153.297C53.4647 153.697 53.216 153.922 52.9785 153.969C52.7421 154.022 52.424 153.919 52.0257 153.66L50.8224 152.881Z" fill="url(#paint5_linear_164_2)"/>
<path d="M49.1148 151.801L46.7182 150.064L47.2796 149.293L48.3465 150.067L48.9995 149.17L47.9326 148.396L48.4855 147.637L49.5524 148.411L50.3458 147.321L49.2789 146.547L49.8401 145.776L52.2366 147.514L49.1148 151.801Z" fill="url(#paint6_linear_164_2)"/>
<path d="M46.3383 142.976L42.9958 147.094L44.2731 148.126L45.7693 146.283L44.9011 148.634L46.1236 149.622L49.4659 145.503L48.1888 144.471L46.6948 146.312L47.5608 143.964L46.3383 142.976Z" fill="url(#paint7_linear_164_2)"/>
<path d="M42.313 146.681L39.4756 143.947L40.1388 143.261L40.9663 144.059L43.9926 140.932L45.1748 142.071L42.1487 145.198L42.9763 145.995L42.313 146.681Z" fill="url(#paint8_linear_164_2)"/>
<path fill-rule="evenodd" clip-rule="evenodd" d="M37.1321 141.577C36.8098 141.232 36.6523 140.937 36.6615 140.694C36.6709 140.453 36.8504 140.17 37.1979 139.847L37.3104 139.742C37.6142 139.459 37.8552 139.305 38.0343 139.278C38.2084 139.253 38.4561 139.365 38.7776 139.613C38.5531 139.275 38.4606 139.019 38.4997 138.846C38.5387 138.669 38.6249 138.519 38.7576 138.395L39.5763 137.633C39.8522 137.377 40.0352 137.167 40.1228 137.006L41.2437 138.206C41.1422 138.38 40.947 138.601 40.6589 138.869L39.835 139.635C39.8079 139.66 39.8018 139.692 39.8147 139.731L40.1843 140.126L41.7109 138.705L42.8317 139.905L38.9473 143.519L37.1321 141.577ZM38.1835 141.172C38.139 141.213 38.1366 141.255 38.1764 141.297L38.5248 141.67L39.5323 140.733L39.1839 140.36C39.1439 140.317 39.1026 140.317 39.0607 140.356L38.1835 141.172Z" fill="url(#paint9_linear_164_2)"/>
<path fill-rule="evenodd" clip-rule="evenodd" d="M35.0566 139.305L39.9184 136.841L38.9358 135.673L37.8231 136.304L37.1986 135.562L38.012 134.574L37.0323 133.409L33.757 137.759L35.0566 139.305ZM36.9889 136.783L35.4966 137.619L36.5823 136.3L36.9889 136.783Z" fill="url(#paint10_linear_164_2)"/>
<path d="M32.6449 136.437L31.633 135.145L34.7933 132.681L33.9813 131.644L35.0065 130.845L36.8301 133.174L32.6449 136.437Z" fill="url(#paint11_linear_164_2)"/>
<path d="M30.4477 133.563L29.5051 132.219L33.8557 129.18L34.7983 130.523L30.4477 133.563Z" fill="url(#paint12_linear_164_2)"/>
<path d="M29.1105 131.671L30.2188 130.98L29.4226 129.708L33.6595 128.934L31.7161 125.831L30.6128 126.519L31.3331 127.669L27.1505 128.541L29.1105 131.671Z" fill="url(#paint13_linear_164_2)"/>
<path d="M26.8127 128.077L25.3766 125.492L26.2117 125.03L26.8512 126.181L27.8229 125.643L27.1836 124.492L28.0062 124.037L28.6455 125.188L29.8261 124.535L29.1868 123.384L30.0219 122.922L31.458 125.508L26.8127 128.077Z" fill="url(#paint14_linear_164_2)"/>
<path fill-rule="evenodd" clip-rule="evenodd" d="M28.4673 119.757C28.3697 119.642 28.2214 119.553 28.0216 119.491C27.6258 119.366 27.1736 119.432 26.6674 119.69L24.7385 120.671C24.2321 120.928 23.9123 121.254 23.7807 121.647C23.7144 121.845 23.6991 122.017 23.7349 122.163L25.1004 124.837L29.8328 122.431L28.4673 119.757ZM27.8867 120.911C27.9389 120.884 27.9775 120.896 28.004 120.949L28.2359 121.403L25.205 122.943L24.9732 122.489C24.9466 122.437 24.9593 122.399 25.0113 122.372L27.8867 120.911Z" fill="url(#paint15_linear_164_2)"/>
<path fill-rule="evenodd" clip-rule="evenodd" d="M26.0882 114.045C26.0031 113.921 25.8649 113.817 25.6729 113.734C25.2923 113.569 24.8356 113.588 24.3052 113.791L22.284 114.565C21.7535 114.768 21.4014 115.059 21.2294 115.436C21.1427 115.626 21.1094 115.796 21.1297 115.945L22.2076 118.747L27.1659 116.847L26.0882 114.045ZM25.3901 115.132C25.4447 115.111 25.4816 115.128 25.5027 115.182L25.6857 115.658L22.5101 116.874L22.3269 116.398C22.306 116.344 22.3225 116.307 22.377 116.286L25.3901 115.132Z" fill="url(#paint16_linear_164_2)"/>
<path d="M20.629 114.408L20.121 112.848L25.1723 111.211L25.6802 112.77L20.629 114.408Z" fill="url(#paint17_linear_164_2)"/>
<path d="M19.1417 109.572C19.0192 109.117 19.0188 108.783 19.1413 108.573C19.2633 108.364 19.5548 108.198 20.0136 108.075L20.8045 107.864L21.2298 109.448L20.2729 109.704C20.2153 109.719 20.1927 109.755 20.208 109.811L20.3176 110.22C20.3328 110.276 20.3701 110.296 20.4277 110.28L23.5463 109.446C23.5992 109.432 23.6195 109.397 23.6044 109.341L23.4948 108.933C23.4796 108.876 23.4445 108.856 23.3915 108.87L22.3816 109.14L22.4584 109.427L21.8844 109.58L21.3821 107.71L23.9552 107.022L24.0783 107.48L23.6369 107.764C23.9585 107.729 24.1987 107.984 24.36 108.529L24.6432 109.584C24.7661 110.041 24.768 110.375 24.647 110.582C24.5258 110.794 24.2355 110.96 23.779 111.082L21.0192 111.82C20.5604 111.942 20.2246 111.944 20.0138 111.821C19.8026 111.702 19.6359 111.413 19.513 110.955L19.1417 109.572Z" fill="url(#paint18_linear_164_2)"/>
<path d="M18.7257 107.74L18.3561 106.142L23.5311 104.95L23.9009 106.548L18.7257 107.74Z" fill="url(#paint19_linear_164_2)"/>
<path d="M18.1902 105.531L17.5052 101.655L18.4455 101.489L18.6454 102.62L22.9356 101.865L23.221 103.48L18.9309 104.235L19.1306 105.365L18.1902 105.531Z" fill="url(#paint20_linear_164_2)"/>
<path fill-rule="evenodd" clip-rule="evenodd" d="M17.3036 100.316L22.7257 100.893L22.5394 99.3785L21.2615 99.3034L21.1432 98.3413L22.3642 97.9552L22.1786 96.4458L17.0572 98.3139L17.3036 100.316ZM20.3004 99.252L18.5925 99.1421L20.2233 98.6255L20.3004 99.252Z" fill="url(#paint21_linear_164_2)"/>
<path d="M16.8895 96.5514L16.7748 94.9155L20.7754 94.6364L20.6835 93.3236L21.981 93.2331L22.1878 96.1817L16.8895 96.5514Z" fill="url(#paint22_linear_164_2)"/>
<path d="M16.7715 88.1975C16.788 87.7262 16.8853 87.4068 17.0643 87.2413C17.2395 87.0769 17.4499 86.9997 17.6945 87.0082L18.8194 87.0473L18.7621 88.6864L17.8017 88.6529C17.741 88.6509 17.7101 88.6783 17.7081 88.7367L17.6932 89.1591C17.6912 89.2175 17.7201 89.247 17.781 89.2492L21.0062 89.3615C21.0623 89.3635 21.0907 89.3359 21.0927 89.2775L21.1076 88.8551C21.1096 88.7967 21.0831 88.7673 21.0272 88.7654L20.0586 88.7316L20.116 87.0925L21.249 87.1321C21.4887 87.1403 21.6911 87.2321 21.8544 87.4082C22.0215 87.5856 22.096 87.9111 22.0796 88.3824L22.0295 89.8132C22.0129 90.2868 21.9158 90.6062 21.7368 90.7692C21.5615 90.9361 21.2364 91.0104 20.7639 90.994L17.9086 90.8945C17.4312 90.8778 17.1099 90.7809 16.9465 90.6023C16.7796 90.4274 16.7048 90.1019 16.7215 89.6282L16.7715 88.1975Z" fill="url(#paint23_linear_164_2)"/>
<path d="M17.1245 82.3551L21.1969 82.7107C21.6677 82.7518 21.9814 82.864 22.1353 83.0485C22.2929 83.2343 22.3502 83.5632 22.309 84.0331L22.1839 85.4592C22.1425 85.9313 22.0288 86.2452 21.8415 86.3987C21.6577 86.5561 21.3291 86.6134 20.8582 86.5723L16.786 86.2167L16.9292 84.5831L21.175 84.9538C21.2358 84.9591 21.2681 84.9321 21.2734 84.8715L21.3099 84.454C21.3151 84.3958 21.2879 84.3648 21.2272 84.3595L16.9813 83.9889L17.1245 82.3551Z" fill="url(#paint24_linear_164_2)"/>
<path fill-rule="evenodd" clip-rule="evenodd" d="M17.5644 78.9541C17.6303 78.4871 17.7604 78.1796 17.9557 78.0337C18.1496 77.8888 18.483 77.8502 18.9533 77.9161L19.1057 77.9376C19.5172 77.9952 19.7889 78.0851 19.9222 78.2073C20.0514 78.3265 20.1205 78.5887 20.1298 78.9939C20.2517 78.6071 20.3929 78.3743 20.5523 78.2956C20.7144 78.2149 20.8857 78.1872 21.0654 78.2123L22.1739 78.3678C22.5476 78.4201 22.8257 78.4304 23.0063 78.3969L22.7776 80.0207C22.578 80.0515 22.2832 80.0392 21.8933 79.9845L20.7776 79.8281C20.7409 79.823 20.7123 79.8381 20.6906 79.8724L20.6152 80.4077L22.6823 80.6977L22.4536 82.3215L17.194 81.5839L17.5644 78.9541ZM18.5414 79.5145C18.481 79.5061 18.4476 79.5301 18.4395 79.588L18.3683 80.0927L19.7324 80.284L19.8034 79.7792C19.8115 79.7214 19.7859 79.689 19.7292 79.681L18.5414 79.5145Z" fill="url(#paint25_linear_164_2)"/>
<path fill-rule="evenodd" clip-rule="evenodd" d="M18.5636 74.0373C18.6779 73.5797 18.8397 73.2874 19.0491 73.1628C19.2572 73.0389 19.5928 73.0354 20.0536 73.1499L20.203 73.1871C20.606 73.2873 20.8669 73.4051 20.9867 73.5406C21.1027 73.6724 21.1439 73.9404 21.1107 74.3446C21.2725 73.9725 21.4373 73.7558 21.604 73.6941C21.7737 73.6307 21.947 73.621 22.1231 73.6648L23.2093 73.935C23.5753 74.0261 23.8509 74.0652 24.0341 74.0507L23.6365 75.6418C23.4348 75.6518 23.1428 75.6086 22.7607 75.5136L21.6677 75.2417C21.6318 75.2327 21.6016 75.2448 21.5765 75.2766L21.4453 75.8012L23.4707 76.3051L23.0732 77.8963L17.9196 76.6142L18.5636 74.0373ZM19.4764 74.6965C19.4174 74.6819 19.3815 74.7023 19.3673 74.759L19.2438 75.2536L20.5803 75.586L20.7038 75.0915C20.718 75.0348 20.696 74.9999 20.6404 74.9862L19.4764 74.6965Z" fill="url(#paint26_linear_164_2)"/>
<path d="M18.9999 72.079L19.8164 69.2378L20.7342 69.5004L20.3707 70.7653L21.4388 71.071L21.8023 69.806L22.7064 70.0646L22.3428 71.3296L23.6404 71.7009L24.004 70.4359L24.9218 70.6986L24.1053 73.5399L18.9999 72.079Z" fill="url(#paint27_linear_164_2)"/>
<path d="M26.373 66.4599L21.3512 64.7346L20.8162 66.285L23.0641 67.0573L20.5531 67.0473L20.0409 68.5314L25.0628 70.2567L25.5979 68.7063L23.3533 67.9351L25.861 67.944L26.373 66.4599Z" fill="url(#paint28_linear_164_2)"/>
<path d="M22.5821 61.5264C22.7591 61.0892 22.9601 60.8221 23.1848 60.7277C23.4059 60.6331 23.6301 60.6324 23.857 60.7238L24.9006 61.1445L24.2849 62.6652L23.394 62.306C23.3377 62.2833 23.2993 62.2985 23.2774 62.3528L23.1186 62.7446C23.0967 62.7988 23.1136 62.8364 23.1701 62.8591L26.1624 64.0654C26.2144 64.0864 26.2506 64.0702 26.2725 64.016L26.4311 63.6241C26.4531 63.5699 26.4383 63.5333 26.3863 63.5123L25.4878 63.15L26.1035 61.6295L27.1549 62.0533C27.3772 62.1429 27.5359 62.2981 27.6289 62.5193C27.7251 62.743 27.6836 63.0744 27.5065 63.5116L26.9691 64.8389C26.7912 65.2785 26.5904 65.5455 26.3663 65.6374C26.1444 65.7344 25.8134 65.6934 25.3753 65.5167L22.726 64.4488C22.2834 64.2703 22.0145 64.0694 21.9222 63.846C21.8254 63.6244 21.8668 63.2932 22.0446 62.8537L22.5821 61.5264Z" fill="url(#paint29_linear_164_2)"/>
<path d="M26.6416 59.9032L23.3975 59.6089L24.1281 58.2378L25.9265 58.5918L24.6256 57.3041L25.3557 55.9339L27.4149 58.452L29.4531 59.5333L28.6797 60.9845L26.6416 59.9032Z" fill="url(#paint30_linear_164_2)"/>
<path d="M81.3469 164.006C80.8789 163.94 80.5707 163.81 80.4245 163.616C80.279 163.424 80.224 163.207 80.2581 162.966L80.4147 161.854L82.0422 162.082L81.9086 163.031C81.9001 163.091 81.9242 163.125 81.9823 163.133L82.4017 163.192C82.4598 163.2 82.4921 163.174 82.5007 163.114L82.9498 159.925C82.9576 159.87 82.9331 159.839 82.8751 159.831L82.4556 159.772C82.3976 159.764 82.3655 159.787 82.3576 159.842L82.2229 160.8L80.5952 160.572L80.7531 159.451C80.7863 159.214 80.8989 159.023 81.0916 158.88C81.2858 158.732 81.6181 158.692 82.0861 158.758L83.5069 158.957C83.9772 159.023 84.2855 159.153 84.4293 159.348C84.5771 159.539 84.6173 159.869 84.5515 160.336L84.1538 163.16C84.0875 163.631 83.9572 163.94 83.7621 164.084C83.5703 164.231 83.238 164.271 82.7677 164.205L81.3469 164.006Z" fill="url(#paint31_linear_164_2)"/>
<path fill-rule="evenodd" clip-rule="evenodd" d="M76.7354 163.31C76.2713 163.22 75.9704 163.074 75.8346 162.872C75.6993 162.674 75.6781 162.339 75.7691 161.872L76.3144 159.073C76.4045 158.61 76.5492 158.311 76.7491 158.177C76.951 158.04 77.2849 158.018 77.7488 158.108L79.1571 158.381C79.6233 158.471 79.9244 158.617 80.0578 158.819C80.1953 159.018 80.2181 159.35 80.128 159.813L79.5828 162.612C79.4917 163.079 79.3454 163.381 79.1432 163.514C78.9438 163.651 78.6099 163.674 78.1437 163.583L76.7354 163.31ZM77.3459 162.373C77.3353 162.428 77.3581 162.46 77.4156 162.471L77.8314 162.552C77.8889 162.563 77.9221 162.542 77.9329 162.487L78.5487 159.326C78.5603 159.266 78.5379 159.231 78.4805 159.22L78.0645 159.14C78.0071 159.129 77.9733 159.152 77.9618 159.212L77.3459 162.373Z" fill="url(#paint32_linear_164_2)"/>
<path d="M74.8777 162.913L73.2762 162.544L74.4711 157.38L76.0724 157.749L74.8777 162.913Z" fill="url(#paint33_linear_164_2)"/>
<path d="M32.6908 51.3756L32.9883 50.9671C33.024 50.918 33.0179 50.8755 32.9689 50.8398L29.7978 48.5409L30.7638 47.2144L34.3539 49.8169C34.5479 49.9576 34.6628 50.1483 34.6989 50.3864C34.7373 50.6276 34.6173 50.9381 34.3388 51.3206L33.7432 52.1386L32.6908 51.3756Z" fill="url(#paint34_linear_164_2)"/>
<path d="M33.9848 43.0341C34.2823 42.6677 34.5527 42.4709 34.7954 42.4463C35.0344 42.4203 35.2491 42.4849 35.4393 42.6386L36.3139 43.3453L35.2796 44.6198L34.5329 44.0165C34.4856 43.9783 34.4445 43.9818 34.4076 44.0271L34.1409 44.3557C34.1041 44.401 34.1094 44.442 34.1567 44.4802L36.6648 46.5067C36.7083 46.5419 36.7477 46.5369 36.7845 46.4916L37.0511 46.163C37.0879 46.1177 37.0845 46.0783 37.0409 46.043L36.2878 45.4346L37.3223 44.16L38.2035 44.872C38.3897 45.0225 38.4959 45.2173 38.5203 45.456C38.5467 45.6981 38.4099 46.0027 38.1124 46.3693L37.2096 47.4817C36.9105 47.8501 36.6404 48.047 36.3992 48.0696C36.1585 48.0975 35.854 47.9616 35.4866 47.6648L33.2662 45.8707C32.895 45.571 32.6969 45.3005 32.6742 45.0598C32.6463 44.8198 32.7829 44.5151 33.082 44.1466L33.9848 43.0341Z" fill="url(#paint35_linear_164_2)"/>
<path fill-rule="evenodd" clip-rule="evenodd" d="M37.2088 39.4972C37.5372 39.1579 37.8237 38.9854 38.0676 38.982C38.3081 38.9768 38.6004 39.1411 38.9439 39.472L40.9993 41.4524C41.3392 41.7801 41.5122 42.0643 41.5155 42.3042C41.5207 42.5476 41.3578 42.8392 41.0294 43.1786L40.0327 44.2083C39.7028 44.5492 39.4164 44.7218 39.1742 44.7234C38.932 44.7302 38.6405 44.5685 38.3006 44.2409L36.2452 42.2604C35.9017 41.9295 35.7279 41.6428 35.7263 41.4012C35.7194 41.1597 35.8823 40.8678 36.2122 40.5269L37.2088 39.4972ZM37.664 40.5185C37.6235 40.4796 37.584 40.4811 37.5433 40.5232L37.2491 40.8272C37.2083 40.8692 37.2083 40.9088 37.2486 40.9476L39.57 43.1845C39.6139 43.2267 39.6551 43.2269 39.6959 43.185L39.9901 42.8808C40.0308 42.8388 40.0291 42.7976 39.9854 42.7554L37.664 40.5185Z" fill="url(#paint36_linear_164_2)"/>
<path d="M38.6525 38.0782L39.8544 36.9598L43.4767 40.8356L42.2747 41.9539L38.6525 38.0782Z" fill="url(#paint37_linear_164_2)"/>
<path d="M46.8545 37.8105L43.4407 33.7507L42.1816 34.8049L43.7099 36.622L41.5627 35.3231L40.3577 36.3321L43.7715 40.3917L45.0306 39.3375L43.5047 37.523L45.6495 38.8193L46.8545 37.8105Z" fill="url(#paint38_linear_164_2)"/>
<path fill-rule="evenodd" clip-rule="evenodd" d="M54.0108 32.5409C54.117 32.434 54.1927 32.2786 54.2381 32.0747C54.3282 31.6704 54.2222 31.2267 53.9212 30.746L52.7739 28.9141C52.4727 28.4332 52.1197 28.1438 51.7159 28.0472C51.5123 27.9985 51.3391 27.9984 51.1962 28.0467L48.6455 29.637L51.4601 34.1313L54.0108 32.5409ZM52.8088 32.0644C52.8397 32.114 52.8306 32.1532 52.781 32.1842L52.3478 32.4542L50.5452 29.5761L50.9784 29.3059C51.0281 29.2749 51.0676 29.2842 51.0985 29.3336L52.8088 32.0644Z" fill="url(#paint39_linear_164_2)"/>
<path d="M52.6214 27.1493L55.2124 25.7163L55.6752 26.5496L54.5217 27.1876L55.0604 28.1572L56.2139 27.5193L56.6698 28.3401L55.5164 28.9779L56.1708 30.156L57.3242 29.5181L57.7872 30.3513L55.1964 31.7843L52.6214 27.1493Z" fill="url(#paint40_linear_164_2)"/>
<path d="M58.1108 24.1495C58.5319 23.9353 58.8592 23.8654 59.0909 23.9414C59.3198 24.0146 59.4897 24.1609 59.6007 24.3784L60.1118 25.379L58.6473 26.1236L58.2112 25.2695C58.1835 25.2152 58.1445 25.2017 58.0923 25.2282L57.7148 25.4201C57.6626 25.4466 57.6508 25.486 57.6784 25.5403L59.1435 28.4094C59.169 28.4593 59.2069 28.4708 59.2591 28.4443L59.6365 28.2524C59.6888 28.2259 59.7018 28.1885 59.6763 28.1386L59.2363 27.277L60.7008 26.5326L61.2155 27.5405C61.3245 27.7538 61.3421 27.9747 61.267 28.2026C61.1924 28.4345 60.9432 28.6573 60.522 28.8714L59.2438 29.5214C58.8205 29.7365 58.4934 29.8067 58.2638 29.7294C58.0327 29.6572 57.8097 29.4097 57.5952 28.9895L56.2981 26.4492C56.0813 26.0247 56.0104 25.6972 56.0879 25.4681C56.1602 25.2375 56.4092 25.0146 56.8326 24.7994L58.1108 24.1495Z" fill="url(#paint41_linear_164_2)"/>
<path d="M59.9405 23.3179L62.6467 22.1157L63.0351 22.986L61.8302 23.5213L62.2821 24.5342L63.487 23.9989L63.8695 24.8563L62.6647 25.3915L63.2137 26.6219L64.4186 26.0867L64.8069 26.957L62.1008 28.1593L59.9405 23.3179Z" fill="url(#paint42_linear_164_2)"/>
<path d="M69.028 25.3745L67.1246 20.4269L65.5905 21.0146L66.4424 23.2294L64.8359 21.3035L63.3674 21.8661L65.2708 26.8135L66.8051 26.226L65.9544 24.0145L67.5595 25.9369L69.028 25.3745Z" fill="url(#paint43_linear_164_2)"/>
<path d="M67.9969 20.1116L71.8069 19.0929L72.054 20.0131L70.9427 20.3102L72.0701 24.509L70.4827 24.9334L69.3552 20.7346L68.2439 21.0317L67.9969 20.1116Z" fill="url(#paint44_linear_164_2)"/>
<path fill-rule="evenodd" clip-rule="evenodd" d="M74.9469 18.3278C75.4092 18.2296 75.7435 18.2466 75.9476 18.3798C76.1503 18.5121 76.3007 18.8114 76.3995 19.2749L76.4315 19.4252C76.5178 19.8306 76.5261 20.1162 76.4566 20.2831C76.3886 20.4448 76.1653 20.5994 75.7868 20.7466C76.1929 20.7285 76.4604 20.7815 76.5889 20.904C76.7204 21.0283 76.8052 21.1794 76.8429 21.3566L77.0756 22.4491C77.154 22.8173 77.2396 23.0817 77.3329 23.2396L75.7254 23.5806C75.6281 23.404 75.539 23.1233 75.457 22.7389L75.2228 21.6394C75.2151 21.6032 75.1911 21.5816 75.1514 21.573L74.6213 21.6853L75.0554 23.7226L73.4478 24.0635L72.3436 18.8798L74.9469 18.3278ZM74.7532 19.4354C74.7406 19.3759 74.7065 19.3528 74.6492 19.3649L74.1495 19.4709L74.4359 20.8152L74.9356 20.7092C74.9929 20.6971 75.0146 20.662 75.0027 20.6061L74.7532 19.4354Z" fill="url(#paint45_linear_164_2)"/>
<path fill-rule="evenodd" clip-rule="evenodd" d="M77.9252 17.6751L77.6323 23.1078L79.1378 22.843L79.146 21.5659L80.1029 21.3974L80.553 22.594L82.0541 22.3299L79.9163 17.3247L77.9252 17.6751ZM79.1472 20.6055L79.1678 18.8978L79.7701 20.4958L79.1472 20.6055Z" fill="url(#paint46_linear_164_2)"/>
<path d="M81.6814 17.1097L83.3126 16.9098L83.8014 20.8814L85.1104 20.7211L85.2689 22.0094L82.3286 22.3696L81.6814 17.1097Z" fill="url(#paint47_linear_164_2)"/>
<path d="M85.2881 16.8101L86.9276 16.6956L87.2982 21.9823L85.6586 22.0967L85.2881 16.8101Z" fill="url(#paint48_linear_164_2)"/>
<path d="M87.6265 16.5976L87.6493 17.9015L89.1518 17.8753L87.6345 21.8977L91.3015 21.8338L91.2788 20.5361L89.9197 20.5598L91.3248 16.5332L87.6265 16.5976Z" fill="url(#paint49_linear_164_2)"/>
<path d="M91.8424 16.6049L94.8042 16.6564L94.7876 17.609L93.469 17.586L93.4496 18.6945L94.7683 18.7176L94.7517 19.6558L93.4332 19.6328L93.4096 20.9795L94.7283 21.0025L94.7116 21.955L91.7498 21.9035L91.8424 16.6049Z" fill="url(#paint50_linear_164_2)"/>
<path fill-rule="evenodd" clip-rule="evenodd" d="M98.2012 22.197C98.35 22.1727 98.5029 22.0915 98.6598 21.9532C98.9709 21.679 99.1465 21.2578 99.186 20.6922L99.337 18.5373C99.3767 17.9717 99.2616 17.5305 98.9918 17.2155C98.8558 17.0569 98.7157 16.9551 98.5718 16.9104L95.5714 16.701L95.2008 21.9876L98.2012 22.197ZM97.5095 21.1065C97.5054 21.1648 97.4748 21.1913 97.4164 21.1872L96.9069 21.1516L97.1442 17.7658L97.6538 17.8015C97.7121 17.8055 97.7387 17.836 97.7345 17.8942L97.5095 21.1065Z" fill="url(#paint51_linear_164_2)"/>
<path fill-rule="evenodd" clip-rule="evenodd" d="M104.278 23.1773C104.428 23.1688 104.589 23.1039 104.759 22.9826C105.097 22.7423 105.316 22.3417 105.415 21.7837L105.791 19.6561C105.889 19.0977 105.821 18.647 105.586 18.3056C105.467 18.1336 105.338 18.0178 105.2 17.9583L102.238 17.4372L101.316 22.6562L104.278 23.1773ZM103.704 22.0206C103.694 22.0781 103.661 22.1013 103.603 22.0912L103.1 22.0027L103.691 18.6602L104.194 18.7487C104.251 18.7589 104.274 18.792 104.264 18.8494L103.704 22.0206Z" fill="url(#paint52_linear_164_2)"/>
<path d="M106.721 18.2668L108.329 18.6077L107.224 23.7915L105.617 23.4506L106.721 18.2668Z" fill="url(#paint53_linear_164_2)"/>
<path d="M111.62 19.46C112.077 19.5821 112.367 19.7485 112.488 19.9596C112.609 20.1694 112.607 20.5042 112.484 20.9619L112.272 21.7511L110.684 21.3265L110.94 20.3719C110.956 20.3144 110.936 20.277 110.88 20.2619L110.471 20.1525C110.414 20.1374 110.378 20.16 110.363 20.2175L109.527 23.3291C109.513 23.3819 109.533 23.417 109.59 23.4321L109.999 23.5414C110.056 23.5567 110.091 23.5363 110.105 23.4835L110.375 22.4757L110.088 22.3991L110.242 21.8262L112.117 22.3274L111.427 24.8949L110.969 24.7721L110.942 24.2486C110.812 24.5444 110.471 24.6243 109.917 24.4911L108.86 24.2084C108.401 24.0858 108.111 23.9205 107.991 23.7124C107.868 23.502 107.869 23.168 107.991 22.7126L108.731 19.9587C108.854 19.501 109.021 19.2102 109.233 19.0892C109.441 18.9662 109.776 18.9669 110.234 19.0895L111.62 19.46Z" fill="url(#paint54_linear_164_2)"/>
<path d="M113.543 20.0785L115.106 20.5852L113.465 25.6255L111.902 25.1187L113.543 20.0785Z" fill="url(#paint55_linear_164_2)"/>
<path d="M115.732 20.7762L119.415 22.1867L119.072 23.0762L117.998 22.6647L116.437 26.7228L114.903 26.1353L116.464 22.0772L115.39 21.6657L115.732 20.7762Z" fill="url(#paint56_linear_164_2)"/>
<path fill-rule="evenodd" clip-rule="evenodd" d="M120.638 22.7174L117.35 27.058L118.747 27.6785L119.469 26.6242L120.357 27.0184L120.059 28.2617L121.452 28.8802L122.485 23.538L120.638 22.7174ZM120.008 25.8287L120.982 24.4245L120.586 26.0854L120.008 25.8287Z" fill="url(#paint57_linear_164_2)"/>
<path d="M124.077 24.3621L125.541 25.1065L123.721 28.6719L124.896 29.2693L124.305 30.4258L121.666 29.0839L124.077 24.3621Z" fill="url(#paint58_linear_164_2)"/>
<path d="M131.298 28.4449C131.699 28.6948 131.928 28.9387 131.982 29.176C132.037 29.4097 131.999 29.6301 131.869 29.8372L131.272 30.7896L129.879 29.9206L130.388 29.1076C130.42 29.056 130.412 29.0156 130.362 28.9846L130.003 28.7607C129.953 28.7297 129.913 28.7399 129.881 28.7914L128.171 31.5222C128.141 31.5697 128.15 31.6081 128.2 31.6391L128.559 31.863C128.609 31.894 128.648 31.8859 128.678 31.8384L129.191 31.0184L130.585 31.8874L129.984 32.8469C129.857 33.0499 129.676 33.1787 129.442 33.2319C129.204 33.2875 128.885 33.1892 128.484 32.9393L127.267 32.1807C126.864 31.9295 126.635 31.6858 126.584 31.4498C126.526 31.2148 126.624 30.8967 126.875 30.4967L128.389 28.079C128.642 27.675 128.887 27.4456 129.123 27.3939C129.359 27.337 129.679 27.4352 130.082 27.6863L131.298 28.4449Z" fill="url(#paint59_linear_164_2)"/>
<path d="M136.106 31.7829L133.762 35.124C133.491 35.5104 133.236 35.7252 132.999 35.766C132.759 35.8092 132.445 35.6944 132.058 35.4237L130.883 34.6026C130.493 34.3309 130.278 34.0755 130.238 33.837C130.194 33.5996 130.308 33.2869 130.579 32.9006L132.924 29.5594L134.27 30.5L131.826 33.9836C131.791 34.0333 131.798 34.0748 131.848 34.1097L132.192 34.3501C132.24 34.3836 132.28 34.3755 132.315 34.3258L134.76 30.8421L136.106 31.7829Z" fill="url(#paint60_linear_164_2)"/>
<path fill-rule="evenodd" clip-rule="evenodd" d="M138.904 34.0656C139.266 34.3688 139.458 34.6419 139.479 34.8845C139.499 35.1254 139.355 35.4278 139.05 35.7909L138.951 35.9086C138.684 36.2261 138.464 36.4084 138.289 36.4565C138.119 36.5027 137.86 36.4223 137.511 36.2152C137.775 36.5234 137.898 36.7663 137.88 36.9428C137.863 37.1228 137.796 37.2825 137.679 37.4211L136.96 38.2768C136.717 38.5652 136.561 38.7952 136.494 38.9658L135.235 37.9116C135.314 37.7265 135.481 37.4836 135.734 37.1826L136.458 36.3215C136.482 36.2931 136.484 36.2608 136.467 36.2244L136.052 35.8768L134.71 37.4724L133.451 36.4182L136.865 32.3586L138.904 34.0656ZM137.91 34.5953C137.949 34.5487 137.946 34.5076 137.901 34.47L137.51 34.1425L136.625 35.1953L137.016 35.523C137.061 35.5605 137.102 35.556 137.139 35.5122L137.91 34.5953Z" fill="url(#paint61_linear_164_2)"/>
<path fill-rule="evenodd" clip-rule="evenodd" d="M142.398 37.2927C142.744 37.6143 142.922 37.8973 142.93 38.1405C142.937 38.3821 142.778 38.6768 142.454 39.0233L142.349 39.1356C142.066 39.4388 141.836 39.6094 141.659 39.6484C141.487 39.6854 141.232 39.5916 140.894 39.3667C141.142 39.6883 141.252 39.9372 141.225 40.1125C141.199 40.2914 141.123 40.4473 140.999 40.5798L140.236 41.3966C139.978 41.6719 139.811 41.8933 139.734 42.0604L138.533 40.942C138.622 40.7611 138.801 40.5273 139.07 40.24L139.838 39.4178C139.863 39.3907 139.867 39.3586 139.851 39.3213L139.455 38.9525L138.032 40.4758L136.83 39.3575L140.452 35.4815L142.398 37.2927ZM141.378 37.7698C141.42 37.7254 141.419 37.6841 141.376 37.6444L141.003 37.2968L140.063 38.3019L140.437 38.6495C140.48 38.6894 140.521 38.687 140.56 38.6451L141.378 37.7698Z" fill="url(#paint62_linear_164_2)"/>
<path d="M143.885 38.7578L145.943 40.884L145.256 41.5459L144.34 40.5992L143.541 41.3694L144.457 42.316L143.78 42.9679L142.864 42.0213L141.893 42.9569L142.809 43.9035L142.122 44.5654L140.065 42.4391L143.885 38.7578Z" fill="url(#paint63_linear_164_2)"/>
<path d="M145.073 47.9794L149.081 44.5024L148.003 43.2649L146.209 44.8212L147.473 42.6563L146.441 41.4717L142.433 44.9487L143.511 46.1862L145.303 44.6322L144.041 46.7948L145.073 47.9794Z" fill="url(#paint64_linear_164_2)"/>
<path d="M151.216 47.3537C151.493 47.7352 151.614 48.0469 151.575 48.2871C151.538 48.5242 151.42 48.7145 151.222 48.858L150.312 49.5181L149.346 48.1913L150.123 47.6277C150.172 47.5921 150.179 47.5515 150.145 47.5042L149.896 47.1622C149.862 47.115 149.821 47.1094 149.771 47.1452L147.16 49.0379C147.115 49.0708 147.11 49.1099 147.144 49.1573L147.393 49.4992C147.428 49.5464 147.467 49.5535 147.512 49.5206L148.296 48.9522L149.262 50.2791L148.345 50.9439C148.151 51.0846 147.935 51.1366 147.697 51.0981C147.456 51.061 147.197 50.8502 146.919 50.4687L146.075 49.3106C145.796 48.9271 145.676 48.6157 145.716 48.3775C145.751 48.1383 145.962 47.88 146.344 47.6027L148.656 45.927C149.042 45.647 149.355 45.5259 149.594 45.5663C149.833 45.6017 150.093 45.8121 150.372 46.1956L151.216 47.3537Z" fill="url(#paint65_linear_164_2)"/>
<path d="M150.437 51.5264L152.268 48.838L153.115 50.1404L151.933 51.5383L153.693 51.0272L154.54 52.3287L151.334 52.9049L149.398 54.1594L148.501 52.781L150.437 51.5264Z" fill="url(#paint66_linear_164_2)"/>
<path d="M153.893 59.4991L154.107 59.9567C154.133 60.0119 154.173 60.0271 154.228 60.0016L157.78 58.3487L158.475 59.8349L154.453 61.7061C154.236 61.8072 154.013 61.8151 153.787 61.7312C153.557 61.6478 153.343 61.3924 153.142 60.964L152.714 60.0477L153.893 59.4991Z" fill="url(#paint67_linear_164_2)"/>
<path d="M160.491 64.6888C160.668 65.126 160.71 65.4574 160.614 65.6811C160.521 65.9024 160.36 66.0585 160.133 66.1499L159.089 66.5706L158.474 65.05L159.365 64.6908C159.421 64.6681 159.438 64.6305 159.416 64.5763L159.257 64.1845C159.235 64.1302 159.197 64.115 159.141 64.1377L156.148 65.344C156.096 65.365 156.082 65.4016 156.104 65.4558L156.262 65.8478C156.284 65.9019 156.32 65.9181 156.372 65.8972L157.271 65.535L157.887 67.0555L156.835 67.4793C156.613 67.569 156.391 67.5673 156.17 67.4727C155.945 67.3783 155.744 67.1113 155.567 66.6741L155.029 65.3468C154.852 64.9072 154.81 64.576 154.907 64.3546C154.999 64.131 155.266 63.9311 155.704 63.7544L158.353 62.6864C158.796 62.508 159.129 62.4661 159.351 62.563C159.575 62.6551 159.776 62.922 159.954 63.3615L160.491 64.6888Z" fill="url(#paint68_linear_164_2)"/>
<path fill-rule="evenodd" clip-rule="evenodd" d="M162.028 69.0747C162.182 69.5206 162.205 69.8537 162.098 70.0722C161.993 70.2881 161.714 70.4735 161.262 70.6287L158.561 71.5568C158.114 71.7104 157.782 71.7351 157.566 71.6291C157.346 71.5232 157.16 71.246 157.006 70.8001L156.539 69.4466C156.384 68.9984 156.36 68.6654 156.469 68.4493C156.572 68.2309 156.849 68.0451 157.296 67.8917L159.997 66.9636C160.449 66.8084 160.784 66.7839 161.001 66.8922C161.219 66.996 161.406 67.273 161.561 67.7212L162.028 69.0747ZM160.909 69.0157C160.962 68.9974 160.979 68.9616 160.96 68.9063L160.822 68.5066C160.803 68.4513 160.767 68.4332 160.714 68.4515L157.663 69.4999C157.605 69.5197 157.586 69.5563 157.605 69.6116L157.743 70.0112C157.763 70.0666 157.8 70.0839 157.858 70.0641L160.909 69.0157Z" fill="url(#paint69_linear_164_2)"/>
<path d="M162.527 70.9765L162.98 72.5527L157.875 74.0135L157.422 72.4371L162.527 70.9765Z" fill="url(#paint70_linear_164_2)"/>
<path d="M158.873 78.408L164.027 77.1259L163.629 75.5348L161.322 76.1087L163.434 74.7524L163.053 73.2296L157.899 74.5115L158.297 76.1027L160.601 75.5297L158.493 76.885L158.873 78.408Z" fill="url(#paint71_linear_164_2)"/>
<path fill-rule="evenodd" clip-rule="evenodd" d="M159.68 85.5104C159.728 85.6532 159.832 85.7911 159.993 85.924C160.314 86.1878 160.758 86.2949 161.324 86.2455L163.481 86.0573C164.047 86.0079 164.465 85.8254 164.735 85.5101C164.871 85.3513 164.95 85.1974 164.971 85.0484L164.709 82.0588L159.418 82.5206L159.68 85.5104ZM160.651 84.658C160.593 84.6631 160.562 84.6371 160.557 84.579L160.513 84.0712L163.901 83.7753L163.946 84.2831C163.951 84.3414 163.925 84.3722 163.867 84.3772L160.651 84.658Z" fill="url(#paint72_linear_164_2)"/>
<path d="M165.077 86.6953L165.181 89.6492L164.226 89.6825L164.18 88.3674L163.07 88.406L163.116 89.7212L162.176 89.7539L162.13 88.4389L160.781 88.4858L160.827 89.8009L159.873 89.8341L159.769 86.8802L165.077 86.6953Z" fill="url(#paint73_linear_164_2)"/>
<path d="M165.106 93.0579C165.098 93.5293 165.006 93.8504 164.83 94.019C164.658 94.1864 164.449 94.2672 164.204 94.263L163.079 94.2434L163.108 92.6037L164.068 92.6204C164.129 92.6215 164.159 92.5936 164.161 92.5351L164.168 92.1124C164.169 92.054 164.14 92.025 164.079 92.024L160.852 91.9677C160.796 91.9668 160.768 91.9948 160.767 92.0532L160.759 92.4758C160.758 92.5342 160.785 92.5632 160.841 92.5643L161.81 92.5811L161.782 94.2208L160.648 94.2012C160.408 94.197 160.204 94.1088 160.038 93.9355C159.868 93.761 159.788 93.4369 159.796 92.9653L159.821 91.5341C159.829 91.0601 159.921 90.739 160.097 90.5729C160.269 90.4033 160.593 90.3232 161.066 90.3315L163.922 90.3811C164.4 90.3894 164.723 90.4807 164.889 90.6565C165.059 90.8285 165.14 91.1527 165.131 91.6265L165.106 93.0579Z" fill="url(#paint74_linear_164_2)"/>
<path d="M165.062 95.0378L164.855 97.9864L163.903 97.9199L163.995 96.6073L162.887 96.5298L162.795 97.8426L161.856 97.7772L161.948 96.4644L160.602 96.3704L160.51 97.6832L159.557 97.6167L159.764 94.6681L165.062 95.0378Z" fill="url(#paint75_linear_164_2)"/>
<path d="M158.989 102.082L164.26 102.728L164.461 101.101L162.101 100.811L164.559 100.3L164.751 98.7426L159.479 98.0966L159.279 99.7243L161.635 100.013L159.18 100.524L158.989 102.082Z" fill="url(#paint76_linear_164_2)"/>
<path d="M164.079 103.308L163.394 107.184L162.454 107.019L162.654 105.888L158.363 105.133L158.649 103.518L162.939 104.273L163.139 103.142L164.079 103.308Z" fill="url(#paint77_linear_164_2)"/>
<path fill-rule="evenodd" clip-rule="evenodd" d="M162.457 110.53C162.335 110.986 162.168 111.275 161.956 111.396C161.746 111.516 161.411 111.514 160.952 111.391L160.803 111.352C160.402 111.244 160.143 111.122 160.026 110.984C159.912 110.851 159.875 110.582 159.916 110.178C159.747 110.548 159.579 110.761 159.411 110.82C159.24 110.881 159.067 110.887 158.892 110.84L157.81 110.551C157.446 110.454 157.171 110.41 156.988 110.421L157.413 108.837C157.615 108.831 157.906 108.879 158.286 108.981L159.375 109.272C159.41 109.281 159.441 109.27 159.466 109.238L159.607 108.716L157.59 108.177L158.016 106.593L163.146 107.965L162.457 110.53ZM161.556 109.855C161.615 109.871 161.651 109.851 161.666 109.794L161.798 109.302L160.468 108.947L160.336 109.439C160.321 109.495 160.342 109.53 160.397 109.545L161.556 109.855Z" fill="url(#paint78_linear_164_2)"/>
<path fill-rule="evenodd" clip-rule="evenodd" d="M161.542 113.486L156.872 110.677L156.4 112.128L157.526 112.735L157.226 113.657L155.956 113.492L155.485 114.938L160.917 115.405L161.542 113.486ZM158.375 113.187L159.877 114.007L158.18 113.787L158.375 113.187Z" fill="url(#paint79_linear_164_2)"/>
<path d="M160.226 117.059L159.637 118.59L155.893 117.156L155.42 118.384L154.206 117.919L155.268 115.16L160.226 117.059Z" fill="url(#paint80_linear_164_2)"/>
<path d="M158.925 120.454L158.257 121.952L153.405 119.797L154.073 118.299L158.925 120.454Z" fill="url(#paint81_linear_164_2)"/>
<path d="M157.952 122.564L156.788 121.972L156.105 123.307L153.258 120.082L151.593 123.343L152.752 123.932L153.369 122.724L156.273 125.852L157.952 122.564Z" fill="url(#paint82_linear_164_2)"/>
<path d="M155.982 126.289L154.545 128.874L153.71 128.412L154.35 127.261L153.378 126.724L152.738 127.875L151.916 127.42L152.555 126.269L151.375 125.616L150.735 126.767L149.9 126.305L151.336 123.72L155.982 126.289Z" fill="url(#paint83_linear_164_2)"/>
<path fill-rule="evenodd" clip-rule="evenodd" d="M148.027 129.188C147.979 129.33 147.979 129.503 148.028 129.706C148.124 130.109 148.414 130.462 148.896 130.762L150.732 131.907C151.214 132.207 151.659 132.313 152.064 132.223C152.268 132.178 152.424 132.102 152.531 131.996L154.125 129.451L149.621 126.643L148.027 129.188ZM149.317 129.09C149.267 129.059 149.258 129.02 149.289 128.971L149.56 128.538L152.444 130.337L152.174 130.769C152.143 130.819 152.103 130.828 152.054 130.797L149.317 129.09Z" fill="url(#paint84_linear_164_2)"/>
<path fill-rule="evenodd" clip-rule="evenodd" d="M144.27 134.138C144.207 134.274 144.189 134.446 144.217 134.653C144.27 135.064 144.522 135.445 144.97 135.794L146.676 137.124C147.124 137.473 147.555 137.624 147.967 137.577C148.175 137.553 148.338 137.495 148.456 137.4L150.307 135.036L146.122 131.773L144.27 134.138ZM145.563 134.175C145.517 134.139 145.512 134.099 145.548 134.053L145.863 133.652L148.543 135.741L148.229 136.143C148.193 136.189 148.152 136.194 148.106 136.158L145.563 134.175Z" fill="url(#paint85_linear_164_2)"/>
<path d="M147.469 138.604L146.412 139.86L142.344 136.453L143.4 135.197L147.469 138.604Z" fill="url(#paint86_linear_164_2)"/>
<path d="M144.012 142.317C143.69 142.662 143.406 142.84 143.162 142.847C142.92 142.855 142.625 142.696 142.278 142.373L141.679 141.816L142.8 140.616L143.524 141.29C143.568 141.331 143.61 141.331 143.65 141.288L143.939 140.979C143.979 140.936 143.976 140.895 143.932 140.854L141.571 138.657C141.531 138.62 141.49 138.621 141.45 138.664L141.161 138.973C141.122 139.016 141.123 139.056 141.163 139.093L141.928 139.805L142.13 139.588L142.565 139.992L141.241 141.409L139.293 139.596L139.617 139.249L140.093 139.472C139.892 139.218 139.982 138.88 140.36 138.455L141.106 137.656C141.43 137.309 141.713 137.131 141.953 137.124C142.197 137.114 142.492 137.272 142.837 137.593L144.927 139.538C145.275 139.861 145.453 140.144 145.461 140.388C145.472 140.629 145.314 140.924 144.99 141.27L144.012 142.317Z" fill="url(#paint87_linear_164_2)"/>
<path d="M142.621 143.708L141.439 144.847L137.75 141.035L138.932 139.896L142.621 143.708Z" fill="url(#paint88_linear_164_2)"/>
<path d="M140.994 145.295L138.017 147.877L137.39 147.158L138.259 146.405L135.401 143.124L136.641 142.049L139.499 145.329L140.367 144.576L140.994 145.295Z" fill="url(#paint89_linear_164_2)"/>
<path fill-rule="evenodd" clip-rule="evenodd" d="M137.016 148.643L134.632 143.749L133.444 144.709L134.058 145.83L133.303 146.44L132.328 145.612L131.143 146.569L135.445 149.912L137.016 148.643ZM134.523 146.671L135.335 148.174L134.032 147.068L134.523 146.671Z" fill="url(#paint90_linear_164_2)"/>
<path d="M133.907 150.945L132.578 151.909L130.221 148.672L129.154 149.445L128.389 148.395L130.785 146.658L133.907 150.945Z" fill="url(#paint91_linear_164_2)"/>
<path d="M126.885 155.412C126.476 155.648 126.153 155.735 125.918 155.671C125.685 155.61 125.508 155.472 125.385 155.261L124.823 154.288L126.246 153.468L126.726 154.299C126.757 154.351 126.796 154.363 126.847 154.334L127.214 154.122C127.265 154.093 127.275 154.053 127.244 154L125.631 151.212C125.603 151.163 125.564 151.154 125.513 151.183L125.146 151.394C125.096 151.424 125.085 151.462 125.113 151.51L125.597 152.347L124.174 153.167L123.607 152.188C123.487 151.98 123.458 151.761 123.521 151.529C123.583 151.294 123.82 151.058 124.23 150.822L125.472 150.107C125.884 149.87 126.207 149.782 126.44 149.848C126.675 149.908 126.91 150.143 127.146 150.552L128.575 153.021C128.814 153.433 128.902 153.757 128.836 153.989C128.776 154.223 128.539 154.459 128.128 154.696L126.885 155.412Z" fill="url(#paint92_linear_164_2)"/>
<path d="M121.733 158.058L119.814 154.457C119.592 154.04 119.515 153.717 119.586 153.488C119.657 153.255 119.902 153.027 120.319 152.806L121.586 152.134C122.006 151.911 122.331 151.836 122.562 151.909C122.795 151.977 123.022 152.221 123.244 152.637L125.163 156.238L123.712 157.008L121.711 153.253C121.682 153.2 121.642 153.187 121.588 153.216L121.217 153.413C121.166 153.44 121.154 153.48 121.183 153.533L123.184 157.288L121.733 158.058Z" fill="url(#paint93_linear_164_2)"/>
<path fill-rule="evenodd" clip-rule="evenodd" d="M118.319 159.445C117.881 159.622 117.549 159.663 117.325 159.567C117.102 159.472 116.902 159.203 116.724 158.764L116.666 158.622C116.511 158.237 116.453 157.958 116.492 157.781C116.531 157.61 116.724 157.419 117.071 157.209C116.675 157.297 116.402 157.291 116.254 157.193C116.103 157.093 115.993 156.959 115.925 156.791L115.506 155.755C115.364 155.406 115.234 155.161 115.115 155.021L116.639 154.407C116.765 154.564 116.902 154.825 117.049 155.189L117.471 156.232C117.485 156.266 117.513 156.283 117.553 156.285L118.056 156.082L117.274 154.151L118.797 153.537L120.787 158.45L118.319 159.445ZM118.317 158.321C118.34 158.377 118.378 158.394 118.432 158.372L118.906 158.181L118.39 156.907L117.916 157.098C117.862 157.12 117.847 157.158 117.868 157.211L118.317 158.321Z" fill="url(#paint94_linear_164_2)"/>
<path fill-rule="evenodd" clip-rule="evenodd" d="M113.874 161.044C113.427 161.197 113.093 161.221 112.874 161.114C112.657 161.007 112.471 160.728 112.316 160.28L112.266 160.135C112.131 159.743 112.088 159.46 112.136 159.286C112.184 159.118 112.387 158.937 112.745 158.745C112.344 158.812 112.072 158.792 111.929 158.686C111.783 158.579 111.681 158.439 111.622 158.268L111.257 157.212C111.135 156.856 111.017 156.604 110.905 156.459L112.459 155.925C112.577 156.088 112.7 156.356 112.829 156.727L113.195 157.79C113.207 157.825 113.234 157.844 113.274 157.847L113.787 157.671L113.107 155.702L114.661 155.168L116.39 160.179L113.874 161.044ZM113.93 159.921C113.95 159.978 113.987 159.997 114.042 159.978L114.525 159.812L114.077 158.513L113.594 158.678C113.539 158.697 113.521 158.735 113.54 158.789L113.93 159.921Z" fill="url(#paint95_linear_164_2)"/>
<path d="M111.846 161.679L108.998 162.494L108.735 161.578L110.003 161.215L109.697 160.15L108.429 160.512L108.17 159.61L109.437 159.248L109.065 157.953L107.797 158.316L107.534 157.4L110.382 156.585L111.846 161.679Z" fill="url(#paint96_linear_164_2)"/>
<path d="M103.106 158.333L104.301 163.497L105.902 163.128L105.367 160.817L106.689 162.947L108.222 162.594L107.027 157.43L105.426 157.799L105.96 160.107L104.639 157.98L103.106 158.333Z" fill="url(#paint97_linear_164_2)"/>
<path d="M100.761 164.027C100.293 164.093 99.9609 164.053 99.7665 163.906C99.5739 163.762 99.461 163.568 99.427 163.327L99.2704 162.215L100.898 161.986L101.032 162.936C101.04 162.996 101.073 163.021 101.131 163.013L101.55 162.954C101.608 162.946 101.632 162.913 101.624 162.853L101.175 159.664C101.167 159.608 101.135 159.585 101.077 159.593L100.657 159.652C100.599 159.66 100.575 159.691 100.582 159.747L100.717 160.704L99.0899 160.933L98.932 159.812C98.8986 159.575 98.954 159.361 99.0994 159.17C99.2455 158.974 99.5539 158.845 100.022 158.779L101.443 158.58C101.913 158.514 102.245 158.554 102.437 158.701C102.632 158.845 102.762 159.151 102.828 159.618L103.225 162.442C103.292 162.913 103.252 163.246 103.104 163.437C102.96 163.632 102.652 163.762 102.182 163.828L100.761 164.027Z" fill="url(#paint98_linear_164_2)"/>
<path d="M97.4463 161.355L98.9657 164.23L97.4153 164.365L96.7334 162.667L96.3596 164.457L94.8103 164.592L95.8053 161.498L95.6042 159.203L97.2451 159.06L97.4463 161.355Z" fill="url(#paint99_linear_164_2)"/>
<path d="M153.675 54.5483C154.123 54.5483 154.486 54.9109 154.486 55.3579C154.486 55.8049 154.123 56.1674 153.675 56.1674C153.227 56.1674 152.863 55.8049 152.863 55.3579C152.863 54.9109 153.227 54.5483 153.675 54.5483Z" fill="url(#paint100_linear_164_2)"/>
<path d="M162.508 80.0131C162.508 79.5661 162.145 79.2035 161.697 79.2035C161.249 79.2035 160.886 79.5661 160.886 80.0131C160.886 80.4601 161.249 80.8226 161.697 80.8226C162.145 80.8226 162.508 80.4601 162.508 80.0131Z" fill="url(#paint101_linear_164_2)"/>
<path d="M29.2655 52.8213C29.7135 52.8213 30.0768 53.1839 30.0768 53.6309C30.0768 54.0779 29.7135 54.4405 29.2655 54.4405C28.8175 54.4405 28.4541 54.0779 28.4541 53.6309C28.4541 53.1839 28.8175 52.8213 29.2655 52.8213Z" fill="url(#paint102_linear_164_2)"/>
<path d="M48.4004 33.7552C48.4004 33.3082 48.037 32.9457 47.5891 32.9457C47.1411 32.9457 46.7777 33.3082 46.7777 33.7552C46.7777 34.2022 47.1411 34.5648 47.5891 34.5648C48.037 34.5648 48.4004 34.2022 48.4004 33.7552Z" fill="url(#paint103_linear_164_2)"/>
<path d="M65.2556 156.472C65.7036 156.472 66.0669 156.834 66.0669 157.281C66.0669 157.728 65.7036 158.091 65.2556 158.091C64.8076 158.091 64.4442 157.728 64.4442 157.281C64.4442 156.834 64.8076 156.472 65.2556 156.472Z" fill="url(#paint104_linear_164_2)"/>
<path d="M92.8387 161.995C92.8387 161.548 92.4754 161.185 92.0274 161.185C91.5794 161.185 91.216 161.548 91.216 161.995C91.216 162.442 91.5794 162.804 92.0274 162.804C92.4754 162.804 92.8387 162.442 92.8387 161.995Z" fill="url(#paint105_linear_164_2)"/>
<defs>
<linearGradient id="paint0_linear_164_2" x1="148.512" y1="196.504" x2="-59.4487" y2="96.297" gradientUnits="userSpaceOnUse">
<stop stop-color="#90C626"/>
<stop offset="1" stop-color="#20934A"/>
</linearGradient>
<linearGradient id="paint1_linear_164_2" x1="144.474" y1="138.316" x2="33.158" y2="42.1579" gradientUnits="userSpaceOnUse">
<stop stop-color="#88C228"/>
<stop offset="1" stop-color="#399E42"/>
</linearGradient>
<linearGradient id="paint2_linear_164_2" x1="144.474" y1="138.316" x2="33.158" y2="42.1579" gradientUnits="userSpaceOnUse">
<stop stop-color="#88C228"/>
<stop offset="1" stop-color="#399E42"/>
</linearGradient>
<linearGradient id="paint3_linear_164_2" x1="144.474" y1="138.316" x2="33.158" y2="42.1579" gradientUnits="userSpaceOnUse">
<stop stop-color="#88C228"/>
<stop offset="1" stop-color="#399E42"/>
</linearGradient>
<linearGradient id="paint4_linear_164_2" x1="144.474" y1="138.316" x2="33.158" y2="42.1579" gradientUnits="userSpaceOnUse">
<stop stop-color="#88C228"/>
<stop offset="1" stop-color="#399E42"/>
</linearGradient>
<linearGradient id="paint5_linear_164_2" x1="144.474" y1="138.316" x2="33.158" y2="42.1579" gradientUnits="userSpaceOnUse">
<stop stop-color="#88C228"/>
<stop offset="1" stop-color="#399E42"/>
</linearGradient>
<linearGradient id="paint6_linear_164_2" x1="144.474" y1="138.316" x2="33.158" y2="42.1579" gradientUnits="userSpaceOnUse">
<stop stop-color="#88C228"/>
<stop offset="1" stop-color="#399E42"/>
</linearGradient>
<linearGradient id="paint7_linear_164_2" x1="144.474" y1="138.316" x2="33.158" y2="42.1579" gradientUnits="userSpaceOnUse">
<stop stop-color="#88C228"/>
<stop offset="1" stop-color="#399E42"/>
</linearGradient>
<linearGradient id="paint8_linear_164_2" x1="144.474" y1="138.316" x2="33.158" y2="42.1579" gradientUnits="userSpaceOnUse">
<stop stop-color="#88C228"/>
<stop offset="1" stop-color="#399E42"/>
</linearGradient>
<linearGradient id="paint9_linear_164_2" x1="144.474" y1="138.316" x2="33.158" y2="42.1579" gradientUnits="userSpaceOnUse">
<stop stop-color="#88C228"/>
<stop offset="1" stop-color="#399E42"/>
</linearGradient>
<linearGradient id="paint10_linear_164_2" x1="144.474" y1="138.316" x2="33.158" y2="42.1579" gradientUnits="userSpaceOnUse">
<stop stop-color="#88C228"/>
<stop offset="1" stop-color="#399E42"/>
</linearGradient>
<linearGradient id="paint11_linear_164_2" x1="144.474" y1="138.316" x2="33.158" y2="42.1579" gradientUnits="userSpaceOnUse">
<stop stop-color="#88C228"/>
<stop offset="1" stop-color="#399E42"/>
</linearGradient>
<linearGradient id="paint12_linear_164_2" x1="144.474" y1="138.316" x2="33.158" y2="42.1579" gradientUnits="userSpaceOnUse">
<stop stop-color="#88C228"/>
<stop offset="1" stop-color="#399E42"/>
</linearGradient>
<linearGradient id="paint13_linear_164_2" x1="144.474" y1="138.316" x2="33.158" y2="42.1579" gradientUnits="userSpaceOnUse">
<stop stop-color="#88C228"/>
<stop offset="1" stop-color="#399E42"/>
</linearGradient>
<linearGradient id="paint14_linear_164_2" x1="144.474" y1="138.316" x2="33.158" y2="42.1579" gradientUnits="userSpaceOnUse">
<stop stop-color="#88C228"/>
<stop offset="1" stop-color="#399E42"/>
</linearGradient>
<linearGradient id="paint15_linear_164_2" x1="144.474" y1="138.316" x2="33.158" y2="42.1579" gradientUnits="userSpaceOnUse">
<stop stop-color="#88C228"/>
<stop offset="1" stop-color="#399E42"/>
</linearGradient>
<linearGradient id="paint16_linear_164_2" x1="144.474" y1="138.316" x2="33.158" y2="42.1579" gradientUnits="userSpaceOnUse">
<stop stop-color="#88C228"/>
<stop offset="1" stop-color="#399E42"/>
</linearGradient>
<linearGradient id="paint17_linear_164_2" x1="144.474" y1="138.316" x2="33.158" y2="42.1579" gradientUnits="userSpaceOnUse">
<stop stop-color="#88C228"/>
<stop offset="1" stop-color="#399E42"/>
</linearGradient>
<linearGradient id="paint18_linear_164_2" x1="144.474" y1="138.316" x2="33.158" y2="42.1579" gradientUnits="userSpaceOnUse">
<stop stop-color="#88C228"/>
<stop offset="1" stop-color="#399E42"/>
</linearGradient>
<linearGradient id="paint19_linear_164_2" x1="144.474" y1="138.316" x2="33.158" y2="42.1579" gradientUnits="userSpaceOnUse">
<stop stop-color="#88C228"/>
<stop offset="1" stop-color="#399E42"/>
</linearGradient>
<linearGradient id="paint20_linear_164_2" x1="144.474" y1="138.316" x2="33.158" y2="42.1579" gradientUnits="userSpaceOnUse">
<stop stop-color="#88C228"/>
<stop offset="1" stop-color="#399E42"/>
</linearGradient>
<linearGradient id="paint21_linear_164_2" x1="144.474" y1="138.316" x2="33.158" y2="42.1579" gradientUnits="userSpaceOnUse">
<stop stop-color="#88C228"/>
<stop offset="1" stop-color="#399E42"/>
</linearGradient>
<linearGradient id="paint22_linear_164_2" x1="144.474" y1="138.316" x2="33.158" y2="42.1579" gradientUnits="userSpaceOnUse">
<stop stop-color="#88C228"/>
<stop offset="1" stop-color="#399E42"/>
</linearGradient>
<linearGradient id="paint23_linear_164_2" x1="144.474" y1="138.316" x2="33.158" y2="42.1579" gradientUnits="userSpaceOnUse">
<stop stop-color="#88C228"/>
<stop offset="1" stop-color="#399E42"/>
</linearGradient>
<linearGradient id="paint24_linear_164_2" x1="144.474" y1="138.316" x2="33.158" y2="42.1579" gradientUnits="userSpaceOnUse">
<stop stop-color="#88C228"/>
<stop offset="1" stop-color="#399E42"/>
</linearGradient>
<linearGradient id="paint25_linear_164_2" x1="144.474" y1="138.316" x2="33.158" y2="42.1579" gradientUnits="userSpaceOnUse">
<stop stop-color="#88C228"/>
<stop offset="1" stop-color="#399E42"/>
</linearGradient>
<linearGradient id="paint26_linear_164_2" x1="144.474" y1="138.316" x2="33.158" y2="42.1579" gradientUnits="userSpaceOnUse">
<stop stop-color="#88C228"/>
<stop offset="1" stop-color="#399E42"/>
</linearGradient>
<linearGradient id="paint27_linear_164_2" x1="144.474" y1="138.316" x2="33.158" y2="42.1579" gradientUnits="userSpaceOnUse">
<stop stop-color="#88C228"/>
<stop offset="1" stop-color="#399E42"/>
</linearGradient>
<linearGradient id="paint28_linear_164_2" x1="144.474" y1="138.316" x2="33.158" y2="42.1579" gradientUnits="userSpaceOnUse">
<stop stop-color="#88C228"/>
<stop offset="1" stop-color="#399E42"/>
</linearGradient>
<linearGradient id="paint29_linear_164_2" x1="144.474" y1="138.316" x2="33.158" y2="42.1579" gradientUnits="userSpaceOnUse">
<stop stop-color="#88C228"/>
<stop offset="1" stop-color="#399E42"/>
</linearGradient>
<linearGradient id="paint30_linear_164_2" x1="144.474" y1="138.316" x2="33.158" y2="42.1579" gradientUnits="userSpaceOnUse">
<stop stop-color="#88C228"/>
<stop offset="1" stop-color="#399E42"/>
</linearGradient>
<linearGradient id="paint31_linear_164_2" x1="144.474" y1="138.316" x2="33.158" y2="42.1579" gradientUnits="userSpaceOnUse">
<stop stop-color="#88C228"/>
<stop offset="1" stop-color="#399E42"/>
</linearGradient>
<linearGradient id="paint32_linear_164_2" x1="144.474" y1="138.316" x2="33.158" y2="42.1579" gradientUnits="userSpaceOnUse">
<stop stop-color="#88C228"/>
<stop offset="1" stop-color="#399E42"/>
</linearGradient>
<linearGradient id="paint33_linear_164_2" x1="144.474" y1="138.316" x2="33.158" y2="42.1579" gradientUnits="userSpaceOnUse">
<stop stop-color="#88C228"/>
<stop offset="1" stop-color="#399E42"/>
</linearGradient>
<linearGradient id="paint34_linear_164_2" x1="144.474" y1="138.316" x2="33.158" y2="42.1579" gradientUnits="userSpaceOnUse">
<stop stop-color="#88C228"/>
<stop offset="1" stop-color="#399E42"/>
</linearGradient>
<linearGradient id="paint35_linear_164_2" x1="144.474" y1="138.316" x2="33.158" y2="42.1579" gradientUnits="userSpaceOnUse">
<stop stop-color="#88C228"/>
<stop offset="1" stop-color="#399E42"/>
</linearGradient>
<linearGradient id="paint36_linear_164_2" x1="144.474" y1="138.316" x2="33.158" y2="42.1579" gradientUnits="userSpaceOnUse">
<stop stop-color="#88C228"/>
<stop offset="1" stop-color="#399E42"/>
</linearGradient>
<linearGradient id="paint37_linear_164_2" x1="144.474" y1="138.316" x2="33.158" y2="42.1579" gradientUnits="userSpaceOnUse">
<stop stop-color="#88C228"/>
<stop offset="1" stop-color="#399E42"/>
</linearGradient>
<linearGradient id="paint38_linear_164_2" x1="144.474" y1="138.316" x2="33.158" y2="42.1579" gradientUnits="userSpaceOnUse">
<stop stop-color="#88C228"/>
<stop offset="1" stop-color="#399E42"/>
</linearGradient>
<linearGradient id="paint39_linear_164_2" x1="144.474" y1="138.316" x2="33.158" y2="42.1579" gradientUnits="userSpaceOnUse">
<stop stop-color="#88C228"/>
<stop offset="1" stop-color="#399E42"/>
</linearGradient>
<linearGradient id="paint40_linear_164_2" x1="144.474" y1="138.316" x2="33.158" y2="42.1579" gradientUnits="userSpaceOnUse">
<stop stop-color="#88C228"/>
<stop offset="1" stop-color="#399E42"/>
</linearGradient>
<linearGradient id="paint41_linear_164_2" x1="144.474" y1="138.316" x2="33.158" y2="42.1579" gradientUnits="userSpaceOnUse">
<stop stop-color="#88C228"/>
<stop offset="1" stop-color="#399E42"/>
</linearGradient>
<linearGradient id="paint42_linear_164_2" x1="144.474" y1="138.316" x2="33.158" y2="42.1579" gradientUnits="userSpaceOnUse">
<stop stop-color="#88C228"/>
<stop offset="1" stop-color="#399E42"/>
</linearGradient>
<linearGradient id="paint43_linear_164_2" x1="144.474" y1="138.316" x2="33.158" y2="42.1579" gradientUnits="userSpaceOnUse">
<stop stop-color="#88C228"/>
<stop offset="1" stop-color="#399E42"/>
</linearGradient>
<linearGradient id="paint44_linear_164_2" x1="144.474" y1="138.316" x2="33.158" y2="42.1579" gradientUnits="userSpaceOnUse">
<stop stop-color="#88C228"/>
<stop offset="1" stop-color="#399E42"/>
</linearGradient>
<linearGradient id="paint45_linear_164_2" x1="144.474" y1="138.316" x2="33.158" y2="42.1579" gradientUnits="userSpaceOnUse">
<stop stop-color="#88C228"/>
<stop offset="1" stop-color="#399E42"/>
</linearGradient>
<linearGradient id="paint46_linear_164_2" x1="144.474" y1="138.316" x2="33.158" y2="42.1579" gradientUnits="userSpaceOnUse">
<stop stop-color="#88C228"/>
<stop offset="1" stop-color="#399E42"/>
</linearGradient>
<linearGradient id="paint47_linear_164_2" x1="144.474" y1="138.316" x2="33.158" y2="42.1579" gradientUnits="userSpaceOnUse">
<stop stop-color="#88C228"/>
<stop offset="1" stop-color="#399E42"/>
</linearGradient>
<linearGradient id="paint48_linear_164_2" x1="144.474" y1="138.316" x2="33.158" y2="42.1579" gradientUnits="userSpaceOnUse">
<stop stop-color="#88C228"/>
<stop offset="1" stop-color="#399E42"/>
</linearGradient>
<linearGradient id="paint49_linear_164_2" x1="144.474" y1="138.316" x2="33.158" y2="42.1579" gradientUnits="userSpaceOnUse">
<stop stop-color="#88C228"/>
<stop offset="1" stop-color="#399E42"/>
</linearGradient>
<linearGradient id="paint50_linear_164_2" x1="144.474" y1="138.316" x2="33.158" y2="42.1579" gradientUnits="userSpaceOnUse">
<stop stop-color="#88C228"/>
<stop offset="1" stop-color="#399E42"/>
</linearGradient>
<linearGradient id="paint51_linear_164_2" x1="144.474" y1="138.316" x2="33.158" y2="42.1579" gradientUnits="userSpaceOnUse">
<stop stop-color="#88C228"/>
<stop offset="1" stop-color="#399E42"/>
</linearGradient>
<linearGradient id="paint52_linear_164_2" x1="144.474" y1="138.316" x2="33.158" y2="42.1579" gradientUnits="userSpaceOnUse">
<stop stop-color="#88C228"/>
<stop offset="1" stop-color="#399E42"/>
</linearGradient>
<linearGradient id="paint53_linear_164_2" x1="144.474" y1="138.316" x2="33.158" y2="42.1579" gradientUnits="userSpaceOnUse">
<stop stop-color="#88C228"/>
<stop offset="1" stop-color="#399E42"/>
</linearGradient>
<linearGradient id="paint54_linear_164_2" x1="144.474" y1="138.316" x2="33.158" y2="42.1579" gradientUnits="userSpaceOnUse">
<stop stop-color="#88C228"/>
<stop offset="1" stop-color="#399E42"/>
</linearGradient>
<linearGradient id="paint55_linear_164_2" x1="144.474" y1="138.316" x2="33.158" y2="42.1579" gradientUnits="userSpaceOnUse">
<stop stop-color="#88C228"/>
<stop offset="1" stop-color="#399E42"/>
</linearGradient>
<linearGradient id="paint56_linear_164_2" x1="144.474" y1="138.316" x2="33.158" y2="42.1579" gradientUnits="userSpaceOnUse">
<stop stop-color="#88C228"/>
<stop offset="1" stop-color="#399E42"/>
</linearGradient>
<linearGradient id="paint57_linear_164_2" x1="144.474" y1="138.316" x2="33.158" y2="42.1579" gradientUnits="userSpaceOnUse">
<stop stop-color="#88C228"/>
<stop offset="1" stop-color="#399E42"/>
</linearGradient>
<linearGradient id="paint58_linear_164_2" x1="144.474" y1="138.316" x2="33.158" y2="42.1579" gradientUnits="userSpaceOnUse">
<stop stop-color="#88C228"/>
<stop offset="1" stop-color="#399E42"/>
</linearGradient>
<linearGradient id="paint59_linear_164_2" x1="144.474" y1="138.316" x2="33.158" y2="42.1579" gradientUnits="userSpaceOnUse">
<stop stop-color="#88C228"/>
<stop offset="1" stop-color="#399E42"/>
</linearGradient>
<linearGradient id="paint60_linear_164_2" x1="144.474" y1="138.316" x2="33.158" y2="42.1579" gradientUnits="userSpaceOnUse">
<stop stop-color="#88C228"/>
<stop offset="1" stop-color="#399E42"/>
</linearGradient>
<linearGradient id="paint61_linear_164_2" x1="144.474" y1="138.316" x2="33.158" y2="42.1579" gradientUnits="userSpaceOnUse">
<stop stop-color="#88C228"/>
<stop offset="1" stop-color="#399E42"/>
</linearGradient>
<linearGradient id="paint62_linear_164_2" x1="144.474" y1="138.316" x2="33.158" y2="42.1579" gradientUnits="userSpaceOnUse">
<stop stop-color="#88C228"/>
<stop offset="1" stop-color="#399E42"/>
</linearGradient>
<linearGradient id="paint63_linear_164_2" x1="144.474" y1="138.316" x2="33.158" y2="42.1579" gradientUnits="userSpaceOnUse">
<stop stop-color="#88C228"/>
<stop offset="1" stop-color="#399E42"/>
</linearGradient>
<linearGradient id="paint64_linear_164_2" x1="144.474" y1="138.316" x2="33.158" y2="42.1579" gradientUnits="userSpaceOnUse">
<stop stop-color="#88C228"/>
<stop offset="1" stop-color="#399E42"/>
</linearGradient>
<linearGradient id="paint65_linear_164_2" x1="144.474" y1="138.316" x2="33.158" y2="42.1579" gradientUnits="userSpaceOnUse">
<stop stop-color="#88C228"/>
<stop offset="1" stop-color="#399E42"/>
</linearGradient>
<linearGradient id="paint66_linear_164_2" x1="144.474" y1="138.316" x2="33.158" y2="42.1579" gradientUnits="userSpaceOnUse">
<stop stop-color="#88C228"/>
<stop offset="1" stop-color="#399E42"/>
</linearGradient>
<linearGradient id="paint67_linear_164_2" x1="144.474" y1="138.316" x2="33.158" y2="42.1579" gradientUnits="userSpaceOnUse">
<stop stop-color="#88C228"/>
<stop offset="1" stop-color="#399E42"/>
</linearGradient>
<linearGradient id="paint68_linear_164_2" x1="144.474" y1="138.316" x2="33.158" y2="42.1579" gradientUnits="userSpaceOnUse">
<stop stop-color="#88C228"/>
<stop offset="1" stop-color="#399E42"/>
</linearGradient>
<linearGradient id="paint69_linear_164_2" x1="144.474" y1="138.316" x2="33.158" y2="42.1579" gradientUnits="userSpaceOnUse">
<stop stop-color="#88C228"/>
<stop offset="1" stop-color="#399E42"/>
</linearGradient>
<linearGradient id="paint70_linear_164_2" x1="144.474" y1="138.316" x2="33.158" y2="42.1579" gradientUnits="userSpaceOnUse">
<stop stop-color="#88C228"/>
<stop offset="1" stop-color="#399E42"/>
</linearGradient>
<linearGradient id="paint71_linear_164_2" x1="144.474" y1="138.316" x2="33.158" y2="42.1579" gradientUnits="userSpaceOnUse">
<stop stop-color="#88C228"/>
<stop offset="1" stop-color="#399E42"/>
</linearGradient>
<linearGradient id="paint72_linear_164_2" x1="144.474" y1="138.316" x2="33.158" y2="42.1579" gradientUnits="userSpaceOnUse">
<stop stop-color="#88C228"/>
<stop offset="1" stop-color="#399E42"/>
</linearGradient>
<linearGradient id="paint73_linear_164_2" x1="144.474" y1="138.316" x2="33.158" y2="42.1579" gradientUnits="userSpaceOnUse">
<stop stop-color="#88C228"/>
<stop offset="1" stop-color="#399E42"/>
</linearGradient>
<linearGradient id="paint74_linear_164_2" x1="144.474" y1="138.316" x2="33.158" y2="42.1579" gradientUnits="userSpaceOnUse">
<stop stop-color="#88C228"/>
<stop offset="1" stop-color="#399E42"/>
</linearGradient>
<linearGradient id="paint75_linear_164_2" x1="144.474" y1="138.316" x2="33.158" y2="42.1579" gradientUnits="userSpaceOnUse">
<stop stop-color="#88C228"/>
<stop offset="1" stop-color="#399E42"/>
</linearGradient>
<linearGradient id="paint76_linear_164_2" x1="144.474" y1="138.316" x2="33.158" y2="42.1579" gradientUnits="userSpaceOnUse">
<stop stop-color="#88C228"/>
<stop offset="1" stop-color="#399E42"/>
</linearGradient>
<linearGradient id="paint77_linear_164_2" x1="144.474" y1="138.316" x2="33.158" y2="42.1579" gradientUnits="userSpaceOnUse">
<stop stop-color="#88C228"/>
<stop offset="1" stop-color="#399E42"/>
</linearGradient>
<linearGradient id="paint78_linear_164_2" x1="144.474" y1="138.316" x2="33.158" y2="42.1579" gradientUnits="userSpaceOnUse">
<stop stop-color="#88C228"/>
<stop offset="1" stop-color="#399E42"/>
</linearGradient>
<linearGradient id="paint79_linear_164_2" x1="144.474" y1="138.316" x2="33.158" y2="42.1579" gradientUnits="userSpaceOnUse">
<stop stop-color="#88C228"/>
<stop offset="1" stop-color="#399E42"/>
</linearGradient>
<linearGradient id="paint80_linear_164_2" x1="144.474" y1="138.316" x2="33.158" y2="42.1579" gradientUnits="userSpaceOnUse">
<stop stop-color="#88C228"/>
<stop offset="1" stop-color="#399E42"/>
</linearGradient>
<linearGradient id="paint81_linear_164_2" x1="144.474" y1="138.316" x2="33.158" y2="42.1579" gradientUnits="userSpaceOnUse">
<stop stop-color="#88C228"/>
<stop offset="1" stop-color="#399E42"/>
</linearGradient>
<linearGradient id="paint82_linear_164_2" x1="144.474" y1="138.316" x2="33.158" y2="42.1579" gradientUnits="userSpaceOnUse">
<stop stop-color="#88C228"/>
<stop offset="1" stop-color="#399E42"/>
</linearGradient>
<linearGradient id="paint83_linear_164_2" x1="144.474" y1="138.316" x2="33.158" y2="42.1579" gradientUnits="userSpaceOnUse">
<stop stop-color="#88C228"/>
<stop offset="1" stop-color="#399E42"/>
</linearGradient>
<linearGradient id="paint84_linear_164_2" x1="144.474" y1="138.316" x2="33.158" y2="42.1579" gradientUnits="userSpaceOnUse">
<stop stop-color="#88C228"/>
<stop offset="1" stop-color="#399E42"/>
</linearGradient>
<linearGradient id="paint85_linear_164_2" x1="144.474" y1="138.316" x2="33.158" y2="42.1579" gradientUnits="userSpaceOnUse">
<stop stop-color="#88C228"/>
<stop offset="1" stop-color="#399E42"/>
</linearGradient>
<linearGradient id="paint86_linear_164_2" x1="144.474" y1="138.316" x2="33.158" y2="42.1579" gradientUnits="userSpaceOnUse">
<stop stop-color="#88C228"/>
<stop offset="1" stop-color="#399E42"/>
</linearGradient>
<linearGradient id="paint87_linear_164_2" x1="144.474" y1="138.316" x2="33.158" y2="42.1579" gradientUnits="userSpaceOnUse">
<stop stop-color="#88C228"/>
<stop offset="1" stop-color="#399E42"/>
</linearGradient>
<linearGradient id="paint88_linear_164_2" x1="144.474" y1="138.316" x2="33.158" y2="42.1579" gradientUnits="userSpaceOnUse">
<stop stop-color="#88C228"/>
<stop offset="1" stop-color="#399E42"/>
</linearGradient>
<linearGradient id="paint89_linear_164_2" x1="144.474" y1="138.316" x2="33.158" y2="42.1579" gradientUnits="userSpaceOnUse">
<stop stop-color="#88C228"/>
<stop offset="1" stop-color="#399E42"/>
</linearGradient>
<linearGradient id="paint90_linear_164_2" x1="144.474" y1="138.316" x2="33.158" y2="42.1579" gradientUnits="userSpaceOnUse">
<stop stop-color="#88C228"/>
<stop offset="1" stop-color="#399E42"/>
</linearGradient>
<linearGradient id="paint91_linear_164_2" x1="144.474" y1="138.316" x2="33.158" y2="42.1579" gradientUnits="userSpaceOnUse">
<stop stop-color="#88C228"/>
<stop offset="1" stop-color="#399E42"/>
</linearGradient>
<linearGradient id="paint92_linear_164_2" x1="144.474" y1="138.316" x2="33.158" y2="42.1579" gradientUnits="userSpaceOnUse">
<stop stop-color="#88C228"/>
<stop offset="1" stop-color="#399E42"/>
</linearGradient>
<linearGradient id="paint93_linear_164_2" x1="144.474" y1="138.316" x2="33.158" y2="42.1579" gradientUnits="userSpaceOnUse">
<stop stop-color="#88C228"/>
<stop offset="1" stop-color="#399E42"/>
</linearGradient>
<linearGradient id="paint94_linear_164_2" x1="144.474" y1="138.316" x2="33.158" y2="42.1579" gradientUnits="userSpaceOnUse">
<stop stop-color="#88C228"/>
<stop offset="1" stop-color="#399E42"/>
</linearGradient>
<linearGradient id="paint95_linear_164_2" x1="144.474" y1="138.316" x2="33.158" y2="42.1579" gradientUnits="userSpaceOnUse">
<stop stop-color="#88C228"/>
<stop offset="1" stop-color="#399E42"/>
</linearGradient>
<linearGradient id="paint96_linear_164_2" x1="144.474" y1="138.316" x2="33.158" y2="42.1579" gradientUnits="userSpaceOnUse">
<stop stop-color="#88C228"/>
<stop offset="1" stop-color="#399E42"/>
</linearGradient>
<linearGradient id="paint97_linear_164_2" x1="144.474" y1="138.316" x2="33.158" y2="42.1579" gradientUnits="userSpaceOnUse">
<stop stop-color="#88C228"/>
<stop offset="1" stop-color="#399E42"/>
</linearGradient>
<linearGradient id="paint98_linear_164_2" x1="144.474" y1="138.316" x2="33.158" y2="42.1579" gradientUnits="userSpaceOnUse">
<stop stop-color="#88C228"/>
<stop offset="1" stop-color="#399E42"/>
</linearGradient>
<linearGradient id="paint99_linear_164_2" x1="144.474" y1="138.316" x2="33.158" y2="42.1579" gradientUnits="userSpaceOnUse">
<stop stop-color="#88C228"/>
<stop offset="1" stop-color="#399E42"/>
</linearGradient>
<linearGradient id="paint100_linear_164_2" x1="144.474" y1="138.316" x2="33.158" y2="42.1579" gradientUnits="userSpaceOnUse">
<stop stop-color="#88C228"/>
<stop offset="1" stop-color="#399E42"/>
</linearGradient>
<linearGradient id="paint101_linear_164_2" x1="144.474" y1="138.316" x2="33.158" y2="42.1579" gradientUnits="userSpaceOnUse">
<stop stop-color="#88C228"/>
<stop offset="1" stop-color="#399E42"/>
</linearGradient>
<linearGradient id="paint102_linear_164_2" x1="144.474" y1="138.316" x2="33.158" y2="42.1579" gradientUnits="userSpaceOnUse">
<stop stop-color="#88C228"/>
<stop offset="1" stop-color="#399E42"/>
</linearGradient>
<linearGradient id="paint103_linear_164_2" x1="144.474" y1="138.316" x2="33.158" y2="42.1579" gradientUnits="userSpaceOnUse">
<stop stop-color="#88C228"/>
<stop offset="1" stop-color="#399E42"/>
</linearGradient>
<linearGradient id="paint104_linear_164_2" x1="144.474" y1="138.316" x2="33.158" y2="42.1579" gradientUnits="userSpaceOnUse">
<stop stop-color="#88C228"/>
<stop offset="1" stop-color="#399E42"/>
</linearGradient>
<linearGradient id="paint105_linear_164_2" x1="144.474" y1="138.316" x2="33.158" y2="42.1579" gradientUnits="userSpaceOnUse">
<stop stop-color="#88C228"/>
<stop offset="1" stop-color="#399E42"/>
</linearGradient>
</defs>
</svg>
